<svg width="1920" height="1400" viewBox="0 0 1920 1400" fill="none" xmlns="http://www.w3.org/2000/svg">
<path opacity="0.05" d="M389.669 129.371C252.018 92.0902 76.9393 135.168 0 161.367V0H904H1151C1153.5 120.835 1659.5 43.2617 1786 161.367C1912.5 279.471 1764 652.408 1411.5 524.612C1059 396.815 857.5 766.281 904 913.47C950.5 1060.66 1103 870.209 1351 838.881C1599 807.554 1633 971.649 1676.5 1196.41C1711.3 1376.22 1850.51 1399.84 1920 1389.35C1850.75 1416.48 1709.53 1389.7 1594.82 1332.67C1480.11 1275.63 1398.97 1283.98 1176.55 1267.28C954.124 1250.59 428.838 1337.53 431.636 1082.96C434.434 828.395 750.584 888.212 836.617 573.13C922.649 258.048 561.733 175.973 389.669 129.371Z" fill="#43C6AC"/>
</svg>
