<svg width="58" height="58" viewBox="0 0 58 58" fill="none" xmlns="http://www.w3.org/2000/svg">
<path d="M46.1055 0H11.8945C5.33589 0 0 5.33589 0 11.8945V46.1055C0 52.6641 5.33589 58 11.8945 58H46.1055C52.6641 58 58 52.6641 58 46.1055V11.8945C58 5.33589 52.6641 0 46.1055 0ZM32.3984 47.3516H25.6016V43.9531H32.3984V47.3516ZM37.2119 32.3679C34.8671 34.4238 33.2428 37.1773 32.4865 40.2027L32.3984 40.5547H30.6992V27.9805H34.6641V24.582H23.3359V27.9805H27.3008V40.5547H25.6016L25.5135 40.2028C24.744 37.1248 23.0278 34.384 20.669 32.262C18.1336 29.9812 16.5391 26.675 16.5391 22.9961C16.5391 16.1001 22.2252 10.4701 29.121 10.5357C35.9472 10.6006 41.4609 16.1544 41.4609 22.9961C41.4609 26.7322 39.8164 30.0841 37.2119 32.3679Z" fill="black"/>
</svg>
