<svg width="58" height="58" viewBox="0 0 58 58" fill="none" xmlns="http://www.w3.org/2000/svg">
<path d="M46.1055 0H11.8945C5.33589 0 0 5.33589 0 11.8945V46.1055C0 52.6641 5.33589 58 11.8945 58H46.1055C52.6641 58 58 52.6641 58 46.1055V11.8945C58 5.33589 52.6641 0 46.1055 0ZM14.5907 31.6332C11.4023 30.2296 9.17578 27.0432 9.17578 23.3359C9.17578 18.3308 13.2332 14.2734 18.2383 14.2734C21.3661 14.2734 24.122 15.859 25.7502 18.2694C21.037 19.789 17.5411 24.0448 17.1433 29.1566C16.1247 29.7957 15.2563 30.6439 14.5907 31.6332ZM40.8945 41.4609C38.1791 41.4609 23.6649 41.4609 21.6367 41.4609C18.8213 41.4609 16.5391 39.1787 16.5391 36.3633C16.5391 33.9066 18.2771 31.8562 20.5906 31.3735C20.5349 30.9677 20.5039 30.554 20.5039 30.1328C20.5039 25.1277 24.5613 21.0703 29.5664 21.0703C33.9516 21.0703 37.609 24.1851 38.4478 28.3229C39.2072 28.0296 40.0317 27.8672 40.8945 27.8672C44.6483 27.8672 47.6914 30.9103 47.6914 34.6641C47.6914 38.4179 44.6483 41.4609 40.8945 41.4609Z" fill="black"/>
</svg>
