<svg width="58" height="58" viewBox="0 0 58 58" fill="none" xmlns="http://www.w3.org/2000/svg">
<path fill-rule="evenodd" clip-rule="evenodd" d="M58 10C58 4.47715 53.5229 0 48 0H10C4.47715 0 0 4.47715 0 10V48C0 53.5228 4.47715 58 10 58H48C53.5228 58 58 53.5229 58 48V10ZM44.0733 11.3889C44.7575 10.7047 45.8669 10.7047 46.5511 11.3889C47.2354 12.0731 47.2354 13.1825 46.5511 13.8667L13.8882 46.5297C13.2039 47.2139 12.0946 47.2139 11.4104 46.5297C10.7261 45.8454 10.7261 44.7361 11.4104 44.0519L44.0733 11.3889ZM18.3665 25.1334C22.1037 25.1334 25.1332 22.1038 25.1332 18.3667C25.1332 14.6296 22.1037 11.6 18.3665 11.6C14.6294 11.6 11.5999 14.6296 11.5999 18.3667C11.5999 22.1038 14.6294 25.1334 18.3665 25.1334ZM39.633 46.4C43.3702 46.4 46.3997 43.3705 46.3997 39.6333C46.3997 35.8962 43.3702 32.8667 39.633 32.8667C35.8959 32.8667 32.8664 35.8962 32.8664 39.6333C32.8664 43.3705 35.8959 46.4 39.633 46.4Z" fill="#252525"/>
</svg>
