<svg width="100" height="32" viewBox="0 0 100 32" fill="none" xmlns="http://www.w3.org/2000/svg">
<g clip-path="url(#clip0)">
<path d="M47.6847 21.3951C46.2871 21.3951 45.1087 20.9272 44.1769 19.9638C43.2452 19.0005 42.7793 17.8169 42.7793 16.4407C42.7793 15.037 43.2452 13.8534 44.1769 12.9176C45.1087 11.9542 46.2597 11.4863 47.6025 11.4863C49.0276 11.4863 50.1512 11.9818 51.0007 12.9726C51.8502 13.9635 52.2887 15.2572 52.2887 16.8536H44.5058C44.588 17.7619 44.9443 18.4775 45.5746 19.028C46.1775 19.5785 46.9174 19.8537 47.7395 19.8537C48.8357 19.8537 49.7675 19.4684 50.5348 18.6977L51.6036 19.8537C50.5622 20.8721 49.2742 21.3951 47.6847 21.3951ZM47.4655 12.9726C46.8078 12.9726 46.2049 13.1653 45.6568 13.5782C45.1087 13.991 44.725 14.5966 44.5606 15.3673H50.3978C50.2882 14.5966 49.9593 13.991 49.4112 13.5782C48.8631 13.1653 48.2328 12.9726 47.4655 12.9726Z" fill="#222222"/>
<path d="M52.7271 21.2297L56.4541 16.3304L52.9189 11.5962H54.8098L57.4681 15.1468L60.0989 11.5962H61.9898L58.4272 16.3304L62.1543 21.2297H60.2359L57.4133 17.4864L54.5906 21.2297H52.7271Z" fill="#222222"/>
<path d="M67.5807 21.3951C66.1831 21.3951 65.0047 20.9272 64.0729 19.9638C63.1412 19.0005 62.6753 17.8169 62.6753 16.4407C62.6753 15.037 63.1412 13.8534 64.0729 12.9176C65.0047 11.9542 66.1831 11.4863 67.5807 11.4863C69.0332 11.4863 70.2664 11.9818 71.253 13.0002L70.1842 14.1562C69.4443 13.413 68.5673 13.0277 67.5807 13.0277C66.649 13.0277 65.8816 13.358 65.2787 14.0186C64.6758 14.6792 64.3744 15.4774 64.3744 16.4407C64.3744 17.4041 64.6758 18.2023 65.2787 18.8629C65.8816 19.5234 66.649 19.8537 67.5807 19.8537C68.5673 19.8537 69.4443 19.4684 70.1842 18.7252L71.253 19.8813C70.2664 20.8721 69.0332 21.3951 67.5807 21.3951Z" fill="#222222"/>
<path d="M80.9267 19.9638C79.995 20.9272 78.7892 21.3951 77.3641 21.3951C75.9391 21.3951 74.7333 20.9272 73.8015 19.9638C72.8423 19.0005 72.3765 17.8169 72.3765 16.4407C72.3765 15.037 72.8423 13.8534 73.8015 12.9176C74.7607 11.9542 75.9391 11.4863 77.3641 11.4863C78.7892 11.4863 79.995 11.9542 80.9267 12.9176C81.8585 13.8809 82.3244 15.0645 82.3244 16.4407C82.3518 17.8169 81.8859 19.0005 80.9267 19.9638ZM75.0073 18.8629C75.6102 19.5234 76.405 19.8537 77.3641 19.8537C78.3233 19.8537 79.118 19.5234 79.7209 18.8904C80.3238 18.2573 80.6253 17.4316 80.6253 16.4407C80.6253 15.4774 80.3238 14.6516 79.7209 13.991C79.118 13.3305 78.3233 13.0277 77.3641 13.0277C76.405 13.0277 75.6102 13.358 75.0073 14.0186C74.4044 14.6792 74.0756 15.4774 74.0756 16.4407C74.0756 17.4041 74.4044 18.2023 75.0073 18.8629Z" fill="#222222"/>
<path d="M84.5986 21.2298V11.5962H86.2429V12.7523C86.9006 11.9265 87.7776 11.5137 88.9012 11.5137C89.1478 11.5137 89.3671 11.5412 89.5863 11.5687V13.2752C89.3122 13.1927 89.0108 13.1651 88.6545 13.1651C88.1064 13.1651 87.6406 13.3028 87.2021 13.5505C86.7636 13.8257 86.4622 14.1835 86.2429 14.679V21.2298H84.5986Z" fill="#222222"/>
<path d="M100 21.2299H98.356V20.2666C97.5613 21.0097 96.5473 21.3951 95.3141 21.3951C93.9165 21.3951 92.7381 20.9271 91.8063 19.9638C90.8746 19.0004 90.4087 17.8169 90.4087 16.4407C90.4087 15.0369 90.8746 13.8534 91.8063 12.9175C92.7381 11.9542 93.8891 11.4863 95.3141 11.4863C96.5473 11.4863 97.5613 11.8716 98.356 12.6148V7.55029H100V21.2299ZM95.3415 13.0001C94.4098 13.0001 93.6424 13.3304 93.0395 13.991C92.4366 14.6516 92.1352 15.4498 92.1352 16.4131C92.1352 17.3765 92.4366 18.1747 93.0395 18.8353C93.6424 19.4959 94.4098 19.8262 95.3415 19.8262C95.9992 19.8262 96.6021 19.6885 97.1228 19.3858C97.6435 19.083 98.0546 18.7252 98.3286 18.2573V14.569C98.0546 14.1011 97.6435 13.7433 97.1228 13.4405C96.6021 13.1653 95.9992 13.0001 95.3415 13.0001Z" fill="#222222"/>
<path d="M15.7816 12.7838C17.5623 12.7679 19.0067 14.2542 19.0191 16.0425C19.023 16.6915 18.8371 17.3271 18.4849 17.8688C18.1327 18.4104 17.63 18.8338 17.0406 19.0853C16.4512 19.3367 15.8015 19.405 15.1738 19.2813C14.5462 19.1577 13.9688 18.8478 13.5148 18.3908C13.0608 17.9338 12.7506 17.3503 12.6235 16.7143C12.4964 16.0782 12.5582 15.4182 12.8009 14.8178C13.0437 14.2173 13.4565 13.7036 13.9871 13.3415C14.5177 12.9794 15.1423 12.7853 15.7816 12.7838Z" fill="#1E554E"/>
<path d="M17.8121 2.26216C17.8014 2.96679 17.4989 3.54254 16.9053 3.95929C16.8229 4.01452 16.7404 4.05804 16.658 4.11243C16.4997 4.21316 16.3679 4.35137 16.2738 4.51521C16.1798 4.67905 16.1263 4.86361 16.118 5.05305C16.113 5.13674 16.118 5.22042 16.118 5.30411C16.118 6.04556 16.118 6.78729 16.118 7.52929C16.118 7.62637 16.118 7.72344 16.1238 7.82052C16.1416 8.11528 16.2714 8.39154 16.4857 8.59126C16.5557 8.65821 16.6349 8.71428 16.705 8.78039C16.8617 8.92729 16.9818 9.10996 17.0552 9.31328C17.1287 9.51661 17.1534 9.73476 17.1274 9.94971C17.1014 10.1647 17.0254 10.3702 16.9056 10.5495C16.7858 10.7287 16.6258 10.8764 16.4386 10.9804C16.2515 11.0844 16.0427 11.1417 15.8294 11.1476C15.6162 11.1535 15.4046 11.1078 15.2121 11.0143C15.0197 10.9208 14.852 10.7821 14.7228 10.6097C14.5936 10.4374 14.5067 10.2363 14.4692 10.0231C14.4248 9.79475 14.4404 9.55856 14.5143 9.33824C14.5882 9.11791 14.718 8.9212 14.8904 8.76783C14.9341 8.72599 14.982 8.69001 15.0289 8.65151C15.1599 8.54394 15.2666 8.40923 15.3421 8.2564C15.4176 8.10356 15.4601 7.93613 15.4667 7.76529C15.4708 7.71759 15.4667 7.66821 15.4667 7.61968C15.4667 6.81686 15.4667 6.0146 15.4667 5.21289C15.4655 5.10363 15.4548 4.99469 15.4346 4.88736C15.4066 4.73133 15.3476 4.58274 15.2611 4.45065C15.1746 4.31856 15.0625 4.20576 14.9317 4.11913C14.8492 4.0639 14.7668 4.02038 14.6843 3.96515C14.0537 3.52413 13.7371 2.91574 13.7643 2.13663C13.7884 1.64556 13.985 1.1795 14.3185 0.82296C14.652 0.466414 15.1004 0.242988 15.5822 0.193193C16.0641 0.143398 16.5476 0.270531 16.9451 0.55154C17.3425 0.832548 17.6276 1.24883 17.7487 1.7249C17.7885 1.90121 17.8097 2.0813 17.8121 2.26216Z" fill="#1E554E"/>
<path d="M29.6051 22.9611C29.6069 23.5001 29.4002 24.0182 29.0295 24.4041C28.6588 24.79 28.1537 25.0127 27.6228 25.0244C27.092 25.0362 26.5778 24.8359 26.1909 24.4668C25.804 24.0977 25.5753 23.5892 25.554 23.0506C25.554 22.977 25.554 22.9042 25.554 22.8314C25.5496 22.6421 25.5013 22.4566 25.4131 22.2898C25.3249 22.123 25.1991 21.9797 25.0461 21.8715C24.9972 21.8364 24.9463 21.8043 24.8936 21.7753L22.8103 20.5526C22.6562 20.4581 22.4854 20.395 22.3075 20.3668C22.1289 20.3433 21.9474 20.3595 21.7757 20.4146C21.7073 20.4355 21.6413 20.4673 21.5729 20.489C21.3146 20.5765 21.0362 20.5823 20.7745 20.5056C20.5129 20.4289 20.2804 20.2733 20.1078 20.0594C19.9353 19.8455 19.8308 19.5834 19.8083 19.3079C19.7858 19.0324 19.8463 18.7565 19.9817 18.5167C20.1172 18.2768 20.3212 18.0844 20.5668 17.965C20.8124 17.8455 21.088 17.8046 21.357 17.8477C21.626 17.8908 21.8757 18.0159 22.0732 18.2063C22.2706 18.3967 22.4063 18.6436 22.4624 18.9141C22.4806 18.9978 22.488 19.0814 22.5053 19.1651C22.5684 19.4658 22.7462 19.7288 23 19.8965C23.0502 19.9309 23.1022 19.961 23.1541 19.9911L25.2069 21.1953C25.2588 21.2255 25.3108 21.2547 25.3652 21.279C25.5214 21.358 25.6934 21.3998 25.8679 21.4012C26.0425 21.4027 26.2151 21.3637 26.3726 21.2874C26.4484 21.2522 26.521 21.2087 26.5944 21.1686C26.7642 21.0786 26.9437 21.0089 27.1294 20.961C28.014 20.7208 29.2795 21.2238 29.5622 22.5611C29.5833 22.6936 29.5976 22.8271 29.6051 22.9611Z" fill="#1E554E"/>
<path d="M29.5996 9.13105C29.6078 9.61658 29.445 10.0891 29.1404 10.4636C28.8359 10.8381 28.4097 11.0899 27.9385 11.1738C27.5225 11.2544 27.092 11.1957 26.7117 11.0064C26.6252 10.9637 26.5469 10.9135 26.4587 10.8683C26.2807 10.7653 26.0792 10.7115 25.8743 10.7124C25.6694 10.7132 25.4684 10.7688 25.2913 10.8734C25.2171 10.9135 25.1445 10.9571 25.072 10.9981L23.208 12.0943L23.1775 12.1127C22.9828 12.2093 22.8153 12.3545 22.6909 12.5347C22.5665 12.7149 22.4891 12.9241 22.4661 13.1429C22.4397 13.3749 22.3504 13.5948 22.208 13.7782C22.0656 13.9616 21.8758 14.1012 21.6598 14.1814C21.4573 14.2679 21.237 14.3026 21.0182 14.2824C20.7994 14.2623 20.5888 14.1879 20.405 14.0659C20.2211 13.9439 20.0696 13.7779 19.9636 13.5825C19.8577 13.3872 19.8006 13.1684 19.7975 12.9454C19.794 12.6391 19.8912 12.3403 20.0738 12.0965C20.2565 11.8526 20.514 11.6775 20.8057 11.5989C21.0267 11.5378 21.2598 11.5378 21.4809 11.5989C21.5724 11.624 21.6623 11.66 21.7521 11.6943C21.8984 11.751 22.0548 11.7756 22.2111 11.7665C22.3674 11.7575 22.52 11.7149 22.659 11.6416C22.7455 11.5989 22.8288 11.5512 22.9121 11.5027C23.5441 11.1328 24.1761 10.7621 24.8082 10.3905C24.87 10.3545 24.9335 10.3185 24.9937 10.2792C25.1622 10.1728 25.3017 10.025 25.3992 9.84954C25.4968 9.67405 25.5492 9.47646 25.5518 9.27498C25.5531 9.08081 25.5704 8.88709 25.6037 8.69588C25.7105 8.20199 25.9931 7.76546 26.3973 7.46998C26.8015 7.1745 27.299 7.04086 27.7942 7.09467C28.2895 7.14848 28.7478 7.38597 29.0813 7.76159C29.4148 8.13722 29.5999 8.62457 29.6013 9.13021L29.5996 9.13105Z" fill="#1E554E"/>
<path d="M15.7817 31.9276C15.3533 31.9265 14.9362 31.7872 14.5907 31.5299C14.2452 31.2726 13.9892 30.9106 13.8595 30.496C13.7298 30.0815 13.7332 29.6358 13.8692 29.2234C14.0051 28.8109 14.2667 28.4529 14.616 28.2011C14.7042 28.1375 14.7999 28.0856 14.8906 28.027C15.0604 27.9223 15.2021 27.7764 15.3028 27.6024C15.4035 27.4285 15.4601 27.2319 15.4676 27.0303C15.4718 26.9701 15.4676 26.909 15.4676 26.8479V24.5507C15.4703 24.4169 15.4592 24.2831 15.4347 24.1515C15.3873 23.8986 15.2582 23.6689 15.0678 23.4988C14.9961 23.4344 14.9169 23.3775 14.8502 23.3088C14.6685 23.1376 14.5391 22.917 14.4774 22.6732C14.4157 22.4294 14.4243 22.1728 14.5023 21.9339C14.565 21.6963 14.6931 21.4819 14.8717 21.3157C15.0503 21.1495 15.2719 21.0385 15.5105 20.9958C15.7909 20.9357 16.0829 20.968 16.3439 21.0881C16.6049 21.2082 16.8214 21.4097 16.9617 21.6634C17.102 21.9171 17.1589 22.2096 17.124 22.4983C17.0891 22.7871 16.9643 23.057 16.7677 23.2687C16.7001 23.3374 16.6282 23.4017 16.5526 23.4611C16.4164 23.5714 16.3066 23.7114 16.2314 23.8709C16.1561 24.0303 16.1174 24.2049 16.1181 24.3817C16.1181 24.5398 16.1181 24.698 16.1181 24.8562C16.1181 25.4877 16.1181 26.1198 16.1181 26.7525C16.1181 26.8496 16.1181 26.9475 16.1181 27.0445C16.1245 27.2337 16.1754 27.4186 16.2666 27.5837C16.3578 27.7488 16.4867 27.8894 16.6424 27.9935C16.7207 28.0496 16.8073 28.0931 16.8897 28.1467C17.2802 28.3958 17.5713 28.7769 17.7117 29.2229C17.7978 29.4832 17.8317 29.7583 17.8112 30.0321C17.7908 30.306 17.7164 30.5728 17.5926 30.8169C17.4688 31.0611 17.298 31.2775 17.0903 31.4535C16.8826 31.6294 16.6423 31.7613 16.3836 31.8414C16.1898 31.9069 15.9858 31.9361 15.7817 31.9276Z" fill="#1E554E"/>
<path d="M1.97365 22.969C1.97331 22.5024 2.1291 22.0496 2.41548 21.6847C2.70186 21.3198 3.10186 21.0645 3.54992 20.9605C4.00916 20.8522 4.49133 20.9114 4.91184 21.1279C4.99428 21.1698 5.07672 21.2233 5.1641 21.2668C5.32943 21.3548 5.51331 21.4008 5.69997 21.4008C5.88663 21.4008 6.07051 21.3548 6.23583 21.2668C6.31085 21.2292 6.38258 21.1831 6.45512 21.143L8.38506 20.0174C8.437 19.9873 8.48976 19.958 8.53922 19.9254C8.68859 19.8338 8.81587 19.7095 8.91174 19.5615C9.0076 19.4135 9.06961 19.2456 9.09322 19.0701C9.1065 18.9738 9.12689 18.8787 9.15423 18.7856C9.23939 18.5113 9.40762 18.2712 9.63498 18.0997C9.86234 17.9281 10.1372 17.8337 10.4205 17.8299C10.7771 17.8224 11.122 17.9591 11.3794 18.2098C11.6367 18.4605 11.7854 18.8048 11.7927 19.1667C11.8001 19.5287 11.6654 19.8789 11.4184 20.1401C11.1715 20.4013 10.8324 20.5523 10.4758 20.5597C10.3074 20.5682 10.139 20.5418 9.98111 20.4819C9.91433 20.4542 9.84755 20.4275 9.77913 20.4065C9.48891 20.3176 9.17625 20.3439 8.90443 20.4802C8.84013 20.5111 8.77912 20.5496 8.71647 20.5865L6.75686 21.733L6.63319 21.8066C6.24078 22.0443 6.04869 22.4024 6.02231 22.8585C6.02231 22.9313 6.02231 23.0041 6.02231 23.0769C6.00853 23.5194 5.85001 23.9447 5.57177 24.2856C5.29352 24.6266 4.91138 24.8638 4.48562 24.9598C4.18747 25.0369 3.87589 25.0436 3.57478 24.9795C3.27367 24.9154 2.99103 24.7821 2.74853 24.5899C2.50602 24.3977 2.3101 24.1517 2.17579 23.8707C2.04147 23.5897 1.97232 23.2813 1.97365 22.969Z" fill="#1E554E"/>
<path d="M1.97612 9.33115C1.9687 8.05077 2.83927 7.13024 3.94151 7.09509C4.40687 7.08151 4.86263 7.23113 5.23202 7.51876C5.60141 7.80639 5.86188 8.21445 5.96954 8.67422C5.99742 8.8293 6.0145 8.98618 6.02066 9.1437C6.03055 9.25249 6.0289 9.36295 6.04786 9.47007C6.07423 9.63275 6.13411 9.78794 6.22361 9.92552C6.31311 10.0631 6.4302 10.1799 6.56724 10.2684C6.63649 10.3153 6.70986 10.3521 6.78241 10.399C7.41555 10.7694 8.0476 11.1401 8.67854 11.5111C8.76098 11.5597 8.84342 11.6082 8.93081 11.6501C9.06495 11.7188 9.2115 11.759 9.36148 11.7682C9.51146 11.7774 9.66171 11.7554 9.80303 11.7036C9.88547 11.6752 9.95967 11.6434 10.0396 11.6199C10.2971 11.5401 10.5723 11.5407 10.8294 11.6216C11.0865 11.7025 11.3138 11.86 11.4817 12.0736C11.6496 12.2872 11.7503 12.5471 11.7709 12.8196C11.7915 13.092 11.7309 13.3645 11.597 13.6016C11.4632 13.8387 11.2622 14.0295 11.0202 14.1492C10.7782 14.2689 10.5063 14.312 10.2399 14.273C9.97346 14.2339 9.72473 14.1145 9.526 13.9301C9.32726 13.7458 9.18768 13.5051 9.12537 13.2392C9.10971 13.1689 9.10064 13.0961 9.0891 13.0242C9.06394 12.8615 9.00527 12.706 8.91691 12.5678C8.82856 12.4297 8.7125 12.312 8.57632 12.2225C8.51696 12.1815 8.45431 12.1446 8.39247 12.1087L6.40071 10.9371C6.24917 10.8401 6.08159 10.7718 5.90607 10.7354C5.65631 10.6923 5.39951 10.7303 5.17234 10.8442C5.07506 10.891 4.98355 10.9505 4.88627 10.9965C4.29682 11.2752 3.70078 11.2885 3.11792 10.9965C2.37101 10.6224 2.02064 9.98222 1.97612 9.33115Z" fill="#1E554E"/>
<path d="M7.96308 16.0442C7.966 16.4654 7.84581 16.8779 7.61769 17.2297C7.38957 17.5815 7.06378 17.8568 6.68155 18.0206C6.29931 18.1844 5.87779 18.2294 5.47033 18.15C5.06287 18.0706 4.68777 17.8702 4.39249 17.5744C4.09721 17.2785 3.89502 16.9004 3.81149 16.4878C3.72797 16.0753 3.76686 15.6468 3.92326 15.2567C4.07965 14.8666 4.34652 14.5324 4.6901 14.2963C5.03368 14.0602 5.43853 13.9328 5.85342 13.9303C6.12909 13.927 6.40266 13.9792 6.65831 14.0839C6.91397 14.1886 7.14662 14.3438 7.34282 14.5404C7.53902 14.737 7.69486 14.9711 7.80132 15.2292C7.90779 15.4874 7.96277 15.7644 7.96308 16.0442Z" fill="#1E554E"/>
<path d="M27.8037 16.0751C27.8016 16.3547 27.7452 16.6313 27.6379 16.8889C27.5305 17.1464 27.3741 17.38 27.1778 17.5763C26.9815 17.7725 26.749 17.9276 26.4937 18.0327C26.2383 18.1377 25.9651 18.1907 25.6895 18.1885C25.414 18.1864 25.1416 18.1292 24.8878 18.0202C24.6341 17.9112 24.404 17.7525 24.2106 17.5532C24.0173 17.3539 23.8645 17.1179 23.761 16.8587C23.6576 16.5995 23.6054 16.3221 23.6075 16.0424C23.6124 15.0265 24.4014 13.9227 25.7246 13.9302C26.0006 13.9296 26.274 13.9849 26.5288 14.0929C26.7835 14.2009 27.0145 14.3595 27.2081 14.5592C27.4017 14.7589 27.5541 14.9959 27.6564 15.2562C27.7587 15.5165 27.8088 15.7949 27.8037 16.0751Z" fill="#1E554E"/>
<path d="M12.9218 7.35418C12.9178 7.77487 12.7909 8.1849 12.5574 8.53245C12.3238 8.88 11.994 9.14948 11.6096 9.30684C11.2252 9.4642 10.8035 9.50237 10.3978 9.41655C9.99204 9.33072 9.62047 9.12474 9.33 8.82463C9.03954 8.52452 8.84322 8.14375 8.76585 7.73043C8.68849 7.31711 8.73355 6.88979 8.89534 6.50245C9.05713 6.11512 9.32839 5.78515 9.67484 5.55424C10.0213 5.32334 10.4274 5.20185 10.8419 5.20514C12.0405 5.21937 12.9523 6.23196 12.9218 7.35418Z" fill="#1E554E"/>
<path d="M22.8442 7.38138C22.8351 7.80247 22.7032 8.21137 22.4653 8.5564C22.2273 8.90142 21.8939 9.16708 21.5072 9.31977C21.1205 9.47246 20.6978 9.50533 20.2927 9.41423C19.8876 9.32313 19.5182 9.11215 19.2313 8.80796C18.9443 8.50377 18.7526 8.12003 18.6804 7.70526C18.6083 7.29049 18.6589 6.86331 18.8258 6.47773C18.9928 6.09216 19.2687 5.7655 19.6186 5.53906C19.9684 5.31262 20.3766 5.19656 20.7914 5.20556C21.0671 5.21089 21.3391 5.27147 21.5917 5.38383C21.8443 5.4962 22.0726 5.65813 22.2633 5.86032C22.4541 6.06251 22.6036 6.30098 22.7033 6.56201C22.803 6.82304 22.8508 7.1015 22.8442 7.38138Z" fill="#1E554E"/>
<path d="M20.7454 26.9049C20.3304 26.9042 19.9251 26.7786 19.5805 26.544C19.2359 26.3094 18.9676 25.9764 18.8095 25.587C18.6515 25.1975 18.6107 24.7693 18.6925 24.3564C18.7743 23.9435 18.9748 23.5644 19.2689 23.2673C19.5629 22.9701 19.9371 22.7681 20.3442 22.6869C20.7514 22.6057 21.1731 22.6489 21.556 22.811C21.9389 22.9732 22.2659 23.247 22.4955 23.5978C22.7251 23.9486 22.8471 24.3606 22.8459 24.7818C22.8454 25.0612 22.7906 25.3378 22.6848 25.5957C22.5789 25.8537 22.424 26.0879 22.2289 26.2851C22.0339 26.4822 21.8024 26.6384 21.5479 26.7448C21.2933 26.8511 21.0206 26.9055 20.7454 26.9049Z" fill="#1E554E"/>
<path d="M12.922 24.7875C12.9418 25.898 12.0242 26.9097 10.8181 26.9072C10.4027 26.9062 9.99697 26.7802 9.65223 26.545C9.30748 26.3097 9.03923 25.976 8.88145 25.586C8.72367 25.1959 8.68344 24.7671 8.76585 24.3539C8.84827 23.9406 9.04963 23.5615 9.34444 23.2644C9.63925 22.9674 10.0143 22.7658 10.422 22.6853C10.8297 22.6047 11.2518 22.6487 11.6349 22.8118C12.0179 22.9749 12.3447 23.2497 12.5738 23.6014C12.8029 23.9531 12.9241 24.3659 12.922 24.7875Z" fill="#1E554E"/>
</g>
<defs>
<clipPath id="clip0">
<rect width="100" height="32" fill="white"/>
</clipPath>
</defs>
</svg>
