<svg width="58" height="58" viewBox="0 0 58 58" fill="none" xmlns="http://www.w3.org/2000/svg">
<path fill-rule="evenodd" clip-rule="evenodd" d="M0 0V58H58V0H0ZM32.1014 37.9403C29.6068 37.9403 27.2609 36.5998 26.4637 35.0649C26.4637 35.0649 25.1232 40.3793 24.8435 41.4105C23.8441 45.0354 20.9013 48.6603 20.6772 48.9538C20.5205 49.164 20.1656 49.0946 20.126 48.823C20.0646 48.357 19.3129 43.7882 20.1955 40.0621C20.6377 38.1881 23.162 27.4898 23.162 27.4898C23.162 27.4898 22.4264 26.0184 22.4264 23.8411C22.4264 20.4184 24.4093 17.8682 26.8801 17.8682C28.9801 17.8682 29.9875 19.4408 29.9875 21.3325C29.9875 23.4385 28.647 26.5994 27.9509 29.5183C27.3759 31.9673 29.1744 33.9583 31.5897 33.9583C35.9661 33.9583 38.903 28.3504 38.903 21.7033C38.903 16.6447 35.5022 12.8571 29.3053 12.8571C22.3113 12.8571 17.9507 18.0784 17.9507 23.9025C17.9507 25.9172 18.5456 27.3351 19.4756 28.4276C19.902 28.9393 19.9556 29.1396 19.8087 29.7206C19.6918 30.1469 19.4439 31.1622 19.3288 31.5727C19.1821 32.1538 18.7002 32.3618 18.1748 32.1458C14.9603 30.8291 13.4571 27.3032 13.4571 23.3293C13.4571 16.7778 18.972 8.92308 29.94 8.92308C38.7485 8.92308 44.5429 15.2984 44.5429 22.1378C44.5429 31.1842 39.5159 37.9403 32.1014 37.9403Z" fill="#039588"/>
</svg>
