<svg width="58" height="58" viewBox="0 0 58 58" fill="none" xmlns="http://www.w3.org/2000/svg">
<g clip-path="url(#clip0)">
<path d="M34.0977 29C34.0977 31.8152 31.8152 34.0977 29 34.0977C26.1848 34.0977 23.9023 31.8152 23.9023 29C23.9023 26.1848 26.1848 23.9023 29 23.9023C31.8152 23.9023 34.0977 26.1848 34.0977 29Z" fill="#039588"/>
<path d="M37.6094 13.5938H20.3906C16.6426 13.5938 13.5938 16.6426 13.5938 20.3906V37.6094C13.5938 41.3574 16.6426 44.4062 20.3906 44.4062H37.6094C41.3574 44.4062 44.4062 41.3574 44.4062 37.6094V20.3906C44.4062 16.6426 41.3574 13.5938 37.6094 13.5938ZM29 37.4961C24.3152 37.4961 20.5039 33.6848 20.5039 29C20.5039 24.3152 24.3152 20.5039 29 20.5039C33.6848 20.5039 37.4961 24.3152 37.4961 29C37.4961 33.6848 33.6848 37.4961 29 37.4961ZM38.7422 20.957C37.8036 20.957 37.043 20.1964 37.043 19.2578C37.043 18.3193 37.8036 17.5586 38.7422 17.5586C39.6807 17.5586 40.4414 18.3193 40.4414 19.2578C40.4414 20.1964 39.6807 20.957 38.7422 20.957Z" fill="#039588"/>
<path d="M58 10C58 4.47716 53.5228 4.96909e-07 48 1.10988e-06L9.99986 5.32742e-06C4.477 5.94039e-06 -0.000168861 4.47718 -0.000151289 10L-3.03859e-05 48.0001C-1.28142e-05 53.5229 4.47714 58 9.99997 58H48C53.5228 58 58 53.5229 58 48V10ZM47.8047 37.6094C47.8047 43.231 43.2309 47.8047 37.6094 47.8047H20.3906C14.769 47.8047 10.1953 43.231 10.1953 37.6094V20.3906C10.1953 14.769 14.769 10.1953 20.3906 10.1953H37.6094C43.2309 10.1953 47.8047 14.769 47.8047 20.3906V37.6094Z" fill="#039588"/>
</g>
<defs>
<clipPath id="clip0">
<rect width="58" height="58" fill="white"/>
</clipPath>
</defs>
</svg>
