<svg width="819" height="754" viewBox="0 0 819 754" fill="none" xmlns="http://www.w3.org/2000/svg">
<path opacity="0.32" d="M360.44 237C197.24 358.6 385.44 436.333 499.94 460C453.44 460 336.64 456.1 241.44 440.5C122.441 421 206.44 272 388.94 123C571.44 -26 807.94 253.5 817.94 413.5C827.94 573.5 623.94 667 576.94 705C529.94 743 285.44 810.5 126.44 657C-32.5599 503.5 -6.05985 307 22.9401 221.5C51.9401 136 165.44 1 382.94 1C265.94 17.5 187.94 85 135.94 163C-13.5601 435 246.44 721.5 514.44 580C782.44 438.5 564.44 85 360.44 237Z" stroke="#039588"/>
</svg>
