<svg width="925" height="904" viewBox="0 0 925 904" fill="none" xmlns="http://www.w3.org/2000/svg">
<path d="M188.5 -1C103.5 134.5 64.6264 96.3124 -1.5 107.5" stroke="url(#paint0_linear)"/>
<path d="M381.498 3.81397C380.226 20.3412 377.683 56.9553 377.683 71.1941C377.683 88.9927 356.064 116.962 347.163 118.233C338.261 119.504 302.655 139.846 289.938 161.458C277.221 183.071 183.118 230.11 162.772 231.381C142.425 232.652 136.067 254.265 178.032 349.614C219.997 444.963 270.863 587.352 198.378 620.406C125.894 653.46 83 611 49.594 602.607C16.188 594.215 2.8 593.4 0 611" stroke="url(#paint1_linear)"/>
<path d="M606.581 1.27132C606.581 94.0779 630.743 205.954 480.686 205.954C453.558 202.14 394.468 201.632 375.139 230.11C350.978 265.707 249.245 292.404 226.355 300.032C203.465 307.66 197.107 328.001 214.91 359.785C232.713 391.568 274.678 522.514 255.603 568.282C236.528 614.049 193.292 689.057 57.2239 666.174C45.4826 663.282 17.2 660.7 0 673.5" stroke="url(#paint2_linear)"/>
<path d="M657.449 0C667.622 43.6488 683.136 144.677 663.807 199.598C639.645 268.249 499.762 236.466 459.069 237.737C418.376 239.009 410.427 262.539 372.596 283.505C255.603 348.343 208.552 306.389 236.528 385.211C264.505 464.033 286.378 510.055 272.135 592.437C264.505 633.967 219.234 722.366 99.189 743.724C58.4959 751.352 13.9877 743.724 -0.000549316 743.724M709.586 0C733.324 46.1914 773.678 158.407 745.193 237.737C709.586 336.901 581.148 291.133 558.258 291.133C535.368 291.133 503.576 260.621 423.462 334.358C315.37 395.382 268.319 372.498 278.492 447.506C313.675 536.075 319.694 729.74 62.3099 795.848C45.7064 800.465 9.9994 806.927 -0.000549316 795.848" stroke="url(#paint3_linear)"/>
<path d="M813.862 3.81397C898.64 130.946 1015.8 389.788 806.232 408.095C544.27 430.979 540.455 416.994 523.923 511.072C507.392 605.15 456.525 622.949 406.931 639.476C357.336 656.003 349.706 683.972 364.966 731.011C380.226 778.05 394.214 849.244 221.268 883.57C82.9114 911.03 23 904 13.9874 896.283C4.97473 888.566 1.5 883.57 0 862" stroke="url(#paint4_linear)"/>
<defs>
<linearGradient id="paint0_linear" x1="117.628" y1="7.62794" x2="117.628" y2="91.5353" gradientUnits="userSpaceOnUse">
<stop stop-opacity="0"/>
<stop offset="1" stop-color="#039588" stop-opacity="0.2"/>
</linearGradient>
<linearGradient id="paint1_linear" x1="215.546" y1="3.81397" x2="215.546" y2="631.074" gradientUnits="userSpaceOnUse">
<stop stop-opacity="0"/>
<stop offset="1" stop-color="#039588" stop-opacity="0.2"/>
</linearGradient>
<linearGradient id="paint2_linear" x1="332.619" y1="1.27132" x2="332.619" y2="670.416" gradientUnits="userSpaceOnUse">
<stop stop-opacity="0"/>
<stop offset="1" stop-color="#039588" stop-opacity="0.2"/>
</linearGradient>
<linearGradient id="paint3_linear" x1="377.495" y1="0" x2="377.495" y2="795.848" gradientUnits="userSpaceOnUse">
<stop stop-opacity="0"/>
<stop offset="1" stop-color="#039588" stop-opacity="0.2"/>
</linearGradient>
<linearGradient id="paint4_linear" x1="468.994" y1="3.81397" x2="468.994" y2="903" gradientUnits="userSpaceOnUse">
<stop stop-opacity="0"/>
<stop offset="1" stop-color="#039588" stop-opacity="0.2"/>
</linearGradient>
</defs>
</svg>
