<svg width="184" height="178" viewBox="0 0 184 178" fill="none" xmlns="http://www.w3.org/2000/svg">
<path d="M42.2845 161.533C39.3543 161.533 36.8837 160.566 34.9302 158.576C32.9767 156.585 32 154.14 32 151.297C32 148.396 32.9767 145.951 34.9302 144.018C36.8837 142.027 39.2968 141.061 42.1121 141.061C45.0998 141.061 47.4555 142.084 49.2366 144.132C51.0177 146.179 51.937 148.851 51.937 152.15H35.6197C35.7921 154.026 36.539 155.505 37.8604 156.642C39.1245 157.779 40.6757 158.348 42.3994 158.348C44.6976 158.348 46.6511 157.552 48.2598 155.96L50.5006 158.348C48.3173 160.452 45.6169 161.533 42.2845 161.533ZM41.8248 144.132C40.4459 144.132 39.1819 144.53 38.0328 145.383C36.8837 146.236 36.0793 147.487 35.7346 149.079H47.9726C47.7427 147.487 47.0533 146.236 45.9042 145.383C44.7551 144.53 43.4336 144.132 41.8248 144.132Z" fill="#222222"/>
<path d="M52.8564 161.191L60.6704 151.069L53.2586 141.288H57.223L62.7962 148.624L68.3119 141.288H72.2764L64.8072 151.069L72.6211 161.191H68.5992L62.6813 153.458L56.7634 161.191H52.8564Z" fill="#222222"/>
<path d="M83.9969 161.533C81.0667 161.533 78.5961 160.566 76.6426 158.576C74.6891 156.585 73.7124 154.14 73.7124 151.297C73.7124 148.396 74.6891 145.951 76.6426 144.018C78.5961 142.027 81.0667 141.061 83.9969 141.061C87.042 141.061 89.6275 142.084 91.6959 144.188L89.4552 146.577C87.9039 145.041 86.0653 144.245 83.9969 144.245C82.0434 144.245 80.4347 144.928 79.1707 146.292C77.9066 147.657 77.2746 149.306 77.2746 151.297C77.2746 153.287 77.9066 154.936 79.1707 156.301C80.4347 157.666 82.0434 158.348 83.9969 158.348C86.0653 158.348 87.9039 157.552 89.4552 156.017L91.6959 158.405C89.6275 160.452 87.042 161.533 83.9969 161.533Z" fill="#222222"/>
<path d="M111.978 158.576C110.024 160.566 107.496 161.533 104.509 161.533C101.521 161.533 98.9929 160.566 97.0394 158.576C95.0285 156.585 94.0518 154.14 94.0518 151.297C94.0518 148.396 95.0285 145.951 97.0394 144.018C99.0504 142.027 101.521 141.061 104.509 141.061C107.496 141.061 110.024 142.027 111.978 144.018C113.931 146.008 114.908 148.453 114.908 151.297C114.966 154.14 113.989 156.585 111.978 158.576ZM99.5675 156.301C100.831 157.666 102.498 158.348 104.509 158.348C106.52 158.348 108.186 157.666 109.45 156.358C110.714 155.05 111.346 153.344 111.346 151.297C111.346 149.306 110.714 147.6 109.45 146.236C108.186 144.871 106.52 144.245 104.509 144.245C102.498 144.245 100.831 144.928 99.5675 146.292C98.3035 147.657 97.614 149.306 97.614 151.297C97.614 153.287 98.3035 154.936 99.5675 156.301Z" fill="#222222"/>
<path d="M119.677 161.191V141.288H123.124V143.677C124.503 141.971 126.342 141.118 128.697 141.118C129.214 141.118 129.674 141.174 130.134 141.231V144.757C129.559 144.586 128.927 144.53 128.18 144.53C127.031 144.53 126.054 144.814 125.135 145.326C124.216 145.894 123.584 146.634 123.124 147.657V161.191H119.677Z" fill="#222222"/>
<path d="M151.967 161.191H148.519V159.201C146.853 160.737 144.727 161.533 142.142 161.533C139.212 161.533 136.741 160.566 134.788 158.576C132.834 156.585 131.857 154.14 131.857 151.297C131.857 148.396 132.834 145.951 134.788 144.018C136.741 142.027 139.154 141.061 142.142 141.061C144.727 141.061 146.853 141.857 148.519 143.392V132.929H151.967V161.191ZM142.199 144.188C140.246 144.188 138.637 144.871 137.373 146.236C136.109 147.6 135.477 149.249 135.477 151.24C135.477 153.23 136.109 154.879 137.373 156.244C138.637 157.609 140.246 158.291 142.199 158.291C143.578 158.291 144.842 158.007 145.934 157.381C147.026 156.756 147.887 156.017 148.462 155.05V147.43C147.887 146.463 147.026 145.724 145.934 145.098C144.842 144.53 143.578 144.188 142.199 144.188Z" fill="#222222"/>
<path d="M92.6653 54.432C98.1765 54.3835 102.647 58.9163 102.685 64.3705C102.697 66.3499 102.122 68.2883 101.032 69.9403C99.9415 71.5923 98.3859 72.8835 96.5617 73.6505C94.7375 74.4174 92.7268 74.6255 90.7843 74.2485C88.8418 73.8714 87.0548 72.9262 85.6497 71.5325C84.2446 70.1387 83.2846 68.3592 82.8913 66.4193C82.4981 64.4794 82.6891 62.4664 83.4404 60.6352C84.1917 58.804 85.4693 57.2371 87.1115 56.1328C88.7537 55.0285 90.6866 54.4366 92.6653 54.432Z" fill="#1E554E"/>
<path d="M98.9501 22.3423C98.9169 24.4913 97.9805 26.2473 96.1435 27.5183C95.8884 27.6868 95.6332 27.8195 95.3781 27.9854C94.8882 28.2926 94.4802 28.7141 94.1891 29.2138C93.898 29.7135 93.7326 30.2764 93.7069 30.8541C93.6916 31.1093 93.7069 31.3646 93.7069 31.6198C93.7069 33.8811 93.7069 36.1433 93.7069 38.4063C93.7069 38.7024 93.7069 38.9984 93.7247 39.2945C93.7801 40.1935 94.1815 41.036 94.8448 41.6451C95.0617 41.8493 95.3066 42.0203 95.5235 42.2219C96.0086 42.67 96.3802 43.2271 96.6076 43.8472C96.8349 44.4673 96.9115 45.1326 96.831 45.7882C96.7504 46.4438 96.5151 47.0708 96.1444 47.6174C95.7738 48.164 95.2784 48.6145 94.6993 48.9317C94.1201 49.2489 93.4738 49.4237 92.8138 49.4417C92.1537 49.4597 91.4989 49.3203 90.9034 49.035C90.3078 48.7497 89.7887 48.3268 89.3889 47.8012C88.9891 47.2755 88.72 46.6623 88.604 46.0121C88.4666 45.3156 88.5148 44.5953 88.7436 43.9233C88.9725 43.2513 89.3739 42.6514 89.9078 42.1837C90.043 42.056 90.191 41.9463 90.3364 41.8289C90.7416 41.5008 91.072 41.09 91.3057 40.6238C91.5393 40.1577 91.6708 39.6471 91.6912 39.126C91.704 38.9806 91.6912 38.83 91.6912 38.6819C91.6912 36.2335 91.6912 33.7867 91.6912 31.3416C91.6876 31.0084 91.6543 30.6761 91.5917 30.3488C91.5051 29.8729 91.3224 29.4197 91.0548 29.0169C90.7872 28.614 90.4403 28.27 90.0353 28.0058C89.7802 27.8373 89.525 27.7046 89.2699 27.5362C87.318 26.1911 86.3383 24.3356 86.4225 21.9595C86.4969 20.4618 87.1054 19.0404 88.1376 17.953C89.1698 16.8655 90.5574 16.1841 92.0488 16.0323C93.5401 15.8804 95.0365 16.2681 96.2666 17.1252C97.4966 17.9822 98.379 19.2518 98.7536 20.7037C98.8768 21.2414 98.9427 21.7907 98.9501 22.3423Z" fill="#1E554E"/>
<path d="M135.449 85.4702C135.454 87.114 134.814 88.6943 133.667 89.8711C132.52 91.048 130.957 91.7273 129.314 91.7631C127.671 91.7989 126.079 91.1882 124.882 90.0625C123.685 88.9367 122.977 87.3858 122.911 85.7433C122.911 85.5187 122.911 85.2966 122.911 85.0746C122.897 84.4974 122.748 83.9315 122.475 83.4229C122.202 82.9142 121.813 82.4772 121.339 82.1471C121.188 82.0401 121.03 81.9421 120.867 81.8536L114.419 78.1247C113.942 77.8363 113.414 77.6439 112.863 77.5581C112.31 77.4862 111.749 77.5359 111.217 77.7036C111.006 77.7674 110.802 77.8644 110.59 77.9308C109.79 78.1977 108.929 78.2153 108.119 77.9813C107.309 77.7473 106.59 77.2727 106.056 76.6204C105.521 75.9681 105.198 75.1688 105.129 74.3286C105.059 73.4884 105.246 72.6468 105.665 71.9153C106.084 71.1839 106.716 70.5971 107.476 70.2328C108.236 69.8685 109.089 69.7438 109.921 69.8752C110.754 70.0066 111.527 70.388 112.138 70.9688C112.749 71.5496 113.169 72.3024 113.343 73.1274C113.399 73.3826 113.422 73.6378 113.475 73.8931C113.671 74.81 114.221 75.6121 115.006 76.1238C115.162 76.2284 115.323 76.3203 115.483 76.4122L121.837 80.0849C121.997 80.1768 122.158 80.2661 122.326 80.3401C122.81 80.581 123.342 80.7084 123.882 80.7129C124.423 80.7173 124.957 80.5985 125.444 80.3656C125.679 80.2584 125.904 80.1257 126.131 80.0032C126.656 79.7288 127.212 79.5164 127.787 79.3703C130.524 78.6378 134.441 80.1717 135.316 84.2502C135.381 84.6543 135.425 85.0615 135.449 85.4702Z" fill="#1E554E"/>
<path d="M135.43 43.2913C135.456 44.7721 134.952 46.2133 134.009 47.3554C133.067 48.4976 131.747 49.2657 130.289 49.5214C129.002 49.7673 127.669 49.5882 126.493 49.0109C126.225 48.8808 125.982 48.7276 125.709 48.5898C125.159 48.2754 124.535 48.1114 123.901 48.1141C123.267 48.1168 122.644 48.2861 122.096 48.6051C121.867 48.7276 121.642 48.8604 121.418 48.9854L115.649 52.3289L115.555 52.385C114.952 52.6796 114.434 53.1224 114.048 53.6719C113.663 54.2214 113.424 54.8596 113.353 55.5269C113.271 56.2343 112.995 56.9052 112.554 57.4645C112.113 58.0238 111.526 58.4496 110.857 58.6943C110.231 58.9579 109.549 59.0637 108.872 59.0023C108.195 58.9408 107.543 58.7141 106.974 58.3419C106.405 57.9697 105.936 57.4635 105.608 56.8676C105.28 56.2718 105.103 55.6046 105.094 54.9246C105.083 53.9903 105.384 53.0792 105.949 52.3354C106.514 51.5916 107.311 51.0576 108.214 50.818C108.898 50.6317 109.62 50.6317 110.304 50.818C110.587 50.8945 110.865 51.0043 111.143 51.1089C111.596 51.2818 112.08 51.3569 112.564 51.3292C113.047 51.3015 113.52 51.1716 113.95 50.9481C114.218 50.818 114.475 50.6725 114.733 50.5244C116.689 49.3963 118.645 48.2657 120.601 47.1325C120.793 47.0227 120.989 46.913 121.175 46.793C121.697 46.4685 122.129 46.0178 122.431 45.4826C122.732 44.9474 122.895 44.3448 122.903 43.7303C122.907 43.1381 122.96 42.5473 123.063 41.9641C123.394 40.4578 124.268 39.1265 125.519 38.2253C126.77 37.3241 128.31 36.9165 129.843 37.0807C131.376 37.2448 132.794 37.9691 133.826 39.1147C134.858 40.2603 135.431 41.7466 135.435 43.2887L135.43 43.2913Z" fill="#1E554E"/>
<path d="M92.666 112.818C91.3399 112.814 90.0491 112.39 88.9799 111.605C87.9107 110.82 87.1182 109.716 86.7169 108.452C86.3155 107.188 86.326 105.828 86.7468 104.57C87.1677 103.312 87.9771 102.221 89.0583 101.453C89.3313 101.259 89.6273 101.1 89.9079 100.922C90.4337 100.602 90.872 100.157 91.1837 99.6268C91.4954 99.0963 91.6707 98.4968 91.6939 97.8819C91.7067 97.6981 91.6939 97.5118 91.6939 97.3255V90.3195C91.7021 89.9113 91.6679 89.5033 91.5919 89.1021C91.4453 88.3306 91.0458 87.6301 90.4565 87.1113C90.2345 86.9148 89.9896 86.7412 89.7829 86.5319C89.2205 86.0097 88.8201 85.3368 88.6292 84.5934C88.4383 83.8499 88.465 83.0672 88.7062 82.3386C88.9002 81.614 89.2969 80.96 89.8496 80.4531C90.4024 79.9463 91.0882 79.6079 91.8266 79.4775C92.6944 79.2941 93.5981 79.3927 94.4059 79.759C95.2138 80.1252 95.8836 80.7399 96.3179 81.5136C96.7521 82.2872 96.9281 83.1793 96.8201 84.0599C96.7121 84.9406 96.3258 85.7637 95.7176 86.4094C95.5083 86.6191 95.2859 86.8151 95.0516 86.9965C94.6303 87.3326 94.2905 87.7598 94.0576 88.246C93.8248 88.7322 93.7049 89.2648 93.707 89.804C93.707 90.2863 93.707 90.7687 93.707 91.2511C93.707 93.1772 93.707 95.105 93.707 97.0345C93.707 97.3306 93.707 97.6292 93.707 97.9253C93.7267 98.5023 93.8844 99.0662 94.1667 99.5697C94.449 100.073 94.8478 100.502 95.3298 100.82C95.5721 100.991 95.84 101.123 96.0952 101.287C97.3036 102.046 98.2047 103.209 98.639 104.569C98.9056 105.363 99.0104 106.202 98.9471 107.037C98.8838 107.872 98.6537 108.686 98.2705 109.431C97.8873 110.175 97.3587 110.835 96.716 111.372C96.0732 111.909 95.3294 112.311 94.5286 112.555C93.9288 112.755 93.2977 112.844 92.666 112.818Z" fill="#1E554E"/>
<path d="M49.9312 85.4957C49.9302 84.0728 50.4123 82.6918 51.2986 81.5789C52.185 80.466 53.4229 79.6873 54.8096 79.3703C56.2309 79.0398 57.7232 79.2205 59.0246 79.8807C59.2797 80.0084 59.5349 80.1717 59.8053 80.3044C60.317 80.5727 60.8861 80.7129 61.4638 80.7129C62.0415 80.7129 62.6106 80.5727 63.1222 80.3044C63.3544 80.1896 63.5764 80.0492 63.8009 79.9267L69.7739 76.4939C69.9346 76.402 70.0979 76.3127 70.251 76.2131C70.7133 75.9339 71.1072 75.5547 71.4039 75.1033C71.7006 74.652 71.8925 74.1399 71.9656 73.6047C72.0066 73.3111 72.0698 73.021 72.1544 72.7369C72.4179 71.9004 72.9386 71.1683 73.6423 70.645C74.3459 70.1217 75.1967 69.8338 76.0734 69.8222C77.1771 69.7996 78.2446 70.2164 79.041 70.981C79.8374 71.7456 80.2976 72.7955 80.3203 73.8995C80.343 75.0035 79.9263 76.0713 79.1619 76.868C78.3975 77.6647 77.348 78.1251 76.2443 78.1477C75.7232 78.1738 75.2023 78.0931 74.7135 77.9104C74.5068 77.8262 74.3001 77.7445 74.0884 77.6807C73.1902 77.4095 72.2225 77.4898 71.3813 77.9053C71.1823 77.9997 70.9935 78.1171 70.7995 78.2294L64.7347 81.726L64.352 81.9506C63.1375 82.6755 62.543 83.7679 62.4614 85.1588C62.4614 85.3809 62.4614 85.6029 62.4614 85.825C62.4187 87.1746 61.9282 88.4716 61.067 89.5114C60.2059 90.5512 59.0232 91.2746 57.7055 91.5676C56.7827 91.8026 55.8184 91.8231 54.8865 91.6275C53.9546 91.432 53.0799 91.0255 52.3294 90.4393C51.5788 89.8532 50.9725 89.1029 50.5568 88.2459C50.1411 87.389 49.9271 86.4482 49.9312 85.4957Z" fill="#1E554E"/>
<path d="M49.9391 43.9013C49.9161 39.9964 52.6105 37.1889 56.0218 37.0817C57.462 37.0402 58.8725 37.4966 60.0158 38.3738C61.159 39.251 61.9651 40.4956 62.2983 41.8978C62.3846 42.3708 62.4375 42.8492 62.4565 43.3296C62.4872 43.6614 62.4821 43.9983 62.5407 44.325C62.6223 44.8212 62.8077 45.2945 63.0847 45.7141C63.3617 46.1336 63.724 46.49 64.1482 46.7599C64.3625 46.9028 64.5896 47.0151 64.8141 47.158C66.7736 48.2878 68.7297 49.4185 70.6824 50.55C70.9376 50.698 71.1927 50.8461 71.4632 50.9737C71.8783 51.1833 72.3319 51.3058 72.796 51.3339C73.2602 51.362 73.7252 51.295 74.1626 51.137C74.4178 51.0503 74.6474 50.9533 74.8949 50.8818C75.6917 50.6384 76.5433 50.6402 77.3391 50.8869C78.1349 51.1336 78.8383 51.6138 79.3579 52.2653C79.8774 52.9169 80.1893 53.7095 80.2529 54.5405C80.3166 55.3715 80.1291 56.2025 79.7148 56.9256C79.3005 57.6487 78.6786 58.2305 77.9296 58.5956C77.1806 58.9607 76.3393 59.0923 75.5147 58.9731C74.6901 58.854 73.9203 58.4897 73.3052 57.9275C72.6901 57.3654 72.2581 56.6312 72.0653 55.8204C72.0168 55.6061 71.9888 55.384 71.953 55.1645C71.8752 54.6683 71.6936 54.194 71.4202 53.7727C71.1467 53.3514 70.7875 52.9925 70.366 52.7194C70.1823 52.5944 69.9884 52.4821 69.7971 52.3723L63.6328 48.7992C63.1638 48.5034 62.6451 48.295 62.1019 48.1841C61.3289 48.0525 60.5342 48.1686 59.8311 48.5158C59.53 48.6588 59.2468 48.84 58.9457 48.9804C57.1214 49.8303 55.2767 49.8711 53.4729 48.9804C51.1613 47.8395 50.0769 45.887 49.9391 43.9013Z" fill="#1E554E"/>
<path d="M68.4675 64.3756C68.4765 65.6601 68.1045 66.9184 67.3985 67.9913C66.6925 69.0643 65.6842 69.9036 64.5013 70.4032C63.3183 70.9028 62.0137 71.0402 60.7527 70.7979C59.4916 70.5557 58.3307 69.9447 57.4169 69.0424C56.503 68.14 55.8772 66.9868 55.6187 65.7286C55.3602 64.4704 55.4806 63.1637 55.9646 61.974C56.4487 60.7842 57.2746 59.7648 58.3379 59.0447C59.4013 58.3246 60.6542 57.9362 61.9383 57.9286C62.7914 57.9185 63.6381 58.0777 64.4293 58.397C65.2206 58.7164 65.9406 59.1896 66.5478 59.7891C67.155 60.3887 67.6374 61.1028 67.9669 61.8901C68.2964 62.6773 68.4665 63.5221 68.4675 64.3756Z" fill="#1E554E"/>
<path d="M129.873 64.4701C129.867 65.3231 129.692 66.1664 129.36 66.952C129.028 67.7376 128.544 68.45 127.936 69.0485C127.329 69.6471 126.609 70.12 125.819 70.4404C125.029 70.7608 124.183 70.9224 123.33 70.9158C122.477 70.9093 121.634 70.7348 120.849 70.4023C120.064 70.0699 119.351 69.5859 118.753 68.9781C118.155 68.3704 117.682 67.6506 117.362 66.8601C117.041 66.0695 116.88 65.2235 116.886 64.3705C116.902 61.2721 119.343 57.9056 123.439 57.9286C124.293 57.9268 125.139 58.0955 125.928 58.4249C126.716 58.7543 127.431 59.2377 128.03 59.8469C128.629 60.4561 129.101 61.1788 129.417 61.9726C129.734 62.7665 129.889 63.6155 129.873 64.4701Z" fill="#1E554E"/>
<path d="M83.8148 37.8728C83.8021 39.1559 83.4096 40.4064 82.6867 41.4664C81.9639 42.5264 80.9432 43.3483 79.7536 43.8282C78.564 44.3081 77.2588 44.4245 76.0031 44.1628C74.7474 43.901 73.5974 43.2728 72.6984 42.3575C71.7994 41.4422 71.1919 40.2809 70.9524 39.0204C70.713 37.7598 70.8524 36.4565 71.3532 35.2752C71.8539 34.0939 72.6934 33.0875 73.7657 32.3833C74.8379 31.6791 76.0948 31.3086 77.3774 31.3186C81.0873 31.362 83.9092 34.4502 83.8148 37.8728Z" fill="#1E554E"/>
<path d="M114.523 37.9545C114.495 39.2388 114.087 40.4859 113.351 41.5382C112.614 42.5905 111.582 43.4007 110.386 43.8664C109.189 44.332 107.881 44.4323 106.627 44.1545C105.373 43.8766 104.23 43.2332 103.342 42.3054C102.454 41.3777 101.86 40.2073 101.637 38.9423C101.414 37.6773 101.57 36.3745 102.087 35.1986C102.604 34.0226 103.458 33.0264 104.541 32.3358C105.623 31.6451 106.886 31.2912 108.17 31.3186C109.024 31.3349 109.866 31.5196 110.647 31.8623C111.429 32.205 112.135 32.6989 112.726 33.3156C113.316 33.9322 113.779 34.6595 114.087 35.4556C114.396 36.2517 114.544 37.101 114.523 37.9545Z" fill="#1E554E"/>
<path d="M108.028 97.4991C106.743 97.4971 105.489 97.1141 104.422 96.3986C103.356 95.6832 102.526 94.6673 102.036 93.4797C101.547 92.292 101.421 90.9859 101.674 89.7266C101.927 88.4673 102.548 87.3113 103.458 86.405C104.368 85.4987 105.526 84.8827 106.786 84.635C108.046 84.3873 109.351 84.5191 110.536 85.0135C111.722 85.508 112.734 86.343 113.444 87.4129C114.155 88.4828 114.532 89.7395 114.529 91.024C114.527 91.8762 114.357 92.7198 114.03 93.5064C113.702 94.2931 113.223 95.0075 112.619 95.6088C112.015 96.2101 111.299 96.6865 110.511 97.0109C109.723 97.3352 108.879 97.5011 108.028 97.4991Z" fill="#1E554E"/>
<path d="M83.8142 91.0418C83.8754 94.4287 81.0356 97.5144 77.3029 97.5067C76.0173 97.5037 74.7616 97.1191 73.6947 96.4018C72.6277 95.6845 71.7975 94.6666 71.3092 93.477C70.8209 92.2875 70.6964 90.9797 70.9514 89.7193C71.2065 88.4589 71.8297 87.3026 72.7421 86.3967C73.6545 85.4908 74.8151 84.8761 76.077 84.6303C77.3388 84.3846 78.6452 84.5189 79.8307 85.0163C81.0162 85.5136 82.0275 86.3517 82.7366 87.4243C83.4457 88.4969 83.8207 89.7559 83.8142 91.0418Z" fill="#1E554E"/>
</svg>
