<svg width="1040" height="998" viewBox="0 0 1040 998" fill="none" xmlns="http://www.w3.org/2000/svg">
<path opacity="0.72" d="M582.496 313.577C789.767 474.633 550.745 577.589 405.325 608.935C464.382 608.935 612.723 603.77 733.631 583.108C884.765 557.281 778.082 359.933 546.299 162.586C314.517 -34.7609 14.1517 335.431 1.45129 547.347C-11.2491 759.263 247.839 883.102 307.531 933.432C367.223 983.762 677.749 1073.16 879.686 869.857C1081.62 666.55 1047.97 406.29 1011.14 293.047C974.304 179.804 830.154 1 553.92 1C702.515 22.8539 801.578 112.256 867.621 215.565C1057.49 575.823 727.281 955.286 386.91 767.872C46.5385 580.459 323.407 112.256 582.496 313.577Z" stroke="white"/>
</svg>
