<svg width="16" height="16" viewBox="0 0 16 16" fill="none" xmlns="http://www.w3.org/2000/svg">
<path d="M15.9518 4.70175C15.9124 3.85088 15.7765 3.26754 15.5792 2.75877C15.3732 2.23246 15.1014 1.78509 14.6587 1.34211C14.2159 0.899123 13.7688 0.622807 13.2428 0.421053C12.7343 0.223684 12.1513 0.0877192 11.3008 0.0482455C10.446 0.00877186 10.1743 0 8.00441 0C5.83016 0 5.55838 0.00877186 4.70797 0.0482455C3.85756 0.0877192 3.27454 0.223684 2.76605 0.421053C2.24002 0.627193 1.7929 0.899123 1.35016 1.34211C0.907419 1.78509 0.631255 2.23246 0.429611 2.75877C0.232351 3.26754 0.0964606 3.85088 0.0570085 4.70175C0.0175565 5.55702 0.00878906 5.82895 0.00878906 8C0.00878906 10.1754 0.0175565 10.4474 0.0570085 11.2982C0.0964606 12.1491 0.232351 12.7325 0.429611 13.2412C0.635639 13.7675 0.907419 14.2149 1.35016 14.6579C1.7929 15.1009 2.24002 15.3772 2.76605 15.5789C3.27454 15.7763 3.85756 15.9123 4.70797 15.9518C5.56276 15.9912 5.83454 16 8.00441 16C10.1787 16 10.4504 15.9912 11.3008 15.9518C12.1513 15.9123 12.7343 15.7763 13.2428 15.5789C13.7688 15.3728 14.2159 15.1009 14.6587 14.6579C15.1014 14.2149 15.3776 13.7675 15.5792 13.2412C15.7765 12.7325 15.9124 12.1491 15.9518 11.2982C15.9913 10.443 16 10.1711 16 8C16 5.82895 15.9913 5.55263 15.9518 4.70175ZM14.514 11.2325C14.4789 12.0132 14.3474 12.4386 14.2378 12.7193C14.0932 13.0921 13.9178 13.3596 13.6373 13.6404C13.3567 13.9211 13.0893 14.0921 12.7167 14.2412C12.4362 14.3509 12.011 14.4825 11.2307 14.5175C10.3891 14.557 10.1348 14.5658 8.00002 14.5658C5.86523 14.5658 5.61098 14.557 4.76934 14.5175C3.98906 14.4825 3.56386 14.3509 3.28331 14.2412C2.91071 14.0965 2.64331 13.9211 2.36276 13.6404C2.08221 13.3596 1.91125 13.0921 1.76221 12.7193C1.65262 12.4386 1.52112 12.0132 1.48605 11.2325C1.4466 10.3904 1.43783 10.136 1.43783 8C1.43783 5.86403 1.4466 5.60965 1.48605 4.76754C1.52112 3.98684 1.65262 3.5614 1.76221 3.2807C1.90687 2.90789 2.08221 2.64035 2.36276 2.35965C2.64331 2.07895 2.91071 1.90789 3.28331 1.75877C3.56386 1.64912 3.98906 1.51754 4.76934 1.48246C5.61098 1.44298 5.86523 1.43421 8.00002 1.43421C10.1348 1.43421 10.3891 1.44298 11.2307 1.48246C12.011 1.51754 12.4362 1.64912 12.7167 1.75877C13.0893 1.90351 13.3567 2.07895 13.6373 2.35965C13.9178 2.64035 14.0888 2.90789 14.2378 3.2807C14.3474 3.5614 14.4789 3.98684 14.514 4.76754C14.5534 5.60965 14.5622 5.86403 14.5622 8C14.5622 10.136 14.5491 10.3904 14.514 11.2325Z" fill="url(#paint0_linear)"/>
<path d="M7.99998 3.89038C5.72929 3.89038 3.89258 5.73249 3.89258 8.00003C3.89258 10.272 5.73367 12.1097 7.99998 12.1097C10.2663 12.1097 12.1074 10.2676 12.1074 8.00003C12.1074 5.7281 10.2707 3.89038 7.99998 3.89038ZM7.99998 10.6667C6.5271 10.6667 5.33477 9.47371 5.33477 8.00003C5.33477 6.52635 6.5271 5.33336 7.99998 5.33336C9.47285 5.33336 10.6652 6.52635 10.6652 8.00003C10.6652 9.47371 9.47285 10.6667 7.99998 10.6667Z" fill="url(#paint1_linear)"/>
<path d="M12.2696 4.68857C12.7998 4.68857 13.2296 4.25853 13.2296 3.72804C13.2296 3.19756 12.7998 2.76752 12.2696 2.76752C11.7394 2.76752 11.3096 3.19756 11.3096 3.72804C11.3096 4.25853 11.7394 4.68857 12.2696 4.68857Z" fill="#BC30A0"/>
<path d="M0 8C0 10.1754 0.00876739 10.4474 0.0482194 11.2982C0.0876715 12.1491 0.223562 12.7325 0.420822 13.2412C0.62685 13.7675 0.89863 14.2149 1.34137 14.6579C1.78411 15.1009 2.23123 15.3772 2.75726 15.5789C3.26575 15.7763 3.84877 15.9123 4.69918 15.9518C5.55397 15.9912 5.82575 16 7.99562 16C10.1699 16 10.4416 15.9912 11.2921 15.9518C12.1425 15.9123 12.7255 15.7763 13.234 15.5789C13.76 15.3728 14.2071 15.1009 14.6499 14.6579C15.0926 14.2149 15.3688 13.7675 15.5704 13.2412C15.7677 12.7325 15.9036 12.1491 15.943 11.2982C15.9825 10.443 15.9912 10.1711 15.9912 8C15.9912 5.82456 15.9825 5.55263 15.943 4.70175C15.9036 3.85088 15.7677 3.26754 15.5704 2.75877C15.3644 2.23246 15.0926 1.78509 14.6499 1.34211C14.2071 0.899123 13.76 0.622807 13.234 0.421053C12.7255 0.223684 12.1425 0.0877192 11.2921 0.0482455C10.4373 0.00877186 10.1655 0 7.99562 0C5.82137 0 5.54959 0.00877186 4.69918 0.0482455C3.84877 0.0877192 3.26575 0.223684 2.75726 0.421053C2.23123 0.627193 1.78411 0.899123 1.34137 1.34211C0.89863 1.78509 0.622466 2.23246 0.420822 2.75877C0.223562 3.26754 0.0876715 3.85088 0.0482194 4.70175C0.00876739 5.55263 0 5.82456 0 8ZM1.44219 8C1.44219 5.86403 1.45096 5.60965 1.49041 4.76754C1.52548 3.98684 1.65699 3.5614 1.76658 3.2807C1.91123 2.90789 2.08658 2.64035 2.36712 2.35965C2.64767 2.07895 2.91507 1.90789 3.28767 1.75877C3.56822 1.64912 3.99342 1.51754 4.7737 1.48246C5.61534 1.44298 5.86959 1.43421 8.00438 1.43421C10.1392 1.43421 10.3934 1.44298 11.2351 1.48246C12.0153 1.51754 12.4405 1.64912 12.7211 1.75877C13.0937 1.90351 13.3611 2.07895 13.6416 2.35965C13.9222 2.64035 14.0931 2.90789 14.2422 3.2807C14.3518 3.5614 14.4833 3.98684 14.5184 4.76754C14.5578 5.60965 14.5666 5.86403 14.5666 8C14.5666 10.136 14.5578 10.3904 14.5184 11.2325C14.4833 12.0132 14.3518 12.4386 14.2422 12.7193C14.0975 13.0921 13.9222 13.3596 13.6416 13.6404C13.3611 13.9211 13.0937 14.0921 12.7211 14.2412C12.4405 14.3509 12.0153 14.4825 11.2351 14.5175C10.3934 14.557 10.1392 14.5658 8.00438 14.5658C5.86959 14.5658 5.61534 14.557 4.7737 14.5175C3.99342 14.4825 3.56822 14.3509 3.28767 14.2412C2.91507 14.0965 2.64767 13.9211 2.36712 13.6404C2.08658 13.3596 1.91562 13.0921 1.76658 12.7193C1.65699 12.4386 1.52548 12.0132 1.49041 11.2325C1.45096 10.3904 1.44219 10.136 1.44219 8Z" fill="url(#paint2_linear)"/>
<defs>
<linearGradient id="paint0_linear" x1="5.22657" y1="-1.28334" x2="10.4716" y2="16.2537" gradientUnits="userSpaceOnUse">
<stop stop-color="#4367DC"/>
<stop offset="0.0428861" stop-color="#4C62D6"/>
<stop offset="0.1142" stop-color="#6654C7"/>
<stop offset="0.2045" stop-color="#8F3DAE"/>
<stop offset="0.2341" stop-color="#9E35A5"/>
<stop offset="0.4512" stop-color="#D42F7F"/>
<stop offset="0.8242" stop-color="#D73578"/>
</linearGradient>
<linearGradient id="paint1_linear" x1="9.95985" y1="4.70299" x2="5.75583" y2="11.7675" gradientUnits="userSpaceOnUse">
<stop offset="0.3304" stop-color="#D42F7F"/>
<stop offset="1" stop-color="#F7772E"/>
</linearGradient>
<linearGradient id="paint2_linear" x1="11.6268" y1="-0.654939" x2="4.54604" y2="16.224" gradientUnits="userSpaceOnUse">
<stop offset="0.2341" stop-color="#9E35A5" stop-opacity="0"/>
<stop offset="0.4512" stop-color="#D42F7F" stop-opacity="0.5"/>
<stop offset="0.7524" stop-color="#F7772E"/>
<stop offset="0.9624" stop-color="#FEF780"/>
</linearGradient>
</defs>
</svg>
