<svg width="146" height="60" viewBox="0 0 146 60" fill="none" xmlns="http://www.w3.org/2000/svg">
<g clip-path="url(#clip0)">
<path d="M49.4193 34.6249L29.7651 3.15764C27.8665 0.117976 23.849 -0.815949 20.7917 1.07166L3.09617 11.9971C0.0388764 13.8848 -0.900464 17.8791 0.998093 20.9188L20.6523 52.386C22.5509 55.4257 26.5684 56.3596 29.6257 54.472L47.3212 43.5465C50.3785 41.6589 51.3179 37.6645 49.4193 34.6249Z" fill="#D6D6D6"/>
<path d="M20.8 1.0748L20.1493 28.2136C20.1283 29.025 20.3464 29.8247 20.7768 30.5144C21.2072 31.204 21.8311 31.7534 22.5717 32.0949L47.3354 43.5495C47.3354 43.5495 52.7106 39.8773 49.4274 34.5928L29.1079 2.09985C28.0616 0.991128 26.6578 0.281593 25.1403 0.0943563C23.6228 -0.0928802 22.0872 0.253998 20.8 1.0748Z" fill="#A6A6A6"/>
<path d="M0.0700684 16.769L26.1751 22.8297" stroke="#A6A6A6" stroke-width="0.58" stroke-miterlimit="10"/>
<path d="M24.1832 55.3724L30.2891 29.4079" stroke="#A6A6A6" stroke-width="0.58" stroke-miterlimit="10"/>
<path d="M42.9112 14.7388L38.0265 19.5356H43.6619L42.9112 14.7388Z" fill="#E0C322"/>
<path d="M56.264 30.1642C52.6834 30.1537 49.2524 28.7348 46.7206 26.2176C44.1887 23.7003 42.7616 20.2891 42.751 16.7291C42.7642 13.1709 44.1925 9.76227 46.7241 7.24713C49.2557 4.73198 52.6851 3.3145 56.264 3.30402C59.842 3.31452 63.2703 4.73232 65.8004 7.24774C68.3304 9.76316 69.7564 13.1718 69.7669 16.7291C69.759 20.2882 68.3342 23.6994 65.8039 26.2169C63.2736 28.7345 59.8437 30.1537 56.264 30.1642Z" fill="#FF457A"/>
<path d="M60.0576 13.2559C60.0576 14.2897 59.7492 15.3002 59.1713 16.1597C58.5934 17.0191 57.7721 17.6887 56.8113 18.0839C55.8505 18.4791 54.7933 18.5819 53.7737 18.3795C52.754 18.1771 51.8177 17.6785 51.0832 16.9468C50.3486 16.2151 49.8489 15.2833 49.6473 14.2691C49.4457 13.2549 49.5512 12.2041 49.9504 11.2496C50.3497 10.2951 51.0248 9.47976 51.8903 8.90685C52.7558 8.33395 53.7728 8.0292 54.8126 8.03117C56.2046 8.0338 57.5387 8.58543 58.522 9.56498C59.5053 10.5445 60.0576 11.8719 60.0576 13.2559Z" fill="white"/>
<path d="M57.4451 13.2559C57.4451 13.774 57.2904 14.2804 57.0007 14.7111C56.711 15.1417 56.2993 15.4772 55.8177 15.675C55.3361 15.8728 54.8062 15.924 54.2953 15.8222C53.7844 15.7204 53.3153 15.4702 52.9476 15.1031C52.5798 14.7361 52.3299 14.2688 52.2294 13.7604C52.129 13.252 52.1825 12.7255 52.3833 12.2474C52.5841 11.7693 52.9231 11.3612 53.3573 11.0748C53.7916 10.7884 54.3015 10.6366 54.8226 10.6386C55.1678 10.6386 55.5097 10.7063 55.8285 10.838C56.1473 10.9696 56.4369 11.1626 56.6805 11.4058C56.9242 11.6489 57.1172 11.9376 57.2484 12.2551C57.3796 12.5725 57.4464 12.9127 57.4451 13.2559Z" fill="#21204D"/>
<path d="M123.368 60L107.103 29.3581L67.9152 23.4964C67.9152 23.4964 67.9152 23.6457 68.0253 23.9244C70.8024 34.2802 76.9451 43.4328 85.4971 49.9574C94.0492 56.4821 104.531 60.0128 115.311 60H123.368Z" fill="#FF457A"/>
<path d="M67.9151 13.2559H145.99C145.99 13.2559 137.632 37.8769 114.109 37.8769C99.7346 37.8042 85.5158 34.9092 72.2693 29.3581L66.4738 21.3369" fill="#FF457A"/>
<path d="M105.101 22.7102L111.607 37.8371C114.743 38.385 117.967 38.1456 120.986 37.1405L105.101 22.7102Z" fill="#702575"/>
<path d="M67.9151 22.7102L56.264 30.1642L71.4585 33.0105L67.9151 22.7102Z" fill="#702575"/>
</g>
<defs>
<clipPath id="clip0">
<rect width="146" height="60" fill="white"/>
</clipPath>
</defs>
</svg>
