<svg width="740" height="680" viewBox="0 0 740 680" fill="none" xmlns="http://www.w3.org/2000/svg">
<path fill-rule="evenodd" clip-rule="evenodd" d="M690.225 195.334C689.692 194.946 688.426 194.809 687.838 194.692C685.39 194.21 682.869 194 680.374 194C672.681 194.012 664.863 194.767 657.298 196.074C652.494 196.903 646.687 199.696 641.909 198.179C633.585 195.537 625.172 195.667 617.274 199.439C610.053 202.888 604.572 209.439 601.373 216.517C600.89 217.586 598.932 221.519 598.378 224.17C598.141 224.712 597.913 225.257 597.708 225.811C597.126 227.384 596.603 228.984 596.118 230.588C595.91 231.272 595.389 232.782 596.008 233.074C595.019 234.901 594.141 236.783 593.411 238.726C591.286 244.378 588.962 250.578 588.215 256.568C587.939 258.786 587.928 261.017 588.185 263.239C588.312 264.338 588.26 266.546 589.004 267.382C590.585 269.154 591.396 266.673 591.218 265.491C589.858 256.485 592.485 248.027 595.598 239.561C597.612 234.087 600.92 229.078 604.626 224.543C607.625 220.871 610.842 217.98 614.953 215.546C619.981 212.569 625.356 210.163 630.681 207.749C634.184 206.161 637.691 204.615 641.291 203.247C642.092 202.942 643.351 202.161 644.239 202.158C646.116 202.152 648.777 203.537 650.59 204.052C656.554 205.748 662.594 207.919 668.758 208.785C672.712 209.341 676.416 208.715 680.113 207.398C680.491 207.264 681.125 206.918 681.901 206.424C684.646 205.368 687.243 204.039 689.504 202.121C690.807 201.017 691.989 199.589 693.067 198.282C693.389 197.892 693.532 197.444 693.537 197.018C693.781 196.891 693.943 196.741 693.98 196.567C694.249 195.281 691.796 195.258 690.225 195.334Z" fill="#89C5CC"/>
<path fill-rule="evenodd" clip-rule="evenodd" d="M65.2734 302.541C63.7641 303.763 62.2838 305.011 60.8396 306.31C59.7389 307.3 57.7911 308.485 57.396 309.985C56.9852 311.544 58.2819 313.003 59.3063 313.945C64.7233 318.929 70.8231 322.298 78.3293 322.859C89.8871 323.722 99.9457 320.77 109.974 314.963C117.018 310.883 121.684 304.849 122.703 296.701C131.092 300.187 139.205 304.993 146.1 310.891C149.502 313.801 152.432 317.025 155.142 320.599C156.878 322.889 158.557 325.215 160.115 327.631C160.792 328.68 161.481 330.542 162.599 331.146C163.912 331.856 165.499 330.743 165.434 329.284C165.379 328.069 164.068 326.66 163.454 325.667C162.436 324.018 161.402 322.379 160.313 320.776C158.551 318.179 156.73 315.62 154.744 313.19C150.28 307.73 144.601 303.221 138.714 299.375C127.42 291.997 115.025 287.349 101.283 286.955C92.8332 286.713 85.7248 289.6 78.4988 293.911C73.9999 296.595 69.3558 299.235 65.2734 302.541Z" fill="#039588" fill-opacity="0.3"/>
<path fill-rule="evenodd" clip-rule="evenodd" d="M174.883 266.856C166.078 257.787 157.241 248.832 147.403 240.847C141.605 236.141 135.495 231.863 129.511 227.401C130.201 228.006 130.878 228.628 131.539 229.266C129.671 227.998 127.226 227.281 125.246 226.107C123.037 224.798 120.925 223.301 118.854 221.791C114.811 218.845 110.829 215.843 106.673 213.051C102.043 209.94 97.2446 207.066 92.5357 204.072C88.5392 201.532 84.4939 198.751 80.2185 196.675C77.8883 195.542 75.5526 194.201 73.2129 193.02C72.4298 192.625 64.4841 187.608 64.5041 187.593C64.9433 187.262 68.9418 189.14 69.5601 189.393C71.3664 190.131 73.0938 191.013 74.8304 191.893C73.8772 190.013 73.1227 188.038 72.712 185.958C72.5851 185.317 71.5685 180.644 72.0887 180.252C72.3485 180.057 74.8835 188.416 75.0133 189.22C75.1188 189.872 75.1033 190.812 75.317 191.431C75.662 192.429 75.6446 192.127 76.4047 192.69C77.7977 193.721 79.6468 194.365 81.1545 195.227C81.9675 195.68 84.4847 197.48 86.0008 197.993C90.5883 200.221 95.2382 203.649 99.597 206.495C98.4531 204.345 97.5825 202.097 96.9477 199.741C96.7966 199.182 95.1675 194.165 95.5628 193.867C96.0075 193.532 99.1117 201.195 99.2956 201.92C99.6372 203.268 99.7081 204.768 100.136 206.079C100.605 207.518 102.07 208.028 103.39 208.867C108.247 211.953 112.938 215.232 117.55 218.662C122.583 209.711 116.78 198.903 111.89 191.393C108.364 185.98 103.619 181.34 98.6077 177.289C91.9203 171.882 84.269 167.563 76.6271 163.612C67.7227 159.009 58.0987 156.156 48.0933 154.839C42.8603 154.149 37.5067 154.169 32.2208 154.39C29.6387 154.498 27.1602 154.84 24.6857 155.682C23.5704 156.062 22.4925 156.541 21.4421 157.077C20.644 157.484 18.7134 157.914 18.2545 158.521C14.4772 163.438 12.5448 168.337 12.8399 174.515C13.1189 180.363 14.9659 186.214 17.4725 191.431C20.264 197.24 23.8542 202.512 28.5497 206.936C32.1321 210.312 36.1372 213.25 40.1159 216.15C54.267 226.463 72.2082 235.433 90.5363 233.128C96.4692 232.383 102.112 230.308 107.385 227.489C108.628 226.824 109.863 226.152 111.036 225.368C111.827 224.839 113.941 222.456 114.736 222.37C115.827 222.251 118.175 224.469 119.198 225.144C126.972 230.275 134.542 235.685 141.953 241.313C149.839 247.301 157.337 253.697 164.615 260.393C167.71 263.242 170.786 266.096 173.791 269.04C174.491 269.725 176.202 272.247 177.471 272.361C178.273 272.434 178.814 271.749 178.7 271.006C178.501 269.715 175.785 267.784 174.883 266.856Z" fill="#C1DEE2"/>
<path fill-rule="evenodd" clip-rule="evenodd" d="M680.98 231.66C677.57 230.915 673.803 230.972 670.329 231.033C651.695 231.287 633.397 240.109 621.489 254.205C611.351 266.205 608.563 281.125 606.56 296.207C606.362 297.704 606.277 299.192 606.165 300.693C606.141 301.015 606.105 301.302 606.066 301.573C605.279 302.277 604.865 303.098 605.332 304C603.597 307.797 602.129 311.69 600.869 315.706C597.162 327.526 593.392 339.571 595.714 352C596.257 345.16 597.399 338.166 598.764 331.438C598.842 331.052 598.927 330.669 599.015 330.287C599.025 330.247 599.033 330.206 599.042 330.166C599.525 328.106 600.153 326.108 600.917 324.141C600.925 324.119 600.933 324.098 600.941 324.077C601.042 323.818 601.149 323.56 601.255 323.303C601.474 322.77 601.699 322.238 601.937 321.708C602.018 321.528 602.095 321.346 602.17 321.163C603.282 318.437 603.751 315.365 604.748 312.545C604.986 311.904 605.235 311.265 605.496 310.629C605.512 310.592 605.527 310.555 605.543 310.518C606.249 308.807 607.028 307.118 607.853 305.446C608.301 305.109 608.54 304.274 608.927 303.515C609.006 303.365 609.631 302.368 609.817 301.793C610.303 300.854 610.786 299.915 611.275 298.977C611.26 298.983 611.246 298.988 611.231 298.994C611.72 298.093 612.211 297.197 612.698 296.304C612.805 296.108 612.913 295.912 613.021 295.715C613.196 295.402 613.371 295.089 613.545 294.777C615.177 291.856 616.908 288.994 618.705 286.167C619.347 285.158 620.879 283.711 621.173 282.579C621.184 282.536 621.186 282.497 621.193 282.457C625.093 276.979 629.582 271.927 634.966 267.924C634.316 268.628 632.932 271.015 632.567 271.488C631.447 272.935 630.232 274.282 629.013 275.646C626.828 278.089 624.696 280.609 622.801 283.274C619.335 288.148 616.346 293.277 613.519 298.51C613.493 298.54 613.463 298.569 613.438 298.601C612.017 300.352 611.123 302.998 610.101 305.001C614.147 303.127 618.622 301.906 622.774 300.242C626.916 298.583 630.945 296.735 634.834 294.566C640.003 291.682 645.366 288.427 650.25 284.743C655.848 281.271 660.551 276.492 664.703 271.477C669.615 265.543 674.117 259.558 676.901 252.353C678.269 248.813 679.345 245.121 679.983 241.386C680.011 241.224 680.046 241.047 680.085 240.864C680.738 239.574 681.321 238.255 681.811 236.906C682.588 234.766 684.425 232.412 680.98 231.66Z" fill="#69A1AC"/>
<path fill-rule="evenodd" clip-rule="evenodd" d="M103.008 256.729C101.94 255.572 100.74 254.528 99.3307 253.783C98.9745 253.595 96.3209 252.335 96.148 252.611C95.7454 253.255 102.688 256.359 103.008 256.729ZM115.59 249C115.581 249.049 116.501 250.61 116.752 251.09C117.285 252.111 117.777 253.151 118.24 254.194C117.555 252.353 116.85 250.645 115.59 249ZM51.2451 261.709C50.359 261.994 49.2935 260.869 50.443 260.592C51.373 260.37 51.3274 260.318 51.745 259.568C52.0841 258.96 52.2931 258.218 52.5906 257.58C53.2219 256.226 53.9378 254.934 54.8167 253.724C56.7003 251.13 58.9953 248.895 61.5692 247.011C66.0613 243.725 71.098 240.72 76.4408 239.211C84.936 236.811 94.6046 236.663 103.113 238.327C108.383 239.357 113.198 241.149 116.697 245.392C118.446 247.512 119.819 249.996 120.419 252.731C120.576 253.446 120.546 254.241 120.743 254.941C121.044 256.018 120.911 255.731 122.17 255.94C123.544 256.169 124.917 256.402 126.29 256.64C129.885 257.262 133.501 257.922 137.004 258.931C138.157 259.263 139.284 259.669 140.386 260.14C141.219 260.496 144.536 261.615 144.939 262.697C145.61 264.498 143.362 263.682 142.663 263.289C142.051 262.946 141.423 262.625 140.786 262.33C139.181 261.588 137.509 261.013 135.799 260.556C133.951 260.062 132.066 259.693 130.187 259.323C128.436 258.979 126.678 258.666 124.917 258.366C123.939 258.2 122.961 258.038 121.982 257.877C121.647 257.821 121.058 257.532 121.102 257.967C119.045 257.57 116.819 257.627 114.723 257.518C112.156 257.384 109.579 257.274 107.003 257.354C105.145 257.412 103.286 257.534 101.437 257.784C100.357 257.93 99.2942 258.143 98.2345 258.413C97.6524 258.562 95.357 258.877 95.0399 259.384C95.1762 259.166 97.7095 259.378 98.0319 259.365C99.3216 259.317 100.601 259.189 101.886 259.046C104.271 258.779 106.656 258.64 109.048 258.66C109.039 259.08 107.405 259.828 107.006 260.106C106.112 260.731 105.256 261.411 104.456 262.158C103.049 263.473 101.363 265.102 100.39 266.661C100.677 266.201 102.092 265.604 102.595 265.253C103.399 264.691 104.188 264.091 104.934 263.45C105.622 262.858 106.265 262.218 106.897 261.565C107.529 260.912 108.386 259.553 109.217 259.118C109.267 259.091 109.629 259.377 109.834 259.28C110.042 259.182 110.3 258.692 110.353 258.672C111.125 258.374 112.593 258.745 113.406 258.783C115.513 258.88 117.619 259.007 119.724 259.123C120.377 259.159 120.931 259.01 121.178 259.491C121.44 260.005 120.959 261.354 120.822 261.913C120.314 263.989 119.413 265.85 117.993 267.459C115.335 270.472 112.057 272.48 108.353 273.824C94.1688 278.97 79.0784 281.031 64.8982 275.678C59.0276 273.461 50.1865 269.501 51.2451 261.709Z" fill="#89C5CC"/>
<g opacity="0.6">
<path opacity="0.6" fill-rule="evenodd" clip-rule="evenodd" d="M700.711 504.152C710.361 569.476 476.337 612.085 274.908 582.349C73.4782 552.614 -18.9281 436.493 77.1907 374.62C173.31 312.746 691.061 438.828 700.711 504.152Z" fill="#DDE3E9"/>
</g>
<path fill-rule="evenodd" clip-rule="evenodd" d="M687.986 297.376C684.041 294.701 678.796 294 674.076 294C655.64 294 638.311 300.84 623.341 311.032C615.138 316.616 607.8 323.728 601.322 331.132C597.582 335.407 594.248 340.03 591.887 345.173C590.294 348.644 589.201 352.261 588.46 355.991C587.557 360.537 586.839 365.175 586.515 369.797C586.387 371.617 585.33 381.274 588.356 381.438C588.338 381.676 588.334 381.903 588.353 382.106C581.782 392.38 577.723 404.42 573.958 415.835C570.683 425.769 567.764 435.786 565.87 446.063C563.375 459.592 561.737 473.326 560.958 487.05C560.791 489.999 560.676 492.95 560.577 495.903C560.493 498.422 560.408 500.941 560.325 503.461C560.233 506.284 559.736 509.534 560.185 512.34C560.576 514.784 562.691 514.414 562.785 511.982C562.898 509.045 562.879 506.102 563.008 503.163C563.179 499.262 563.355 495.361 563.546 491.461C564.875 464.369 569.86 437.675 579.061 412.084C582.785 401.728 587.051 391.925 592.535 382.345C597.356 373.922 603.156 365.767 609.084 358.173C614.845 350.792 620.836 343.583 627.895 337.33C633.624 332.256 639.926 327.835 646.404 323.722C654.631 318.498 662.843 313.401 671.755 309.391C676.388 307.307 681.108 305.441 685.777 303.44C686.617 303.081 687.517 302.732 688.325 302.315C691.02 300.925 690.133 298.832 687.986 297.376Z" fill="#C1DEE2"/>
<path fill-rule="evenodd" clip-rule="evenodd" d="M613.818 392C621.295 392 627.949 392.972 634.838 395.943C640.785 398.508 646.205 401.903 651.467 405.599C658.868 410.798 664.698 416.848 668.779 424.865C671.217 429.654 673.006 436.431 671.368 441.655C669.44 447.807 664.144 452.939 657.169 451.855C652.856 451.185 648.903 448.33 645.625 445.643C641.703 442.428 638.564 438.563 635.972 434.27C631.744 427.267 629.26 419.351 625.668 412.033C623.964 408.56 622.317 405.063 620.275 401.762C619.265 400.128 618.189 398.509 616.656 397.294C615.836 396.644 612.377 395.52 613.7 394.061C594.31 394.315 577.132 409.207 573.409 427.641C573.063 429.359 572.792 431.091 572.505 432.82C572.325 433.911 572.398 437.937 571.422 438.634C569.27 440.172 570.174 435.499 570.267 434.826C570.505 433.087 570.76 431.35 571.027 429.615C572.481 420.181 576.681 411.411 583.685 404.683C591.694 396.99 602.501 392 613.818 392Z" fill="#89C5CC"/>
<path fill-rule="evenodd" clip-rule="evenodd" d="M74.9379 368.736C93.6043 400.052 115.345 430.374 128.401 464.613C127.875 460.577 127.317 456.545 126.692 452.52C123.38 431.179 119.262 409.994 114.936 388.835C112.733 378.062 110.402 367.327 108.012 356.594C106.727 350.829 105.457 345.061 104.145 339.302C103.827 337.906 103.554 335.469 103.157 333C115.845 374.637 128.081 416.305 137.031 458.942C138.205 464.538 139.205 470.124 140.024 475.7C140.304 474.428 140.58 473.156 140.881 471.887C144.503 456.68 149.935 441.594 156.403 427.374C159.495 420.575 163.046 413.924 167.228 407.726C169.836 403.863 175.986 399.271 178.364 395.314C165.355 419.176 160.657 449.032 153.145 474.973C151.312 481.304 149.467 487.624 147.659 493.955C158.987 471.237 176.563 452.571 201 444.483C171.42 464.027 153.678 498.254 141.722 533.26C141.683 533.675 141.636 534.09 141.595 534.506C145.114 527.829 149.545 521.789 155.551 517.56C168.407 508.504 182.667 511.142 195.137 518.91C185.35 512.689 167.663 518.354 159.428 524.677C153.533 529.203 148.495 535.275 144.12 541.2C143.072 542.62 141.641 544.277 140.13 546.044C138.012 559.795 134.56 573.452 129.672 587C130.479 583.111 129.896 576.892 130.12 573.993C130.144 573.68 130.164 573.365 130.188 573.053C129.445 576.019 128.727 578.951 128.036 581.837C129.41 576.331 130.156 570.583 130.739 564.776C130.889 562.281 131.036 559.785 131.19 557.29C131.141 552.553 130.946 547.799 130.616 543.036C129.447 538.408 128.137 534.042 127.056 530.411C123.159 517.31 117.444 504.76 110.411 493.051C103.994 482.366 96.3124 472.688 87.4448 463.935C82.6643 459.217 77.6614 454.725 72.7289 450.17C70.9453 448.523 67.7572 444.474 65 442.363C85.0805 453.434 105.749 465.41 120.398 483.248C118.68 476.653 116.815 470.151 114.842 463.78C104.831 431.454 92.1913 397.953 74.9379 368.736Z" fill="#039588" fill-opacity="0.3"/>
<path fill-rule="evenodd" clip-rule="evenodd" d="M95 546C95 581.899 97.8428 611 136 611C174.157 611 177 581.899 177 546" fill="#C5CFD6"/>
<path d="M526 87C526 85.3431 524.657 84 523 84C521.343 84 520 85.3431 520 87V106C520 107.657 521.343 109 523 109C524.657 109 526 107.657 526 106V87Z" fill="#F2F2F2"/>
<path d="M540 71C540 69.3431 538.657 68 537 68C535.343 68 534 69.3431 534 71V106C534 107.657 535.343 109 537 109C538.657 109 540 107.657 540 106V71Z" fill="#F2F2F2"/>
<path d="M554 63C554 61.3431 552.657 60 551 60C549.343 60 548 61.3431 548 63V106C548 107.657 549.343 109 551 109C552.657 109 554 107.657 554 106V63Z" fill="#F2F2F2"/>
<path d="M568 71C568 69.3431 566.657 68 565 68C563.343 68 562 69.3431 562 71V106C562 107.657 563.343 109 565 109C566.657 109 568 107.657 568 106V71Z" fill="#F2F2F2"/>
<path d="M582 55C582 53.3431 580.657 52 579 52C577.343 52 576 53.3431 576 55V106C576 107.657 577.343 109 579 109C580.657 109 582 107.657 582 106V55Z" fill="#C5CFD6"/>
<path fill-rule="evenodd" clip-rule="evenodd" d="M28 358.256C28 347.117 37.002 338 48 338V358.256L34.332 373C30.444 369.395 28 364.107 28 358.256Z" fill="#F2F2F2"/>
<path fill-rule="evenodd" clip-rule="evenodd" d="M47.4708 358H67.668C67.668 363.221 65.5382 368.113 62.1713 371.668C58.4682 375.556 53.1947 378 47.4708 378C42.1983 378 37.3722 375.891 33.668 372.557L47.4708 358Z" fill="#AFB9C5"/>
<path fill-rule="evenodd" clip-rule="evenodd" d="M68 358C68 347.002 58.998 338 48 338V358H68ZM38 338L46 356L28 348C29.78 343.334 33.777 339.78 38 338Z" fill="#C5CFD6"/>
<path fill-rule="evenodd" clip-rule="evenodd" d="M678.766 367.179C676.845 369.219 674.123 370.5 671.095 370.5C665.278 370.5 660.562 365.799 660.562 360C660.562 354.201 665.278 349.5 671.095 349.5V330C654.546 330 641 343.503 641 360C641 376.497 654.546 390 671.095 390C679.788 390 687.645 386.334 693 380.502L678.766 367.179Z" fill="#F2F2F2"/>
<path fill-rule="evenodd" clip-rule="evenodd" d="M671 330V349.5C676.799 349.5 681.5 354.201 681.5 360H701C701 343.503 687.497 330 671 330Z" fill="#AFB9C5"/>
<path fill-rule="evenodd" clip-rule="evenodd" d="M681.097 360C681.097 363.407 679.492 366.435 677 368.391L689.262 384C696.399 378.412 701 369.749 701 360H681.097Z" fill="#C5CFD6"/>
<path fill-rule="evenodd" clip-rule="evenodd" d="M124.007 108.986C124.003 108.996 123.999 109.006 123.993 109.018C123.999 109.008 124.007 108.968 124.007 108.986Z" fill="#C5CFD6"/>
<path fill-rule="evenodd" clip-rule="evenodd" d="M123.998 109.002C123.998 109.004 123.996 109.008 123.996 109.012C123.996 109.002 124.014 108.972 123.998 109.002Z" fill="#C5CFD6"/>
<path fill-rule="evenodd" clip-rule="evenodd" d="M124.067 108.832C124.053 108.872 124.035 108.91 124.019 108.95C124.027 108.93 124.035 108.914 124.043 108.894C123.835 109.414 123.967 109.076 124.067 108.832Z" fill="#C5CFD6"/>
<path fill-rule="evenodd" clip-rule="evenodd" d="M124.022 108.953C124.014 108.971 124.006 108.991 123.998 109.009C123.94 109.121 124.022 108.953 124.022 108.953Z" fill="#C5CFD6"/>
<path fill-rule="evenodd" clip-rule="evenodd" d="M123.999 109.002C123.999 109 123.999 109 124.001 108.998C123.999 109 123.999 109 123.999 109.002Z" fill="#C5CFD6"/>
<path fill-rule="evenodd" clip-rule="evenodd" d="M123.99 109.016C123.978 109.04 124.046 108.924 123.99 109.016V109.016Z" fill="#C5CFD6"/>
<path fill-rule="evenodd" clip-rule="evenodd" d="M123.998 109.002L124.002 108.998C124 109 124 109.002 123.998 109.002Z" fill="#C5CFD6"/>
<path d="M167 57H80C77.7909 57 76 58.7909 76 61V116C76 118.209 77.7909 120 80 120H167C169.209 120 171 118.209 171 116V61C171 58.7909 169.209 57 167 57Z" fill="#DDE3E9"/>
<path fill-rule="evenodd" clip-rule="evenodd" d="M112 75L84 120H140L112 75Z" fill="#AFB9C5"/>
<path fill-rule="evenodd" clip-rule="evenodd" d="M139.5 87L115 120H164L139.5 87Z" fill="#C5CFD6"/>
<path d="M150 87C154.971 87 159 82.9706 159 78C159 73.0294 154.971 69 150 69C145.029 69 141 73.0294 141 78C141 82.9706 145.029 87 150 87Z" fill="white"/>
<path d="M473 90H154C149.582 90 146 93.5817 146 98V428C146 432.418 149.582 436 154 436H473C477.418 436 481 432.418 481 428V98C481 93.5817 477.418 90 473 90Z" fill="#F2F2F2"/>
<path d="M457 133H403C398.582 133 395 136.582 395 141V206C395 210.418 398.582 214 403 214H457C461.418 214 465 210.418 465 206V141C465 136.582 461.418 133 457 133Z" fill="white"/>
<path d="M430 180C438.837 180 446 172.837 446 164C446 155.163 438.837 148 430 148C421.163 148 414 155.163 414 164C414 172.837 421.163 180 430 180Z" fill="#DDE3E9"/>
<path d="M452 184H408C406.343 184 405 185.343 405 187C405 188.657 406.343 190 408 190H452C453.657 190 455 188.657 455 187C455 185.343 453.657 184 452 184Z" fill="#DDE3E9"/>
<path d="M444 194H416C414.343 194 413 195.343 413 197C413 198.657 414.343 200 416 200H444C445.657 200 447 198.657 447 197C447 195.343 445.657 194 444 194Z" fill="#DDE3E9"/>
<path fill-rule="evenodd" clip-rule="evenodd" d="M154 90H473C477.418 90 481 93.5817 481 98V117H146V98C146 93.5817 149.582 90 154 90Z" fill="#C5CFD6"/>
<path d="M159 108C161.209 108 163 106.209 163 104C163 101.791 161.209 100 159 100C156.791 100 155 101.791 155 104C155 106.209 156.791 108 159 108Z" fill="#F2F2F2"/>
<path d="M171 108C173.209 108 175 106.209 175 104C175 101.791 173.209 100 171 100C168.791 100 167 101.791 167 104C167 106.209 168.791 108 171 108Z" fill="#F2F2F2"/>
<path d="M183 108C185.209 108 187 106.209 187 104C187 101.791 185.209 100 183 100C180.791 100 179 101.791 179 104C179 106.209 180.791 108 183 108Z" fill="#F2F2F2"/>
<path d="M457 222H403C398.582 222 395 225.582 395 230V408C395 412.418 398.582 416 403 416H457C461.418 416 465 412.418 465 408V230C465 225.582 461.418 222 457 222Z" fill="white"/>
<path d="M443 240H417C414.791 240 413 241.791 413 244V262C413 264.209 414.791 266 417 266H443C445.209 266 447 264.209 447 262V244C447 241.791 445.209 240 443 240Z" fill="#DDE3E9"/>
<path d="M443 274H417C414.791 274 413 275.791 413 278V295C413 297.209 414.791 299 417 299H443C445.209 299 447 297.209 447 295V278C447 275.791 445.209 274 443 274Z" fill="#AFB9C5"/>
<path d="M443 307H417C414.791 307 413 308.791 413 311V328C413 330.209 414.791 332 417 332H443C445.209 332 447 330.209 447 328V311C447 308.791 445.209 307 443 307Z" fill="#DDE3E9"/>
<path d="M443 373H417C414.791 373 413 374.791 413 377V394C413 396.209 414.791 398 417 398H443C445.209 398 447 396.209 447 394V377C447 374.791 445.209 373 443 373Z" fill="#DDE3E9"/>
<path d="M443 340H417C414.791 340 413 341.791 413 344V361C413 363.209 414.791 365 417 365H443C445.209 365 447 363.209 447 361V344C447 341.791 445.209 340 443 340Z" fill="#C5CFD6"/>
<path d="M383 134H166C163.791 134 162 135.791 162 138V177C162 179.209 163.791 181 166 181H383C385.209 181 387 179.209 387 177V138C387 135.791 385.209 134 383 134Z" fill="white"/>
<path d="M335 148.1H174C172.343 148.1 171 149.443 171 151.1V152.15C171 153.807 172.343 155.15 174 155.15H335C336.657 155.15 338 153.807 338 152.15V151.1C338 149.443 336.657 148.1 335 148.1Z" fill="#DDE3E9"/>
<path d="M280.096 159.85H174C172.343 159.85 171 161.193 171 162.85V163.9C171 165.557 172.343 166.9 174 166.9H280.096C281.753 166.9 283.096 165.557 283.096 163.9V162.85C283.096 161.193 281.753 159.85 280.096 159.85Z" fill="#DDE3E9"/>
<path d="M362.954 164.5C366.82 164.5 369.954 161.366 369.954 157.5C369.954 153.634 366.82 150.5 362.954 150.5C359.088 150.5 355.954 153.634 355.954 157.5C355.954 161.366 359.088 164.5 362.954 164.5Z" fill="#DDE3E9"/>
<path d="M362.954 160.5C364.611 160.5 365.954 159.157 365.954 157.5C365.954 155.843 364.611 154.5 362.954 154.5C361.297 154.5 359.954 155.843 359.954 157.5C359.954 159.157 361.297 160.5 362.954 160.5Z" fill="#F2F2F2"/>
<path d="M383 189H166C163.791 189 162 190.791 162 193V224C162 226.209 163.791 228 166 228H383C385.209 228 387 226.209 387 224V193C387 190.791 385.209 189 383 189Z" fill="white"/>
<path d="M335.075 200.7H173.925C172.31 200.7 171 202.01 171 203.625C171 205.24 172.31 206.55 173.925 206.55H335.075C336.69 206.55 338 205.24 338 203.625C338 202.01 336.69 200.7 335.075 200.7Z" fill="#DDE3E9"/>
<path d="M280.171 210.45H173.925C172.31 210.45 171 211.76 171 213.375C171 214.99 172.31 216.3 173.925 216.3H280.171C281.786 216.3 283.096 214.99 283.096 213.375C283.096 211.76 281.786 210.45 280.171 210.45Z" fill="#DDE3E9"/>
<path d="M362.954 215.5C366.82 215.5 369.954 212.366 369.954 208.5C369.954 204.634 366.82 201.5 362.954 201.5C359.088 201.5 355.954 204.634 355.954 208.5C355.954 212.366 359.088 215.5 362.954 215.5Z" fill="#DDE3E9"/>
<path d="M362.954 211.5C364.611 211.5 365.954 210.157 365.954 208.5C365.954 206.843 364.611 205.5 362.954 205.5C361.297 205.5 359.954 206.843 359.954 208.5C359.954 210.157 361.297 211.5 362.954 211.5Z" fill="#F2F2F2"/>
<path d="M383 236H166C163.791 236 162 237.791 162 240V271C162 273.209 163.791 275 166 275H383C385.209 275 387 273.209 387 271V240C387 237.791 385.209 236 383 236Z" fill="white"/>
<path d="M335.075 247.7H173.925C172.31 247.7 171 249.01 171 250.625C171 252.24 172.31 253.55 173.925 253.55H335.075C336.69 253.55 338 252.24 338 250.625C338 249.01 336.69 247.7 335.075 247.7Z" fill="#DDE3E9"/>
<path d="M280.171 257.45H173.925C172.31 257.45 171 258.76 171 260.375C171 261.99 172.31 263.3 173.925 263.3H280.171C281.786 263.3 283.096 261.99 283.096 260.375C283.096 258.76 281.786 257.45 280.171 257.45Z" fill="#DDE3E9"/>
<path d="M362.954 262.5C366.82 262.5 369.954 259.366 369.954 255.5C369.954 251.634 366.82 248.5 362.954 248.5C359.088 248.5 355.954 251.634 355.954 255.5C355.954 259.366 359.088 262.5 362.954 262.5Z" fill="#DDE3E9"/>
<path d="M362.954 258.5C364.611 258.5 365.954 257.157 365.954 255.5C365.954 253.843 364.611 252.5 362.954 252.5C361.297 252.5 359.954 253.843 359.954 255.5C359.954 257.157 361.297 258.5 362.954 258.5Z" fill="#AFB9C5"/>
<path d="M383 377H166C163.791 377 162 378.791 162 381V412C162 414.209 163.791 416 166 416H383C385.209 416 387 414.209 387 412V381C387 378.791 385.209 377 383 377Z" fill="white"/>
<path d="M335.075 388.7H173.925C172.31 388.7 171 390.01 171 391.625C171 393.24 172.31 394.55 173.925 394.55H335.075C336.69 394.55 338 393.24 338 391.625C338 390.01 336.69 388.7 335.075 388.7Z" fill="#DDE3E9"/>
<path d="M280.171 398.45H173.925C172.31 398.45 171 399.76 171 401.375C171 402.99 172.31 404.3 173.925 404.3H280.171C281.786 404.3 283.096 402.99 283.096 401.375C283.096 399.76 281.786 398.45 280.171 398.45Z" fill="#DDE3E9"/>
<path d="M362.954 403.5C366.82 403.5 369.954 400.366 369.954 396.5C369.954 392.634 366.82 389.5 362.954 389.5C359.088 389.5 355.954 392.634 355.954 396.5C355.954 400.366 359.088 403.5 362.954 403.5Z" fill="#DDE3E9"/>
<path d="M362.954 399.5C364.611 399.5 365.954 398.157 365.954 396.5C365.954 394.843 364.611 393.5 362.954 393.5C361.297 393.5 359.954 394.843 359.954 396.5C359.954 398.157 361.297 399.5 362.954 399.5Z" fill="#F2F2F2"/>
<path d="M383 330H166C163.791 330 162 331.791 162 334V365C162 367.209 163.791 369 166 369H383C385.209 369 387 367.209 387 365V334C387 331.791 385.209 330 383 330Z" fill="white"/>
<path d="M335.075 341.7H173.925C172.31 341.7 171 343.01 171 344.625C171 346.24 172.31 347.55 173.925 347.55H335.075C336.69 347.55 338 346.24 338 344.625C338 343.01 336.69 341.7 335.075 341.7Z" fill="#DDE3E9"/>
<path d="M280.171 351.45H173.925C172.31 351.45 171 352.76 171 354.375C171 355.99 172.31 357.3 173.925 357.3H280.171C281.786 357.3 283.096 355.99 283.096 354.375C283.096 352.76 281.786 351.45 280.171 351.45Z" fill="#DDE3E9"/>
<path d="M362.954 356.5C366.82 356.5 369.954 353.366 369.954 349.5C369.954 345.634 366.82 342.5 362.954 342.5C359.088 342.5 355.954 345.634 355.954 349.5C355.954 353.366 359.088 356.5 362.954 356.5Z" fill="#DDE3E9"/>
<path d="M362.954 352.5C364.611 352.5 365.954 351.157 365.954 349.5C365.954 347.843 364.611 346.5 362.954 346.5C361.297 346.5 359.954 347.843 359.954 349.5C359.954 351.157 361.297 352.5 362.954 352.5Z" fill="#F2F2F2"/>
<path d="M383 283H166C163.791 283 162 284.791 162 287V318C162 320.209 163.791 322 166 322H383C385.209 322 387 320.209 387 318V287C387 284.791 385.209 283 383 283Z" fill="white"/>
<path d="M335.075 294.7H173.925C172.31 294.7 171 296.01 171 297.625C171 299.24 172.31 300.55 173.925 300.55H335.075C336.69 300.55 338 299.24 338 297.625C338 296.01 336.69 294.7 335.075 294.7Z" fill="#DDE3E9"/>
<path d="M280.171 304.45H173.925C172.31 304.45 171 305.76 171 307.375C171 308.99 172.31 310.3 173.925 310.3H280.171C281.786 310.3 283.096 308.99 283.096 307.375C283.096 305.76 281.786 304.45 280.171 304.45Z" fill="#DDE3E9"/>
<path d="M362.954 309.5C366.82 309.5 369.954 306.366 369.954 302.5C369.954 298.634 366.82 295.5 362.954 295.5C359.088 295.5 355.954 298.634 355.954 302.5C355.954 306.366 359.088 309.5 362.954 309.5Z" fill="#DDE3E9"/>
<path d="M362.954 305.5C364.611 305.5 365.954 304.157 365.954 302.5C365.954 300.843 364.611 299.5 362.954 299.5C361.297 299.5 359.954 300.843 359.954 302.5C359.954 304.157 361.297 305.5 362.954 305.5Z" fill="#F2F2F2"/>
<path fill-rule="evenodd" clip-rule="evenodd" d="M488.051 91.5039C486.573 93.0679 484.479 94.05 482.15 94.05C477.675 94.05 474.048 90.4459 474.048 86C474.048 81.5541 477.675 77.95 482.15 77.95V63C469.42 63 459 73.3523 459 86C459 98.6477 469.42 109 482.15 109C488.837 109 494.88 106.189 499 101.718L488.051 91.5039Z" fill="#F2F2F2"/>
<path fill-rule="evenodd" clip-rule="evenodd" d="M482 63V77.95C486.446 77.95 490.05 81.5541 490.05 86H505C505 73.3523 494.648 63 482 63Z" fill="#AFB9C5"/>
<path fill-rule="evenodd" clip-rule="evenodd" d="M490.073 86C490.073 88.5552 488.869 90.8266 487 92.2931L496.196 104C501.55 99.8088 505 93.312 505 86H490.073Z" fill="#C5CFD6"/>
<g opacity="0.5">
<path opacity="0.5" fill-rule="evenodd" clip-rule="evenodd" d="M625.973 521.032C617.548 521.126 609.128 521.437 600.721 521.969C592.725 522.476 584.05 522.091 576.185 523.641C573.952 524.081 570.935 526.117 573.905 528.355C575.992 529.929 583.628 528.119 586.121 527.966C595.3 527.402 604.484 526.726 613.676 526.401C622.378 526.093 631.079 525.985 639.785 525.898C641.115 525.885 643.321 525.459 644.645 525.845C646.546 526.4 646.095 526.55 646.238 528.964C646.496 533.338 646.425 537.728 646.338 542.107C646.254 546.343 646.097 550.58 646.112 554.818C646.123 557.842 645.156 563.852 646.674 566.478C648.858 570.258 651.124 566.152 651.287 563.64C651.6 558.835 651.46 553.972 651.461 549.161C651.462 544.646 651.494 540.13 651.335 535.617C651.22 532.357 651.686 526.666 649.93 523.702C648.141 520.683 643.834 521.334 640.692 521.19C635.79 520.965 630.879 520.981 625.973 521.032Z" fill="#89C5CC"/>
<path opacity="0.5" fill-rule="evenodd" clip-rule="evenodd" d="M572.373 526.481C572.383 534.965 571.401 543.392 571.126 551.867C571 555.763 570.744 560.041 571.73 563.866C572.725 567.728 575.885 568.565 576.249 564.254C576.986 555.523 576.805 546.47 577.379 537.67C577.582 534.562 578.9 528.868 577.669 525.959C576.585 523.396 572.369 522.904 572.373 526.481Z" fill="#89C5CC"/>
<path opacity="0.5" fill-rule="evenodd" clip-rule="evenodd" d="M651.37 563.878C636.74 565.814 621.445 565.108 606.711 565.413C599.642 565.559 592.574 565.568 585.504 565.642C583.037 565.667 576.771 564.729 574.636 566.116C571.238 568.324 574.925 570.028 577.175 570.077C591.127 570.382 605.234 569.741 619.184 569.283C625.451 569.077 631.739 568.977 637.99 568.444C641.838 568.116 646.043 567.798 649.78 566.764C650.576 566.544 652.309 566.59 652.488 565.504C652.598 564.832 652.398 563.736 651.37 563.878Z" fill="#89C5CC"/>
<path opacity="0.5" fill-rule="evenodd" clip-rule="evenodd" d="M590.534 576.21C586.468 576.234 574.215 574.345 572.531 578.31C570.286 583.598 579.044 582.364 581.399 582.304C586.748 582.166 592.094 582.151 597.445 582.154C602.695 582.156 607.945 582.122 613.194 581.997C614.715 581.961 618.255 582.592 619.129 580.761C619.794 579.369 619.269 578.271 618.043 577.534C615.092 575.761 607.427 576.789 603.972 576.63C599.5 576.424 595.012 576.21 590.534 576.21Z" fill="#89C5CC"/>
<path opacity="0.5" fill-rule="evenodd" clip-rule="evenodd" d="M640 577.189C637.677 577.328 632.976 576.37 630.895 577.433C628.529 578.642 629.362 580.534 631.405 581.366C632.82 581.942 638.622 581.64 640 580.973C641.437 580.277 643.061 577.001 640 577.189Z" fill="#89C5CC"/>
<path opacity="0.5" fill-rule="evenodd" clip-rule="evenodd" d="M665.476 527.313C662.995 527.994 663.748 542.084 663.684 544.318C663.508 550.437 662.82 558.134 664.854 564.028C666.151 567.785 668.641 567.276 668.217 563.32C667.844 559.848 667.205 556.416 666.928 552.922C666.302 545.015 665.45 536.581 666.042 528.667C666.293 529.127 668.648 533.392 669.202 533.074C669.034 533.173 666.486 527.047 665.476 527.313Z" fill="#89C5CC"/>
<path opacity="0.5" fill-rule="evenodd" clip-rule="evenodd" d="M693.394 522.124C688.371 522.198 683.349 522.287 678.327 522.426C674.335 522.537 668.062 521.881 664.4 523.561C660.041 525.56 662.109 530.015 666.204 530.109C669.826 530.193 673.689 529.376 677.344 529.251C687.218 528.913 697.108 528.841 706.986 528.756C715.919 528.679 725.232 529.632 734.087 528.291C735.401 539.953 731.848 551.665 733.057 563.462C733.244 565.293 733.16 567.88 735.492 568.297C738.434 568.824 738.555 565.909 738.667 563.822C738.986 557.863 738.813 551.899 739.249 545.932C739.654 540.402 740.45 534.751 739.777 529.212C738.95 522.397 735.684 522.943 729.911 522.66C717.718 522.062 705.6 521.944 693.394 522.124Z" fill="#89C5CC"/>
<path opacity="0.5" fill-rule="evenodd" clip-rule="evenodd" d="M676.561 563.537C674.002 563.601 669.751 562.812 668.112 565.266C666.405 567.82 668.43 570.047 670.911 570.571C673.847 571.191 677.676 570.341 680.724 570.332C683.898 570.322 687.073 570.358 690.247 570.37C703.855 570.424 717.522 570.63 731.12 570.067C733.019 569.988 738.409 570.625 739.724 568.804C740.89 567.188 740.074 565.739 738.538 564.916C736.018 563.565 730.841 564.079 728.038 563.972C724.576 563.84 721.11 563.797 717.646 563.743C703.975 563.532 690.232 563.198 676.561 563.537Z" fill="#89C5CC"/>
<path opacity="0.5" fill-rule="evenodd" clip-rule="evenodd" d="M688.073 575.34C682.98 575.427 677.547 575.204 672.505 575.976C668.072 576.655 667.526 580.941 672.298 581.442C676.684 581.903 682 581.042 686.407 580.759C687.973 580.658 689.793 580.801 690.543 579.071C691.326 577.263 689.829 575.529 688.073 575.34Z" fill="#89C5CC"/>
<path opacity="0.5" fill-rule="evenodd" clip-rule="evenodd" d="M726.572 575.79C723.854 575.858 715.914 574.689 714.568 577.794C712.327 582.963 723.075 580.999 725.137 580.923C727.735 580.827 737.863 582.345 737.866 578.208C737.868 574.151 729.061 575.729 726.572 575.79Z" fill="#89C5CC"/>
<path opacity="0.5" fill-rule="evenodd" clip-rule="evenodd" d="M571.934 601.474C571.94 610.877 571.355 620.367 572.213 629.746C572.567 633.625 572.507 641.056 574.754 644.344C576.348 646.679 578.56 646.515 579.432 643.712C580.014 641.838 579.082 638.091 578.979 636.086C578.878 634.163 578.762 632.24 578.673 630.316C578.444 625.358 578.462 620.409 578.53 615.449C578.589 611.194 579.613 605.566 578.647 601.474C577.747 597.661 571.934 596.769 571.934 601.474Z" fill="#69A1AC"/>
<path opacity="0.5" fill-rule="evenodd" clip-rule="evenodd" d="M666.43 593.202C650.117 593.611 633.768 593.246 617.469 594.053C609.431 594.452 601.425 595.326 593.427 596.198C589.498 596.626 585.571 597.068 581.648 597.551C580.465 597.697 570.629 598.078 574.329 601.819C575.944 603.452 581.084 601.746 583.118 601.505C587.056 601.04 591.002 600.635 594.946 600.218C602.45 599.424 609.964 598.672 617.5 598.255C635.25 597.272 653.072 597.567 670.839 596.911C675.645 596.734 680.437 596.607 685.245 596.796C686.507 596.846 695.784 597.317 691.756 593.891C689.852 592.27 682.671 593.106 680.29 593.057C675.671 592.962 671.048 593.086 666.43 593.202Z" fill="#69A1AC"/>
<path opacity="0.5" fill-rule="evenodd" clip-rule="evenodd" d="M691.837 642.808C691.835 642.812 691.832 642.815 691.83 642.819C690.941 644.129 687.657 643.765 686.218 643.862C681.841 644.16 677.545 644.662 673.207 645.312C664.563 646.608 655.994 647.404 647.256 647.62C629.975 648.048 612.623 647.648 595.368 648.832C591.546 649.095 587.782 649.545 584.023 650.264C581.339 650.779 576.166 652.539 575.852 648.104C575.473 642.76 588.881 642.769 592.715 642.412C609.176 640.881 625.908 641.204 642.42 641.434C650.405 641.545 658.375 641.789 666.353 641.301C674.324 640.813 682.564 640.941 690.476 640.084C689.457 636.133 689.606 631.192 689.321 627.155C688.586 616.79 688.783 606.39 688.31 596.015C688.102 591.443 694.328 590.751 696.175 594.451C698.04 598.188 696.828 605.604 696.949 609.748C697.228 619.342 699.007 630.083 697.128 639.572C696.474 642.872 693.69 644.606 691.837 642.808Z" fill="#69A1AC"/>
<path opacity="0.5" fill-rule="evenodd" clip-rule="evenodd" d="M701.871 599.363C699.668 599.663 697.829 601.549 698.813 603.941C700.053 606.953 703.744 605.776 706.182 605.586C713.932 604.978 722.024 606.191 729.68 605.276C731.771 605.026 734.805 603.887 732.928 601.077C731.516 598.966 726.375 599.336 724.189 599.134C716.714 598.443 709.337 598.627 701.871 599.363Z" fill="#C1DEE2"/>
<path opacity="0.5" fill-rule="evenodd" clip-rule="evenodd" d="M714.952 612.504C711.946 612.706 704.949 612.547 703.683 615.967C701.411 622.102 710.31 619.94 713.02 619.591C716.167 619.186 723.587 620.271 725.263 617.219C728.26 611.761 717.588 612.322 714.952 612.504Z" fill="#C1DEE2"/>
<path opacity="0.5" fill-rule="evenodd" clip-rule="evenodd" d="M707.223 625.968C705.797 627.394 705.795 629.942 707.223 631.368C708.971 633.115 712.78 632.752 715.078 632.879C718.282 633.058 727.484 634.753 729.076 630.98C731.222 625.889 722.889 625.996 720.148 625.707C716.98 625.374 709.848 623.341 707.223 625.968Z" fill="#C1DEE2"/>
<path opacity="0.5" fill-rule="evenodd" clip-rule="evenodd" d="M594.901 538.829C594.901 544.302 603.449 544.302 603.449 538.829C603.449 533.385 594.901 533.302 594.901 538.829Z" fill="#89C5CC"/>
<path opacity="0.5" fill-rule="evenodd" clip-rule="evenodd" d="M611.115 538.891C611.115 545.148 620.851 545.135 620.851 538.891C620.851 532.656 611.115 532.592 611.115 538.891Z" fill="#89C5CC"/>
<path opacity="0.5" fill-rule="evenodd" clip-rule="evenodd" d="M601.306 547.21C596.573 548.517 600.933 552.528 603.131 553.444C606.624 554.901 611.39 555.974 614.884 553.79C616.274 552.922 617.402 551.767 616.383 550.081C615.298 548.285 613.812 549.084 612.16 549.249C610.066 549.46 608.375 549.428 606.353 548.756C604.845 548.255 602.952 546.757 601.306 547.21Z" fill="#89C5CC"/>
<path opacity="0.5" fill-rule="evenodd" clip-rule="evenodd" d="M687.154 539.175C687.154 542.877 692.902 542.877 692.902 539.175C692.902 535.473 687.154 535.473 687.154 539.175Z" fill="#89C5CC"/>
<path opacity="0.5" fill-rule="evenodd" clip-rule="evenodd" d="M699.866 539.733C699.866 543.845 706.251 543.846 706.251 539.733C706.251 535.619 699.866 535.62 699.866 539.733Z" fill="#89C5CC"/>
<path opacity="0.5" fill-rule="evenodd" clip-rule="evenodd" d="M699.393 548.658C696.038 549.091 686.337 550.074 685.794 554.209C684.957 560.588 695.587 555.425 698.013 554.924C701.103 554.286 703.863 554.453 706.948 554.577C708.641 554.644 710.894 554.919 710.717 552.339C710.425 548.102 702.325 548.283 699.393 548.658Z" fill="#89C5CC"/>
<path opacity="0.5" fill-rule="evenodd" clip-rule="evenodd" d="M615.055 607.485C612.624 608.133 609.443 612.337 611.116 614.909C613.859 619.128 615.069 612.65 616.217 612.027C618.305 610.892 620.001 615.038 622.184 612.863C625.628 609.432 617.224 606.904 615.055 607.485Z" fill="#69A1AC"/>
<path opacity="0.5" fill-rule="evenodd" clip-rule="evenodd" d="M642.914 604.366C640.031 604.392 633.944 608.475 633.512 611.489C633.256 613.28 634.444 615 636.374 615.024C639.003 615.056 639.839 611.638 642.117 610.924C644.576 610.153 644.211 611.928 646.334 612.848C647.887 613.522 649.83 613.24 650.37 611.33C651.388 607.727 645.877 604.309 642.914 604.366Z" fill="#69A1AC"/>
<path opacity="0.5" fill-rule="evenodd" clip-rule="evenodd" d="M620.843 621.624C616.231 624.326 623.82 630.119 626.45 630.844C630.422 631.937 638.415 629.896 639.356 625.045C639.731 623.114 638.523 621.365 636.392 621.711C634.638 621.996 633.513 624.197 631.887 624.985C629.694 626.048 627.744 625.976 625.88 624.375C624.362 623.07 623.549 620.046 620.843 621.624Z" fill="#69A1AC"/>
<path opacity="0.5" fill-rule="evenodd" clip-rule="evenodd" d="M624.186 661.555C620.065 662.434 615.877 661.844 611.737 662.671C607.515 663.514 604.992 665.108 601.069 663.501C600.885 663.424 600.701 663.346 600.517 663.268C597.481 661.96 594.299 661.573 591.121 663.657C589.241 664.89 583.532 669.156 584.22 671.759C585.711 677.402 592.135 668.553 593.773 667.691C596.896 666.046 599.038 668.147 602.254 668.74C606.105 669.45 609.205 667.415 612.833 666.604C617.077 665.656 621.851 665.326 626.168 664.818C627.874 664.618 634.335 665.967 634.918 663.844C635.92 660.198 625.805 661.212 624.186 661.555Z" fill="#C1DEE2"/>
<path opacity="0.5" fill-rule="evenodd" clip-rule="evenodd" d="M653.913 672.92C654.182 673.124 653.966 672.96 653.913 672.92V672.92ZM665.453 661.335C668.98 660.977 680.266 658.457 682.583 662.102C684.092 664.476 681.697 673.239 679.412 674.372C677.586 675.277 673.332 674.276 671.328 674.205C667.6 674.074 663.863 674.016 660.139 673.783C658.89 673.705 654.871 673.935 653.892 672.83C652.735 671.524 652.787 664.565 652.515 662.84C655.758 663.889 662.062 661.679 665.453 661.335ZM672.985 657.761C668.467 657.957 663.951 658.297 659.467 658.902C656.967 659.24 654.435 660.138 652.127 660.564C651.382 660.701 650.175 660.321 649.262 660.761C646.596 662.049 648.931 670.759 649.574 673.086C650.561 676.66 653.047 677.239 656.529 677.576C661.116 678.02 665.798 677.88 670.399 677.824C674.835 677.77 680.816 678.752 683.305 674.302C684.913 671.424 686.639 664.723 685.264 661.516C683.455 657.296 676.7 657.605 672.985 657.761Z" fill="#C1DEE2"/>
<path opacity="0.5" fill-rule="evenodd" clip-rule="evenodd" d="M723.574 675.314C723.333 675.624 723.333 675.624 723.574 675.314V675.314ZM724.564 674.121C724.49 674.234 724.143 674.6 724.564 674.121V674.121ZM713.791 673.793C715.782 673.418 717.774 673.047 719.768 672.683C717.88 675.326 715.892 674.234 712.667 674.004C713.042 673.933 713.416 673.863 713.791 673.793ZM704.29 672.857C704.795 672.689 705.299 672.52 705.804 672.351C705.789 672.735 705.872 673.095 706.052 673.43C705.188 673.337 704.324 673.236 703.462 673.13C703.738 673.039 704.014 672.948 704.29 672.857ZM699.887 669.606C699.859 668.913 700.902 669.389 701.499 669.342C700.347 670.357 699.81 670.445 699.887 669.606ZM715.633 661.742C715.785 661.549 715.985 661.558 716.235 661.771C715.963 661.863 714.912 662.308 715.633 661.742ZM725.844 660.541C725.871 660.541 726.437 661.306 725.844 660.541V660.541ZM725.557 660.291C725.706 660.404 725.706 660.404 725.557 660.291V660.291ZM724.283 660.142C726.371 660.494 726.212 662.944 724.283 660.142V660.142ZM699.754 659.975C699.33 660.327 699.475 659.985 699.754 659.975V659.975ZM707.739 654.758C704.194 654.965 697.688 654.757 694.728 656.645C690.865 659.11 692.897 667.596 693.243 671.316C693.754 676.814 696.341 678.38 701.519 678.957C707.699 679.646 714.049 679.775 720.26 679.611C725.855 679.464 729.041 677.54 730.065 671.65C730.379 669.848 731.176 667.06 731.151 665.334C731.134 664.136 730.537 663.59 730.311 662.572C729.026 656.775 726.878 656.088 720.936 655.835C716.563 655.649 712.03 654.534 707.739 654.758Z" fill="#89C5CC"/>
</g>
<g opacity="0.5">
<path opacity="0.5" fill-rule="evenodd" clip-rule="evenodd" d="M233.69 510.376C243.196 511.756 253.084 516.227 253.001 527.292C252.932 536.595 245.129 546.496 235.11 545.94C226.093 545.441 217.603 535.58 216.474 527.13C215.889 522.752 216.983 518.039 219.558 514.437C222.933 509.719 228.287 509.726 233.69 510.376ZM229.2 504.362C222.325 504.399 217.294 506.886 213.039 512.136C211.513 514.018 209.738 516.044 208.576 518.177C207.491 520.169 207.682 525.234 211.405 522.859C210.488 532.665 216.219 542.182 224.457 547.207C233.412 552.669 243.534 551.604 250.987 543.948C257.81 536.94 260.211 525.103 255.219 516.436C250.231 507.774 238.673 504.269 229.2 504.362Z" fill="#89C5CC"/>
<path opacity="0.5" fill-rule="evenodd" clip-rule="evenodd" d="M249.817 501.734C245.415 504.96 241.396 509.208 238.057 513.517C234.794 517.728 232.637 522.987 228.717 526.66C226.738 524.504 224.419 518.681 220.47 520.991C217.194 522.908 219.303 526.205 220.899 528.369C225.02 533.958 229.596 536.208 234.881 530.685C239.681 525.67 242.407 518.98 246.895 513.677C248.864 511.349 251.905 509.04 253.473 506.47C254.894 504.142 253.136 499.294 249.817 501.734Z" fill="#89C5CC"/>
</g>
<g opacity="0.5">
<path opacity="0.5" fill-rule="evenodd" clip-rule="evenodd" d="M453.466 198.02C453.463 203.698 453.176 209.494 454.222 215.104C454.539 216.802 454.789 220.055 456.581 220.937C458.381 221.822 460.126 220.827 460.573 218.983C461.095 216.836 459.95 213.624 459.834 211.37C459.675 208.292 459.665 205.209 459.663 202.127C459.662 199.902 460.395 196.321 457.767 195.176C455.813 194.324 453.466 195.907 453.466 198.02Z" fill="#C1DEE2"/>
<path opacity="0.5" fill-rule="evenodd" clip-rule="evenodd" d="M543.233 189.039C524.42 190.927 505.337 191.32 486.456 192.304C477.728 192.759 467.181 192.179 458.958 195.557C457.432 196.185 451.963 199.676 456.403 201.098C457.787 201.542 459.192 200.051 460.329 199.551C462.221 198.72 464.412 198.463 466.43 198.139C483.586 195.384 501.531 195.863 518.864 194.576C523.305 194.246 527.748 193.906 532.18 193.47C535.347 193.159 542.002 190.877 544.924 192.044C549.917 194.038 549.8 206.998 549.899 211.455C549.95 213.76 547.713 222.035 552.16 221.196C555.72 220.524 554.431 211.929 554.154 209.577C553.426 203.414 552.184 188.132 543.233 189.039Z" fill="#C1DEE2"/>
<path opacity="0.5" fill-rule="evenodd" clip-rule="evenodd" d="M550.171 220.897C533.83 222.373 517.112 220.925 500.704 221.505C492.103 221.81 483.512 222.294 474.91 222.578C471.19 222.702 467.466 222.707 463.744 222.733C461.964 222.745 453.862 223.824 458.874 227.354C461.093 228.916 468.165 227.658 470.711 227.627C474.535 227.582 478.358 227.423 482.179 227.274C491.032 226.928 499.879 226.448 508.736 226.208C517.208 225.979 525.685 225.93 534.156 225.7C538.372 225.586 542.645 225.457 546.823 224.841C547.766 224.702 550.828 224.592 551.483 223.54C552.101 222.546 551.667 220.753 550.171 220.897Z" fill="#89C5CC"/>
<path opacity="0.5" fill-rule="evenodd" clip-rule="evenodd" d="M469.858 208.628C469.77 208.836 469.77 208.836 469.858 208.628V208.628ZM476.935 206.478C477.193 206.587 477.193 206.587 476.935 206.478V206.478ZM476.603 206.418C480.417 210.305 474.552 214.945 470.98 211.151C467.188 207.125 474.148 206.431 476.603 206.418ZM472.559 200.537C459.423 202.875 464.074 220.381 476.342 217.851C481.728 216.74 484.809 211.314 482.955 206.102C482.23 204.066 480.652 201.831 478.453 201.189C477.357 200.869 476.387 201.373 475.343 201.255C474.348 201.143 473.795 200.314 472.559 200.537Z" fill="#C1DEE2"/>
<path opacity="0.5" fill-rule="evenodd" clip-rule="evenodd" d="M522.83 205.465C514.909 205.49 506.986 205.826 499.067 205.976C496.637 206.022 490.394 204.935 490.384 208.765C490.374 212.857 497.328 211.345 499.643 211.29C507.499 211.102 515.374 210.758 523.199 210.01C525.175 209.821 532.017 210.147 532.011 207.46C532.003 204.612 524.426 205.465 522.83 205.465Z" fill="#C1DEE2"/>
<path opacity="0.5" fill-rule="evenodd" clip-rule="evenodd" d="M541.749 232.173C522.158 232.698 502.598 232.882 483.023 233.884C475.702 234.259 468.39 234.538 461.057 234.538C459.645 234.538 456.802 233.991 455.473 234.881C451.866 237.293 455.973 239.363 458.324 239.494C474.404 240.386 490.717 238.165 506.789 237.663C516.197 237.37 525.608 237.283 535.011 236.805C537.576 236.674 540.142 236.523 542.703 236.324C544.176 236.21 548.071 236.523 549.261 235.661C554.458 231.899 543.501 232.126 541.749 232.173Z" fill="#89C5CC"/>
<path opacity="0.5" fill-rule="evenodd" clip-rule="evenodd" d="M451.865 241.752C451.681 246.831 451.662 251.821 452.327 256.872C452.588 258.86 452.708 261.115 455.038 261.621C457.154 262.079 458.227 260.479 458.665 258.704C459.735 254.371 458.793 248.135 458.781 243.634C458.775 241.409 458.773 238.918 456.023 238.415C453.925 238.03 451.945 239.547 451.865 241.752Z" fill="#89C5CC"/>
<path opacity="0.5" fill-rule="evenodd" clip-rule="evenodd" d="M562.513 253.996C530.802 255.668 499.132 257.126 467.397 258.468C464.922 258.573 445.696 258.363 452.418 265.068C454.494 267.138 459.843 265.736 462.527 265.605C466.562 265.406 470.599 265.255 474.633 265.049C490.63 264.235 506.668 264.015 522.653 263.102C531.449 262.599 540.226 261.812 548.977 260.787C553.139 260.3 558.306 260.351 562.204 258.72C564.209 257.88 566.373 253.792 562.513 253.996Z" fill="#89C5CC"/>
<path opacity="0.5" fill-rule="evenodd" clip-rule="evenodd" d="M544.28 228.231C541.868 230.633 543.108 235.372 543.29 238.34C543.54 242.426 543.844 246.513 544.354 250.576C544.685 253.215 544.51 257.323 545.918 259.603C547.567 262.272 551.197 261.977 552.688 259.398C554.006 257.117 553.339 252.317 553.305 249.789C553.258 246.294 553.04 242.793 552.832 239.304C552.659 236.388 553.32 231.716 551.716 229.22C550.086 226.684 546.54 225.984 544.28 228.231Z" fill="#89C5CC"/>
<path opacity="0.5" fill-rule="evenodd" clip-rule="evenodd" d="M471.796 246.87C471.514 247.088 471.514 247.088 471.796 246.87V246.87ZM477.429 246.165C482.685 247.222 474.186 253.358 471.501 249.146C471.081 248.488 470.863 247.68 471.536 247.108C472.151 246.585 472.537 247.51 473.118 247.262C474.118 246.833 476.362 246.125 477.429 246.165ZM476.704 241.127C473.116 241.411 468.182 241.632 466.406 245.229C464.02 250.061 468.101 254.792 472.822 255.527C477.364 256.235 484.147 253.718 484.51 248.42C484.804 244.148 480.741 240.799 476.704 241.127Z" fill="#89C5CC"/>
<path opacity="0.5" fill-rule="evenodd" clip-rule="evenodd" d="M506.661 243.682C502.946 243.742 495.645 242.643 492.409 244.454C489.207 246.245 490.635 249.436 493.556 250.199C495.487 250.703 498.642 249.889 500.653 249.807C503.297 249.7 505.944 249.676 508.59 249.64C513.04 249.58 517.489 249.631 521.939 249.631C526.485 249.631 531.108 249.755 535.646 249.421C541.387 248.998 541.233 244.699 535.618 244.161C526.079 243.248 516.23 243.531 506.661 243.682Z" fill="#89C5CC"/>
<path opacity="0.5" fill-rule="evenodd" clip-rule="evenodd" d="M497.172 291.831C497.172 293.874 498.985 291.831 498.972 291.831C498.985 291.831 497.172 289.788 497.172 291.831Z" fill="#89C5CC"/>
<path opacity="0.5" fill-rule="evenodd" clip-rule="evenodd" d="M456.177 275.389C456.294 281.326 456.37 287.269 456.624 293.201C456.704 295.077 456.167 298.74 458.441 299.697C460.972 300.761 461.759 298.108 462.05 296.31C462.973 290.614 462.068 284.11 461.98 278.346C461.95 276.41 462.369 273.716 460.17 272.751C458.378 271.964 456.14 273.426 456.177 275.389Z" fill="#89C5CC"/>
<path opacity="0.5" fill-rule="evenodd" clip-rule="evenodd" d="M553.815 275.482C553.965 275.835 553.965 275.835 553.815 275.482V275.482ZM554.027 275.421C554.148 275.472 554.64 275.678 554.027 275.421V275.421ZM506.063 270.623C496.948 270.765 487.828 270.874 478.719 271.264C474.831 271.431 470.899 271.565 467.025 271.932C464.281 272.191 457.464 272.299 455.684 274.542C452.012 279.17 459.8 277.908 461.477 277.532C464.53 276.848 467.646 276.628 470.765 276.464C477.533 276.107 484.303 275.916 491.079 275.78C509.453 275.41 527.841 275.466 546.219 275.383C547.999 275.375 551.215 274.66 552.858 275.379C554.504 276.101 554.411 277.874 554.582 279.934C554.81 282.674 553.003 287.895 554.38 290.199C556.516 293.774 559.622 290.739 560.097 288.133C560.752 284.531 559.713 280.207 558.695 276.765C557.259 271.908 555.265 271.715 550.567 271.336C545.079 270.892 539.61 270.623 534.104 270.572C524.759 270.487 515.407 270.477 506.063 270.623Z" fill="#89C5CC"/>
<path opacity="0.5" fill-rule="evenodd" clip-rule="evenodd" d="M542.113 295.166C522.344 297.461 502.012 296.109 482.137 296.19C477.304 296.21 472.466 296.248 467.638 296.483C465.088 296.606 459.042 295.903 457.295 297.87C453.612 302.018 460.247 302.621 462.668 302.449C467.565 302.101 472.474 301.942 477.383 301.904C494.676 301.771 512.066 302.577 529.345 301.724C536.584 301.367 543.661 300.129 550.766 298.745C552.34 298.438 563.115 296.39 556.971 293.935C553.339 292.484 545.928 294.72 542.113 295.166Z" fill="#89C5CC"/>
<path opacity="0.5" fill-rule="evenodd" clip-rule="evenodd" d="M484.392 287.574C484.254 287.751 484.254 287.751 484.392 287.574V287.574ZM484.259 287.543C484.212 287.67 484.067 287.984 484.259 287.543V287.543ZM483.012 285.934C483.041 285.972 483.159 286.122 483.012 285.934V285.934ZM482.964 285.922C483.44 286.491 483.761 287.125 483.926 287.824C479.83 288.933 478.251 285.62 482.964 285.922ZM482.705 285.767C482.706 285.768 483.283 286.01 482.705 285.767V285.767ZM475.976 280.83C473.325 284.132 471.137 287.979 474.442 291.75C477.397 295.121 483.343 295.556 487.093 293.306C490.957 290.986 490.623 286.104 487.928 282.917C486.193 280.865 484.786 280.922 482.269 280.587C480.554 280.359 477.431 279.026 475.976 280.83Z" fill="#89C5CC"/>
<path opacity="0.5" fill-rule="evenodd" clip-rule="evenodd" d="M503.38 286.94C503.38 291.336 522.361 289.444 525.738 289.44C528.566 289.435 545.67 290.996 544.443 286.472C543.434 282.755 526.587 284.603 522.999 284.597C519.897 284.593 503.38 282.463 503.38 286.94Z" fill="#89C5CC"/>
</g>
<g opacity="0.5">
<path opacity="0.5" fill-rule="evenodd" clip-rule="evenodd" d="M30.7022 392.542C29.1292 394.112 29.7402 399.694 29.7072 401.759C29.6566 404.975 29.8567 408.162 30.1255 411.366C30.3057 413.511 31.3211 433.983 34.1467 432.411C35.7397 431.525 34.741 425.603 34.7382 423.73C34.7317 419.565 34.5585 415.411 34.2809 411.256C34.0227 407.398 33.8607 403.586 34.0093 399.721C34.0455 398.777 34.9281 388.308 30.7022 392.542Z" fill="#89C5CC"/>
<path opacity="0.5" fill-rule="evenodd" clip-rule="evenodd" d="M99.2036 390.018C85.6901 390.126 72.1822 390.792 58.6752 391.201C52.1756 391.397 45.6803 391.647 39.1877 392.007C36.9754 392.13 32.2304 391.422 30.3872 392.6C26.2954 395.218 32.8943 395.83 34.6535 395.766C61.3838 394.796 88.1234 393.52 114.876 393.459C128 393.43 141.117 393.804 154.242 393.72C159.259 393.688 164.815 391.526 166.082 397.366C167.512 403.956 165.869 411.293 165.421 417.914C165.123 422.335 165.229 426.663 165.428 431.08C165.556 433.909 165.224 437.098 165.724 439.874C166.205 442.548 168.127 444.151 169.889 441.156C170.942 439.367 170.418 434.948 170.488 432.874C170.582 430.082 170.494 427.291 170.494 424.498C170.493 417.681 171.455 410.891 171.328 404.075C171.246 399.681 171.013 391.713 165.47 390.657C159.366 389.494 151.863 390.664 145.616 390.592C130.138 390.416 114.687 389.897 99.2036 390.018Z" fill="#89C5CC"/>
<path opacity="0.5" fill-rule="evenodd" clip-rule="evenodd" d="M61.9678 432.655C56.8722 432.655 51.7762 432.686 46.6812 432.77C42.3113 432.843 35.4408 431.932 31.3737 433.495C28.5893 434.566 27.8497 437.674 31.3737 438.502C35.217 439.406 41.0095 437.929 45.0306 437.858C65.1946 437.502 85.5526 437.038 105.688 438.313C124.556 439.508 143.787 440.666 162.682 439.405C164.272 439.299 172.38 438.976 168.681 435.937C166.522 434.163 157.774 435.33 154.968 435.245C145.074 434.946 135.17 434.88 125.279 434.505C115.517 434.135 105.798 433.037 96.0324 432.765C84.6871 432.45 73.3168 432.655 61.9678 432.655Z" fill="#89C5CC"/>
<path opacity="0.5" fill-rule="evenodd" clip-rule="evenodd" d="M56.8695 403.673C64.8115 404.02 72.6691 415.538 64.6332 421.105C57.0946 426.328 42.966 420.604 47.158 410.475C46.5553 411.94 47.9199 408.884 47.9371 408.864C48.7342 407.925 50.1656 406.885 51.1481 406.145C52.2726 405.298 53.4435 404.365 54.7992 403.94C55.6892 403.662 55.5495 404.71 56.8695 403.673ZM53.0015 399.519C49.2844 400.97 47.5879 402.608 45.0334 405.57C43.2659 407.62 41.0127 408.699 41.0327 411.47C41.0368 412.083 41.8247 412.757 41.9608 413.347C42.1488 414.164 41.9311 415.209 42.0801 416.077C43.6178 425.026 54.2955 428.043 62.1112 426.353C68.9195 424.882 74.0113 418.346 72.4342 411.24C70.8463 404.086 60.2378 396.689 53.0015 399.519Z" fill="#89C5CC"/>
<path opacity="0.5" fill-rule="evenodd" clip-rule="evenodd" d="M49.6905 412.012C49.6905 415.231 54.7758 415.231 54.7758 412.012C54.7758 408.829 49.6905 408.693 49.6905 412.012Z" fill="#89C5CC"/>
<path opacity="0.5" fill-rule="evenodd" clip-rule="evenodd" d="M56.0526 411.36C56.0526 413.919 60.0933 413.919 60.0933 411.36C60.0933 408.831 56.0526 408.723 56.0526 411.36Z" fill="#89C5CC"/>
<path opacity="0.5" fill-rule="evenodd" clip-rule="evenodd" d="M57.3038 416.636C56.0099 417.134 54.3686 416.102 53.3063 416.782C51.4251 417.986 53.311 419.076 54.3194 419.56C58.8597 421.738 59.6675 415.731 57.3038 416.636Z" fill="#89C5CC"/>
<path opacity="0.5" fill-rule="evenodd" clip-rule="evenodd" d="M126.644 409.501C126.509 409.559 126.027 409.763 126.644 409.501V409.501ZM106.872 406.612C103.474 407.379 100.604 410.552 96.9123 410.128C94.0829 409.802 92.1673 407.072 89.3741 406.675C85.801 406.167 76.0765 414.318 81.1892 415.716C84.1723 416.533 85.827 411.081 88.4623 410.792C90.5469 410.563 93.3819 413.119 95.5422 413.483C99.5722 414.162 102.34 411.942 105.878 410.511C109.722 408.955 111.909 410.356 115.253 412.085C117.892 413.45 120.377 414.338 123.397 413.775C126.231 413.247 129.791 410.333 132.643 410.632C135.437 410.925 137.431 413.84 140.305 414.111C141.49 414.222 143.254 414.626 143.055 412.798C142.896 411.334 141.262 411.582 140.24 411.05C137.612 409.682 135.155 407.258 131.983 407.464C129.598 407.62 127.426 409.296 125.227 410.098C118.027 412.724 113.979 405.017 106.872 406.612Z" fill="#89C5CC"/>
<path opacity="0.5" fill-rule="evenodd" clip-rule="evenodd" d="M112.887 452.981C98.998 453.108 85.0625 453.314 71.2128 454.428C67.9294 454.691 34.4024 457.857 34.466 458.085C34.5835 458.507 38.8957 459.151 38.8688 459.251C38.5782 458.53 37.9138 458.232 36.8761 458.356C68.6736 458.356 100.37 455.509 132.21 456.021C140.21 456.15 148.24 456.096 156.235 456.348C158.231 456.411 163.176 457.842 164.743 456.941C168.857 454.575 161.384 454.302 160.146 454.203C144.477 452.949 128.599 452.824 112.887 452.981Z" fill="#69A1AC"/>
<path opacity="0.5" fill-rule="evenodd" clip-rule="evenodd" d="M30.3499 459.729C28.2736 461.81 30.1855 469.299 30.2672 472.114C30.3856 476.183 30.2881 480.282 30.6452 484.34C31.0528 488.977 31.6852 493.916 32.9016 498.414C33.5715 500.892 35.9232 504.831 36.855 500.328C37.5203 497.112 36.51 492.845 36.1585 489.569C35.6882 485.186 35.5745 480.861 35.5568 476.457C35.541 472.619 35.4672 468.766 35.1524 464.94C34.989 462.954 33.9899 456.108 30.3499 459.729Z" fill="#69A1AC"/>
<path opacity="0.5" fill-rule="evenodd" clip-rule="evenodd" d="M82.5881 497.868C72.7323 498.037 62.8551 498.269 53.0159 498.885C48.9831 499.137 44.9536 499.513 40.9357 499.94C40.1157 500.026 31.0408 500.395 35.0959 503.744C36.9261 505.256 44.455 503.165 46.9417 502.948C51.124 502.581 55.3053 502.343 59.4997 502.165C69.2181 501.753 78.9662 501.388 88.6944 501.557C106.461 501.865 124.113 502.003 141.884 501.607C144.409 501.55 164.19 502.079 164.862 499.452C165.403 497.335 158.329 498.306 157.04 498.345C152.308 498.486 147.576 498.453 142.843 498.429C122.792 498.326 102.624 497.529 82.5881 497.868Z" fill="#69A1AC"/>
<path opacity="0.5" fill-rule="evenodd" clip-rule="evenodd" d="M161.513 456.216C161.826 464.991 163.32 473.757 163.798 482.558C164.016 486.582 164.274 490.602 164.47 494.627C164.534 495.925 164.011 499.053 165.546 499.8C167.652 500.825 167.936 498.76 168.33 497.364C169.469 493.331 168.699 488.093 168.595 483.951C168.495 479.939 168.488 475.921 168.193 471.917C167.889 467.826 167.066 463.813 166.684 459.736C166.522 458.012 167.087 455.143 165.257 454.074C163.675 453.149 161.445 454.314 161.513 456.216Z" fill="#69A1AC"/>
<path opacity="0.5" fill-rule="evenodd" clip-rule="evenodd" d="M64.6388 470.814C64.6764 470.842 64.7135 470.872 64.7507 470.901C64.7135 470.872 64.6759 470.843 64.6388 470.814ZM56.2631 468.214C59.3863 469.106 61.9515 468.773 64.935 471.047C67.4082 472.932 69.9451 475.69 70.7655 478.738C72.6607 485.781 66.2354 489.64 60.2118 489.716C54.0419 489.794 44.9094 488.363 45.2256 480.454C45.4679 474.378 49.9047 468.449 56.2631 468.214ZM56.4831 464.234C48.3841 464.637 41.8512 473.732 41.9213 481.388C42.0058 490.667 52.5195 493.057 59.988 493.122C68.4171 493.194 76.8226 487.374 74.5638 477.895C72.754 470.3 64.2715 463.829 56.4831 464.234Z" fill="#69A1AC"/>
<path opacity="0.5" fill-rule="evenodd" clip-rule="evenodd" d="M48.3364 476.692C48.3364 479.279 52.4244 479.279 52.4244 476.692C52.4244 474.134 48.3364 474.024 48.3364 476.692Z" fill="#69A1AC"/>
<path opacity="0.5" fill-rule="evenodd" clip-rule="evenodd" d="M56.9112 475.556C56.9112 478.164 61.0317 478.164 61.0317 475.556C61.0317 472.978 56.9112 472.867 56.9112 475.556Z" fill="#69A1AC"/>
<path opacity="0.5" fill-rule="evenodd" clip-rule="evenodd" d="M52.184 481.458C49.5232 484.115 58.8706 488.772 61.0751 485.076C62.8858 482.041 58.9435 483.047 57.546 482.883C56.0273 482.704 53.4236 480.222 52.184 481.458Z" fill="#69A1AC"/>
<path opacity="0.5" fill-rule="evenodd" clip-rule="evenodd" d="M126.919 475.61C126.662 475.717 126.662 475.717 126.919 475.61V475.61ZM91.8162 471.285C89.122 471.79 80.2801 474.773 80.1608 477.97C79.9426 483.78 88.602 477.829 90.4823 477.064C95.5904 474.989 98.2745 479.223 103.406 479.447C107.862 479.641 111.96 475.827 116.158 476.278C120.557 476.75 122.673 481.43 127.751 478.945C130.437 477.631 130.369 475.605 127.354 475.414C125.531 475.298 124.279 476.052 122.378 475.267C119.406 474.042 118.209 472.046 114.653 472.363C111.969 472.602 109.544 474.114 106.925 474.7C100.926 476.04 97.5994 470.202 91.8162 471.285Z" fill="#69A1AC"/>
<path opacity="0.5" fill-rule="evenodd" clip-rule="evenodd" d="M147.612 478.133C147.426 478.21 147.426 478.21 147.612 478.133V478.133ZM148.291 475.713C148.321 475.726 148.525 476.008 148.291 475.713V475.713ZM145.203 473.867C145.087 473.956 145.087 473.956 145.203 473.867V473.867ZM145.27 473.844C145.869 474.202 150.684 477.495 147.187 478.27C145.411 478.664 143.942 475.091 145.27 473.844ZM143.676 470.196C135.963 473.713 144.263 486.298 150.316 481.185C152.863 479.033 153.198 474.684 150.721 472.443C149.236 471.099 145.691 469.276 143.676 470.196Z" fill="#69A1AC"/>
<path opacity="0.5" fill-rule="evenodd" clip-rule="evenodd" d="M71.2709 519.79C61.6463 519.793 51.9372 519.591 42.3255 520.162C40.7079 520.258 34.5459 519.95 33.7126 521.641C32.1878 524.734 38.5281 523.198 39.4493 523.106C58.5871 521.19 78.5783 522.292 97.7793 522.838C113.483 523.285 129.102 523.562 144.787 524.371C148.91 524.584 153.029 524.819 157.149 525.067C158.492 525.148 161.872 526.038 162.155 523.894C162.417 521.909 158.201 522.357 157.148 522.301C148.773 521.861 140.404 521.399 132.032 520.927C111.879 519.791 91.4553 519.787 71.2709 519.79Z" fill="#89C5CC"/>
<path opacity="0.5" fill-rule="evenodd" clip-rule="evenodd" d="M33.4035 523.23C31.6058 525.017 32.4485 531.84 32.3983 534.096C32.3106 538.041 32.1244 541.982 32.0408 545.926C31.954 550.048 32.0747 554.189 32.3185 558.304C32.4206 560.032 33.839 568.385 36.0722 563.605C37.07 561.469 36.0481 555.52 36.0634 553.1C36.0908 548.695 36.3281 544.309 36.5472 539.911C36.7357 536.129 36.7427 532.345 36.908 528.563C36.9604 527.357 37.103 519.519 33.4035 523.23Z" fill="#89C5CC"/>
<path opacity="0.5" fill-rule="evenodd" clip-rule="evenodd" d="M163.774 558.465C154.407 559.425 144.891 558.971 135.488 559.68C127.385 560.291 119.289 560.541 111.165 560.713C92.7689 561.101 74.3414 561.48 55.9984 563.013C51.818 563.362 47.6427 563.733 43.4511 563.92C41.3548 564.014 32.5585 563.06 31.9034 565.27C30.7877 569.033 40.1946 567.544 42.2235 567.485C46.6853 567.356 51.1262 567.033 55.5754 566.694C74.2787 565.27 93.0535 564.844 111.797 564.251C121.991 563.929 132.113 563.184 142.285 562.505C147.354 562.167 152.438 562.156 157.507 561.828C158.833 561.742 163.528 561.912 164.482 560.844C165.138 560.111 165.303 558.322 163.774 558.465Z" fill="#89C5CC"/>
<path opacity="0.5" fill-rule="evenodd" clip-rule="evenodd" d="M160.599 523.87C160.92 532.852 161.428 541.827 161.731 550.81C161.822 553.511 161.006 558.352 162.51 560.734C164.929 564.564 166.817 560.511 167.26 558.124C168.658 550.591 167.155 542.269 166.764 534.69C166.616 531.798 167.514 525.362 166.116 522.775C164.785 520.309 160.48 520.557 160.599 523.87Z" fill="#89C5CC"/>
<path opacity="0.5" fill-rule="evenodd" clip-rule="evenodd" d="M144.874 536.663C148.462 537.635 148.986 545.437 144.937 546.014C138.91 546.873 141.546 538.271 144.874 536.663ZM143.868 533.56C142.774 533.526 140.247 533.224 139.572 534.115C139.008 534.861 139.578 536.434 139.512 537.144C139.275 539.682 137.211 541.148 138.134 544.145C138.76 546.179 140.437 548.09 142.481 548.797C153.266 552.524 153.135 531.685 143.868 533.56Z" fill="#89C5CC"/>
<path opacity="0.5" fill-rule="evenodd" clip-rule="evenodd" d="M46.496 534.96C46.4691 534.995 46.4422 535.029 46.4157 535.063C46.4422 535.029 46.4691 534.995 46.496 534.96ZM54.9669 530.453C54.9247 530.093 54.8824 529.732 54.8402 529.37C60.6878 532.131 65.3409 537.265 63.3993 544.157C61.9177 549.415 56.565 551.28 51.5781 549.982C46.0577 548.545 43.4197 543.995 44.9082 538.407C45.5948 535.829 47.7036 532.365 50.4294 531.537C51.6983 531.151 54.5045 532.134 54.9669 530.453ZM51.5474 528.27C50.0682 528.37 48.6285 528.987 47.4213 529.829C48.5514 528.874 50.0575 528.304 51.5474 528.27ZM51.5897 524.875C47.9358 524.986 45.5414 527.198 43.3742 529.855C42.694 530.689 40.3944 532.899 40.679 534.023C40.9042 534.911 41.4933 536.21 42.7339 535.22C36.2362 548.17 53.022 559.215 63.2693 550.21C72.8326 541.806 63.3445 524.481 51.5897 524.875Z" fill="#89C5CC"/>
<path opacity="0.5" fill-rule="evenodd" clip-rule="evenodd" d="M48.2697 536.904C48.2697 538.628 50.9468 538.628 50.9468 536.904C50.9468 535.18 48.2697 535.18 48.2697 536.904Z" fill="#89C5CC"/>
<path opacity="0.5" fill-rule="evenodd" clip-rule="evenodd" d="M52.8382 537.198C52.8382 538.951 55.5585 538.951 55.5585 537.198C55.5585 535.446 52.8382 535.446 52.8382 537.198Z" fill="#89C5CC"/>
<path opacity="0.5" fill-rule="evenodd" clip-rule="evenodd" d="M54.9114 543.353C53.6388 543.456 48.9806 543.024 48.163 544.139C46.7966 546.001 48.9774 546.066 50.0485 546.267C51.0133 546.449 55.2072 546.346 55.7982 545.49C56.3205 544.733 56.1984 543.244 54.9114 543.353Z" fill="#89C5CC"/>
<path opacity="0.5" fill-rule="evenodd" clip-rule="evenodd" d="M111.035 538.523C110.816 538.613 110.816 538.613 111.035 538.523V538.523ZM93.4341 537.235C90.5667 537.446 88.138 539.095 85.3964 539.754C82.47 540.456 81.2034 539.164 78.5426 538.318C75.7745 537.438 73.8055 537.786 71.5806 539.676C70.3201 540.748 67.5543 543.213 68.3422 545.116C70.1464 549.471 74.2303 542.385 76.1511 542.056C79.1476 541.542 81.8135 544.162 85.2687 543.412C88.3998 542.733 91.1781 540.583 94.4486 540.56C97.1832 540.541 99.7604 542.037 102.46 542.399C106.582 542.952 109.288 541.489 113.098 540.402C116.402 539.46 118.719 540.703 121.826 541.747C123.246 542.225 127.985 543.961 127.113 540.813C126.866 539.924 120.621 538.334 119.653 538.028C116.239 536.949 114.077 537.37 110.824 538.61C108.112 539.644 105.831 540.148 102.922 539.579C99.7182 538.952 96.8043 536.979 93.4341 537.235Z" fill="#89C5CC"/>
</g>
<path fill-rule="evenodd" clip-rule="evenodd" d="M162.643 294.506C157.186 289.493 153.115 283.028 152.711 275.274C151.545 252.931 182.98 254.018 190.351 264.462C197.722 274.906 200.491 303.354 192.985 306.304C189.991 307.48 183.165 306.337 175.966 303.12L183.828 332.369L158.985 335.419L162.643 294.506Z" fill="#915B3C"/>
<path fill-rule="evenodd" clip-rule="evenodd" d="M174.609 253.315C171.269 253.18 162.407 253.893 160.782 254.093C159.743 254.221 158.646 254.596 157.913 253.718C157.314 252.998 157.336 251.654 157.074 250.766C156.77 249.735 156.395 248.726 156.016 247.719C154.94 244.856 153.516 242.182 151.682 239.732C148.24 235.135 143.612 231.772 138.093 230.162C131.999 228.384 125.378 228.618 119.213 229.888C112.616 231.246 106.854 234.186 100.817 237.029C95.0641 239.737 88.8799 241.285 82.4912 241.091C76.0543 240.897 70.8602 238.059 65.1322 235.463C59.2684 232.806 52.7668 231.395 46.3791 232.687C40.4164 233.893 35.1732 237.06 30.6029 240.992C26.3269 244.671 22.9428 248.88 21.4191 254.407C19.7798 260.353 20.5447 266.564 24.997 271.094C31.4505 277.66 42.0089 278.267 50.5787 277.025C55.5357 276.308 60.3056 274.801 64.7953 272.575C70.7829 269.605 75.7326 265.21 81.2154 261.465C83.7885 259.707 86.4852 258.192 89.3588 256.986C92.1472 255.815 94.9464 255.092 97.7761 256.516C100.769 258.022 103.471 259.531 106.778 260.298C109.951 261.034 113.243 261.259 116.475 260.837C122.764 260.015 128.727 257.292 134.679 255.228C139.533 253.545 144.736 251.823 149.944 252.228C152.118 252.397 155.325 252.904 156.361 255.014C143.756 258.933 140.651 275.499 145.722 286.757C148.459 292.833 161.157 298.77 165.334 294.886C167.98 292.426 165.878 289.88 164.512 288.197C161.898 284.973 160.6 280.579 164.345 277.652C167.576 275.127 171.855 279.656 171.923 279.642C172.873 279.448 180.581 273.746 185.449 266.209C191.121 265.852 191.519 262.034 189.802 259.163C188.085 256.292 179.224 253.502 174.609 253.315Z" fill="#191847"/>
<path fill-rule="evenodd" clip-rule="evenodd" d="M167.491 420.686L205.693 552.327L223.661 651.166H241.696L223.693 420.686H167.491Z" fill="#784931"/>
<path fill-rule="evenodd" clip-rule="evenodd" d="M150.322 420.686C152.988 489.073 151.937 526.373 151.34 532.586C150.743 538.8 147.356 580.412 124.277 653.252H143.035C173.6 583.374 184.27 541.762 187.775 532.586C191.281 523.411 201.634 486.111 216.75 420.686H150.322Z" fill="#915B3C"/>
<path fill-rule="evenodd" clip-rule="evenodd" d="M166.671 420.686C176.608 465.984 193.794 538.292 218.231 637.608H244.609C246.557 535.669 238.269 468.576 223.916 420.686H166.671Z" fill="#69A1AC"/>
<path fill-rule="evenodd" clip-rule="evenodd" d="M150.189 420.686C152.8 489.073 146.034 556.447 125.077 638.673H153.22C183.842 569.839 205.789 502.797 220.788 420.686H150.189Z" fill="#C5CFD6"/>
<path fill-rule="evenodd" clip-rule="evenodd" d="M121.603 666.809L122.638 650.123C128.698 651.895 136.288 651.2 145.408 648.037C155.214 654.983 167.559 659.727 182.443 662.267L182.443 662.267C183.578 662.46 184.342 663.538 184.148 664.673C184.136 664.747 184.119 664.82 184.099 664.892L182.668 669.938H145.408H123.673L121.603 666.809Z" fill="#191847"/>
<path fill-rule="evenodd" clip-rule="evenodd" d="M219.635 666.809L220.67 650.123C226.73 651.895 234.32 651.2 243.44 648.037C253.247 654.983 265.592 659.727 280.475 662.267L280.475 662.267C281.611 662.46 282.374 663.538 282.18 664.673C282.168 664.747 282.151 664.82 282.131 664.892L280.7 669.938H243.44H221.705L219.635 666.809Z" fill="#191847"/>
<path fill-rule="evenodd" clip-rule="evenodd" d="M253.614 397.011L290.617 415.291C299.926 416.122 307.875 417.796 314.466 420.314C316.1 421.348 318.261 423.647 312.341 424.228C306.422 424.808 300.221 425.685 299.767 427.82C299.312 429.954 303.266 431.713 302.111 434.688C301.341 436.671 295.419 433.083 284.343 423.923L249.529 416.19L253.614 397.011ZM127.974 420.021L149.452 416.321C143.743 461.438 140.591 485.398 139.996 488.202C138.658 494.511 145.269 502.594 148.27 507.035C141.818 511.404 140.517 499.665 132.406 505.334C125.003 510.508 120.066 518.389 109.734 514.282C108.464 513.777 106.74 511.337 109.406 508.723C116.049 502.209 125.34 491.22 126.285 487.975C127.574 483.551 128.137 460.899 127.974 420.021Z" fill="#915B3C"/>
<path fill-rule="evenodd" clip-rule="evenodd" d="M173.088 319.206L181.7 316.117C219.671 338.772 242.847 391.07 288.345 412.917L280.749 426.682C209.149 430.361 180.021 366.721 173.088 319.206Z" fill="#194742"/>
<path fill-rule="evenodd" clip-rule="evenodd" d="M154.052 437.64C189.662 431.361 215.856 426.742 232.634 423.784C236.224 423.151 234.634 418.085 233.653 415.56C222.338 386.421 193.214 357.995 185.635 315.012L162.341 315.454C148.91 348.913 148.972 387.18 154.052 437.64Z" fill="#DDE3E9"/>
<path fill-rule="evenodd" clip-rule="evenodd" d="M139.265 350.083C135.806 349.718 132.81 347.97 130.277 344.841C119.356 331.353 120.897 322.595 129.273 318.329C137.65 314.062 146.528 318.242 160.635 315.755C161.402 315.62 162.113 315.544 162.768 315.528L169.935 314.681C202.46 380.089 216.192 425.134 211.131 449.814L149.281 460.72C147.124 469.911 144.885 477.719 142.565 484.143L125.712 487.115C115.083 436.111 119.601 390.433 139.265 350.083Z" fill="#1E554E"/>
<path fill-rule="evenodd" clip-rule="evenodd" d="M156.501 422.909C161.316 438.841 166.561 450.096 172.234 456.673L149.281 460.72C151.799 449.999 154.205 437.395 156.501 422.909L156.501 422.909Z" fill="black" fill-opacity="0.1"/>
<path d="M545 679.666C502.474 679.666 468 646.759 468 606.166C468 565.573 502.474 532.666 545 532.666C587.526 532.666 622 565.573 622 606.166C622 646.759 587.526 679.666 545 679.666Z" fill="#C5CFD6"/>
<path fill-rule="evenodd" clip-rule="evenodd" d="M399.491 668.326C412.304 639.968 421.57 615.275 425.289 602.246C431.657 579.939 436.502 560.31 437.727 552.979C440.647 535.499 415.265 534.481 411.91 543.168C406.832 556.317 397.967 599.519 387.315 664.774L399.491 668.326ZM548.112 579.33C536.356 574.683 495.188 560.141 475.333 556.028C469.627 554.846 464.097 553.747 458.898 552.755C443.444 549.804 435.437 577.684 450.321 579.826C487.388 585.161 539.937 590.67 544.434 591.288C550.737 592.154 555.5 582.25 548.112 579.33Z" fill="#B28B67"/>
<path fill-rule="evenodd" clip-rule="evenodd" d="M449.413 545.083L513 512.713V505.666H505.438C443.92 521.342 412.485 531.388 411.131 535.804C411.117 535.852 411.103 535.899 411.091 535.947C411.06 535.988 411.03 536.028 411 536.07C398.808 552.836 391.507 634.693 389.111 640.823L412.472 644.308C421.409 611.17 450 588.084 449.241 548.395C449.446 547.231 449.497 546.127 449.413 545.083Z" fill="#039588"/>
<path fill-rule="evenodd" clip-rule="evenodd" d="M507.717 564.307C513.535 563.142 518.893 562.103 523.477 561.299C553.091 556.104 561.726 540.253 556.62 505.666L502.058 505.666C493.145 508.227 446.826 527.651 422.793 537.983C406.887 544.821 411.901 569.471 420.909 575.886C420.958 576.279 421.12 576.547 421.409 576.666C469.863 596.749 508.195 586.212 521 589.579L526.923 570.895L507.717 564.307Z" fill="#04C7B6"/>
<path fill-rule="evenodd" clip-rule="evenodd" d="M544.092 576.36C547.267 576.664 549.521 577.141 550.853 577.791C552.474 578.581 554.707 580.005 557.553 582.061C556.636 583.941 548.395 600.839 532.829 632.755C527.831 631.948 525.851 630.041 526.888 627.033C527.925 624.026 528.761 621.515 529.397 619.501L530.385 590.816C530.404 590.264 530.867 589.832 531.419 589.851C531.428 589.851 531.438 589.852 531.447 589.852L535.86 590.13C538.367 588.1 540.021 586.264 540.823 584.621C541.473 583.287 541.833 581.181 541.902 578.303L541.902 578.303C541.929 577.199 542.845 576.325 543.95 576.352C543.997 576.353 544.045 576.356 544.092 576.36Z" fill="#353535"/>
<path fill-rule="evenodd" clip-rule="evenodd" d="M405.322 663.068C406.441 666.055 407 668.289 407 669.772C407 671.575 406.7 674.207 406.099 677.666C404.007 677.666 385.206 677.666 349.697 677.666C348.231 672.821 349.077 670.205 352.235 669.819C355.393 669.432 358.016 669.083 360.105 668.772L386.32 657.085C386.824 656.86 387.416 657.087 387.641 657.591C387.644 657.6 387.648 657.609 387.652 657.618L389.337 661.705C392.26 663.069 394.636 663.751 396.463 663.751C397.948 663.751 399.999 663.151 402.616 661.952L402.616 661.952C403.62 661.492 404.807 661.932 405.267 662.937C405.287 662.98 405.305 663.024 405.322 663.068Z" fill="#353535"/>
<path fill-rule="evenodd" clip-rule="evenodd" d="M557.065 384.815C549.198 387.076 542.014 387.262 539.105 385.621C531.81 381.505 538.758 352.695 547.843 343.037C556.929 333.379 589.412 336.813 584.994 359.587C583.46 367.491 578.342 373.54 572.008 377.898L569.873 420.439L544.765 413.711L557.065 384.815Z" fill="#B28B67"/>
<path fill-rule="evenodd" clip-rule="evenodd" d="M563.326 356.427C562.02 352.617 560.594 349.595 558.265 347.438C547.18 344.655 546.417 342.333 548.202 335.674C550.326 334.878 557.191 334.419 564.398 335.703C568.267 335.639 572.472 336.973 576.115 339.785C580.793 342.575 584.252 346.813 584.596 353.103C588.284 366.742 579.792 377.636 571.66 379.956C570.386 377.25 569.331 374.675 568.427 372.239C569.899 371.414 571.049 370.02 571.52 368.263C572.447 364.802 570.389 361.243 566.922 360.314C566.667 360.245 566.412 360.193 566.157 360.157C564.841 364.442 560.276 378.911 557.227 383.545C553.633 389.008 541.637 387.372 537.591 386.287C534.096 385.351 535.101 382.079 535.821 379.734C535.924 379.396 536.022 379.078 536.1 378.788C536.262 378.183 537.049 378.396 537.939 378.636C539.095 378.948 540.423 379.307 540.778 377.983C541.406 375.638 536.527 372.769 535.85 370.967C535.03 368.782 535.25 366.192 537.229 366.722C539.943 367.449 544.141 372.776 550.327 374.434C556.474 376.081 563.242 356.67 563.326 356.427Z" fill="#191847"/>
<path fill-rule="evenodd" clip-rule="evenodd" d="M436.479 501.511L474.898 482.567L479.148 502.457L442.997 510.463C432.204 519.376 426.124 523.199 424.757 521.933C424.668 521.85 424.599 521.746 424.55 521.62C423.875 519.885 424.877 518.55 425.799 517.32C426.518 516.362 427.189 515.468 426.981 514.499C426.509 512.285 420.07 511.374 413.923 510.769C407.775 510.165 410.018 507.782 411.715 506.71C418.558 504.102 426.813 502.369 436.479 501.511ZM607.176 576.923C605.165 570.039 605.383 506.445 605.383 506.445L583.081 502.596C583.081 502.596 592.011 572.789 592.939 577.151C594.146 582.818 589.163 589.862 585.784 594.638C585.261 595.377 584.777 596.061 584.36 596.678C587.507 598.808 589.472 597.253 591.545 595.613C593.885 593.762 596.361 591.802 600.83 594.923C602.556 596.129 604.154 597.476 605.715 598.792C611.106 603.338 616.058 607.515 624.375 604.217C625.694 603.694 627.483 601.164 624.713 598.451C617.812 591.691 608.159 580.289 607.176 576.923Z" fill="#B28B67"/>
<path d="M558.501 401.912L549.557 398.707C510.127 422.193 486.065 476.418 438.816 499.065L446.708 513.338C521.066 517.163 551.308 451.179 558.501 401.912Z" fill="#E87613"/>
<path d="M578.303 524.726C578.303 524.726 522.83 514.945 496.693 510.336C492.964 509.679 494.615 504.427 495.632 501.809C507.375 471.596 537.612 442.128 545.471 397.559L569.66 398.025C583.618 432.723 583.564 472.403 578.303 524.726Z" fill="#DDE3E9"/>
<path fill-rule="evenodd" clip-rule="evenodd" d="M591.228 433.136C595.566 433.586 599.747 432.478 602.968 428.506C614.305 414.523 612.702 405.441 604.002 401.015C599.218 398.58 594.277 398.795 588.362 399.051C583.521 399.262 578.027 399.5 571.433 398.337C570.794 398.225 570.205 398.165 569.663 398.154L561.774 397.221C561.774 397.221 511.137 498.943 519.031 537.333L583.536 548.707C585.653 558.149 587.896 566.458 590.246 572.95L607.748 576.036C620.35 515.58 605.547 464.741 591.228 433.136L591.228 433.136Z" fill="#FF9B21"/>
<path fill-rule="evenodd" clip-rule="evenodd" d="M583.536 548.708C580.758 536.319 578.198 521.98 575.902 507.233C571.433 522.24 565.777 537.106 559.427 544.457L583.536 548.708Z" fill="black" fill-opacity="0.101961"/>
<defs>
<clipPath id="clip0">
</clipPath>
</defs>
</svg>
