<svg width="845" height="672" viewBox="0 0 845 672" fill="none" xmlns="http://www.w3.org/2000/svg">
<path d="M90.9217 666.935H735.336C737.341 661.869 739.521 656.894 741.876 652.009C755.751 623.221 775.541 597.573 784.633 566.574C794.046 534.493 790.447 497.348 772.972 469.623C743.701 423.157 683.503 409.768 654.672 362.998C631.772 325.852 632.567 273.511 603.533 241.988C580.819 217.37 545.599 212.659 513.963 216.999C482.326 221.338 451.771 233.275 420.015 236.652C386.705 240.107 353.093 234.164 322.992 219.497C306.092 211.309 289.987 200.367 271.971 195.707C243.393 188.329 212.129 198.274 189.99 219.447C167.851 240.62 154.719 272.092 152.201 304.224C149.987 332.404 155.446 360.55 156.815 388.798C158.184 417.045 154.669 447.522 137.667 468.745C121.122 489.395 94.8256 497.584 77.0806 517.001C50.6997 545.873 49.5843 594.804 66.7378 631.123C72.9786 644.191 81.1289 656.26 90.9217 666.935Z" fill="#E2FDFB"/>
<path d="M173.647 588.068C172.88 585.852 171.614 583.841 169.946 582.192C168.577 580.892 166.938 579.896 165.603 578.562C161.817 574.746 161.141 568.769 162.071 563.484C163 558.199 165.231 553.235 166.499 548.018C167.766 542.8 167.918 536.925 164.944 532.45C162.527 528.803 158.319 526.574 156.088 522.792C152.421 516.613 155.125 508.441 152.522 501.754C152.101 500.637 151.533 499.581 150.832 498.614C150.04 497.262 148.91 496.14 147.554 495.355C146.119 494.677 144.552 494.326 142.965 494.326C141.379 494.326 139.811 494.677 138.377 495.355C136.988 496.133 135.824 497.255 134.997 498.614C134.296 499.581 133.727 500.637 133.307 501.754C130.687 508.508 133.307 516.613 129.741 522.792C127.493 526.574 123.302 528.803 120.869 532.45C117.894 536.925 118.046 542.8 119.314 548.018C120.581 553.235 122.829 558.148 123.759 563.484C124.688 568.819 124.012 574.746 120.209 578.562C118.874 579.896 117.235 580.892 115.866 582.192C114.199 583.841 112.932 585.852 112.165 588.068C111.135 591.157 110.81 594.437 111.214 597.669C111.617 600.9 112.739 604 114.497 606.742C119.838 615.184 129.369 617.548 137.329 622.714C137.836 623.035 138.36 623.356 138.918 623.643C139.361 624.051 139.869 624.383 140.422 624.622C142.081 625.079 143.833 625.079 145.492 624.622C146.048 624.388 146.557 624.056 146.996 623.643C147.554 623.356 148.078 623.035 148.585 622.714C156.544 617.548 166.076 615.252 171.416 606.742C173.166 603.995 174.274 600.891 174.661 597.659C175.047 594.426 174.7 591.148 173.647 588.068Z" fill="white"/>
<path d="M162.848 663.203C161.825 664.645 160.568 665.906 159.13 666.935H126.615C113.94 658.138 115.342 626.041 115.934 617.818C115.972 617.298 116.206 616.813 116.589 616.459C116.971 616.105 117.474 615.908 117.996 615.91H167.749C168.274 615.904 168.78 616.098 169.167 616.453C169.553 616.807 169.789 617.295 169.828 617.818C170.335 625.129 171.501 651.3 162.848 663.203Z" fill="#6376BF"/>
<g style="mix-blend-mode:multiply" opacity="0.5">
<path d="M162.848 663.203C161.825 664.645 160.568 665.906 159.13 666.935H126.615C113.94 658.138 115.342 626.041 115.934 617.818C115.972 617.298 116.206 616.813 116.589 616.459C116.971 616.105 117.474 615.909 117.996 615.91H119.686C126.26 629.299 143.65 660.519 162.848 663.203Z" fill="#6376BF"/>
</g>
<path d="M718.03 345.337C718.002 343.645 717.376 342.016 716.263 340.74C715.149 339.464 713.62 338.622 711.946 338.364C703.614 336.912 681.678 333.045 680.512 332.859C679.346 332.674 681.543 303.092 681.661 301.303C682.442 300.615 683.078 299.778 683.531 298.842C683.984 297.905 684.244 296.888 684.298 295.849C684.328 295.592 684.299 295.333 684.213 295.089C684.161 294.97 684.072 294.87 683.96 294.803C683.848 294.737 683.718 294.707 683.588 294.718C683.356 294.785 683.158 294.935 683.03 295.14C682.496 295.798 681.835 296.344 681.087 296.744C680.736 294.813 680.887 292.825 681.526 290.969C681.627 290.48 681.526 289.804 681.12 289.669C680.715 289.534 680.343 289.99 680.14 290.378C679.658 291.333 679.333 292.359 679.177 293.417C679.312 292.134 679.43 290.868 679.566 289.585C679.566 289.196 679.566 288.69 679.177 288.589C678.788 288.487 678.602 288.757 678.416 289.011C677.411 290.327 676.854 291.931 676.828 293.586V289.5C676.845 289.336 676.81 289.17 676.726 289.028C676.637 288.958 676.527 288.92 676.414 288.92C676.3 288.92 676.19 288.958 676.101 289.028C675.925 289.173 675.786 289.358 675.695 289.568C675.005 290.942 674.543 292.419 674.327 293.941L673.972 292.101C673.972 291.746 673.735 291.29 673.363 291.29C672.991 291.29 672.839 291.695 672.755 292.033C672.436 293.767 672.576 295.553 673.16 297.216C673.558 298.38 674.049 299.51 674.631 300.593C672.806 307.584 664.727 339.715 670.034 342.669C676 346.046 709.411 354.995 711.523 354.775C713.011 354.573 717.929 350.369 718.03 345.337Z" fill="#FFC68A"/>
<path d="M671.927 306.351L682.067 309.019C682.067 309.019 680.799 331.897 681.205 332.015C681.611 332.133 715.58 336.456 717.337 340.947C719.095 345.438 718.723 353.02 711.794 355.366C704.865 357.713 668.953 345.759 667.972 340.981C666.13 332.437 671.927 306.351 671.927 306.351Z" fill="#F05956"/>
<g style="mix-blend-mode:multiply" opacity="0.5">
<path d="M681.07 332.015C681.07 332.015 676.405 331.796 676.558 333.113C676.71 334.43 681.07 332.015 681.07 332.015Z" fill="#F05956"/>
</g>
<g style="mix-blend-mode:multiply" opacity="0.5">
<path d="M681.07 332.015C681.07 332.015 679.718 333.822 680.191 334.953C680.664 336.084 681.07 332.015 681.07 332.015Z" fill="#F05956"/>
</g>
<path d="M719.078 323.725L715.681 338.972L704.814 337.756L705.896 332.809L706.657 329.348L708.397 321.344L719.078 323.725Z" fill="#FFC68A"/>
<path d="M715.208 328.503C715.208 328.503 710.848 334.16 705.896 332.809L706.657 329.348C707.147 329.449 712.436 330.445 715.208 328.503Z" fill="#EDAF6B"/>
<path d="M716.104 388.443L691.109 388.95C692.144 383.49 692.647 377.943 692.613 372.386C692.517 370.332 692.297 368.285 691.954 366.257C691.599 364.045 691.176 361.901 690.855 359.942C690.472 358.03 690.297 356.083 690.331 354.134C691.007 345.945 704.831 337.756 704.831 337.756L715.698 338.972C717.707 341.465 719.195 344.336 720.075 347.414C721.512 353.222 716.104 388.443 716.104 388.443Z" fill="#F05956"/>
<path d="M716.56 345.945C716.056 344.332 714.998 342.949 713.572 342.041C712.146 341.132 710.445 340.757 708.769 340.981C700.319 341.943 678.214 344.459 677.048 344.611C675.882 344.763 669.561 315.739 669.24 314.05C669.791 313.168 670.162 312.186 670.33 311.16C670.498 310.134 670.461 309.085 670.22 308.073C670.179 307.815 670.075 307.571 669.916 307.364C669.831 307.264 669.717 307.193 669.59 307.16C669.463 307.127 669.329 307.133 669.206 307.178C668.986 307.28 668.902 307.533 668.8 307.752C668.48 308.533 668.002 309.24 667.398 309.829C666.516 308.078 666.092 306.132 666.164 304.173C666.164 303.666 665.911 303.025 665.404 303.042C664.897 303.058 664.761 303.582 664.677 304.004C664.499 305.055 664.499 306.128 664.677 307.178C664.423 305.929 664.187 304.663 663.95 303.413C663.95 303.025 663.697 302.535 663.308 302.552C662.919 302.569 662.801 302.89 662.683 303.177C662.096 304.728 662.019 306.425 662.463 308.023C662.074 306.706 661.686 305.405 661.314 304.105C661.301 304.022 661.273 303.941 661.229 303.869C661.186 303.797 661.128 303.733 661.06 303.683C660.962 303.629 660.848 303.613 660.739 303.638C660.63 303.663 660.534 303.727 660.469 303.818C660.331 303.999 660.249 304.216 660.232 304.443C659.959 305.96 659.931 307.51 660.148 309.036L659.303 307.347C659.134 307.026 658.829 306.638 658.475 306.739C658.12 306.841 658.086 307.28 658.103 307.617C658.293 309.371 658.933 311.046 659.962 312.48C660.681 313.497 661.477 314.456 662.345 315.35C662.581 322.56 663.95 355.67 669.882 356.987C676.541 358.49 711.152 357.663 713.112 356.852C714.38 356.261 717.878 350.808 716.56 345.945Z" fill="#FFC68A"/>
<path d="M661.28 321.631L671.674 321.344C671.674 321.344 676.946 343.649 677.369 343.649C677.791 343.649 711.591 338.161 714.549 341.96C717.506 345.759 719.315 353.138 713.332 357.359C707.349 361.58 669.527 360.28 667.229 355.991C663.122 348.292 661.28 321.631 661.28 321.631Z" fill="#F05956"/>
<g style="mix-blend-mode:multiply" opacity="0.5">
<path d="M677.369 343.649C677.369 343.649 672.84 344.746 673.363 345.962C673.887 347.177 677.369 343.649 677.369 343.649Z" fill="#F05956"/>
</g>
<g style="mix-blend-mode:multiply" opacity="0.5">
<path d="M677.369 343.649C677.369 343.649 676.574 345.759 677.369 346.705C678.163 347.65 677.369 343.649 677.369 343.649Z" fill="#F05956"/>
</g>
<g style="mix-blend-mode:multiply" opacity="0.5">
<path d="M709.36 358.777C708.718 359.216 698.409 366.122 691.953 366.257C691.599 364.045 691.176 361.901 690.855 359.942C690.855 359.942 704.071 360.026 709.36 358.777Z" fill="#F05956"/>
</g>
<path d="M706.572 471.886C706.572 474.115 706.386 476.394 706.268 478.64C705.186 501.045 702.786 524.852 702.786 524.852L692.41 523.417L690.99 523.215L690.061 471.852L706.572 471.886Z" fill="#FFC68A"/>
<g style="mix-blend-mode:multiply" opacity="0.5">
<path d="M706.572 471.886C706.572 474.115 706.386 476.394 706.268 478.64C702.087 479.36 697.827 479.49 693.61 479.028L692.41 523.417L690.99 523.215L690.061 471.852L706.572 471.886Z" fill="#FFC68A"/>
</g>
<path d="M705.727 528.736C705.612 527.428 705.403 526.13 705.102 524.852C705.06 524.587 704.992 524.327 704.899 524.076C704.721 523.715 704.481 523.389 704.189 523.113C703.856 522.797 703.431 522.595 702.976 522.534C702.521 522.473 702.058 522.558 701.654 522.775C700.717 523.343 699.603 523.541 698.527 523.333C697.515 523.062 696.567 522.591 695.739 521.948C694.915 521.295 694.026 520.729 693.086 520.26C692.612 520.028 692.095 519.898 691.569 519.878C691.042 519.858 690.517 519.947 690.027 520.142C689.544 520.344 689.149 520.712 688.913 521.179C688.678 521.647 688.617 522.183 688.742 522.691C685.156 523.03 681.658 524.008 678.416 525.578C677.783 525.861 677.209 526.263 676.726 526.76C676.478 527.012 676.293 527.32 676.188 527.658C676.082 527.995 676.058 528.353 676.118 528.702L705.727 528.736Z" fill="#143C4A"/>
<path d="M720.92 471.886C720.819 474.722 720.684 477.61 720.531 480.514C719.399 502.464 717.151 524.886 717.151 524.886L707.011 523.485L705.321 523.248L704.392 471.886H720.92Z" fill="#FFC68A"/>
<g style="mix-blend-mode:multiply" opacity="0.5">
<path d="M720.92 471.886C720.819 474.722 720.684 477.61 720.531 480.514C716.045 481.055 711.516 481.146 707.011 480.784V523.417L705.321 523.181L704.392 471.818L720.92 471.886Z" fill="#FFC68A"/>
</g>
<path d="M720.075 528.736C719.96 527.428 719.751 526.13 719.45 524.852C719.408 524.587 719.34 524.327 719.247 524.076C719.07 523.715 718.829 523.389 718.537 523.113C718.204 522.797 717.78 522.595 717.324 522.534C716.869 522.473 716.407 522.558 716.002 522.776C715.065 523.343 713.951 523.541 712.876 523.333C711.863 523.062 710.915 522.591 710.087 521.948C709.26 521.291 708.365 520.725 707.417 520.26C706.946 520.029 706.432 519.899 705.909 519.879C705.385 519.858 704.862 519.948 704.375 520.142C703.892 520.344 703.497 520.712 703.261 521.179C703.026 521.647 702.965 522.183 703.091 522.691C699.504 523.03 696.007 524.008 692.765 525.578C692.131 525.861 691.558 526.263 691.075 526.76C690.826 527.012 690.642 527.32 690.536 527.658C690.43 527.995 690.406 528.353 690.466 528.702L720.075 528.736Z" fill="#143C4A"/>
<path d="M729.877 476.816C725.957 477.971 721.879 478.501 717.794 478.386H716.104C702.955 478.521 686.343 476.799 686.343 476.799C686.343 476.799 684.027 419.612 684.247 410.528C684.467 401.444 691.109 388.933 691.109 388.933L711.862 388.527H713.653H716.239C721.41 390.52 727.122 400.684 728.39 408.282C729.657 415.88 729.877 476.816 729.877 476.816Z" fill="#143C4A"/>
<g style="mix-blend-mode:screen" opacity="0.5">
<g style="mix-blend-mode:screen" opacity="0.5">
<path d="M717.793 478.386H716.103C716.002 466.956 715.444 417.906 715.073 407.185C714.819 400.88 713.739 394.636 711.862 388.612H713.653C715.474 394.646 716.519 400.887 716.763 407.185C717.134 417.873 717.692 466.956 717.793 478.386Z" fill="#143C4A"/>
</g>
</g>
<path d="M725.331 317.917C725.13 317.68 724.875 317.495 724.587 317.376C724.587 315.941 724.587 314.523 724.587 313.206C724.572 312.424 724.354 311.66 723.954 310.988C723.554 310.316 722.986 309.76 722.306 309.373C718.926 307.567 712.352 304.696 706.944 307.094C706.335 307.378 705.794 307.788 705.356 308.297C704.919 308.807 704.596 309.404 704.409 310.049C703.569 312.486 702.881 314.973 702.347 317.495C702.043 318.997 701.789 320.466 701.62 321.8C701.264 323.441 701.346 325.147 701.857 326.747C703.834 330.394 715.292 331.019 720.987 326.072C721.848 325.329 722.574 324.444 723.134 323.455C725.196 322.222 726.412 319.116 725.331 317.917Z" fill="#FFC68A"/>
<path d="M723.607 320.5C723.566 320.355 723.489 320.223 723.382 320.117C723.276 320.01 723.144 319.933 722.999 319.892C722.73 319.8 722.439 319.8 722.171 319.892C721.611 320.113 721.095 320.433 720.65 320.838C720.599 320.885 720.533 320.912 720.464 320.912C720.395 320.912 720.328 320.885 720.278 320.838C720.238 320.787 720.217 320.725 720.217 320.66C720.217 320.596 720.238 320.534 720.278 320.483C720.435 320.324 720.626 320.202 720.837 320.126C721.047 320.05 721.272 320.022 721.495 320.044C721.71 320.049 721.922 320.095 722.12 320.179C722.234 320.226 722.337 320.295 722.424 320.382C722.511 320.469 722.58 320.572 722.627 320.686C722.707 320.9 722.712 321.135 722.642 321.353C722.571 321.571 722.429 321.758 722.238 321.885C721.907 322.094 721.509 322.173 721.123 322.104C721.474 322.053 721.803 321.9 722.069 321.665C722.175 321.565 722.246 321.435 722.273 321.293C722.3 321.15 722.282 321.003 722.221 320.872C722.12 320.652 721.816 320.568 721.478 320.568C721.334 320.553 721.188 320.57 721.051 320.617C720.914 320.663 720.789 320.739 720.683 320.838L720.312 320.466C720.789 320.021 721.37 319.702 722.002 319.538C722.35 319.445 722.72 319.494 723.032 319.673C723.199 319.739 723.342 319.853 723.445 320C723.547 320.147 723.603 320.321 723.607 320.5Z" fill="#EDAF6B"/>
<path d="M735.048 346.654C733.933 344.121 732.547 341.724 731.516 339.157C730.388 336.626 729.951 333.841 730.249 331.087C730.519 329.398 731.212 327.71 731.482 326.021C731.808 323.886 731.478 321.702 730.536 319.757C729.319 317.258 727.156 315.114 726.953 312.345C726.655 310.245 725.695 308.294 724.212 306.776C722.729 305.258 720.8 304.251 718.706 303.903C715.549 303.09 712.219 303.255 709.158 304.375C707.269 305.116 705.598 306.322 704.301 307.88C703.004 309.439 702.123 311.3 701.738 313.29C701.106 316.993 700.981 320.765 701.367 324.502C701.181 321.766 703.648 312.092 703.648 312.092C705.456 312.564 710.746 309.981 713.23 310.201C714.223 310.253 715.155 310.69 715.831 311.418C716.506 312.146 716.87 313.109 716.847 314.101C716.811 315.351 716.942 316.6 717.236 317.815C716.941 318.617 716.941 319.496 717.236 320.297C717.506 321.007 717.912 321.462 718.013 321.986C718.074 322.209 718.059 322.447 717.97 322.66C717.881 322.874 717.724 323.053 717.523 323.168C717.46 323.203 717.412 323.26 717.387 323.329C717.362 323.397 717.362 323.471 717.388 323.539C717.418 323.617 717.477 323.679 717.553 323.714C717.629 323.749 717.715 323.753 717.793 323.725C718.15 323.567 718.448 323.301 718.645 322.965C718.843 322.629 718.929 322.239 718.892 321.851C718.737 321.245 718.551 320.648 718.334 320.061C718.318 319.938 718.318 319.813 718.334 319.69C719.647 318.79 721.073 318.069 722.576 317.545C722.935 317.436 723.316 317.423 723.682 317.506C724.047 317.59 724.384 317.768 724.66 318.023C724.935 318.277 725.139 318.599 725.25 318.957C725.362 319.315 725.378 319.695 725.297 320.061C723.561 323.248 721.094 325.979 718.098 328.031L715.749 339.073C721.275 349.204 719.686 361.377 719.686 361.377L724.942 360.263C727.373 359.875 729.732 359.124 731.939 358.034C733.037 357.478 733.996 356.683 734.745 355.707C735.493 354.73 736.013 353.599 736.265 352.395C736.415 350.405 735.993 348.413 735.048 346.654Z" fill="#523329"/>
<path d="M707.214 553.488L706.538 546.903H675.104L675.797 553.488H707.214Z" fill="#CF3F3C"/>
<path d="M700.37 580.149L699.694 573.564H668.26L668.936 580.149H700.37Z" fill="#CF3F3C"/>
<path d="M693.525 606.792L692.849 600.224H661.415L662.091 606.792H693.525Z" fill="#CF3F3C"/>
<path d="M686.681 633.453L686.005 626.868H654.571L655.247 633.453H686.681Z" fill="#CF3F3C"/>
<path d="M674.496 666.563H683.081L714.16 528.601H705.575L674.496 666.563Z" fill="#CF3F3C"/>
<path d="M645.225 666.563H653.81L684.873 528.601H676.287L645.225 666.563Z" fill="#CF3F3C"/>
<g style="mix-blend-mode:screen" opacity="0.5">
<path d="M678.941 528.617L647.861 666.563H645.225L676.304 528.617H678.941Z" fill="#CF3F3C"/>
</g>
<path d="M655.213 664.79H644.65V666.563H655.213V664.79Z" fill="#BA3836"/>
<path d="M684.23 664.79H673.667V666.563H684.23V664.79Z" fill="#BA3836"/>
<path d="M720.65 553.505V546.92H689.216V553.505H720.65Z" fill="#F05956"/>
<g style="mix-blend-mode:screen" opacity="0.8">
<path d="M715.529 548.592H694.86L694.303 546.903H714.971L715.529 548.592Z" fill="#F05956"/>
</g>
<path d="M730.266 580.149V573.564H698.832V580.149H730.266Z" fill="#F05956"/>
<g style="mix-blend-mode:screen" opacity="0.8">
<path d="M724.401 575.252H703.733L703.175 573.564H723.844L724.401 575.252Z" fill="#F05956"/>
</g>
<path d="M739.865 606.809V600.224H708.431V606.809H739.865Z" fill="#F05956"/>
<g style="mix-blend-mode:screen" opacity="0.8">
<path d="M733.139 601.913H712.47L711.912 600.224H732.581L733.139 601.913Z" fill="#F05956"/>
</g>
<path d="M749.498 633.453V626.868H718.064V633.453H749.498Z" fill="#F05956"/>
<g style="mix-blend-mode:screen" opacity="0.8">
<path d="M741.859 628.556H721.19L720.633 626.868H741.301L741.859 628.556Z" fill="#F05956"/>
</g>
<path d="M733.697 666.563H725.111L679.684 528.601H688.269L733.697 666.563Z" fill="#F05956"/>
<path d="M734.44 664.79H723.877V666.563H734.44V664.79Z" fill="#BA3836"/>
<path d="M762.967 666.563H754.382L708.955 528.601H717.54L762.967 666.563Z" fill="#F05956"/>
<path d="M763.677 664.79H753.115V666.563H763.677V664.79Z" fill="#BA3836"/>
<path d="M724.165 534.324V529.428C724.165 528.962 723.786 528.584 723.32 528.584H671.555C671.089 528.584 670.71 528.962 670.71 529.428V534.324C670.71 534.791 671.089 535.169 671.555 535.169H723.32C723.786 535.169 724.165 534.791 724.165 534.324Z" fill="#F05956"/>
<g style="mix-blend-mode:screen" opacity="0.8">
<path d="M724.165 529.428V532.72C724.165 532.497 724.076 532.282 723.917 532.123C723.759 531.965 723.544 531.876 723.32 531.876H671.555C671.331 531.876 671.116 531.965 670.957 532.123C670.799 532.282 670.71 532.497 670.71 532.72V529.428C670.71 529.204 670.799 528.989 670.957 528.831C671.116 528.673 671.331 528.584 671.555 528.584H723.32C723.544 528.584 723.759 528.673 723.917 528.831C724.076 528.989 724.165 529.204 724.165 529.428Z" fill="#F05956"/>
</g>
<path d="M191.46 0H187.336V265.018H191.46V0Z" fill="#B4CBDD"/>
<path d="M645.969 303.514L641.862 303.177L645.242 262.57C645.419 260.285 646.323 258.116 647.823 256.382C649.322 254.647 651.337 253.437 653.574 252.929C655.726 252.381 657.998 252.539 660.054 253.378C662.111 254.217 663.844 255.693 664.998 257.589L665.116 257.774C668.158 262.84 669.206 268.58 670.186 274.169C670.389 275.301 670.609 276.432 670.828 277.546C672.772 287.373 675.898 294.008 680.664 298.415L677.876 301.438C672.434 296.372 668.902 289.078 666.789 278.34C666.553 277.192 666.35 276.043 666.13 274.878C665.15 269.425 664.204 264.275 661.55 259.885L661.466 259.733C660.763 258.578 659.706 257.681 658.451 257.176C657.196 256.67 655.811 256.584 654.503 256.93C653.113 257.237 651.859 257.982 650.925 259.055C649.99 260.128 649.426 261.473 649.315 262.89L645.969 303.514Z" fill="#B4CBDD"/>
<path d="M652.475 0H648.351V142.859H652.475V0Z" fill="#B4CBDD"/>
<path d="M616.394 515.616L178.413 479.18C176.825 479.056 175.276 478.62 173.857 477.896C172.437 477.172 171.175 476.175 170.143 474.962C169.111 473.749 168.33 472.344 167.843 470.828C167.357 469.312 167.176 467.715 167.31 466.128L187.421 225.255C187.508 224.194 187.804 223.161 188.291 222.214C188.779 221.267 189.448 220.425 190.261 219.737C191.074 219.049 192.015 218.527 193.029 218.202C194.044 217.877 195.113 217.755 196.175 217.843L642.2 254.955C644.342 255.135 646.324 256.158 647.712 257.798C649.1 259.438 649.78 261.561 649.602 263.701L629.474 504.557C629.344 506.142 628.903 507.686 628.174 509.1C627.446 510.514 626.446 511.771 625.231 512.799C624.016 513.826 622.61 514.604 621.093 515.087C619.577 515.571 617.98 515.751 616.394 515.616Z" fill="white"/>
<path d="M648.808 272.43L186.694 234.001L187.421 225.255C187.508 224.194 187.804 223.161 188.291 222.214C188.779 221.267 189.448 220.425 190.261 219.737C191.074 219.049 192.014 218.527 193.029 218.202C194.044 217.877 195.113 217.755 196.175 217.843L642.2 254.955C644.342 255.135 646.324 256.158 647.712 257.798C649.1 259.438 649.78 261.561 649.602 263.701L648.808 272.43Z" fill="#B4CBDD"/>
<path d="M598.817 259.801C598.751 260.63 598.44 261.421 597.924 262.073C597.408 262.726 596.709 263.211 595.917 263.466C595.125 263.722 594.274 263.738 593.473 263.51C592.672 263.283 591.957 262.824 591.418 262.19C590.878 261.557 590.539 260.777 590.443 259.951C590.347 259.125 590.498 258.289 590.878 257.549C591.257 256.808 591.848 256.197 592.576 255.793C593.303 255.388 594.134 255.208 594.964 255.276C596.074 255.37 597.101 255.899 597.823 256.746C598.544 257.594 598.902 258.691 598.817 259.801Z" fill="#FFF0EB"/>
<path d="M616.85 261.303C616.78 262.131 616.467 262.92 615.949 263.57C615.431 264.221 614.731 264.703 613.939 264.956C613.147 265.209 612.297 265.222 611.498 264.993C610.698 264.765 609.984 264.304 609.446 263.67C608.909 263.036 608.571 262.257 608.476 261.432C608.381 260.606 608.533 259.771 608.913 259.032C609.293 258.292 609.884 257.682 610.61 257.278C611.337 256.874 612.168 256.694 612.997 256.761C613.549 256.806 614.086 256.959 614.579 257.212C615.071 257.464 615.509 257.812 615.867 258.234C616.225 258.655 616.496 259.144 616.664 259.671C616.833 260.197 616.896 260.752 616.85 261.303Z" fill="#FFF0EB"/>
<path d="M634.747 262.789C634.68 263.619 634.369 264.41 633.851 265.063C633.334 265.716 632.635 266.2 631.842 266.455C631.048 266.71 630.197 266.724 629.396 266.495C628.595 266.267 627.88 265.806 627.341 265.17C626.803 264.535 626.465 263.754 626.371 262.927C626.277 262.1 626.431 261.264 626.813 260.524C627.196 259.784 627.789 259.175 628.518 258.773C629.248 258.37 630.081 258.193 630.911 258.264C632.019 258.359 633.045 258.888 633.763 259.736C634.482 260.584 634.836 261.681 634.747 262.789Z" fill="#FFF0EB"/>
<path d="M440.21 302.086L364.549 296.039L358.525 371.276L434.186 377.323L440.21 302.086Z" fill="#B4CBDD"/>
<g style="mix-blend-mode:screen" opacity="0.4">
<path d="M437.828 302.349L431.575 377.333L356.184 371.052L356.556 366.544L396.457 369.921C405.026 370.631 413.527 367.912 420.091 362.362C426.654 356.811 430.742 348.884 431.457 340.322L434.634 302.147L437.828 302.349Z" fill="#B4CBDD"/>
</g>
<path d="M493.954 307.015L437.821 302.345L431.571 377.323L487.705 381.993L493.954 307.015Z" fill="#A1BCD1"/>
<g style="mix-blend-mode:screen" opacity="0.4">
<path d="M488.156 376.675L487.717 381.993L431.575 377.333L437.828 302.349L442.154 302.704L439.586 333.467C438.725 343.78 442 354.012 448.691 361.913C455.381 369.813 464.939 374.734 475.261 375.594L488.156 376.675Z" fill="#A1BCD1"/>
</g>
<path d="M454.425 353.23L437.313 351.807L436.067 366.765L453.178 368.189L454.425 353.23Z" fill="#F05956"/>
<path d="M485.518 353.902L469.99 352.61L469.698 356.11L485.226 357.402L485.518 353.902Z" fill="#FCC574"/>
<path d="M485.009 359.785L466.062 358.208L465.77 361.708L484.717 363.285L485.009 359.785Z" fill="#FCC574"/>
<path d="M497.249 339.698L441.107 335.021L437.828 302.349L493.97 307.009L497.249 339.698Z" fill="#B4CBDD"/>
<path d="M428.415 333.974L353.024 327.693L361.761 296.018L437.152 302.282L428.415 333.974Z" fill="#B4CBDD"/>
<g style="mix-blend-mode:screen" opacity="0.4">
<path d="M429.26 330.715L428.364 333.974L352.973 327.693L361.71 296.018L364.786 296.271C363.83 299.738 363.65 303.373 364.26 306.917C364.87 310.462 366.255 313.828 368.316 316.777C370.376 319.725 373.063 322.184 376.183 323.977C379.303 325.771 382.78 326.855 386.368 327.153L429.26 330.715Z" fill="#B4CBDD"/>
</g>
<g style="mix-blend-mode:multiply" opacity="0.5">
<path d="M437.828 302.349L435.276 332.978L434.11 337.199L359.531 331.002L359.75 328.25L428.415 333.974L437.152 302.299L437.828 302.349Z" fill="#B4CBDD"/>
</g>
<path d="M497.249 339.698L441.107 335.021L437.828 302.349L493.97 307.009L497.249 339.698Z" fill="#B4CBDD"/>
<g style="mix-blend-mode:multiply" opacity="0.5">
<path d="M491.283 339.208L491.063 341.842L436.746 337.334L435.749 327.338L437.828 302.349L441.107 335.021L491.283 339.208Z" fill="#A1BCD1"/>
</g>
<g style="mix-blend-mode:screen" opacity="0.4">
<path d="M497.249 339.698L441.09 335.021L440.701 331.171L463.55 333.079C467.08 333.371 470.631 332.884 473.952 331.653C477.272 330.421 480.281 328.474 482.764 325.951C485.248 323.428 487.145 320.39 488.323 317.052C489.5 313.715 489.928 310.159 489.576 306.638L493.953 307.009L497.249 339.698Z" fill="#B4CBDD"/>
</g>
<path d="M641.084 443.976L438.267 449.835L360.156 452.08L164.031 457.737L163.845 451.557L163.372 434.96L249.055 432.494H249.072L355.914 429.405L414.354 427.716L433.975 427.159L640.425 421.216L641 440.802L641.084 443.976Z" fill="#FCC574"/>
<path d="M171.044 443.684L170.996 442.013L174.349 441.917L174.311 440.617L170.959 440.713L170.914 439.145L174.71 439.036L174.671 437.695L169.214 437.852L169.422 445.073L175.013 444.912L174.975 443.571L171.044 443.684ZM182.739 444.69L181.052 442.415C181.979 441.986 182.503 441.176 182.472 440.093C182.425 438.473 181.19 437.507 179.261 437.563L176.135 437.653L176.343 444.874L178.014 444.826L177.956 442.814L179.411 442.772L179.493 442.77L180.944 444.742L182.739 444.69ZM180.78 440.142C180.803 440.926 180.301 441.415 179.28 441.444L177.918 441.484L177.845 438.967L179.207 438.927C180.228 438.898 180.757 439.347 180.78 440.142ZM190.324 444.472L188.638 442.197C189.565 441.768 190.089 440.958 190.058 439.875C190.011 438.255 188.775 437.289 186.846 437.345L183.721 437.435L183.929 444.656L185.6 444.608L185.542 442.596L186.996 442.554L187.079 442.552L188.53 444.523L190.324 444.472ZM188.366 439.923C188.389 440.707 187.886 441.197 186.865 441.226L185.504 441.265L185.431 438.748L186.793 438.709C187.814 438.68 188.343 439.129 188.366 439.923ZM195.015 444.46C197.284 444.395 198.92 442.768 198.858 440.612C198.796 438.457 197.069 436.927 194.8 436.992C192.52 437.058 190.895 438.694 190.956 440.84C191.018 442.986 192.735 444.526 195.015 444.46ZM194.974 443.037C193.685 443.074 192.688 442.163 192.648 440.791C192.609 439.419 193.551 438.453 194.841 438.415C196.13 438.378 197.127 439.289 197.167 440.661C197.206 442.033 196.263 443 194.974 443.037ZM206.614 444.003L204.928 441.728C205.855 441.299 206.379 440.489 206.347 439.406C206.301 437.786 205.065 436.82 203.136 436.876L200.01 436.966L200.218 444.187L201.889 444.139L201.831 442.127L203.286 442.085L203.369 442.083L204.819 444.054L206.614 444.003ZM204.656 439.455C204.678 440.239 204.176 440.728 203.155 440.757L201.793 440.796L201.721 438.279L203.082 438.24C204.103 438.211 204.633 438.66 204.656 439.455Z" fill="white"/>
<path d="M251.641 441.371L251.592 439.7L254.945 439.603L254.908 438.304L251.555 438.4L251.51 436.832L255.306 436.723L255.267 435.382L249.81 435.539L250.018 442.76L255.61 442.599L255.571 441.258L251.641 441.371ZM263.335 442.377L261.649 440.102C262.576 439.673 263.099 438.863 263.068 437.78C263.022 436.16 261.786 435.194 259.857 435.25L256.731 435.34L256.939 442.561L258.61 442.513L258.552 440.501L260.007 440.459L260.089 440.457L261.54 442.428L263.335 442.377ZM261.376 437.828C261.399 438.612 260.897 439.102 259.876 439.131L258.514 439.17L258.441 436.653L259.803 436.614C260.824 436.585 261.354 437.034 261.376 437.828ZM270.921 442.158L269.234 439.884C270.161 439.455 270.685 438.645 270.654 437.561C270.607 435.942 269.371 434.976 267.442 435.032L264.317 435.121L264.525 442.342L266.196 442.294L266.138 440.283L267.593 440.241L267.675 440.239L269.126 442.21L270.921 442.158ZM268.962 437.61C268.985 438.394 268.483 438.884 267.461 438.913L266.1 438.952L266.027 436.435L267.389 436.396C268.41 436.366 268.939 436.816 268.962 437.61ZM275.611 442.147C277.881 442.082 279.517 440.455 279.454 438.299C279.392 436.143 277.665 434.613 275.396 434.679C273.116 434.744 271.491 436.381 271.553 438.527C271.614 440.672 273.331 442.213 275.611 442.147ZM275.57 440.724C274.281 440.761 273.284 439.85 273.244 438.478C273.205 437.106 274.147 436.139 275.437 436.102C276.726 436.065 277.723 436.976 277.763 438.348C277.802 439.72 276.86 440.687 275.57 440.724ZM287.21 441.69L285.524 439.415C286.451 438.986 286.975 438.176 286.944 437.093C286.897 435.473 285.661 434.507 283.732 434.563L280.606 434.653L280.815 441.874L282.486 441.826L282.428 439.814L283.882 439.772L283.965 439.77L285.415 441.741L287.21 441.69ZM285.252 437.141C285.274 437.925 284.772 438.415 283.751 438.444L282.389 438.483L282.317 435.966L283.678 435.927C284.7 435.898 285.229 436.347 285.252 437.141Z" fill="white"/>
<path d="M332.237 439.041L332.189 437.37L335.541 437.273L335.504 435.974L332.151 436.07L332.106 434.502L335.902 434.393L335.863 433.052L330.406 433.209L330.615 440.43L336.206 440.269L336.167 438.928L332.237 439.041ZM343.931 440.047L342.245 437.772C343.172 437.343 343.696 436.533 343.664 435.45C343.618 433.83 342.382 432.864 340.453 432.92L337.327 433.01L337.535 440.231L339.207 440.183L339.149 438.171L340.603 438.129L340.686 438.127L342.136 440.098L343.931 440.047ZM341.973 435.498C341.995 436.282 341.493 436.772 340.472 436.801L339.11 436.84L339.038 434.323L340.399 434.284C341.421 434.255 341.95 434.704 341.973 435.498ZM351.517 439.828L349.83 437.554C350.758 437.125 351.281 436.315 351.25 435.231C351.203 433.612 349.968 432.646 348.039 432.702L344.913 432.791L345.121 440.012L346.792 439.964L346.734 437.953L348.189 437.911L348.271 437.909L349.722 439.88L351.517 439.828ZM349.558 435.28C349.581 436.064 349.079 436.553 348.058 436.583L346.696 436.622L346.623 434.105L347.985 434.066C349.006 434.036 349.535 434.486 349.558 435.28ZM356.207 439.817C358.477 439.752 360.113 438.125 360.051 435.969C359.989 433.813 358.262 432.283 355.992 432.349C353.712 432.414 352.087 434.051 352.149 436.197C352.211 438.342 353.928 439.883 356.207 439.817ZM356.166 438.394C354.877 438.431 353.88 437.52 353.841 436.148C353.801 434.776 354.744 433.809 356.033 433.772C357.323 433.735 358.319 434.646 358.359 436.018C358.398 437.39 357.456 438.357 356.166 438.394ZM367.806 439.36L366.12 437.085C367.047 436.656 367.571 435.846 367.54 434.763C367.493 433.143 366.257 432.177 364.328 432.233L361.203 432.323L361.411 439.544L363.082 439.496L363.024 437.484L364.478 437.442L364.561 437.44L366.012 439.411L367.806 439.36ZM365.848 434.811C365.871 435.595 365.368 436.085 364.347 436.114L362.985 436.153L362.913 433.636L364.275 433.597C365.296 433.568 365.825 434.017 365.848 434.811Z" fill="white"/>
<path d="M412.816 436.728L412.768 435.057L416.12 434.96L416.083 433.66L412.73 433.757L412.685 432.189L416.481 432.08L416.443 430.739L410.986 430.896L411.194 438.117L416.785 437.956L416.746 436.615L412.816 436.728ZM424.51 437.733L422.824 435.459C423.751 435.03 424.275 434.22 424.244 433.137C424.197 431.517 422.961 430.551 421.032 430.607L417.906 430.697L418.115 437.918L419.786 437.869L419.728 435.858L421.182 435.816L421.265 435.814L422.715 437.785L424.51 437.733ZM422.552 433.185C422.574 433.969 422.072 434.459 421.051 434.488L419.689 434.527L419.617 432.01L420.978 431.971C422 431.942 422.529 432.391 422.552 433.185ZM432.096 437.515L430.409 435.241C431.337 434.811 431.86 434.001 431.829 432.918C431.783 431.299 430.547 430.333 428.618 430.388L425.492 430.478L425.7 437.699L427.371 437.651L427.313 435.64L428.768 435.598L428.85 435.595L430.301 437.567L432.096 437.515ZM430.137 432.967C430.16 433.751 429.658 434.24 428.637 434.27L427.275 434.309L427.202 431.792L428.564 431.753C429.585 431.723 430.115 432.173 430.137 432.967ZM436.787 437.504C439.056 437.439 440.692 435.812 440.63 433.656C440.568 431.5 438.841 429.97 436.571 430.035C434.291 430.101 432.666 431.738 432.728 433.883C432.79 436.029 434.507 437.57 436.787 437.504ZM436.745 436.08C435.456 436.118 434.459 435.207 434.42 433.835C434.38 432.463 435.323 431.496 436.612 431.459C437.902 431.422 438.898 432.333 438.938 433.705C438.978 435.077 438.035 436.043 436.745 436.08ZM448.386 437.046L446.699 434.772C447.626 434.343 448.15 433.533 448.119 432.449C448.072 430.83 446.836 429.864 444.907 429.919L441.782 430.009L441.99 437.23L443.661 437.182L443.603 435.171L445.057 435.129L445.14 435.127L446.591 437.098L448.386 437.046ZM446.427 432.498C446.45 433.282 445.948 433.771 444.926 433.801L443.565 433.84L443.492 431.323L444.854 431.284C445.875 431.254 446.404 431.704 446.427 432.498Z" fill="white"/>
<path d="M493.412 434.398L493.364 432.727L496.717 432.63L496.679 431.33L493.326 431.427L493.281 429.859L497.077 429.75L497.039 428.409L491.582 428.566L491.79 435.787L497.381 435.626L497.342 434.285L493.412 434.398ZM505.106 435.403L503.42 433.129C504.347 432.7 504.871 431.89 504.84 430.806C504.793 429.187 503.557 428.221 501.628 428.277L498.503 428.366L498.711 435.587L500.382 435.539L500.324 433.528L501.778 433.486L501.861 433.484L503.312 435.455L505.106 435.403ZM503.148 430.855C503.171 431.639 502.668 432.128 501.647 432.158L500.286 432.197L500.213 429.68L501.575 429.641C502.596 429.611 503.125 430.061 503.148 430.855ZM512.692 435.185L511.006 432.911C511.933 432.481 512.457 431.671 512.425 430.588C512.379 428.969 511.143 428.003 509.214 428.058L506.088 428.148L506.296 435.369L507.968 435.321L507.91 433.309L509.364 433.268L509.447 433.265L510.897 435.237L512.692 435.185ZM510.734 430.637C510.756 431.421 510.254 431.91 509.233 431.94L507.871 431.979L507.799 429.462L509.16 429.423C510.182 429.393 510.711 429.843 510.734 430.637ZM517.383 435.174C519.652 435.109 521.288 433.482 521.226 431.326C521.164 429.17 519.437 427.64 517.167 427.705C514.888 427.771 513.262 429.408 513.324 431.553C513.386 433.699 515.103 435.24 517.383 435.174ZM517.342 433.75C516.052 433.788 515.055 432.877 515.016 431.505C514.976 430.133 515.919 429.166 517.208 429.129C518.498 429.092 519.495 430.003 519.534 431.375C519.574 432.747 518.631 433.713 517.342 433.75ZM528.982 434.716L527.295 432.442C528.222 432.013 528.746 431.202 528.715 430.119C528.668 428.5 527.433 427.534 525.503 427.589L522.378 427.679L522.586 434.9L524.257 434.852L524.199 432.841L525.654 432.799L525.736 432.796L527.187 434.768L528.982 434.716ZM527.023 430.168C527.046 430.952 526.544 431.441 525.522 431.471L524.161 431.51L524.088 428.993L525.45 428.954C526.471 428.924 527 429.374 527.023 430.168Z" fill="white"/>
<path d="M574.008 432.068L573.96 430.397L577.312 430.3L577.275 429L573.922 429.097L573.877 427.529L577.673 427.42L577.635 426.079L572.178 426.236L572.386 433.457L577.977 433.296L577.938 431.955L574.008 432.068ZM585.702 433.073L584.016 430.799C584.943 430.37 585.467 429.56 585.436 428.476C585.389 426.857 584.153 425.891 582.224 425.946L579.098 426.036L579.307 433.257L580.978 433.209L580.92 431.198L582.374 431.156L582.457 431.154L583.907 433.125L585.702 433.073ZM583.744 428.525C583.766 429.309 583.264 429.798 582.243 429.828L580.881 429.867L580.809 427.35L582.171 427.311C583.192 427.281 583.721 427.731 583.744 428.525ZM593.288 432.855L591.602 430.581C592.529 430.151 593.053 429.341 593.021 428.258C592.975 426.639 591.739 425.673 589.81 425.728L586.684 425.818L586.892 433.039L588.564 432.991L588.506 430.979L589.96 430.938L590.043 430.935L591.493 432.907L593.288 432.855ZM591.33 428.307C591.352 429.091 590.85 429.58 589.829 429.61L588.467 429.649L588.395 427.132L589.756 427.093C590.778 427.063 591.307 427.512 591.33 428.307ZM597.979 432.844C600.248 432.779 601.884 431.152 601.822 428.996C601.76 426.84 600.033 425.31 597.763 425.375C595.484 425.441 593.858 427.078 593.92 429.223C593.982 431.369 595.699 432.91 597.979 432.844ZM597.938 431.42C596.648 431.458 595.651 430.547 595.612 429.175C595.572 427.803 596.515 426.836 597.804 426.799C599.094 426.762 600.091 427.673 600.13 429.045C600.17 430.417 599.227 431.383 597.938 431.42ZM609.578 432.386L607.891 430.112C608.818 429.683 609.342 428.872 609.311 427.789C609.264 426.17 608.028 425.204 606.099 425.259L602.974 425.349L603.182 432.57L604.853 432.522L604.795 430.511L606.25 430.469L606.332 430.466L607.783 432.438L609.578 432.386ZM607.619 427.838C607.642 428.622 607.14 429.111 606.118 429.141L604.757 429.18L604.684 426.663L606.046 426.624C607.067 426.594 607.596 427.044 607.619 427.838Z" fill="white"/>
<g style="mix-blend-mode:multiply" opacity="0.5">
<path d="M414.895 450.24L360.156 452.08L164.116 457.737L163.93 451.557C201.313 450.054 327.302 451.456 331.882 450.24C336.056 449.143 275.909 437.543 249.072 432.494L355.914 429.405C363.756 434.858 414.895 450.24 414.895 450.24Z" fill="#FCC574"/>
</g>
<g style="mix-blend-mode:multiply" opacity="0.5">
<path d="M641.084 444.06L438.284 449.919L414.371 427.801L433.992 427.243L494.832 434.858L549.976 443.993C556.76 445.112 563.647 445.474 570.51 445.073L640.949 440.886L641.084 444.06Z" fill="#FCC574"/>
</g>
<path d="M640.358 458.784L638.178 475.533L637.417 481.375L164.116 420.169L167.039 397.577L180.796 399.35L640.358 458.784Z" fill="#FCC574"/>
<g style="mix-blend-mode:multiply" opacity="0.5">
<path d="M638.178 475.533L637.417 481.375L164.116 420.169L167.039 397.577L180.796 399.35C181.388 405.969 183.399 413.635 189.398 415.813C199.42 419.443 562.77 466.01 638.178 475.533Z" fill="#FCC574"/>
</g>
<path d="M173.326 407.528L173.544 405.873L176.864 406.309L177.034 405.022L173.713 404.586L173.917 403.033L177.677 403.526L177.852 402.198L172.447 401.489L171.507 408.641L177.044 409.367L177.219 408.039L173.326 407.528ZM184.696 410.371L183.394 407.862C184.376 407.585 185.021 406.87 185.162 405.797C185.373 404.193 184.308 403.045 182.397 402.795L179.301 402.388L178.361 409.54L180.016 409.757L180.278 407.765L181.719 407.954L181.801 407.965L182.918 410.138L184.696 410.371ZM183.486 405.577C183.384 406.354 182.812 406.757 181.8 406.624L180.452 406.447L180.779 403.954L182.128 404.131C183.139 404.264 183.59 404.791 183.486 405.577ZM192.209 411.357L190.907 408.848C191.889 408.571 192.534 407.856 192.675 406.783C192.886 405.179 191.821 404.031 189.91 403.78L186.814 403.374L185.874 410.526L187.53 410.743L187.791 408.751L189.232 408.94L189.314 408.95L190.431 411.124L192.209 411.357ZM190.999 406.563C190.897 407.339 190.325 407.742 189.313 407.61L187.965 407.433L188.292 404.94L189.641 405.117C190.652 405.249 191.103 405.776 190.999 406.563ZM196.835 412.088C199.083 412.383 200.953 411.039 201.234 408.903C201.515 406.768 200.055 404.986 197.807 404.692C195.549 404.395 193.687 405.752 193.408 407.877C193.129 410.002 194.577 411.792 196.835 412.088ZM197.02 410.679C195.743 410.511 194.905 409.455 195.083 408.096C195.262 406.738 196.345 405.934 197.622 406.101C198.899 406.269 199.737 407.325 199.558 408.684C199.38 410.042 198.297 410.846 197.02 410.679ZM208.343 413.473L207.041 410.964C208.023 410.688 208.668 409.972 208.809 408.899C209.019 407.295 207.954 406.148 206.044 405.897L202.948 405.491L202.008 412.642L203.663 412.86L203.925 410.867L205.366 411.056L205.447 411.067L206.565 413.24L208.343 413.473ZM207.133 408.68C207.031 409.456 206.458 409.859 205.447 409.726L204.098 409.549L204.426 407.056L205.775 407.233C206.786 407.366 207.236 407.893 207.133 408.68Z" fill="white"/>
<path d="M253.28 417.862L253.498 416.207L256.818 416.642L256.987 415.355L253.667 414.919L253.871 413.366L257.631 413.86L257.805 412.531L252.401 411.822L251.461 418.974L256.998 419.701L257.173 418.372L253.28 417.862ZM264.65 420.704L263.348 418.195C264.33 417.919 264.975 417.203 265.116 416.13C265.327 414.526 264.261 413.378 262.351 413.128L259.255 412.722L258.315 419.873L259.97 420.09L260.232 418.098L261.673 418.287L261.755 418.298L262.872 420.471L264.65 420.704ZM263.44 415.911C263.338 416.687 262.766 417.09 261.754 416.957L260.405 416.78L260.733 414.287L262.082 414.464C263.093 414.597 263.544 415.124 263.44 415.911ZM272.163 421.69L270.861 419.181C271.843 418.904 272.488 418.189 272.629 417.116C272.84 415.512 271.775 414.364 269.864 414.113L266.768 413.707L265.828 420.859L267.483 421.076L267.745 419.084L269.186 419.273L269.268 419.284L270.385 421.457L272.163 421.69ZM270.953 416.896C270.851 417.673 270.279 418.076 269.267 417.943L267.918 417.766L268.246 415.273L269.595 415.45C270.606 415.583 271.057 416.109 270.953 416.896ZM276.789 422.422C279.036 422.717 280.907 421.372 281.188 419.237C281.469 417.101 280.009 415.32 277.761 415.025C275.503 414.729 273.641 416.085 273.362 418.21C273.082 420.335 274.531 422.125 276.789 422.422ZM276.974 421.012C275.697 420.844 274.859 419.788 275.037 418.43C275.216 417.071 276.299 416.267 277.576 416.435C278.853 416.602 279.691 417.658 279.512 419.017C279.334 420.376 278.251 421.179 276.974 421.012ZM288.296 423.807L286.994 421.297C287.977 421.021 288.621 420.305 288.762 419.233C288.973 417.629 287.908 416.481 285.998 416.23L282.902 415.824L281.962 422.976L283.617 423.193L283.879 421.2L285.319 421.389L285.401 421.4L286.519 423.573L288.296 423.807ZM287.087 419.013C286.985 419.789 286.412 420.192 285.401 420.059L284.052 419.883L284.38 417.39L285.728 417.567C286.74 417.699 287.19 418.226 287.087 419.013Z" fill="white"/>
<path d="M333.251 428.212L333.469 426.557L336.789 426.992L336.958 425.705L333.638 425.269L333.842 423.717L337.602 424.21L337.776 422.882L332.372 422.173L331.432 429.324L336.969 430.051L337.144 428.723L333.251 428.212ZM344.621 431.055L343.319 428.545C344.301 428.269 344.946 427.553 345.087 426.48C345.298 424.876 344.232 423.729 342.322 423.478L339.226 423.072L338.286 430.223L339.941 430.441L340.203 428.448L341.644 428.637L341.725 428.648L342.843 430.821L344.621 431.055ZM343.411 426.261C343.309 427.037 342.736 427.44 341.725 427.307L340.376 427.13L340.704 424.638L342.053 424.814C343.064 424.947 343.515 425.474 343.411 426.261ZM352.134 432.04L350.832 429.531C351.814 429.255 352.459 428.539 352.6 427.466C352.811 425.862 351.745 424.714 349.835 424.464L346.739 424.057L345.799 431.209L347.454 431.426L347.716 429.434L349.157 429.623L349.239 429.634L350.356 431.807L352.134 432.04ZM350.924 427.246C350.822 428.023 350.25 428.426 349.238 428.293L347.889 428.116L348.217 425.623L349.566 425.8C350.577 425.933 351.028 426.46 350.924 427.246ZM356.76 432.772C359.007 433.067 360.878 431.722 361.159 429.587C361.44 427.451 359.98 425.67 357.732 425.375C355.474 425.079 353.612 426.435 353.333 428.56C353.053 430.685 354.502 432.476 356.76 432.772ZM356.945 431.362C355.668 431.194 354.83 430.139 355.008 428.78C355.187 427.421 356.269 426.617 357.547 426.785C358.824 426.952 359.662 428.008 359.483 429.367C359.305 430.726 358.222 431.529 356.945 431.362ZM368.267 434.157L366.965 431.648C367.948 431.371 368.592 430.655 368.733 429.583C368.944 427.979 367.879 426.831 365.969 426.58L362.873 426.174L361.933 433.326L363.588 433.543L363.85 431.551L365.29 431.74L365.372 431.75L366.49 433.924L368.267 434.157ZM367.058 429.363C366.956 430.139 366.383 430.542 365.372 430.41L364.023 430.233L364.351 427.74L365.699 427.917C366.711 428.049 367.161 428.576 367.058 429.363Z" fill="white"/>
<path d="M413.205 438.545L413.423 436.89L416.743 437.326L416.912 436.038L413.592 435.603L413.796 434.05L417.556 434.543L417.73 433.215L412.326 432.506L411.386 439.657L416.923 440.384L417.098 439.056L413.205 438.545ZM424.575 441.388L423.273 438.879C424.255 438.602 424.9 437.886 425.041 436.814C425.252 435.21 424.187 434.062 422.276 433.811L419.18 433.405L418.24 440.557L419.895 440.774L420.157 438.782L421.598 438.971L421.68 438.981L422.797 441.155L424.575 441.388ZM423.365 436.594C423.263 437.37 422.691 437.773 421.679 437.641L420.33 437.464L420.658 434.971L422.007 435.148C423.018 435.28 423.469 435.807 423.365 436.594ZM432.088 442.373L430.786 439.864C431.768 439.588 432.413 438.872 432.554 437.799C432.765 436.195 431.7 435.048 429.789 434.797L426.693 434.391L425.753 441.542L427.408 441.76L427.67 439.767L429.111 439.956L429.193 439.967L430.31 442.14L432.088 442.373ZM430.878 437.58C430.776 438.356 430.204 438.759 429.192 438.626L427.844 438.449L428.171 435.956L429.52 436.133C430.531 436.266 430.982 436.793 430.878 437.58ZM436.714 443.105C438.962 443.4 440.832 442.055 441.113 439.92C441.394 437.785 439.934 436.003 437.686 435.708C435.428 435.412 433.566 436.768 433.287 438.893C433.007 441.018 434.456 442.809 436.714 443.105ZM436.899 441.695C435.622 441.528 434.784 440.472 434.962 439.113C435.141 437.754 436.224 436.951 437.501 437.118C438.778 437.286 439.616 438.341 439.437 439.7C439.259 441.059 438.176 441.863 436.899 441.695ZM448.221 444.49L446.919 441.981C447.902 441.704 448.547 440.989 448.687 439.916C448.898 438.312 447.833 437.164 445.923 436.913L442.827 436.507L441.887 443.659L443.542 443.876L443.804 441.884L445.244 442.073L445.326 442.084L446.444 444.257L448.221 444.49ZM447.012 439.696C446.91 440.473 446.337 440.876 445.326 440.743L443.977 440.566L444.305 438.073L445.653 438.25C446.665 438.383 447.115 438.909 447.012 439.696Z" fill="white"/>
<path d="M493.176 448.878L493.393 447.223L496.714 447.659L496.883 446.372L493.562 445.936L493.766 444.383L497.526 444.876L497.701 443.548L492.296 442.839L491.356 449.991L496.894 450.717L497.068 449.389L493.176 448.878ZM504.545 451.721L503.243 449.212C504.225 448.935 504.87 448.22 505.011 447.147C505.222 445.543 504.157 444.395 502.246 444.144L499.151 443.738L498.211 450.89L499.866 451.107L500.128 449.115L501.568 449.304L501.65 449.315L502.767 451.488L504.545 451.721ZM503.336 446.927C503.234 447.704 502.661 448.107 501.65 447.974L500.301 447.797L500.629 445.304L501.977 445.481C502.989 445.614 503.439 446.14 503.336 446.927ZM512.058 452.707L510.756 450.197C511.738 449.921 512.383 449.205 512.524 448.133C512.735 446.529 511.67 445.381 509.759 445.13L506.664 444.724L505.724 451.876L507.379 452.093L507.641 450.101L509.081 450.29L509.163 450.3L510.281 452.473L512.058 452.707ZM510.849 447.913C510.747 448.689 510.174 449.092 509.163 448.96L507.814 448.783L508.142 446.29L509.49 446.467C510.502 446.599 510.952 447.126 510.849 447.913ZM516.684 453.438C518.932 453.733 520.803 452.388 521.083 450.253C521.364 448.118 519.904 446.336 517.656 446.041C515.398 445.745 513.537 447.101 513.257 449.226C512.978 451.352 514.426 453.142 516.684 453.438ZM516.87 452.028C515.592 451.861 514.754 450.805 514.933 449.446C515.111 448.087 516.194 447.284 517.471 447.451C518.748 447.619 519.586 448.675 519.408 450.033C519.229 451.392 518.147 452.196 516.87 452.028ZM528.192 454.823L526.89 452.314C527.872 452.038 528.517 451.322 528.658 450.249C528.869 448.645 527.804 447.497 525.893 447.247L522.797 446.841L521.857 453.992L523.513 454.209L523.774 452.217L525.215 452.406L525.297 452.417L526.414 454.59L528.192 454.823ZM526.982 450.029C526.88 450.806 526.308 451.209 525.296 451.076L523.948 450.899L524.275 448.406L525.624 448.583C526.635 448.716 527.086 449.243 526.982 450.029Z" fill="white"/>
<path d="M573.13 459.229L573.347 457.573L576.668 458.009L576.837 456.722L573.516 456.286L573.721 454.733L577.48 455.227L577.655 453.898L572.25 453.189L571.31 460.341L576.848 461.067L577.022 459.739L573.13 459.229ZM584.499 462.071L583.197 459.562C584.179 459.286 584.824 458.57 584.965 457.497C585.176 455.893 584.111 454.745 582.201 454.495L579.105 454.089L578.165 461.24L579.82 461.457L580.082 459.465L581.522 459.654L581.604 459.665L582.722 461.838L584.499 462.071ZM583.29 457.277C583.188 458.054 582.615 458.457 581.604 458.324L580.255 458.147L580.583 455.654L581.931 455.831C582.943 455.964 583.393 456.491 583.29 457.277ZM592.012 463.057L590.71 460.548C591.693 460.271 592.337 459.556 592.478 458.483C592.689 456.879 591.624 455.731 589.714 455.48L586.618 455.074L585.678 462.226L587.333 462.443L587.595 460.451L589.035 460.64L589.117 460.65L590.235 462.824L592.012 463.057ZM590.803 458.263C590.701 459.039 590.128 459.442 589.117 459.31L587.768 459.133L588.096 456.64L589.444 456.817C590.456 456.95 590.906 457.476 590.803 458.263ZM596.638 463.788C598.886 464.083 600.757 462.739 601.038 460.603C601.318 458.468 599.858 456.687 597.611 456.392C595.353 456.095 593.491 457.452 593.211 459.577C592.932 461.702 594.38 463.492 596.638 463.788ZM596.824 462.379C595.547 462.211 594.708 461.155 594.887 459.797C595.066 458.438 596.148 457.634 597.425 457.802C598.702 457.969 599.541 459.025 599.362 460.384C599.183 461.742 598.101 462.546 596.824 462.379ZM608.146 465.173L606.844 462.664C607.826 462.388 608.471 461.672 608.612 460.599C608.823 458.995 607.758 457.848 605.847 457.597L602.751 457.191L601.811 464.342L603.467 464.56L603.728 462.567L605.169 462.756L605.251 462.767L606.368 464.94L608.146 465.173ZM606.936 460.38C606.834 461.156 606.262 461.559 605.25 461.426L603.902 461.249L604.229 458.757L605.578 458.933C606.589 459.066 607.04 459.593 606.936 460.38Z" fill="white"/>
<path d="M131.634 285.178V276.651H125.618C125.172 274.821 124.442 273.072 123.454 271.468L127.713 267.213L121.68 261.185L117.421 265.44C115.815 264.453 114.065 263.724 112.233 263.279V257.285H103.783V263.279C101.951 263.724 100.2 264.453 98.5945 265.44L94.3357 261.185L88.3024 267.213L92.5612 271.468C91.5813 273.076 90.8519 274.824 90.398 276.651H84.314V285.178H90.3135C90.7625 287.023 91.492 288.788 92.4767 290.412L88.2179 294.667L94.2512 300.695L98.51 296.44C100.116 297.427 101.866 298.156 103.698 298.601V304.612H112.148V298.601C113.98 298.156 115.731 297.427 117.337 296.44L121.68 300.644L127.713 294.616L123.454 290.412C124.442 288.808 125.172 287.059 125.618 285.229L131.634 285.178ZM107.974 287.035C106.759 287.039 105.571 286.681 104.559 286.009C103.548 285.337 102.759 284.38 102.293 283.259C101.826 282.139 101.703 280.905 101.939 279.715C102.176 278.524 102.76 277.43 103.619 276.572C104.478 275.714 105.573 275.13 106.764 274.894C107.956 274.658 109.191 274.781 110.313 275.247C111.434 275.713 112.392 276.501 113.065 277.512C113.738 278.522 114.095 279.709 114.092 280.923C114.092 282.544 113.447 284.099 112.3 285.245C111.153 286.391 109.597 287.035 107.974 287.035Z" fill="#CFFCF8"/>
<path d="M146.624 250.497V244.638H142.484C142.184 243.381 141.688 242.179 141.013 241.076L143.937 238.07L139.797 233.934L136.89 236.922C135.786 236.248 134.583 235.753 133.324 235.453V231.317H127.426V235.453C126.167 235.753 124.964 236.248 123.86 236.922L120.936 234.001L116.779 238.07L119.719 241.008C119.032 242.106 118.529 243.31 118.232 244.571H114.092V250.43H118.3C118.597 251.691 119.099 252.894 119.787 253.992L116.846 256.93L121.004 261.067L123.928 258.146C125.032 258.82 126.235 259.316 127.493 259.615V263.752H133.358V259.682C134.616 259.383 135.82 258.887 136.924 258.213L139.864 261.135L144.005 256.998L141.081 254.06C141.756 252.957 142.252 251.755 142.551 250.497H146.624ZM130.366 251.781C129.529 251.784 128.71 251.539 128.013 251.076C127.315 250.614 126.771 249.955 126.449 249.183C126.128 248.411 126.043 247.56 126.205 246.74C126.367 245.92 126.77 245.166 127.362 244.575C127.954 243.983 128.708 243.581 129.53 243.419C130.351 243.256 131.202 243.341 131.974 243.663C132.747 243.984 133.407 244.528 133.87 245.225C134.333 245.922 134.578 246.74 134.575 247.576C134.57 248.69 134.125 249.757 133.337 250.544C132.549 251.332 131.481 251.776 130.366 251.781Z" fill="#CFFCF8"/>
<path d="M697.97 202.985V197.143H693.846C693.53 195.882 693.029 194.676 692.359 193.563L695.283 190.642L691.142 186.505L688.218 189.426C687.111 188.743 685.902 188.241 684.636 187.941V183.804H678.771V187.941C677.512 188.245 676.308 188.746 675.205 189.426L672.282 186.505L668.141 190.642L671.065 193.563C670.381 194.669 669.879 195.878 669.578 197.143H665.353V202.985H669.493C669.794 204.249 670.296 205.458 670.98 206.564L668.057 209.485L672.197 213.622L675.121 210.701C676.231 211.367 677.432 211.868 678.687 212.187V216.306H684.551V212.187C685.812 211.871 687.02 211.37 688.134 210.701L691.058 213.622L695.198 209.485L692.274 206.564C692.945 205.451 693.446 204.245 693.762 202.985H697.97ZM681.712 204.268C680.88 204.268 680.066 204.021 679.374 203.559C678.682 203.097 678.143 202.441 677.824 201.672C677.506 200.904 677.422 200.059 677.585 199.243C677.747 198.428 678.148 197.679 678.736 197.091C679.325 196.503 680.075 196.102 680.891 195.94C681.707 195.778 682.553 195.861 683.322 196.179C684.091 196.498 684.748 197.036 685.211 197.728C685.673 198.419 685.92 199.232 685.92 200.064C685.925 200.626 685.816 201.183 685.602 201.703C685.387 202.222 685.07 202.693 684.67 203.089C684.27 203.484 683.794 203.795 683.272 204.003C682.749 204.211 682.19 204.313 681.627 204.302L681.712 204.268Z" fill="#CFFCF8"/>
<path d="M726.514 219.244V213.385H722.39C722.089 212.12 721.587 210.912 720.903 209.806L723.827 206.885L719.686 202.748L716.763 205.669C715.651 204.998 714.443 204.503 713.18 204.2V200.064H707.332V204.2C706.07 204.503 704.861 204.998 703.75 205.669L700.826 202.748L696.685 206.885L699.609 209.806C698.925 210.912 698.423 212.12 698.122 213.385H693.981V219.244H698.122C698.432 220.53 698.952 221.757 699.66 222.874L696.736 225.795L700.877 229.932L703.8 227.011C704.907 227.695 706.117 228.196 707.383 228.497V232.634H713.18V228.497C714.446 228.196 715.656 227.695 716.763 227.011L719.686 229.932L723.827 225.795L720.903 222.874C721.587 221.774 722.089 220.571 722.39 219.312L726.514 219.244ZM710.256 220.527C709.42 220.531 708.601 220.286 707.904 219.824C707.207 219.362 706.663 218.704 706.341 217.933C706.018 217.162 705.932 216.313 706.093 215.493C706.254 214.673 706.656 213.92 707.246 213.328C707.836 212.736 708.589 212.332 709.409 212.168C710.229 212.003 711.079 212.086 711.852 212.405C712.625 212.724 713.286 213.265 713.751 213.959C714.216 214.654 714.464 215.471 714.464 216.306C714.466 216.86 714.359 217.408 714.149 217.92C713.938 218.432 713.629 218.898 713.238 219.29C712.847 219.682 712.382 219.993 711.87 220.206C711.359 220.418 710.81 220.527 710.256 220.527Z" fill="#CFFCF8"/>
<path d="M540.208 544.641L533.262 580.503C532.261 585.528 531.516 590.599 531.032 595.699C528.733 620.334 520.756 661.65 520.756 661.65L519.066 661.464L510.769 660.569L513.963 599.617L515.061 578.275L516.751 545.266L536.947 530.931C536.947 530.931 539.955 535.608 540.208 544.641Z" fill="#FFB894"/>
<g style="mix-blend-mode:multiply" opacity="0.5">
<path d="M533.262 580.503C532.261 585.528 531.516 590.599 531.032 595.699C528.733 620.334 520.756 661.65 520.756 661.65L519.066 661.464L527.516 601.997L513.912 599.617L515.01 578.275C523.089 579.068 533.178 580.284 533.178 580.284C533.178 580.284 533.245 580.351 533.262 580.503Z" fill="#FFB894"/>
</g>
<path d="M520.03 666.496C521.145 666.648 522.582 665.263 522.784 664.132C522.948 663.275 522.994 662.401 522.92 661.532C522.934 661.109 522.81 660.694 522.565 660.35C522.204 659.971 521.717 659.737 521.196 659.691C517.934 659.168 514.436 660.637 511.428 659.438C511.965 658.257 512.072 656.925 511.732 655.673C511.63 655.177 511.361 654.73 510.971 654.406C510.025 653.731 508.774 654.406 507.777 655.031C504.03 657.318 499.644 658.336 495.271 657.935C494.288 657.781 493.292 657.719 492.297 657.75C491.802 657.769 491.317 657.888 490.869 658.1C490.422 658.312 490.022 658.612 489.694 658.982C489.383 659.368 489.221 659.853 489.236 660.349C489.252 660.844 489.444 661.318 489.779 661.684L520.03 666.496Z" fill="#6376BF"/>
<path d="M522.109 526.625C522.109 526.625 515.568 538.056 514.96 544.725C514.351 551.395 511.292 595.767 511.292 595.767L532.232 598.012L543.757 524.65L522.109 526.625Z" fill="#F05956"/>
<g style="mix-blend-mode:multiply" opacity="0.5">
<path d="M522.007 596.898L538.197 559.972L532.231 598.012L522.007 596.898Z" fill="#F05956"/>
</g>
<path d="M605.679 638.518L603.549 641.608L599.95 646.673L556.905 619.962C555.361 618.999 554.024 617.738 552.971 616.254C551.918 614.77 551.17 613.092 550.771 611.317L547.712 601.187L545.38 593.471L541.273 571.791L538.704 558.283L536.862 548.744L540.242 544.641L552.528 529.546C552.528 529.546 557.7 536.401 557.97 555.599C557.979 555.722 557.979 555.847 557.97 555.97C558.055 561.795 561.249 577.92 564.037 593.555C564.781 597.709 565.491 602.386 566.184 607.282C584.959 621.347 605.679 638.518 605.679 638.518Z" fill="#FFB894"/>
<g style="mix-blend-mode:multiply" opacity="0.5">
<path d="M605.679 638.518L603.549 641.608C593.122 634.111 564.325 613.327 562.601 611.571C560.488 609.443 561.553 600.089 561.553 600.089L547.678 601.356L545.346 593.639L541.239 571.96L557.936 555.666C557.945 555.79 557.945 555.914 557.936 556.038C558.021 561.863 561.215 577.987 564.004 593.622C564.747 597.776 565.457 602.453 566.15 607.35C584.959 621.347 605.679 638.518 605.679 638.518Z" fill="#FFB894"/>
</g>
<path d="M609.515 641.709C609.816 641.132 609.929 640.475 609.839 639.83C609.748 639.185 609.457 638.585 609.008 638.113C608.367 637.525 607.658 637.014 606.896 636.593C606.531 636.367 606.108 636.25 605.679 636.256C605.167 636.362 604.71 636.65 604.394 637.066C602.197 639.531 601.589 643.195 598.919 645.137C598.217 644.046 597.151 643.238 595.911 642.857C595.435 642.689 594.916 642.689 594.44 642.857C593.359 643.28 593.274 644.715 593.24 645.88C593.158 650.268 591.651 654.51 588.948 657.969C588.312 658.715 587.747 659.518 587.258 660.367C587.004 660.795 586.84 661.27 586.776 661.764C586.712 662.257 586.75 662.758 586.886 663.237C587.044 663.709 587.367 664.108 587.795 664.362C588.223 664.616 588.728 664.708 589.218 664.621L609.515 641.709Z" fill="#6376BF"/>
<path d="M565.812 595.497L561.097 596.256L559.407 596.543L545.042 598.907C545.042 598.907 536.118 555.329 534.902 548.744C533.685 542.159 536.456 525.308 536.456 525.308L555.266 523.62L565.812 595.497Z" fill="#F05956"/>
<g style="mix-blend-mode:screen" opacity="0.5">
<g style="mix-blend-mode:screen" opacity="0.5">
<path d="M561.097 596.257L559.424 596.544L549.672 524.109L551.362 523.957L561.097 596.257Z" fill="#F05956"/>
</g>
</g>
<path d="M500.764 513.101L462.671 501.619C461.689 500.025 460.175 498.829 458.395 498.242C458.15 498.141 457.882 498.106 457.618 498.141C457.49 498.162 457.371 498.222 457.277 498.313C457.184 498.403 457.12 498.52 457.094 498.648C457.114 498.888 457.216 499.114 457.382 499.289C457.879 499.972 458.235 500.747 458.429 501.569C456.474 501.421 454.589 500.776 452.954 499.694C452.497 499.475 451.838 499.323 451.602 499.694C451.365 500.066 451.703 500.522 452.041 500.809C452.84 501.512 453.748 502.082 454.728 502.497L451.128 501.146C450.757 501.011 450.25 500.927 450.047 501.265C449.844 501.602 450.047 501.873 450.267 502.109C451.287 503.412 452.696 504.358 454.289 504.81L450.351 503.764C450.192 503.713 450.02 503.713 449.861 503.764C449.766 503.825 449.694 503.917 449.658 504.024C449.621 504.131 449.621 504.248 449.658 504.355C449.754 504.565 449.899 504.751 450.081 504.895C451.235 505.912 452.548 506.733 453.968 507.326L452.109 507.191C451.737 507.191 451.247 507.191 451.162 507.579C451.078 507.968 451.416 508.187 451.72 508.356C453.302 509.097 455.048 509.417 456.79 509.285C458.048 509.201 459.297 509.015 460.525 508.728L497.282 524.683C498.804 525.06 500.413 524.834 501.771 524.052C503.129 523.271 504.132 521.994 504.569 520.49C505.006 518.986 504.843 517.371 504.115 515.984C503.387 514.597 502.149 513.546 500.662 513.05L500.764 513.101Z" fill="#FFB894"/>
<path d="M473.284 503.865L470.04 514.367C470.04 514.367 499.361 527.182 501.288 527.267C502.707 527.267 519.658 508.93 528.514 499.205C530.526 497.038 531.644 494.191 531.644 491.235C531.644 488.28 530.526 485.433 528.514 483.266C526.3 480.987 526.824 477.137 523.444 479.889C514.706 487.048 497.215 510.923 497.215 510.923L473.284 503.865Z" fill="#6376BF"/>
<g style="mix-blend-mode:multiply" opacity="0.5">
<path d="M518.999 509.555L516.058 492.485L514.487 514.401L518.999 509.555Z" fill="#6376BF"/>
</g>
<path d="M541.036 475.651L538.316 478.082C537.891 478.646 537.353 479.115 536.736 479.459C536.119 479.802 535.437 480.014 534.734 480.079C534.031 480.144 533.322 480.062 532.652 479.837C531.982 479.612 531.367 479.251 530.846 478.775L528.125 476.276L527.314 460.658L538.214 459.661L541.036 475.651Z" fill="#FFB894"/>
<path d="M527.736 468.847C527.736 468.847 533.837 468.222 535.983 465.385C535.983 465.385 533.077 472.139 527.922 472.375L527.736 468.847Z" fill="#F29272"/>
<path d="M556.872 505.638C556.348 515.161 555.3 523.603 555.3 523.603L522.108 526.625C522.108 526.625 516.295 494.933 516.058 492.485C515.754 489.108 520.723 481.645 525.911 477.711C526.384 477.356 526.874 477.036 527.331 476.732L528.125 476.276C528.125 476.276 533.415 480.885 541.036 475.094L541.797 475.55L543.267 476.462C545.701 477.914 549.503 480.261 551.497 481.729C554.573 483.958 557.396 496.132 556.872 505.638Z" fill="#6376BF"/>
<g style="mix-blend-mode:screen" opacity="0.5">
<g style="mix-blend-mode:screen" opacity="0.5">
<path d="M548.421 495.186L546.741 495.368L549.852 524.123L551.532 523.941L548.421 495.186Z" fill="#6376BF"/>
</g>
</g>
<g style="mix-blend-mode:screen" opacity="0.5">
<g style="mix-blend-mode:screen" opacity="0.5">
<path d="M543.267 476.462C541.106 479.116 538.034 480.873 534.648 481.392C534.271 481.417 533.893 481.417 533.516 481.392C530.594 481.189 527.865 479.857 525.911 477.677C526.384 477.323 526.874 477.002 527.33 476.698C528.964 478.45 531.195 479.528 533.583 479.72C536.287 479.72 539.042 478.386 541.797 475.516L543.267 476.462Z" fill="#6376BF"/>
</g>
</g>
<path d="M615.599 516.849L605.932 535.084L617.238 552.357L645.867 550.854L634.95 566.911L595.877 568.718L585.669 550.702L491.705 555.042L486.821 555.261L478.32 574.172L439.248 575.961L426.877 561.002L429.446 560.9L455.539 559.837L465.206 541.602L453.866 524.346L425.254 525.832L436.172 509.774L475.261 507.985L485.452 526L578.605 521.678L584.317 521.408L592.784 502.531L631.874 500.724L644.228 515.701L641.727 515.802L615.599 516.849Z" fill="#143C4A"/>
<g style="mix-blend-mode:screen" opacity="0.5">
<path d="M491.79 555.042L486.906 555.261L478.456 574.172L439.383 575.961L427.012 561.002L429.581 560.901C433.333 564.277 443.49 572.348 451.179 571.487C460.762 570.373 484.844 562.099 487.311 545.62C488.832 534.611 490.776 544.995 491.79 555.042Z" fill="#143C4A"/>
</g>
<g style="mix-blend-mode:screen" opacity="0.5">
<path d="M644.245 515.701L641.726 515.802C640.036 514.114 638.11 512.037 636.183 509.91C630.843 504.017 601.217 505.165 597.094 506.127C592.97 507.09 585.264 528.297 581.799 530.846C579.518 532.535 578.808 526.372 578.605 521.678L584.317 521.408L592.767 502.531L631.874 500.724L644.245 515.701Z" fill="#143C4A"/>
</g>
<g style="mix-blend-mode:screen" opacity="0.5">
<path d="M485.452 525.983C485.555 527.049 485.874 528.082 486.39 529.02C486.905 529.959 487.606 530.782 488.451 531.441C489.295 532.1 490.265 532.58 491.301 532.852C492.337 533.124 493.418 533.183 494.477 533.024L564.95 522.303L485.452 525.983Z" fill="#143C4A"/>
</g>
<path d="M565.051 532.197L561.198 530.509C559.136 529.614 557.091 528.719 555.131 527.723L542.338 552.745L536.338 553.032C536.338 553.032 539.228 558.925 545.515 558.199C547.221 558.1 548.853 557.47 550.183 556.399C551.514 555.327 552.475 553.867 552.934 552.222L565.051 532.197Z" fill="#FFB894"/>
<path d="M570.949 508.221C566.454 501.383 557.176 487.842 550.145 481.29C546.13 484.975 542.396 488.954 538.975 493.194C539.093 493.346 539.194 493.515 539.329 493.667L559.491 516.089L548.405 538.866L559.305 543.391C567.13 531.066 570.679 522.961 572.285 518.065C572.816 516.429 572.972 514.695 572.741 512.991C572.51 511.287 571.898 509.656 570.949 508.221Z" fill="#6376BF"/>
<g style="mix-blend-mode:multiply" opacity="0.5">
<path d="M544.501 499.407L556.398 512.628L555.976 517.339L544.501 499.407Z" fill="#6376BF"/>
</g>
<path d="M542.371 452.215C541.984 451.972 541.524 451.871 541.07 451.928C540.764 450.57 540.369 449.233 539.887 447.927C539.631 447.182 539.184 446.518 538.591 445.999C537.998 445.481 537.28 445.127 536.507 444.972C532.789 444.263 525.826 442.76 521.399 446.661C520.902 447.111 520.509 447.665 520.25 448.284C519.99 448.902 519.869 449.57 519.895 450.24C519.856 453.099 519.986 455.957 520.283 458.8C520.435 460.32 520.638 461.806 520.892 463.123C521.046 464.79 521.628 466.389 522.582 467.766C525.573 470.636 535.848 468.222 539.769 461.772C540.32 460.864 540.736 459.88 541.003 458.851C543.47 457.416 544.011 453.229 542.371 452.215Z" fill="#FFB894"/>
<path d="M542.22 454.596C542.133 454.475 542.019 454.377 541.887 454.31C541.754 454.242 541.608 454.207 541.459 454.208C541.171 454.204 540.891 454.299 540.665 454.478C540.207 454.866 539.819 455.328 539.516 455.846C539.468 455.892 539.405 455.918 539.338 455.918C539.272 455.918 539.208 455.892 539.161 455.846C539.103 455.813 539.059 455.761 539.038 455.699C539.016 455.637 539.018 455.569 539.042 455.508C539.208 455.215 539.457 454.978 539.758 454.828C540.059 454.677 540.399 454.62 540.732 454.664C540.853 454.671 540.971 454.704 541.079 454.759C541.186 454.814 541.281 454.891 541.358 454.985C541.497 455.163 541.573 455.383 541.573 455.609C541.573 455.836 541.497 456.056 541.358 456.234C541.112 456.543 540.753 456.744 540.361 456.791C540.682 456.641 540.949 456.392 541.121 456.082C541.192 455.955 541.222 455.808 541.207 455.663C541.192 455.518 541.132 455.382 541.037 455.272C540.916 455.202 540.779 455.165 540.639 455.165C540.5 455.165 540.363 455.202 540.242 455.272C540.098 455.302 539.961 455.363 539.842 455.451C539.722 455.538 539.623 455.65 539.549 455.778L539.076 455.542C539.417 454.954 539.899 454.461 540.479 454.107C540.782 453.921 541.144 453.855 541.493 453.921C541.666 453.951 541.827 454.031 541.956 454.151C542.085 454.271 542.177 454.426 542.22 454.596Z" fill="#F29272"/>
<path d="M541.864 445.394C539.363 441.274 530.694 442.017 530.694 442.017C530.783 441.734 530.775 441.429 530.671 441.15C530.566 440.872 530.372 440.636 530.119 440.481C529.606 440.191 529.004 440.1 528.429 440.228C527.809 440.313 527.247 440.633 526.857 441.122C526.856 440.466 526.742 439.815 526.519 439.198C526.283 438.577 525.826 438.066 525.235 437.762C524.922 437.629 524.586 437.56 524.246 437.56C523.906 437.56 523.57 437.629 523.258 437.762C522.635 438.037 522.085 438.453 521.652 438.978C520.719 440.036 520.245 441.421 520.334 442.828C519.945 442.406 519.556 441.984 519.151 441.578C519.043 441.42 518.88 441.306 518.695 441.257C518.589 441.253 518.483 441.27 518.385 441.308C518.286 441.346 518.196 441.403 518.12 441.477C517.813 441.756 517.566 442.094 517.394 442.472C517.223 442.849 517.13 443.257 517.123 443.672C517.125 444.501 517.31 445.32 517.664 446.07C517.936 446.669 518.276 447.236 518.678 447.758C517.478 451.422 520.148 456.757 520.148 456.757C519.757 454.415 520.245 452.01 521.517 450.004C522.517 450.403 523.561 450.687 524.626 450.848C527.584 451.321 530.288 447.842 531.809 447.775C532.228 447.749 532.642 447.879 532.97 448.142C533.298 448.404 533.517 448.779 533.583 449.193C533.583 449.193 533.921 453.971 534.75 454.883C535.648 455.845 536.728 456.619 537.927 457.163C538.518 457.264 537.792 451.321 541.087 451.895C545.075 452.604 540.952 458.648 540.952 458.648L540.546 460.472C548.101 455.575 541.864 445.394 541.864 445.394Z" fill="#523329"/>
<path d="M218.415 622.782C215.914 621.347 213.345 619.895 210.709 618.358C200.13 631.781 191.392 643.55 191.392 643.55L198.947 650.185L223.08 625.568C221.559 624.724 220.004 623.694 218.415 622.782Z" fill="#E28758"/>
<path d="M189.584 645.221C189.227 644.675 189.052 644.031 189.082 643.379C189.112 642.727 189.347 642.102 189.753 641.591C190.336 640.944 191 640.377 191.73 639.903C192.066 639.64 192.472 639.482 192.897 639.447C193.419 639.497 193.903 639.745 194.249 640.139C196.665 642.385 197.629 645.981 200.451 647.67C201.057 646.523 202.043 645.622 203.239 645.12C203.696 644.897 204.215 644.837 204.71 644.951C205.808 645.272 206.045 646.64 206.163 647.855C206.657 652.217 208.548 656.304 211.554 659.506C212.278 660.184 212.934 660.93 213.515 661.734C213.804 662.138 214.008 662.596 214.116 663.08C214.223 663.565 214.231 664.066 214.14 664.554C214.021 665.036 213.735 665.46 213.333 665.75C212.93 666.041 212.438 666.179 211.943 666.141L189.584 645.221Z" fill="#143C4A"/>
<path d="M250.914 548.744C250.914 549.132 250.914 549.537 250.914 549.959C250.914 550.381 250.914 551.108 250.914 551.648C250.779 567.333 250.39 598.722 249.681 600.461C248.751 602.774 212.771 636.83 212.771 636.83L212.416 636.458L203.611 627.425L202.766 626.564L231.817 590.955L225.514 531.201L242.566 537.026L244.256 537.617L247.01 538.562C249.553 541.341 250.948 544.979 250.914 548.744Z" fill="#FCC574"/>
<g style="mix-blend-mode:screen" opacity="0.5">
<g style="mix-blend-mode:screen" opacity="0.5">
<path d="M250.897 549.959C250.897 550.517 250.897 551.108 250.897 551.648C249.503 551.387 248.217 550.724 247.196 549.74C243.63 546.363 242.785 539.609 242.583 537.026L244.273 537.617C244.543 540.386 245.439 545.84 248.295 548.507C248.997 549.241 249.904 549.747 250.897 549.959Z" fill="#FCC574"/>
</g>
</g>
<g style="mix-blend-mode:multiply" opacity="0.5">
<path d="M229.468 593.91L228.657 621.685L236.82 613.766L230.6 592.508L229.468 593.91Z" fill="#FCC574"/>
</g>
<g style="mix-blend-mode:multiply" opacity="0.5">
<path d="M212.382 636.526L211.655 615.707L208.36 619.743L212.382 636.526Z" fill="#FCC574"/>
</g>
<path d="M218.416 622.782L211.656 618.915C212.703 640.207 214.799 661.734 214.799 661.734H226.899L227.508 628.151C224.516 626.412 221.474 624.538 218.416 622.782Z" fill="#E28758"/>
<path d="M215.12 666.935C213.971 666.935 212.788 665.246 212.771 664.166C212.756 663.29 212.853 662.417 213.058 661.565C213.13 661.15 213.317 660.764 213.599 660.451C214.02 660.133 214.544 659.983 215.069 660.029C218.449 660.029 221.508 662.055 224.753 661.363C224.413 660.111 224.52 658.779 225.057 657.598C225.243 657.128 225.582 656.735 226.021 656.483C227.052 655.977 228.184 656.855 229.063 657.615C232.373 660.48 236.523 662.198 240.893 662.511C241.885 662.527 242.875 662.629 243.85 662.815C244.34 662.917 244.803 663.12 245.21 663.411C245.618 663.702 245.96 664.074 246.216 664.503C246.465 664.932 246.551 665.436 246.458 665.923C246.365 666.41 246.099 666.847 245.709 667.154L215.12 666.935Z" fill="#143C4A"/>
<path d="M240.402 536.351L230.6 554.788L227.947 646.15H212.737C212.737 646.15 209.526 572.703 209.104 553.708C208.681 534.713 214.63 527.571 214.63 527.571L217.165 528.432L218.855 528.972L222.877 530.357L224.567 530.914L240.402 536.351Z" fill="#FCC574"/>
<g style="mix-blend-mode:screen" opacity="0.5">
<path d="M224.432 530.914C223.823 534.054 222.404 538.985 219.362 541.129C218.403 541.821 217.249 542.193 216.066 542.193C215.864 542.193 215.661 542.193 215.475 542.193C214.945 545.431 214.651 548.704 214.596 551.986C214.444 562.285 216.134 608.616 217.047 633.504C217.3 640.477 217.452 644.208 217.452 646.218H215.762C215.762 643.938 215.509 639.312 215.306 633.554C214.376 608.65 212.686 562.302 212.838 551.969C213.047 543.975 214.478 536.061 217.08 528.499L218.77 529.04C217.486 532.798 216.486 536.647 215.779 540.555C216.708 540.633 217.634 540.369 218.382 539.812C220.984 537.955 222.252 533.294 222.793 530.424L224.432 530.914Z" fill="#FCC574"/>
</g>
<path d="M298.64 540.47L300.025 533.227L260.158 525.899C258.585 525.608 256.961 525.953 255.642 526.859C254.324 527.765 253.419 529.156 253.128 530.728C252.503 534.004 256.238 535.979 259.499 536.604L298.64 540.47Z" fill="#E28758"/>
<path d="M298.927 533.311C298.927 533.311 310.892 531.623 316.875 538.681C316.999 538.809 317.087 538.968 317.13 539.141C317.173 539.314 317.169 539.495 317.12 539.667C317.07 539.838 316.976 539.993 316.847 540.117C316.718 540.24 316.558 540.327 316.385 540.369C310.326 541.827 304.012 541.879 297.93 540.521L298.927 533.311Z" fill="#E28758"/>
<path d="M241.214 496.926L251.59 495.473C253.635 495.179 255.716 495.681 257.401 496.875C259.087 498.069 260.25 499.864 260.649 501.89L265.33 525.798L285.052 530.475L282.281 540.47C282.281 540.47 256.288 543.678 252.283 531.758C248.278 519.838 241.214 496.926 241.214 496.926Z" fill="#0F3340"/>
<path d="M240.115 483.705L248.041 490.628L252.841 487.436L257.303 472.46L246.943 468.931L240.115 483.705Z" fill="#E28758"/>
<path d="M254.953 480.328C254.953 480.328 249.174 478.285 247.754 475.026C247.754 475.026 248.971 482.32 253.939 483.705L254.953 480.328Z" fill="#C26144"/>
<path d="M261.105 506.685C260.142 509.741 247.078 538.63 247.078 538.63L214.63 527.571L222.64 497.027C223.297 494.538 224.521 492.235 226.215 490.296C227.909 488.357 230.029 486.835 232.409 485.849C234.099 485.174 235.603 484.617 236.887 484.161L238.78 483.536C239.693 483.266 240.25 483.131 240.25 483.131L248.227 489.479L252.824 487.419C253.094 487.69 253.382 487.977 253.635 488.264C253.889 488.551 254.412 489.125 254.784 489.581C259.736 495.743 261.95 503.983 261.105 506.685Z" fill="#143C4A"/>
<g style="mix-blend-mode:screen" opacity="0.5">
<g style="mix-blend-mode:screen" opacity="0.5">
<path d="M254.801 489.648L247.298 493.211L236.904 484.228L238.797 483.604L247.585 491.218L253.652 488.331C254.058 488.72 254.429 489.159 254.801 489.648Z" fill="#143C4A"/>
</g>
</g>
<path d="M282.095 541.196L283.633 533.987L243.901 525.899C242.335 525.585 240.708 525.902 239.375 526.781C238.042 527.66 237.112 529.031 236.786 530.593C236.093 533.869 239.794 535.928 243.039 536.604L282.095 541.196Z" fill="#E28758"/>
<path d="M282.517 534.037C282.517 534.037 294.516 532.619 300.363 539.761C300.476 539.889 300.554 540.044 300.588 540.211C300.623 540.378 300.613 540.551 300.56 540.713C300.507 540.875 300.413 541.02 300.287 541.135C300.16 541.249 300.006 541.328 299.84 541.365C293.757 542.734 287.439 542.67 281.385 541.179L282.517 534.037Z" fill="#E28758"/>
<path d="M225.513 496.588L243.512 494.393L249.106 525.899L268.727 530.964L265.769 540.909C265.769 540.909 239.726 543.628 235.941 531.64C232.155 519.652 225.513 496.588 225.513 496.588Z" fill="#143C4A"/>
<g style="mix-blend-mode:multiply" opacity="0.5">
<path d="M227.17 502.295L235.231 529.31C235.231 529.31 219.531 519.449 227.17 502.295Z" fill="#143C4A"/>
</g>
<path d="M266.31 460.286C262.93 455.407 255.815 455.221 252.03 455.052C251.249 455.023 250.474 455.2 249.783 455.565C249.092 455.929 248.509 456.468 248.092 457.129C247.305 458.283 246.6 459.491 245.979 460.742C245.548 460.589 245.076 460.589 244.644 460.742C242.819 461.35 242.363 465.537 244.323 467.496C244.337 468.556 244.508 469.609 244.83 470.62C247.112 477.812 256.542 482.574 260.142 480.497C261.4 479.38 262.353 477.963 262.913 476.377C263.471 475.161 264.012 473.777 264.603 472.325C265.548 469.63 266.343 466.885 266.986 464.102C267.153 463.455 267.179 462.779 267.062 462.121C266.946 461.463 266.689 460.837 266.31 460.286Z" fill="#E28758"/>
<path d="M244.239 463.055C244.354 462.958 244.49 462.889 244.637 462.853C244.784 462.818 244.937 462.818 245.084 462.853C245.354 462.935 245.594 463.093 245.777 463.309C246.14 463.82 246.409 464.392 246.571 464.997C246.6 465.05 246.646 465.091 246.702 465.115C246.757 465.138 246.819 465.143 246.877 465.127C246.936 465.112 246.987 465.077 247.023 465.029C247.06 464.981 247.079 464.922 247.078 464.862C247.03 464.644 246.934 464.44 246.796 464.265C246.659 464.09 246.484 463.947 246.284 463.849C246.094 463.746 245.888 463.678 245.675 463.646C245.554 463.622 245.43 463.625 245.31 463.654C245.19 463.683 245.079 463.738 244.982 463.815C244.803 463.954 244.675 464.15 244.62 464.37C244.564 464.591 244.585 464.823 244.678 465.031C244.86 465.38 245.159 465.655 245.523 465.807C245.246 465.588 245.045 465.286 244.949 464.946C244.914 464.803 244.923 464.653 244.974 464.514C245.025 464.376 245.116 464.256 245.236 464.17C245.366 464.124 245.506 464.113 245.642 464.136C245.778 464.16 245.906 464.218 246.013 464.305C246.145 464.37 246.262 464.462 246.355 464.575C246.448 464.689 246.516 464.821 246.554 464.963L247.078 464.828C246.882 464.191 246.534 463.612 246.064 463.14C245.806 462.844 245.442 462.662 245.05 462.633C244.89 462.629 244.732 462.666 244.59 462.74C244.448 462.814 244.327 462.922 244.239 463.055Z" fill="#C26144"/>
<path d="M266.513 465.723C266.699 461.316 263.268 463.798 261.544 463.916C259.82 464.035 260.361 461.941 258.722 460.759C258.253 460.439 257.681 460.309 257.12 460.393C256.559 460.478 256.05 460.771 255.697 461.215C254.21 462.731 252.5 464.013 250.627 465.014C250.499 465.073 250.361 465.107 250.221 465.113C250.08 465.119 249.94 465.097 249.808 465.048C249.676 464.999 249.555 464.925 249.452 464.829C249.349 464.734 249.265 464.618 249.207 464.49C248.698 463.258 247.925 462.151 246.943 461.249C246.68 461.047 246.376 460.906 246.052 460.835C245.728 460.765 245.392 460.767 245.069 460.841C244.746 460.915 244.444 461.06 244.183 461.265C243.923 461.469 243.711 461.729 243.563 462.025C243.15 462.914 242.998 463.9 243.123 464.872C243.249 465.843 243.647 466.758 244.272 467.513C244.418 468.818 244.684 470.106 245.067 471.362C244.296 470.962 243.615 470.409 243.063 469.739C242.511 469.069 242.101 468.295 241.856 467.462C241.319 465.275 241.413 462.98 242.126 460.843C242.603 459.179 243.351 457.605 244.34 456.183C244.833 455.392 245.504 454.727 246.3 454.242C246.753 453.981 247.265 453.843 247.788 453.843C248.31 453.843 248.823 453.981 249.275 454.242C253.036 452.98 257.019 452.514 260.97 452.874C262.525 452.961 264.052 453.321 265.482 453.938C266.794 454.448 267.883 455.406 268.555 456.643C269.226 457.88 269.437 459.314 269.149 460.691C268.929 461.9 268.554 463.074 268.034 464.187C267.448 465.569 266.693 466.873 265.786 468.07L266.513 465.723Z" fill="#523329"/>
<path d="M366.73 667.188V545.721H360.967V667.188H366.73Z" fill="#4759A1"/>
<g style="mix-blend-mode:multiply" opacity="0.5">
<path d="M366.73 562.96V554.788H360.967V562.96H366.73Z" fill="#4759A1"/>
</g>
<path d="M309.405 667.171V545.705H303.642V667.171H309.405Z" fill="#4759A1"/>
<g style="mix-blend-mode:multiply" opacity="0.5">
<path d="M309.405 562.96V554.788H303.642V562.96H309.405Z" fill="#4759A1"/>
</g>
<path d="M278.681 667.171V545.705H272.918V667.171H278.681Z" fill="#6376BF"/>
<g style="mix-blend-mode:multiply" opacity="0.5">
<path d="M278.698 562.96V554.788H272.935V562.96H278.698Z" fill="#6376BF"/>
</g>
<path d="M336.006 667.171V545.705H330.243V667.171H336.006Z" fill="#6376BF"/>
<g style="mix-blend-mode:multiply" opacity="0.5">
<path d="M336.023 562.96V554.788H330.26V562.96H336.023Z" fill="#6376BF"/>
</g>
<path d="M366.73 545.705H272.935V554.788H366.73V545.705Z" fill="#6376BF"/>
<g style="mix-blend-mode:screen" opacity="0.5">
<path d="M366.73 545.705H272.935V548.322H366.73V545.705Z" fill="#6376BF"/>
</g>
<path d="M328.113 541.906H284.951V545.705H328.113V541.906Z" fill="#1B5063"/>
<path d="M346.45 541.906H308.678V545.705H346.45V541.906Z" fill="#143C4A"/>
<path d="M346.45 541.99H308.627L311.805 518.082C311.866 517.679 312.07 517.312 312.381 517.048C312.692 516.784 313.087 516.642 313.495 516.646H347.937C348.175 516.645 348.411 516.694 348.63 516.79C348.848 516.886 349.043 517.028 349.203 517.205C349.362 517.382 349.483 517.59 349.556 517.817C349.629 518.044 349.653 518.284 349.627 518.521L346.45 541.99Z" fill="#143C4A"/>
<path d="M775.71 666.513H55.2966V671.578H775.71V666.513Z" fill="#B4CBDD"/>
</svg>
