<svg width="24" height="24" viewBox="0 0 24 24" fill="none" xmlns="http://www.w3.org/2000/svg">
<path d="M20.7227 7.53125C21.582 6.88672 22.3555 6.11328 23 5.16797C22.1406 5.55469 21.2812 5.8125 20.4219 5.89844C21.3672 5.29687 22.0547 4.48047 22.3984 3.40625C21.4961 3.92187 20.5508 4.30859 19.5195 4.48047C19.0898 4.05078 18.5742 3.70703 18.0156 3.44922C17.457 3.19141 16.8555 3.0625 16.2109 3.0625C15.3945 3.0625 14.6641 3.27734 13.9766 3.66406C13.2891 4.09375 12.7305 4.65234 12.3437 5.33984C11.9141 6.02734 11.7422 6.80078 11.7422 7.57422C11.7422 7.91797 11.7422 8.26172 11.8281 8.60547C9.98047 8.51953 8.26172 8.08984 6.62891 7.23047C4.99609 6.41406 3.66406 5.29687 2.54687 3.87891C2.11719 4.60937 1.90234 5.38281 1.90234 6.15625C1.90234 6.92969 2.07422 7.66016 2.46094 8.30469C2.80469 8.99219 3.32031 9.50781 3.92187 9.9375C3.19141 9.9375 2.50391 9.72266 1.90234 9.33594V9.42187C1.90234 10.4961 2.24609 11.4414 2.93359 12.2578C3.62109 13.1172 4.48047 13.6328 5.51172 13.8477C5.08203 13.9336 4.69531 13.9766 4.30859 13.9766C4.05078 13.9766 3.75 13.9766 3.49219 13.9336C3.75 14.8359 4.26562 15.5664 5.03906 16.168C5.8125 16.7695 6.67187 17.0273 7.70312 17.0273C6.02734 18.3164 4.13672 18.9609 2.07422 18.9609C1.64453 18.9609 1.30078 18.9609 1 18.918C3.0625 20.293 5.38281 20.9375 7.91797 20.9375C10.5391 20.9375 12.8594 20.293 14.9219 18.918C16.7695 17.7148 18.2305 16.125 19.2617 14.0625C20.25 12.1719 20.7656 10.1523 20.7656 8.08984C20.7656 7.83203 20.7227 7.66016 20.7227 7.53125Z" fill="#039588"/>
</svg>
