<svg width="24" height="24" viewBox="0 0 24 24" fill="none" xmlns="http://www.w3.org/2000/svg">
<path d="M23.4647 5.84384C23.3755 6.28994 23.0186 7.0483 22.3941 8.07432C21.948 8.83269 21.4126 9.68027 20.7881 10.6617C20.2528 11.4647 19.9405 11.8661 19.9405 11.8661C19.7621 12.1338 19.6729 12.3569 19.6729 12.4907C19.6729 12.6691 19.7621 12.8476 19.9405 13.026L20.342 13.4721C22.4833 15.7026 23.6877 17.2193 23.9554 18.0223C24.0446 18.3792 24 18.6914 23.8216 18.8699C23.6431 19.0483 23.4201 19.1375 23.0632 19.1375H20.4312C20.0743 19.1375 19.8067 19.0483 19.539 18.8253C19.3606 18.736 19.0037 18.4238 18.5576 17.8885C18.1115 17.3531 17.71 16.907 17.3532 16.5502C16.1487 15.4349 15.2565 14.855 14.7212 14.855C14.4535 14.855 14.2751 14.8996 14.1859 14.9888C14.0967 15.078 14.052 15.3011 14.052 15.5687C14.0074 15.7918 14.0074 16.2379 14.0074 16.9516V18.1115C14.0074 18.4684 13.9182 18.736 13.7398 18.8699C13.4721 19.0483 12.9368 19.1375 12.1338 19.1375C10.7063 19.1375 9.32342 18.736 7.89591 17.8885C6.4684 17.0855 5.21933 15.881 4.1487 14.3197C3.12268 12.9814 2.27509 11.5985 1.60595 10.171C1.07063 9.10035 0.624535 8.11893 0.312268 7.18213C0.0892193 6.46837 0 5.93306 0 5.62079C0 5.13008 0.267658 4.86243 0.892193 4.86243H3.52416C3.83643 4.86243 4.05948 4.95165 4.23792 5.08548C4.41636 5.26391 4.55019 5.53157 4.68401 5.88845C5.0855 7.09291 5.57621 8.25276 6.20074 9.368C6.73606 10.4386 7.27138 11.2862 7.80669 11.9108C8.34201 12.5799 8.74349 12.8922 9.05576 12.8922C9.2342 12.8922 9.32342 12.8476 9.41264 12.7137C9.50186 12.5799 9.54647 12.3122 9.54647 11.9108V8.02971C9.50186 7.58362 9.41264 7.13752 9.2342 6.78064C9.14498 6.6022 8.96654 6.37916 8.7881 6.1115C8.56506 5.84384 8.47584 5.6654 8.47584 5.48696C8.47584 5.30852 8.52045 5.17469 8.65428 5.04087C8.7881 4.95165 8.96654 4.86243 9.14498 4.86243H13.2937C13.5613 4.86243 13.7398 4.95165 13.829 5.08548C13.9182 5.26391 14.0074 5.48696 14.0074 5.84384V11.0186C14.0074 11.2862 14.052 11.5093 14.1413 11.5985C14.2305 11.7323 14.3197 11.7769 14.4535 11.7769C14.5874 11.7769 14.7658 11.7323 14.9442 11.6431C15.1227 11.5539 15.3457 11.3308 15.658 10.974C16.1933 10.3494 16.7732 9.59105 17.3532 8.65425C17.71 8.02971 18.1115 7.31596 18.4684 6.51298L18.9145 5.62079C19.0929 5.13008 19.4944 4.86243 20.0297 4.86243H22.6617C23.3755 4.86243 23.6431 5.2193 23.4647 5.84384Z" fill="#039588"/>
</svg>
