<svg width="1093" height="385" viewBox="0 0 1093 385" fill="none" xmlns="http://www.w3.org/2000/svg">
<path d="M196.092 377.596V305.673H16.9136L0 233.221L191.864 4.75962H295.459V228.99H342.5V305.673H295.459V377.596H196.092ZM107.824 229.519H196.092V123.221L107.824 229.519Z" fill="white"/>
<path d="M674.141 329.471C642.78 366.49 601.377 385 549.931 385C498.486 385 457.083 366.667 425.722 330C394.714 292.981 379.21 247.147 379.21 192.5C379.21 138.558 395.066 93.0769 426.779 56.0577C458.492 18.6859 499.895 0 550.989 0C602.434 0 643.661 18.5096 674.669 55.5289C706.03 92.5481 721.71 138.205 721.71 192.5C721.71 246.442 705.854 292.099 674.141 329.471ZM501.305 266.01C513.99 284.696 530.551 294.038 550.989 294.038C571.426 294.038 587.811 284.696 600.144 266.01C612.477 246.971 618.643 222.468 618.643 192.5C618.643 162.885 612.124 138.558 599.087 119.519C586.401 100.481 570.016 90.9615 549.931 90.9615C529.494 90.9615 513.109 100.304 500.776 118.99C488.443 137.676 482.277 162.179 482.277 192.5C482.277 222.468 488.62 246.971 501.305 266.01Z" fill="white"/>
<path d="M946.592 377.596V305.673H767.413L750.5 233.221L942.363 4.75962H1045.96V228.99H1093V305.673H1045.96V377.596H946.592ZM858.324 229.519H946.592V123.221L858.324 229.519Z" fill="white"/>
</svg>
