<svg xmlns="http://www.w3.org/2000/svg" width="536" height="433" viewBox="0 0 536 433"><defs><linearGradient id="32cib" x1="-446.5" x2="1012" y1="-343" y2="737" gradientUnits="userSpaceOnUse"><stop offset="0" stop-color="#575757"/><stop offset="1" stop-color="#232323"/></linearGradient><linearGradient id="32cic" x1="57.85" x2="307.71" y1="-47.18" y2="208.36" gradientUnits="userSpaceOnUse"><stop offset="0" stop-color="#c78d01"/><stop offset="1" stop-color="#884a03"/></linearGradient><linearGradient id="32cid" x1="400.83" x2="154.76" y1="194.36" y2="751.63" gradientUnits="userSpaceOnUse"><stop offset="0" stop-color="#904d00"/><stop offset="1" stop-color="#5d220e"/></linearGradient><clipPath id="32cia"><path d="M-897 1024V-598h2390v1622zM1458-543H-862V989h2320zM324.62 89.014c14.6-11.567 51.33-38.321 81.53-52.805 25.67 10.561 88.08 49.285 113.24 82.979-3.52 33.192-5.13 99.575 16.61 99.575-3.28 1.157-7.32 2.437-11.89 3.881-31.14 9.856-86.44 27.358-87.76 65.52H317.07L197.79 433l-6.04-105.61c-7.55 2.012-33.82-12.975-78.51-89.014-40.368-68.681-84.594-91.656-106.869-95.83-2.48-.131-4.603-.382-6.371-.727 1.851.048 3.985.28 6.371.727 30.006 1.585 112.359-14.328 251.819-91.25L274.79 0z"/></clipPath></defs><g><g><g/><g><path fill="#393939" d="M-897 1024V-598h2390v1622zM1458-543H-862V989h2320zM324.62 89.014c14.6-11.567 51.33-38.321 81.53-52.805 25.67 10.561 88.08 49.285 113.24 82.979-3.52 33.192-5.13 99.575 16.61 99.575-3.28 1.157-7.32 2.437-11.89 3.881-31.14 9.856-86.44 27.358-87.76 65.52H317.07L197.79 433l-6.04-105.61c-7.55 2.012-33.82-12.975-78.51-89.014-40.368-68.681-84.594-91.656-106.869-95.83-2.48-.131-4.603-.382-6.371-.727 1.851.048 3.985.28 6.371.727 30.006 1.585 112.359-14.328 251.819-91.25L274.79 0z"/></g><g clip-path="url(#32cia)"><g><path fill="url(#32cib)" d="M-661-343h1920V737H-661z"/></g><g><path fill="url(#32cic)" d="M57.286 64.265a140.14 140.14 0 0 1 18.2-45.396L66.074 8.482a9.407 9.407 0 0 1-.151-13.302L94.28-33.826a9.38 9.38 0 0 1 6.727-2.831c2.37 0 4.746.891 6.575 2.68l10.596 9.175a140.119 140.119 0 0 1 44.974-19.222l.689-14.005a9.408 9.408 0 0 1 9.3-9.512l40.562-.458.109-.001a9.41 9.41 0 0 1 9.404 9.3l1.006 13.986a140.165 140.165 0 0 1 45.396 18.2l10.386-9.411a9.371 9.371 0 0 1 6.728-2.831c2.371 0 4.745.891 6.574 2.68l29.006 28.358a9.41 9.41 0 0 1 .151 13.302l-9.175 10.596a140.15 140.15 0 0 1 19.222 44.974s-3.936 3.272-6.415 5.754c-4.681 4.689-7.309 10.883-7.432 17.489l-.25 4.185-.122 2.053a182.373 182.373 0 0 0-19.605 6.792 103.907 103.907 0 0 0-5.606-38.116 102.91 102.91 0 0 0-5.7-13.354 103.43 103.43 0 0 0-19.756-26.749A103.424 103.424 0 0 0 240.436.062a102.179 102.179 0 0 0-3.664-1.686l-15.041 75.389c4.383 5.945 6.511 13.038 6.378 20.104l10.035 9.81-31.834 31.887-9.697-9.481a32.776 32.776 0 0 1-19.35-5.314l-75.585 16.866c.46.971.937 1.935 1.43 2.893 4.966 9.676 11.55 18.727 19.756 26.749a103.367 103.367 0 0 0 27.189 19.147 102.801 102.801 0 0 0 13.478 5.396 103.771 103.771 0 0 0 31.706 4.953c1.195 0 2.388-.025 3.581-.067a182.458 182.458 0 0 0-7.152 20.422c-.046.163-.095.325-.142.488l-6.236.383c-6.606.133-12.795 2.772-17.477 7.461a25.572 25.572 0 0 0-4.002 5.199 140.134 140.134 0 0 1-42.94-17.659l-10.387 9.412a9.376 9.376 0 0 1-6.727 2.831 9.376 9.376 0 0 1-6.575-2.68l-29.006-28.358a9.417 9.417 0 0 1-2.83-6.62 9.412 9.412 0 0 1 2.68-6.682l9.174-10.596a140.144 140.144 0 0 1-19.222-44.974l-14.005-.69-.108.001a9.408 9.408 0 0 1-9.404-9.3L34 74.783a9.406 9.406 0 0 1 9.3-9.512zm131.41-60.49l2.623-13.993a103.797 103.797 0 0 0-30.009 5.626 102.838 102.838 0 0 0-13.353 5.7c-9.676 4.966-18.728 11.55-26.75 19.755a103.397 103.397 0 0 0-19.146 27.19 102.843 102.843 0 0 0-5.396 13.478 103.801 103.801 0 0 0-4.952 30.948l13.946-2.94 61.21-12.91a32.905 32.905 0 0 1 10.196-10.783zm17.203 78.57a15.161 15.161 0 0 0-5.571-3.47 15.31 15.31 0 0 0-5.088-.87c-3.957 0-7.91 1.531-10.895 4.584-4.642 4.748-5.551 11.755-2.774 17.392a15.199 15.199 0 0 0 3.018 4.161 15.187 15.187 0 0 0 10.652 4.343c3.701 0 7.401-1.34 10.307-4.011.05-.046.099-.095.148-.142.151-.141.301-.284.446-.433 5.885-6.019 5.776-15.669-.243-21.554z"/></g><g><path fill="url(#32cid)" d="M535.273 304.445a169.007 169.007 0 0 1-22.535 54.521l11.226 12.652c4.434 4.427 4.44 11.612.013 16.046l-34.57 34.629a11.309 11.309 0 0 1-8.03 3.33c-2.9 0-5.802-1.106-8.017-3.317l-12.67-11.204a168.998 168.998 0 0 1-54.483 22.628l-1.007 16.877c.005 6.267-5.071 11.351-11.337 11.356l-48.931.042h-.009c-6.262 0-11.341-5.074-11.347-11.337l-1.036-16.875a169.052 169.052 0 0 1-54.521-22.535l-12.651 11.225a11.306 11.306 0 0 1-8.03 3.33 11.313 11.313 0 0 1-8.017-3.317l-34.629-34.569c-4.434-4.428-4.44-11.612-.013-16.047l11.204-12.671a169.017 169.017 0 0 1-22.628-54.482l-16.877-1.008h-.01c-6.262 0-11.341-5.074-11.346-11.336l-.02-23.898-.007-7.097-.006-7.165-.009-10.772c-.006-6.267 5.07-11.351 11.337-11.356l16.875-1.037a168.765 168.765 0 0 1 12.405-36.193c1.31-2.757 2.69-5.473 4.14-8.146a168.958 168.958 0 0 1 5.199-8.908c.264-.424.523-.853.79-1.274l-11.225-12.651a11.302 11.302 0 0 1-2.308-3.348 11.36 11.36 0 0 1 2.295-12.698l2.41-2.415 31.834-31.887.325-.326a11.28 11.28 0 0 1 6.182-3.17c.613-.1 1.23-.16 1.848-.16 2.901 0 5.802 1.105 8.017 3.316l12.671 11.204c.451-.289.909-.567 1.363-.851.335-.21.669-.421 1.006-.628 2.919-1.8 5.899-3.51 8.931-5.135a169.94 169.94 0 0 1 8.181-4.107 168.791 168.791 0 0 1 21.198-8.221 169.164 169.164 0 0 1 13.803-3.686l1.008-16.877c-.006-6.266 5.07-11.35 11.336-11.356l11.963-.01 7.048-.006 7.048-.006 22.871-.019h.01c6.262 0 11.342 5.074 11.347 11.337l1.037 16.875a169.027 169.027 0 0 1 54.52 22.536l12.652-11.226a11.313 11.313 0 0 1 8.03-3.33c2.899 0 5.801 1.105 8.016 3.316l34.628 34.57c4.435 4.427 4.441 11.612.013 16.046l-11.204 12.671a169.04 169.04 0 0 1 22.629 54.482l16.876 1.008h.01c6.262 0 11.341 5.074 11.346 11.337l.042 48.93c.005 6.267-5.071 11.351-11.336 11.356zm-57.737-9.612l-79.411.068c-5.552 5.908-12.891 10.115-21.16 11.75l-50.905 78.326c1.216.448 2.441.876 3.674 1.287 12.415 4.135 25.692 6.378 39.494 6.378h.107c13.841-.012 27.152-2.279 39.592-6.446a124.36 124.36 0 0 0 16.17-6.725 125.409 125.409 0 0 0 55.948-56.043 123.444 123.444 0 0 0 10.125-28.607zM257.51 323.618a125.205 125.205 0 0 0 21.851 30.851l9.537-14.305 41.856-62.784a39.678 39.678 0 0 1-.315-17.899l-21.251-31.761-4.006-5.985-4.004-5.985-13.1-19.578-8.237-12.312-1.312-1.96a125.354 125.354 0 0 0-21.114 30.174 124.65 124.65 0 0 0-6.697 16.181 125.142 125.142 0 0 0-6.379 39.603c.012 13.841 2.279 27.152 6.447 39.591a124.245 124.245 0 0 0 6.724 16.169zm75.725-175.48a122.3 122.3 0 0 0-3.701 1.168 124.48 124.48 0 0 0-4.58 1.64l4.209 6.452 4.456 6.832 41.998 64.381c8.794 1.425 16.615 5.741 22.464 11.943l79.41-.067 13.634-.012a123.675 123.675 0 0 0-10.174-28.59 125.41 125.41 0 0 0-56.043-55.948 124.033 124.033 0 0 0-16.181-6.697c-12.414-4.136-25.691-6.38-39.492-6.38h-.11a125.177 125.177 0 0 0-27.525 3.073 123.732 123.732 0 0 0-8.365 2.204zm35.98 101.228c-2.67 0-5.308.585-7.729 1.712-6.287 2.925-10.646 9.298-10.64 16.689.007 8.01 5.137 14.816 12.288 17.33 1.908.671 3.96 1.04 6.098 1.04h.014c9.82-.008 17.833-7.713 18.343-17.404.004-.081.005-.165.008-.247.01-.249.018-.499.018-.749-.007-10.149-8.237-18.371-18.384-18.37z"/></g><g opacity=".1"><path fill="#fff" d="M648 393c0 115.428-156.477 209-349.5 209C105.476 602-51 508.428-51 393c0-115.427 156.476-209 349.5-209C491.523 184 648 277.573 648 393z"/></g></g></g></g></svg>