<svg width="20" height="20" viewBox="0 0 20 20" fill="none" xmlns="http://www.w3.org/2000/svg">
<path d="M13.5146 8.68095V10.0661C13.5146 10.327 13.6175 10.5695 13.7939 10.7532V11.2235C13.7939 11.4255 13.9555 11.5872 14.1576 11.5872C14.3597 11.5872 14.5214 11.4255 14.5214 11.2235V10.5842C14.5214 10.4629 14.4589 10.349 14.3597 10.2829C14.2862 10.2351 14.2421 10.1543 14.2421 10.0661V8.68095C14.2421 8.19596 14.6389 7.79915 15.1239 7.79915H15.4215C15.9065 7.79915 16.3033 8.19596 16.3033 8.68095V10.0661C16.3033 10.1543 16.2592 10.2351 16.1858 10.2829C16.0829 10.349 16.0241 10.4629 16.0241 10.5842V11.9179C16.0241 12.0795 16.1196 12.2302 16.2629 12.3C16.4356 12.3845 17.3321 12.8364 18.1624 13.5161C18.2323 13.5749 18.2727 13.6594 18.2727 13.7549V14.3391H15.7228C15.5207 14.3391 15.3591 14.5008 15.3591 14.7029C15.3591 14.905 15.5207 15.0666 15.7228 15.0666H18.6364C18.8385 15.0666 19.0002 14.905 19.0002 14.7029V13.7549C19.0002 13.4426 18.8642 13.1524 18.6217 12.954C17.8906 12.3551 17.108 11.9179 16.7516 11.7305V10.7495C16.9279 10.5658 17.0308 10.3233 17.0308 10.0624V8.67727C17.0308 7.78813 16.307 7.06799 15.4215 7.06799H15.1239C14.2385 7.07167 13.5146 7.7918 13.5146 8.68095Z" fill="url(#paint0_linear)" stroke="url(#paint1_linear)" stroke-width="0.2"/>
<path d="M1.36374 15.0666H4.32143C4.52351 15.0666 4.68517 14.9049 4.68517 14.7029C4.68517 14.5008 4.52351 14.3391 4.32143 14.3391H1.72748V13.7549C1.72748 13.6631 1.7679 13.5749 1.83771 13.5161C2.66439 12.8364 3.56456 12.3808 3.73724 12.3C3.88421 12.2302 3.97606 12.0795 3.97606 11.9179V10.5841C3.97606 10.4629 3.9136 10.349 3.8144 10.2829C3.74092 10.2351 3.69683 10.1543 3.69683 10.0661V8.68093C3.69683 8.19595 4.09363 7.79914 4.57862 7.79914H4.87623C5.36122 7.79914 5.75802 8.19595 5.75802 8.68093V10.0661C5.75802 10.1543 5.71393 10.2351 5.64045 10.2829C5.53757 10.349 5.47879 10.4629 5.47879 10.5841V11.2528C5.47879 11.4549 5.64045 11.6166 5.84253 11.6166C6.04461 11.6166 6.20627 11.4549 6.20627 11.2528V10.7532C6.38263 10.5694 6.48551 10.327 6.48551 10.0661V8.68093C6.48551 7.79179 5.7617 7.07166 4.87623 7.07166H4.57862C3.68948 7.07166 2.96934 7.79546 2.96934 8.68093V10.0661C2.96934 10.327 3.07222 10.5694 3.24858 10.7532V11.7342C2.88851 11.9215 2.10959 12.3551 1.37844 12.9576C1.13962 13.156 1 13.4463 1 13.7586V14.7029C1 14.9049 1.16166 15.0666 1.36374 15.0666Z" fill="url(#paint2_linear)" stroke="url(#paint3_linear)" stroke-width="0.2"/>
<path d="M12.184 8.69935V6.91004C12.184 5.81882 11.2985 4.93335 10.2073 4.93335H9.82147C8.73025 4.93335 7.84478 5.81882 7.84478 6.91004V8.69935C7.84478 9.02268 7.97705 9.32396 8.20485 9.54441V10.9222C7.77497 11.1427 6.72417 11.7158 5.74317 12.5241C5.45658 12.7593 5.29492 13.1047 5.29492 13.4757V14.7029C5.29492 14.905 5.45658 15.0667 5.65866 15.0667H14.3664C14.5685 15.0667 14.7301 14.905 14.7301 14.7029V13.4757C14.7301 13.1047 14.5685 12.7593 14.2819 12.5241C13.3009 11.7195 12.2501 11.1427 11.8202 10.9222V9.54441C12.0517 9.32763 12.184 9.02268 12.184 8.69935ZM13.8226 13.0863C13.9402 13.1818 14.0063 13.3251 14.0063 13.4757V14.3392H6.02608V13.4757C6.02608 13.3251 6.09221 13.1818 6.20979 13.0863C7.28998 12.1971 8.46204 11.6056 8.68616 11.4954C8.8368 11.4219 8.936 11.2639 8.936 11.0986V9.37172C8.936 9.25048 8.87354 9.13658 8.77434 9.07044C8.64942 8.98594 8.57594 8.84999 8.57594 8.70303V6.91372C8.57594 6.22298 9.13808 5.66451 9.82515 5.66451H10.2109C10.9017 5.66451 11.4601 6.22665 11.4601 6.91372V8.70303C11.4601 8.84999 11.3867 8.98961 11.2617 9.07044C11.1589 9.13658 11.1001 9.25048 11.1001 9.37172V11.0986C11.1001 11.2676 11.1993 11.4219 11.3499 11.4954C11.5704 11.6056 12.7424 12.2008 13.8226 13.0863Z" fill="#039588" stroke="#039588" stroke-width="0.2"/>
<defs>
<linearGradient id="paint0_linear" x1="14.1275" y1="7.06799" x2="20.0926" y2="8.77195" gradientUnits="userSpaceOnUse">
<stop stop-color="#575757"/>
<stop offset="1" stop-color="#232323"/>
</linearGradient>
<linearGradient id="paint1_linear" x1="14.1275" y1="7.06799" x2="20.0926" y2="8.77195" gradientUnits="userSpaceOnUse">
<stop stop-color="#575757"/>
<stop offset="1" stop-color="#232323"/>
</linearGradient>
<linearGradient id="paint2_linear" x1="1.61283" y1="7.07166" x2="7.57751" y2="8.77627" gradientUnits="userSpaceOnUse">
<stop stop-color="#575757"/>
<stop offset="1" stop-color="#232323"/>
</linearGradient>
<linearGradient id="paint3_linear" x1="1.61283" y1="7.07166" x2="7.57751" y2="8.77627" gradientUnits="userSpaceOnUse">
<stop stop-color="#575757"/>
<stop offset="1" stop-color="#232323"/>
</linearGradient>
</defs>
</svg>
