<svg width="1500" height="490" viewBox="0 0 1500 490" fill="none" xmlns="http://www.w3.org/2000/svg">
<g opacity="0.2">
<g opacity="0.6">
<path opacity="0.6" d="M1198.88 132.862C1183.53 132.862 1171.22 141.859 1171.22 153.105V155.515H1100.37C1100.37 142.662 1079.42 132.22 1053.84 132.22H1021.85V144.59L942.377 156.639V142.02C942.377 136.236 935.981 131.577 928.145 131.577H915.352L879.531 149.41H616.951V132.059C616.951 127.079 607.996 122.902 597.281 122.902H552.026C541.151 122.902 532.356 127.079 532.356 132.059V147.803H435.128C432.729 147.803 430.65 149.41 430.65 151.177V159.852H385.395V150.374H321.429C316.951 150.374 313.273 153.105 313.273 156.318V190.056L296.002 191.18C263.06 192.466 237.793 205.157 237.793 220.58V267.974H1255.97V132.702L1199.04 132.862H1198.88Z" fill="#E8EAED"/>
<path opacity="0.6" d="M1298.51 219.456L1230.06 212.708V289.823H1314.02V228.613C1314.02 224.115 1307.62 220.259 1298.51 219.456Z" fill="#E8EAED"/>
</g>
<path opacity="0.2" d="M1180.17 228.131H967.484V171.902C967.484 167.403 972.281 163.869 977.878 163.869H1103.41L1128.52 172.384H1180.17V228.131ZM532.036 165.797V162.262C532.036 159.692 529.318 157.603 525.959 157.603H457.196V165.315H394.989V254.479L601.279 255.603V165.957H532.036V165.797ZM341.578 168.689H307.836C293.923 170.777 283.849 179.934 283.849 190.859V209.816L273.454 214.315V247.41H371.002V168.689H341.578Z" fill="#E8EAED"/>
<path opacity="0.2" d="M434.968 161.62H425.053C425.053 152.141 411.94 144.59 395.789 144.59C379.638 144.59 366.525 152.141 366.525 161.62H356.61V176.079H363.326V221.705H428.252V176.239H434.968V161.62Z" fill="#BDC1C6"/>
<path opacity="0.2" d="M497.974 233.754V218.492L328.465 176.721L243.07 218.492H270.896V236.646H259.861V243.715H243.07V253.193H404.904L418.497 266.689H484.382L492.058 253.193H529.318V245.161L497.974 233.754ZM297.761 236.646H284.328V221.223C284.367 220.785 284.495 220.359 284.704 219.973C284.913 219.586 285.198 219.247 285.543 218.976C285.888 218.705 286.284 218.507 286.708 218.397C287.132 218.286 287.574 218.263 288.006 218.331H294.083C294.516 218.263 294.958 218.286 295.381 218.397C295.805 218.507 296.202 218.705 296.546 218.976C296.891 219.247 297.177 219.586 297.386 219.973C297.595 220.359 297.723 220.785 297.761 221.223V236.646ZM325.906 236.646H312.473V221.223C312.513 220.8 312.636 220.39 312.835 220.015C313.034 219.64 313.305 219.309 313.632 219.04C313.959 218.771 314.336 218.57 314.741 218.448C315.146 218.327 315.571 218.287 315.991 218.331H322.228C322.661 218.263 323.103 218.286 323.526 218.397C323.95 218.507 324.347 218.705 324.691 218.976C325.036 219.247 325.322 219.586 325.531 219.973C325.74 220.359 325.868 220.785 325.906 221.223V236.646Z" fill="url(#paint0_linear)"/>
<path opacity="0.2" d="M1016.74 204.033V188.61H1003.94V159.049L928.305 143.305V116.475L901.919 111.495L875.533 116.475V146.197L845.309 145.715V69.4033L786.141 60.7279V7.39016L747.441 0L709.062 7.06885V61.2098L671.642 66.5115V108.282H656.45V66.1902C656.45 63.2984 652.932 61.2098 649.733 62.3344L612.473 75.5082V108.603C607.356 109.728 603.518 113.423 603.518 117.921V128.846L544.989 142.18V196.803L518.124 204.836V252.23H1044.24V209.334L1016.74 203.872V204.033Z" fill="url(#paint1_linear)"/>
<path opacity="0.2" d="M1269.72 188.449C1269.72 183.63 1260.61 179.613 1249.57 179.613H1246.7V158.407C1246.7 153.426 1237.58 149.41 1226.55 149.41H1218.23V110.049L1178.25 102.82L1140.19 107.639V147.482L1116.68 154.39L1112.21 172.062L1069.67 173.99V158.407L1051.44 155.193L1033.05 158.407V260.262H1269.72V188.449Z" fill="url(#paint2_linear)"/>
<path opacity="0.2" d="M1374.79 309.423C1374.63 292.233 1364.87 275.685 1348.08 264.118C1335.61 256.886 1321.37 253.323 1306.98 253.836H1093.82L1090.78 242.911H1066.79L1065.19 242.269C1060.7 240.436 1055.69 240.322 1051.12 241.948L1038.01 246.767H1029.05C1027.43 246.673 1025.83 247.202 1024.59 248.246C1023.34 249.29 1022.54 250.772 1022.33 252.39V253.675H1002.67V247.249C1002.51 245.321 1001.07 243.715 998.987 243.393L980.117 239.377L961.567 241.466L962.527 253.675H200.373C186.033 253.141 171.837 256.706 159.435 263.957L158.635 264.439C150.858 269.261 144.355 275.897 139.677 283.785C135 291.672 132.287 300.578 131.77 309.744L131.13 343.803H1375.27L1374.79 309.423Z" fill="#BDC1C6"/>
<path opacity="0.2" d="M1221.75 298.82L1158.1 264.921C1159.86 261.387 1159.38 256.889 1156.82 253.836C1156.82 253.836 1162.9 242.911 1150.75 236.164C1138.59 229.095 1126.76 236.646 1126.76 236.646C1126.76 236.646 1113.17 224.757 1097.97 232.148C1082.78 239.538 1089.98 255.121 1089.98 255.121C1069.51 268.456 1073.35 298.82 1073.35 298.82H1221.75Z" fill="url(#paint3_linear)"/>
<path opacity="0.2" d="M1389.66 312.797L1284.43 267.813V250.302H1289.87V235.039H1281.08V228.131L1267.16 227.81L1255.33 205.639H1235.5L1223.67 227.81L1209.75 228.131V235.039H1200.96V250.302H1206.4V275.685L1256.45 314.885L1389.66 312.797Z" fill="url(#paint4_linear)"/>
<path opacity="0.2" d="M1223.35 250.623H1264.93V258.656H1223.35V250.623ZM1223.35 263.475H1264.93V271.508H1223.35V263.475Z" fill="#BDC1C6"/>
<path opacity="0.2" d="M327.505 257.049V254.318C327.505 251.908 331.503 249.98 336.301 249.98H349.094V239.056L387.473 221.705L423.454 239.056V245.964H448.561C451.759 245.964 454.158 247.249 454.158 248.695V308.459H206.29L327.505 257.049Z" fill="url(#paint5_linear)"/>
<path opacity="0.2" d="M219.083 217.367C216.684 212.548 209.328 208.852 200.693 208.852C196.215 208.852 191.898 209.816 187.9 212.066L185.341 211.744C179.584 211.744 174.787 214.797 174.787 218.492C174.787 219.295 175.107 220.098 175.426 220.741C169.03 222.669 164.712 226.685 164.712 231.344C164.712 237.771 173.028 243.072 183.262 243.072C186.262 243.028 189.234 242.485 192.058 241.466V255.443H203.731V247.249L207.889 247.41C222.921 247.41 235.075 240.341 235.075 231.666C235.075 225.239 228.518 219.777 219.083 217.207V217.367Z" fill="url(#paint6_linear)"/>
<path opacity="0.3" d="M673.241 108.121L461.674 306.852H259.062L658.049 94.7869V108.121H673.241ZM845.949 144.751L1071.59 343.803H1258.53L876.333 131.738V145.233L845.949 144.751Z" fill="white"/>
<path opacity="0.2" d="M294.883 238.734L297.441 237.771H284.009L281.45 238.734H294.883ZM278.731 246.928L281.45 245.803H268.177L265.458 246.928H278.731Z" fill="#F8F9FA"/>
<path opacity="0.2" d="M228.838 255.443L233.475 253.836H204.531L199.893 255.443H228.838Z" fill="url(#paint7_linear)"/>
<path opacity="0.2" d="M193.497 253.836C189.659 253.836 185.821 254.157 181.983 254.8C175.107 255.925 168.87 258.816 163.753 262.833L163.113 263.475C166.151 263.154 169.03 262.511 171.748 261.226C177.906 257.176 185.026 254.846 192.377 254.479L193.497 253.836Z" fill="url(#paint8_linear)"/>
<path opacity="0.2" d="M247.068 253.836C243.87 255.603 243.87 257.049 247.228 257.049C251.866 256.728 256.343 255.603 260.661 253.836H247.068Z" fill="url(#paint9_linear)"/>
<path opacity="0.2" d="M268.017 238.734L270.256 237.771H260.661V238.734H268.017ZM250.267 246.928L252.665 245.803H243.07V246.928H250.267ZM323.667 238.734L326.226 237.771H312.793L310.235 238.734H323.667ZM542.111 257.049L550.107 253.836H516.525L508.529 257.049H542.111ZM307.516 246.928L310.235 245.803H296.962L294.243 246.928H307.516Z" fill="#F8F9FA"/>
<path opacity="0.2" d="M277.452 253.836C274.254 255.603 274.254 257.049 277.612 257.049C282.249 256.728 286.727 255.603 291.045 253.836H277.452Z" fill="url(#paint10_linear)"/>
<path opacity="0.3" d="M284.648 237.771V222.99C284.648 222.187 284.968 221.384 285.608 221.223L28.7847 345.41H75.9595L297.441 237.771H284.648Z" fill="url(#paint11_linear)"/>
<path opacity="0.2" d="M433.369 163.226V162.262H385.394L433.369 163.226Z" fill="url(#paint12_linear)"/>
<path opacity="0.8" d="M1285.71 409.672H1282.52L1288.27 420.597C1289.71 423.167 1280.92 425.256 1268.76 425.256H1259.81L1270.36 446.141L1227.67 449.836L1184.01 447.266L1175.05 426.22L1148.19 422.525L1139.87 413.367L1093.5 412.243L1096.38 420.275L1077.03 421.882L1056.56 420.275L1047.6 390.554L1031.93 391.839L1033.85 398.587H1020.1L1023.77 411.761L943.816 418.99L946.055 431.521L917.59 433.931L888.326 431.521L886.407 417.705L853.625 418.026L857.143 454.334L790.938 458.672L791.738 485.984L747.121 489.839L702.505 485.984L703.944 458.351L662.367 455.78L663.966 435.538H647.335L645.256 455.941C645.096 457.548 640.938 458.511 637.42 457.869L596.322 451.282L598.881 435.216C593.284 434.734 589.286 432.967 589.765 430.879L590.565 425.738L528.038 419.633L533.635 395.052L506.29 391.518L509.488 379.469L485.661 383.164L483.582 390.393L405.864 398.908L401.066 412.243H408.102L405.544 419.633H394.989C393.23 424.292 377.559 428.148 360.128 428.148C342.537 428.148 329.904 424.292 331.983 419.472H321.429L324.627 412.243H331.663L334.062 406.78L295.842 411.279L215.885 390.715H244.989L249.627 382.039H238.273L240.032 378.826H222.601L225.16 374.328H392.271L408.422 368.062H475.906L482.143 374.328H510.608L511.247 371.597H1041.36V371.115H1285.23L1304.74 405.495C1306.02 407.905 1297.55 409.993 1285.55 409.993L1285.71 409.672Z" fill="#E8EAED"/>
<path opacity="0.2" d="M78.3582 343.803H1435.07C1437.47 343.803 1440.35 345.089 1440.51 346.374C1441.31 349.587 1440.99 355.21 1430.76 360.03C1415.09 367.42 1392.7 372.4 1345.36 372.4C1329.37 372.4 1313.38 371.597 1298.19 369.99L1299.15 375.131C1299.63 377.862 1292.75 377.862 1290.03 375.131L1283.64 368.384L1278.36 367.58C1249.89 382.039 1204.16 391.036 1148.35 391.036C1140.67 391.036 1132.84 390.875 1125.16 390.554C1118.76 397.623 1101.17 404.049 1077.98 404.049C1064.31 404.147 1050.69 402.308 1037.53 398.587C1032.73 404.21 1022.01 406.459 1009.38 406.459C1005.38 406.459 1001.39 405.977 997.708 405.334C978.518 417.062 960.288 420.115 929.264 418.508C914.864 418.033 900.623 415.323 887.047 410.475L883.209 420.436C882.409 422.203 878.252 422.203 877.132 420.436L871.855 412.243L865.138 428.469C864.499 430.236 860.341 430.236 859.062 428.469L851.066 415.616C840.352 423.328 817.644 430.557 771.588 430.557C712.26 430.557 689.072 412.082 689.072 412.082C681.622 417.796 672.986 421.75 663.806 423.649C644.483 427.66 624.532 427.496 605.277 423.167C596.989 421.535 589.073 418.376 581.93 413.849C573.454 407.905 574.733 405.334 574.733 405.334C574.733 405.334 566.418 408.548 548.188 410.475C532.356 411.921 516.524 412.082 500.693 410.957C468.71 408.869 460.714 403.246 459.115 399.551C447.711 402.383 436.001 403.786 424.254 403.728C413.436 403.913 402.653 402.45 392.271 399.39C385.874 401.318 379.158 402.443 372.601 402.443C355.49 402.443 344.136 395.534 344.136 386.377C332.536 384.275 321.059 381.54 309.755 378.184C276.173 385.574 250.586 381.718 237.154 371.918C215.725 375.934 193.977 378.023 172.068 378.023C144.883 378.023 121.535 374.81 104.744 369.026L90.3518 383.967C87.4733 387.02 79.7974 387.02 81.0768 383.967L90.1919 362.761H89.8721L78.0384 373.525C74.8401 376.416 67.9637 376.416 68.9232 373.525L75.1599 355.049C75.6396 353.925 76.7591 353.121 77.7185 352.8L72.9211 347.177C71.8017 345.892 75 343.803 78.1983 343.803H78.3582Z" fill="#DADCE0"/>
<path opacity="0.2" d="M77.2388 345.41H1435.55C1436.09 345.482 1436.63 345.416 1437.14 345.22C1437.64 345.023 1438.09 344.702 1438.43 344.285C1439.07 343.482 1439.39 342.357 1439.23 341.393C1437.63 336.413 1433 327.577 1419.4 320.187C1399.09 308.941 1373.83 301.39 1327.93 301.39C1313.06 301.39 1298.35 302.675 1283.64 304.925L1281.72 297.534C1280.76 293.357 1273.88 293.357 1272.92 297.534L1270.36 307.495L1265.56 308.62C1224.05 285.241 1177.06 273.427 1129.48 274.4C1122.12 274.4 1114.77 274.561 1107.57 275.043C1101.03 268.787 1093.33 263.891 1084.91 260.637C1076.48 257.384 1067.5 255.837 1058.48 256.085C1045.81 255.814 1033.24 258.394 1021.7 263.636C1015.62 255.603 1005.22 252.711 993.39 252.711C989.712 252.711 986.034 253.193 982.516 254.318C962.207 238.252 944.616 233.915 916.311 236.164C902.976 236.803 889.961 240.484 878.252 246.928L873.454 233.593C873.178 233.091 872.772 232.673 872.28 232.381C871.788 232.09 871.227 231.936 870.656 231.936C870.084 231.936 869.523 232.09 869.031 232.381C868.539 232.673 868.134 233.091 867.857 233.593L863.859 244.839L855.863 222.83C855.587 222.327 855.181 221.909 854.689 221.617C854.197 221.326 853.636 221.172 853.065 221.172C852.494 221.172 851.933 221.326 851.441 221.617C850.948 221.909 850.543 222.327 850.266 222.83L844.19 239.859C833.475 229.738 812.207 220.098 769.989 220.098C715.618 220.098 693.39 244.839 693.39 244.839C691.471 241.626 682.196 232.951 671.002 229.095C653.214 223.768 634.221 224.105 616.631 230.059C605.757 233.593 598.561 238.092 593.923 242.43C584.968 250.462 585.608 254.157 585.608 254.157C585.608 254.157 578.411 249.659 561.78 247.089C547.068 245 532.196 244.839 517.484 246.446C487.1 249.338 477.985 256.889 475.426 262.351C455.117 254.318 432.569 254.318 412.26 262.351C406.861 259.59 400.887 258.159 394.829 258.174C378.838 258.174 365.405 267.813 361.727 280.666C349.254 283.879 336.94 288.056 324.947 292.875C313.018 287.784 299.962 285.95 287.1 287.558C274.239 289.166 262.029 294.16 251.706 302.033C232.567 295.97 212.605 292.934 192.537 293.036C168.07 292.875 143.923 297.374 121.375 306.531L117.377 284.682C116.578 280.184 109.382 280.184 108.422 284.682L102.825 316.01H102.345L98.3475 299.784C97.2281 295.767 90.3518 295.767 89.3923 299.784L82.516 327.577C82.3332 328.172 82.3265 328.808 82.4969 329.407C82.6672 330.006 83.0072 330.542 83.4755 330.951L74.5203 339.948C72.4414 342.197 74.0405 345.41 77.2388 345.41Z" fill="url(#paint13_radial)"/>
<path opacity="0.2" d="M1338.17 212.387L1328.89 264.118C1328.89 265.082 1328.89 266.207 1329.69 267.01C1330.33 267.813 1331.29 268.295 1332.41 268.295H1350.96C1351.92 268.295 1353.04 267.813 1353.68 267.01C1354.32 266.207 1354.64 265.082 1354.48 264.118L1345.2 212.387C1345.2 210.459 1343.6 208.852 1341.68 208.852C1339.77 208.852 1338.17 210.459 1338.17 212.387Z" fill="url(#paint14_linear)"/>
<path opacity="0.2" d="M1321.7 237.77L1316.26 259.78C1316.11 260.408 1316.1 261.058 1316.21 261.693C1316.32 262.328 1316.55 262.934 1316.9 263.475C1317.7 264.439 1318.98 265.082 1320.1 265.082H1331.29C1332.41 265.082 1333.69 264.439 1334.49 263.475C1335.29 262.511 1335.45 261.066 1335.13 259.78L1329.69 237.77C1329.44 236.898 1328.92 236.13 1328.2 235.583C1327.48 235.036 1326.6 234.741 1325.69 234.741C1324.79 234.741 1323.91 235.036 1323.19 235.583C1322.47 236.13 1321.94 236.898 1321.7 237.77Z" fill="url(#paint15_linear)"/>
</g>
<path d="M81.5565 387.02C81.5565 387.02 23.1876 438.108 3.99787 428.469C-2.87846 424.934 7.19616 418.669 9.91471 413.689C12.4733 408.869 7.67591 405.334 19.0299 399.23C29.7441 393.607 40.7783 388.626 51.9723 384.289L59.968 382.361L63.1663 383.646L74.0405 383.164L81.5565 387.18V387.02Z" fill="#E8EAED"/>
<path d="M69.7228 341.875C69.7228 341.875 67.1642 341.875 66.8443 340.429C66.8443 338.823 66.8444 337.216 67.1642 335.77C67.484 333.521 67.3241 331.272 66.8443 329.184C65.7249 326.613 65.2452 323.721 65.7249 320.99C66.0448 317.616 65.4051 312.475 65.7249 312.475C67.3241 313.439 68.6034 314.564 69.7228 315.689V341.875ZM82.0362 297.856L81.5565 296.731C82.516 295.125 83.1557 293.518 83.1557 291.911C83.4755 288.698 75.6397 291.911 75.6397 291.911C75.6397 291.911 78.0384 293.357 74.0405 298.338C69.7228 303.479 83.6354 302.033 82.0362 297.856Z" fill="#BC864B"/>
<path d="M83.1557 293.197L83.6354 292.715C84.6859 291.518 85.2559 289.972 85.2345 288.377C85.0746 286.289 84.7548 283.879 84.1151 283.557C83.1557 283.075 79.3177 281.308 72.9211 285.485C72.1216 285.967 71.9616 286.931 72.2815 287.734L72.4414 288.377C72.1216 288.859 71.8017 289.502 71.8017 289.984C71.8017 290.787 72.4414 291.108 72.7612 291.108C73.5608 291.108 73.241 292.715 73.241 292.715C73.241 292.715 71.1621 294.161 72.1216 295.446C72.24 295.612 72.3961 295.747 72.5768 295.84C72.7576 295.933 72.9578 295.982 73.161 295.982C73.3642 295.982 73.5644 295.933 73.7452 295.84C73.9259 295.747 74.082 295.612 74.2004 295.446C74.2004 295.446 72.4414 297.534 73.241 298.016C74.0405 298.338 75.7996 296.892 76.4392 294.803C77.0789 292.875 78.1983 292.393 79.6375 292.715C80.597 293.036 81.8763 293.197 82.9957 293.197H83.1557Z" fill="#202124"/>
<path d="M78.5181 282.915C80.597 282.593 82.6759 283.236 84.2751 284.521C85.7143 285.164 85.3945 285.164 86.354 285.325C92.4307 286.771 98.3476 289.341 98.5075 291.108C98.6674 292.715 96.2687 299.141 91.6312 302.515C87.1535 306.049 87.7932 299.623 90.3518 296.892C91.4712 295.767 92.4307 294.643 93.2303 293.197C91.4712 292.072 90.3518 290.466 88.113 289.502C83.7953 287.734 82.9958 288.698 79.7975 287.413C76.5992 285.967 75.3199 284.843 78.5181 282.915ZM84.1152 368.223L83.9552 376.416C83.9552 378.344 83.9553 380.272 84.2751 382.2C84.2751 383.325 83.6354 384.289 82.6759 384.449L81.7164 384.77C80.757 385.092 79.9574 384.77 79.3177 384.288L78.838 383.807L78.9979 382.2L80.597 381.397C79.1578 377.702 78.6781 373.846 79.1578 370.151C80.1173 364.046 83.9552 368.223 83.9552 368.223H84.1152Z" fill="#BC864B"/>
<path d="M82.9958 373.043C82.0363 380.915 83.3156 383.003 83.9553 383.485C84.2751 383.164 84.2751 382.682 84.2751 382.2L83.7954 376.416L83.9553 369.83C83.3156 370.793 82.9958 371.918 82.9958 373.043Z" fill="#E3A85E"/>
<path d="M81.5565 384.77L82.6759 384.449C83.6354 384.289 84.2751 383.325 84.2751 382.2V380.754L83.4755 383.164C83.1557 383.807 80.7569 384.289 80.7569 384.289L80.4371 384.77H81.7164H81.5565Z" fill="#3C4043"/>
<path d="M79.6375 387.823C82.0363 387.984 82.6759 384.77 80.7569 384.289C78.5181 383.646 76.2793 383.325 74.0405 383.164C73.2409 383.485 72.1215 384.77 72.7612 385.413C73.2409 386.216 75.1599 387.341 79.6375 387.823Z" fill="#3C4043"/>
<path d="M79.4776 386.698H79.9574C80.1972 386.703 80.4351 386.654 80.6533 386.554C80.8716 386.454 81.0647 386.306 81.2182 386.121C81.3718 385.936 81.482 385.718 81.5405 385.484C81.5991 385.251 81.6045 385.007 81.5565 384.771C80.9843 382.459 80.7155 380.083 80.7569 377.702C81.3966 373.685 81.5565 369.669 81.3966 365.652C81.0768 362.761 74.0405 368.384 75.9595 374.007C77.8785 379.63 78.3582 381.075 78.0384 382.039C77.8785 383.003 75.9595 383.325 74.8401 383.485C74.3604 383.485 73.8806 383.967 73.8806 384.449C73.8806 384.931 74.2004 385.413 74.6802 385.574L79.4776 386.698Z" fill="#BC864B"/>
<path d="M81.5565 384.77C80.9843 382.459 80.7155 380.083 80.7569 377.702L81.3966 371.275C81.1086 371.362 80.8508 371.529 80.6528 371.756C80.4548 371.984 80.3246 372.262 80.2772 372.561C79.7975 375.131 79.6375 377.702 79.7975 380.272C80.1401 382.248 80.6757 384.185 81.3966 386.056C81.3966 385.734 81.7164 385.252 81.5565 384.77Z" fill="#E3A85E"/>
<path d="M94.0299 341.393C88.4329 331.111 87.9531 332.075 87.9531 332.075C87.9531 332.075 86.0341 315.367 86.0341 313.279C86.0341 308.941 90.3518 305.567 92.1109 303.318C92.4307 302.836 92.5906 302.033 92.5906 301.39L91.6311 296.571C91.5969 296.459 91.539 296.357 91.4615 296.271C91.384 296.184 91.2887 296.116 91.1823 296.07C91.0758 296.024 90.9607 296.002 90.845 296.005C90.7292 296.008 90.6155 296.037 90.5117 296.089L86.354 298.177C85.7143 298.498 84.7548 298.498 84.1152 298.338L82.0363 297.856H73.241L69.2431 299.302C68.1858 299.633 67.2463 300.265 66.5371 301.12C65.828 301.974 65.3794 303.017 65.2452 304.121L64.2857 312.315C64.2857 313.118 64.7655 313.921 65.4051 314.243L69.7228 315.689L71.4819 321.793C71.4819 321.793 67.484 332.236 69.7228 341.715C71.9616 351.354 73.241 359.387 73.241 359.387C72.6133 362.292 72.8925 365.322 74.0405 368.062C75 370.793 75.7996 373.525 76.2793 376.256C76.2793 376.256 86.354 373.043 88.4329 370.151C90.5117 367.42 90.032 366.938 93.5501 366.938C95.629 366.616 97.7079 366.134 99.6269 365.331C99.6269 365.331 99.6269 351.675 94.0299 341.393Z" fill="#C5221F"/>
<path d="M86.194 311.993C86.8337 308.298 90.5117 305.407 92.1109 303.318C92.4307 302.836 92.5906 302.354 92.5906 301.711C91.4712 302.836 89.8721 304.282 88.5928 305.085C86.6738 306.692 84.9147 310.387 86.194 311.993Z" fill="#D93025"/>
<path d="M54.6908 384.931C55.4904 387.02 53.7314 387.02 52.7719 386.859L48.4542 385.895C48.4542 385.895 47.8145 384.288 49.0938 383.967C50.2328 384.008 51.37 383.845 52.452 383.485C54.0512 382.843 54.6908 384.931 54.6908 384.931Z" fill="#3C4043"/>
<path d="M52.452 385.092C52.3666 385.073 52.286 385.037 52.215 384.986C52.1439 384.935 52.0841 384.87 52.0392 384.794C51.9942 384.719 51.9651 384.635 51.9536 384.548C51.9421 384.461 51.9484 384.373 51.9723 384.289V378.666L51.3326 370.311L55.4904 371.918L55.1706 377.702V378.184C55.4904 378.987 55.4904 379.79 55.3305 380.754L54.6908 384.931H54.371C53.8912 385.252 53.2516 385.252 52.6119 384.931L52.452 385.092Z" fill="#E3A85E"/>
<path d="M61.4073 380.754C62.2068 380.754 63.4861 380.433 63.4861 381.718C63.4861 382.843 63.4861 384.77 61.887 384.77C60.2878 384.77 59.8081 383.646 59.8081 382.361C59.8081 380.915 60.6077 380.754 61.4073 380.754Z" fill="#3C4043"/>
<path d="M60.4478 382.521L59.8081 375.452L60.4478 368.062H65.565L63.1663 375.131C63.806 376.416 63.806 378.023 63.1663 379.469L62.6866 382.521C62.6866 382.841 62.5602 383.147 62.3353 383.373C62.1104 383.599 61.8053 383.726 61.4872 383.726C61.1691 383.726 60.8641 383.599 60.6391 383.373C60.4142 383.147 60.2878 382.841 60.2878 382.521H60.4478Z" fill="#E3A85E"/>
<path d="M55.4904 373.525L51.0128 371.918C50.8563 371.867 50.7129 371.782 50.5928 371.67C50.4727 371.557 50.3787 371.419 50.3176 371.266C50.2566 371.112 50.2299 370.947 50.2395 370.782C50.2491 370.617 50.2947 370.457 50.3731 370.311L52.7719 361.957L67.1642 363.082V371.275C67.1642 371.918 66.6844 372.239 66.2047 372.239L59.8081 372.4V368.705C59.8081 368.384 59.6482 368.062 59.3284 368.062C59.2347 368.006 59.1306 367.97 59.0224 367.956C58.9143 367.942 58.8044 367.95 58.6996 367.98C58.5948 368.01 58.4971 368.061 58.4128 368.131C58.3284 368.2 58.259 368.286 58.209 368.384L55.4904 373.525Z" fill="#3C4043"/>
<path d="M68.9233 339.626L67.9638 338.823C67.9038 338.755 67.8299 338.7 67.7472 338.662C67.6645 338.625 67.5748 338.605 67.484 338.605C67.3933 338.605 67.3036 338.625 67.2209 338.662C67.1381 338.7 67.0643 338.755 67.0043 338.823L66.2047 339.948C66.2047 340.108 66.0448 340.43 66.2047 340.59L67.8039 347.498L69.7228 349.426C70.2026 347.82 70.3625 346.213 70.3625 344.607C70.0427 343 69.2431 343 69.403 341.233C69.5629 340.59 69.403 339.948 68.9233 339.626ZM62.8465 340.911L61.7271 339.144C61.6484 339.056 61.6049 338.941 61.6049 338.823C61.6049 338.704 61.6484 338.59 61.7271 338.502C63.0064 337.377 63.6461 335.77 63.6461 334.003C63.1663 331.433 55.0107 332.718 55.0107 332.718L54.6909 336.252C54.6909 337.377 55.4904 338.502 56.6098 338.823L57.2495 338.984L56.29 341.875L62.8465 340.911Z" fill="#E3A85E"/>
<path d="M63.1663 336.413L62.0469 337.216C61.4072 337.698 59.3283 338.823 61.5671 340.59L62.2068 341.072L62.8465 340.911L61.7271 339.144C61.6484 339.056 61.6049 338.942 61.6049 338.823C61.6049 338.704 61.6484 338.59 61.7271 338.502L63.3262 336.413H63.1663Z" fill="#FFC275"/>
<path d="M62.6866 339.787C61.887 340.269 61.0874 340.43 60.2879 340.43L58.6887 340.269H56.6098C54.2111 340.269 52.1322 341.875 51.3326 344.125L49.8934 351.675C49.8934 351.675 51.0128 354.407 53.8913 352.157C53.8717 353.534 53.6007 354.895 53.0917 356.174C52.0657 358.591 51.1585 361.057 50.3731 363.564C50.3731 363.885 50.3731 364.207 50.693 364.367C53.1863 365.453 55.8276 366.157 58.5288 366.456C62.3667 366.456 68.4435 365.974 68.1237 362.279C67.6439 358.584 65.8849 355.852 65.8849 353.443V351.354L68.1237 351.515C68.1237 351.515 71.4819 349.908 69.7228 348.302C68.1237 347.177 66.8444 343.161 66.2047 341.233C66.1183 340.943 65.9524 340.684 65.7261 340.486C65.4998 340.287 65.2223 340.156 64.9254 340.108L62.6866 339.787Z" fill="#4285F4"/>
<path opacity="0.5" d="M68.1237 362.279C67.8038 358.744 66.2047 355.852 66.0448 353.764C65.565 354.246 65.2452 354.889 65.4051 355.531L67.484 364.367C67.9638 363.725 68.2836 363.082 68.1237 362.279ZM56.6098 340.269C55.0107 340.269 53.4115 340.911 52.452 342.197C53.8913 342.036 55.3305 341.554 56.6098 340.911C57.0896 340.911 57.4094 340.59 57.8891 340.269H56.6098Z" fill="#D2E3FC"/>
<path d="M62.2068 329.344C60.6077 329.023 56.9296 327.898 54.371 331.272C54.371 331.272 51.9723 332.879 58.8486 334.485C65.8848 336.252 64.6055 333.361 64.7654 332.557C64.7805 331.806 64.5328 331.072 64.0653 330.485C63.5977 329.898 62.9401 329.494 62.2068 329.344Z" fill="#185ABC"/>
<path d="M87.9531 332.075C87.9531 332.075 86.0341 315.367 86.0341 313.279V311.993L83.9552 314.243C81.5565 317.456 86.6738 326.131 83.9552 333.2C81.7164 339.144 83.6354 365.171 84.2751 373.043C85.8387 372.366 87.2523 371.383 88.4328 370.151C90.5117 367.42 90.032 366.938 93.5501 366.938C95.629 366.616 97.7079 366.134 99.6269 365.331C99.6269 365.331 99.6269 351.675 94.0299 341.393C88.4328 331.112 87.9531 332.075 87.9531 332.075Z" fill="#EA4335"/>
<path d="M89.7122 351.836C89.6486 351.495 89.4528 351.194 89.1679 350.998C88.883 350.802 88.5323 350.728 88.193 350.792C87.8537 350.856 87.5536 351.052 87.3586 351.339C87.1637 351.625 87.0899 351.977 87.1536 352.318L88.4329 370.151C90.5118 367.42 90.032 366.938 93.5501 366.938L94.5096 366.616L89.7122 351.836Z" fill="#D93025"/>
<path d="M65.0853 304.121L64.2857 312.475C64.2857 313.279 64.6056 314.082 65.4051 314.243C65.4051 310.869 65.4051 303.318 66.0448 302.675C66.6845 302.193 71.9616 302.193 73.241 297.856L69.0832 299.141C68.003 299.484 67.0475 300.139 66.3363 301.025C65.6252 301.911 65.19 302.988 65.0853 304.121ZM79.9574 299.462C81.5565 300.266 85.7143 300.587 87.3135 299.462C88.4329 298.659 90.6717 298.016 91.6312 296.249C91.5039 296.079 91.3145 295.966 91.1046 295.936C90.8946 295.906 90.6814 295.961 90.5118 296.089L86.354 298.016C85.7143 298.498 84.7548 298.498 84.1152 298.338L82.0363 297.856H80.757C79.9574 298.498 79.4776 299.141 80.1173 299.462H79.9574Z" fill="#EA4335"/>
<path d="M86.354 285.325C85.3945 285.164 85.7143 285.325 84.2751 284.521C82.6759 283.236 80.597 282.593 78.5181 282.915L77.5587 283.557C79.1578 283.557 80.7569 284.039 82.0363 284.682C83.6354 285.807 86.6738 286.289 89.7122 287.092C92.7822 288.032 95.7337 289.326 98.5075 290.948C98.1876 289.18 92.4307 286.77 86.354 285.325Z" fill="#E3A85E"/>
<path d="M64.7654 332.397C64.7805 331.645 64.5328 330.912 64.0652 330.325C63.5977 329.738 62.9401 329.334 62.2068 329.184H62.0469C60.4477 328.862 56.7697 327.898 54.371 331.111C54.371 331.111 53.0917 331.915 55.0106 333.039C55.5269 332.818 55.9761 332.464 56.3129 332.012C56.6498 331.561 56.8625 331.029 56.9296 330.469C56.9296 330.148 57.0895 329.987 57.4094 329.826C61.2473 329.023 61.7271 329.987 63.1663 330.951C63.9659 331.754 64.6055 332.718 64.7654 333.843V332.397Z" fill="#4285F4"/>
<path opacity="0.5" d="M66.2047 341.233C66.1183 340.943 65.9524 340.684 65.7261 340.486C65.4998 340.287 65.2223 340.156 64.9254 340.108L62.6866 339.787C62.2068 340.108 61.7271 340.269 61.0874 340.269L61.5672 340.59C63.806 342.357 64.7655 340.43 65.565 342.197C65.565 342.197 66.3646 341.875 66.2047 341.233Z" fill="#D2E3FC"/>
<path d="M156.077 368.223C156.077 368.223 132.09 382.682 141.365 386.698C150.16 390.393 171.908 388.626 179.904 370.311C162.473 361.475 155.917 368.223 155.917 368.223H156.077Z" fill="#E8EAED"/>
<path d="M219.723 363.082C219.723 364.689 218.763 366.134 217.324 366.777C215.085 367.58 208.689 366.777 203.571 369.026C198.454 371.275 198.774 380.111 179.104 377.541C159.595 374.97 181.183 360.351 181.183 360.351L196.055 361.636C196.055 361.636 194.776 363.725 199.893 364.528C203.731 364.849 207.569 364.528 211.087 362.921L219.723 363.082Z" fill="#E8EAED"/>
<path d="M202.772 351.836C202.452 354.085 203.571 356.334 205.65 357.298C210.448 359.869 210.927 363.082 210.927 363.082H219.723C219.723 363.082 219.403 360.993 218.284 360.833L214.765 359.869C213.486 359.547 212.527 358.744 211.887 357.62L206.93 347.177C206.711 346.723 206.401 346.319 206.021 345.989C205.64 345.66 205.196 345.412 204.717 345.262C204.237 345.111 203.732 345.061 203.233 345.114C202.733 345.167 202.25 345.322 201.812 345.57C199.254 346.856 196.855 348.784 194.776 350.711C190.938 355.049 181.983 362.279 181.983 362.279C181.983 362.279 189.659 366.456 194.776 362.279C197.974 359.387 200.693 355.852 202.772 351.836ZM194.936 329.987C193.985 328.927 192.686 328.247 191.277 328.07C189.867 327.893 188.442 328.231 187.26 329.023C183.262 331.915 187.74 336.574 187.74 337.698C187.74 338.341 191.258 339.626 191.258 339.626V339.144L194.456 338.341C194.456 338.341 195.895 336.092 194.936 329.987Z" fill="#8D6E63"/>
<path d="M190.778 339.466L191.258 339.626V339.305L190.778 339.466ZM194.456 331.272C194.936 333.682 194.776 336.092 193.977 338.502H194.296C194.296 338.502 195.576 336.413 195.096 331.272H194.456Z" fill="#A48B82"/>
<path d="M195.096 329.666C195.096 329.666 191.418 325.97 187.1 328.862C183.422 331.433 186.78 335.61 187.58 337.377C188.22 336.895 188.859 336.413 189.179 335.77C189.499 335.449 189.499 334.807 189.339 334.485C188.539 332.879 189.339 332.075 189.979 331.915C190.618 331.915 190.938 333.2 190.938 333.2H191.738V331.754C191.733 331.513 191.782 331.274 191.882 331.055C191.981 330.836 192.129 330.642 192.313 330.487C192.497 330.333 192.714 330.222 192.946 330.164C193.179 330.105 193.422 330.099 193.657 330.148L195.096 330.469V329.666Z" fill="#202124"/>
<path d="M195.096 329.666C195.096 329.666 191.418 325.97 187.1 328.862L186.94 329.023C191.098 326.292 194.776 329.987 194.776 329.987V330.469H195.096V329.666Z" fill="#3C4043"/>
<path d="M189.499 350.39C192.218 347.659 192.218 341.554 192.218 341.554L191.418 340.269L191.738 339.948L191.258 339.787L187.74 337.859L186.78 337.216L185.661 339.144C184.154 340.032 182.858 341.239 181.863 342.682C180.869 344.125 180.2 345.769 179.904 347.498C179.424 351.675 180.064 361.636 182.143 362.279C184.062 362.921 190.139 356.013 190.139 356.013C190.139 356.013 188.699 351.354 189.499 350.39Z" fill="#34A853"/>
<path opacity="0.5" d="M189.339 351.033C188.699 351.515 188.38 352.157 188.38 352.961C188.38 354.567 188.859 356.495 189.339 356.656C189.339 356.656 189.819 356.495 190.139 356.013C189.499 354.407 189.339 352.8 189.339 351.193V351.033Z" fill="#CEEAD6"/>
<path d="M195.896 349.748L201.333 356.013C201.333 356.013 194.296 369.669 182.143 362.279C182.143 362.279 184.542 359.226 195.736 349.748H195.896ZM147.601 350.711H159.755C161.194 350.711 162.313 351.836 162.313 353.282V364.528H144.883V353.282C144.883 351.675 146.162 350.711 147.601 350.711Z" fill="#5F6368"/>
<path d="M162.313 364.528H144.883L136.567 370.793C135.448 371.597 135.768 372.4 137.207 372.4H149.36C150.959 372.239 152.559 371.757 153.998 370.793L162.313 364.367V364.528Z" fill="#E8EAED"/>
<path d="M180.704 366.777H186.78C187.58 366.777 188.22 367.259 188.38 368.062C188.38 368.488 188.211 368.897 187.911 369.198C187.611 369.5 187.205 369.669 186.78 369.669H184.702L180.544 370.472C180.12 370.472 179.713 370.303 179.413 370.002C179.113 369.7 178.945 369.292 178.945 368.866V368.705C178.945 368.223 178.945 367.741 179.264 367.42L179.744 367.098C180.064 366.777 180.384 366.777 180.864 366.777H180.704Z" fill="#3C4043"/>
<path d="M168.87 362.439L175.267 361.475C176.866 361.475 179.424 360.833 181.343 360.351C182.064 360.074 182.865 360.096 183.57 360.412C184.275 360.729 184.826 361.313 185.101 362.038C185.377 362.762 185.355 363.567 185.04 364.275C184.725 364.983 184.143 365.536 183.422 365.813C182.463 366.616 181.343 367.098 180.224 367.58C175.906 368.866 162.953 368.705 162.953 368.705C162.953 368.705 160.714 363.082 168.87 362.439Z" fill="#174EA6"/>
<path d="M173.028 363.082C173.028 361.957 174.467 361.636 174.467 361.636L168.87 362.6L167.271 362.761L166.951 363.564C166.951 363.564 173.188 364.207 173.028 363.082Z" fill="#185ABC"/>
<path d="M172.708 344.125C174.307 346.052 175.107 348.462 175.107 351.033C175.107 353.443 175.746 355.852 177.026 357.941L183.422 357.62L184.382 359.226C181.503 360.512 178.465 361.315 175.426 361.636C175.426 361.636 174.147 361.315 173.827 360.351L170.149 347.498L172.708 344.125Z" fill="#F9AB00"/>
<path d="M153.678 363.725C153.678 366.938 156.397 369.669 159.595 369.669C165.512 369.99 170.469 367.42 167.431 362.279C164.232 357.298 153.198 359.066 153.678 363.725Z" fill="#185ABC"/>
<path d="M153.678 363.725C154.158 362.761 155.277 362.118 156.397 362.279C158.475 362.439 163.433 363.403 167.431 362.279C166.611 361.114 166.145 359.735 166.088 358.31C166.032 356.884 166.387 355.473 167.111 354.246C168.39 354.246 169.51 353.603 170.309 352.639C171.269 349.748 172.068 347.016 172.708 344.125C172.708 344.125 169.03 340.108 165.352 339.948C161.674 339.787 158.635 339.626 156.716 346.856C154.797 354.246 156.077 353.764 154.797 356.977C153.678 360.19 153.198 361.797 153.678 363.725Z" fill="#4285F4"/>
<path opacity="0.5" d="M164.232 342.197C164.232 341.072 163.593 340.269 162.633 339.948C161.034 339.948 159.755 340.911 158.795 342.197C158.955 343.482 160.235 344.446 161.514 344.285C162.953 344.446 164.073 343.482 164.232 342.036V342.197Z" fill="#D2E3FC"/>
<path d="M181.023 352.157H176.546C176.066 352.157 175.586 352.479 175.107 352.8L172.388 355.37C172.388 355.37 165.512 357.298 162.313 356.495L162.793 352.639C162.473 351.033 162.473 349.426 162.793 347.82C163.273 347.016 164.392 343.964 163.433 342.197C162.473 340.59 159.755 340.911 158.635 343C157.516 345.089 157.676 346.534 158.635 347.338C158.635 347.338 157.036 355.37 159.435 360.351C159.755 360.833 160.235 360.993 160.714 360.993L163.593 360.511C166.791 360.19 169.829 359.226 172.548 357.78L174.307 357.138C174.627 356.977 175.107 356.816 175.267 356.495L177.345 354.407L180.224 353.443L181.023 352.157Z" fill="#FBBC04"/>
<path d="M175.107 352.8L172.388 355.37C172.388 355.37 165.991 357.138 162.633 356.495C162.633 356.816 162.633 357.298 163.753 357.459C166.631 357.459 169.35 357.138 172.068 356.334C173.507 355.692 175.906 353.282 177.185 353.121H180.384L181.023 352.318H176.546C176.066 352.318 175.586 352.318 175.266 352.8H175.107Z" fill="#FFD047"/>
<path d="M180.704 351.193H187.58C187.707 351.13 187.854 351.119 187.989 351.164C188.124 351.209 188.236 351.307 188.3 351.434C188.363 351.562 188.374 351.71 188.329 351.846C188.284 351.981 188.187 352.093 188.06 352.157L183.902 358.102L183.422 358.262L176.226 358.584C176.163 358.615 176.094 358.634 176.024 358.639C175.954 358.644 175.883 358.635 175.817 358.613C175.75 358.59 175.688 358.555 175.635 358.509C175.581 358.462 175.538 358.406 175.506 358.343C175.475 358.279 175.456 358.21 175.451 358.14C175.446 358.069 175.455 357.998 175.477 357.931C175.5 357.864 175.535 357.802 175.581 357.749C175.627 357.695 175.683 357.651 175.746 357.62L180.064 351.515L180.544 351.193H180.704Z" fill="#202124"/>
<path d="M182.783 358.584L184.382 359.387H185.021L185.341 359.226C185.981 358.102 186.301 356.977 186.62 355.852V355.531L185.661 354.728C185.62 354.701 185.574 354.683 185.526 354.676C185.477 354.67 185.428 354.675 185.382 354.69C185.336 354.706 185.293 354.731 185.259 354.766C185.224 354.8 185.197 354.842 185.181 354.888V355.049C185.021 355.21 185.021 355.37 185.181 355.37L185.501 356.013L184.382 355.37C184.352 355.336 184.315 355.309 184.273 355.29C184.232 355.271 184.187 355.262 184.142 355.262C184.096 355.262 184.052 355.271 184.01 355.29C183.969 355.309 183.932 355.336 183.902 355.37L183.742 355.852V356.174L184.222 356.816L183.102 356.495C183.018 356.452 182.919 356.445 182.829 356.476C182.739 356.506 182.665 356.57 182.623 356.656C182.58 356.741 182.573 356.84 182.603 356.93C182.633 357.02 182.698 357.095 182.783 357.138C182.867 357.138 182.949 357.172 183.009 357.232C183.069 357.292 183.102 357.374 183.102 357.459C183.102 357.544 183.069 357.626 183.009 357.686C182.949 357.746 182.867 357.78 182.783 357.78H182.623C182.517 357.78 182.415 357.823 182.34 357.898C182.265 357.973 182.223 358.075 182.223 358.182C182.223 358.288 182.265 358.391 182.34 358.466C182.415 358.541 182.517 358.584 182.623 358.584H182.783Z" fill="#FBBC04"/>
<path d="M157.996 362.6L163.273 361.797C165.192 361.154 167.111 361.475 168.87 362.439L176.386 367.098C177.185 367.58 178.145 367.902 179.264 367.902C179.264 367.902 180.544 368.223 179.904 370.311C175.107 371.115 169.989 371.115 165.032 370.633C158.635 369.829 153.678 366.456 157.996 362.6Z" fill="#185ABC"/>
<path d="M179.904 370.312C178.305 370.633 168.71 369.026 168.71 369.026L164.552 368.705C164.015 368.691 163.477 368.745 162.953 368.866L158.955 369.669H161.194C162.313 370.151 163.753 370.472 165.032 370.633C169.989 371.115 174.947 370.954 179.904 370.312Z" fill="#174EA6"/>
<path d="M161.514 369.348L163.913 369.026H168.39C168.87 369.026 169.19 369.508 169.35 369.829C169.456 370.129 169.486 370.451 169.439 370.765C169.391 371.08 169.267 371.378 169.077 371.632C168.887 371.887 168.637 372.09 168.35 372.224C168.063 372.358 167.747 372.418 167.431 372.4L162.633 372.079C162.336 372.079 162.052 371.96 161.842 371.749C161.632 371.538 161.514 371.252 161.514 370.954V369.348Z" fill="#3C4043"/>
<path d="M175.906 335.449C175.586 336.574 175.426 337.538 175.586 338.662C175.586 342.679 175.107 346.695 173.987 350.39C173.987 350.39 170.789 352.318 169.829 349.908C168.87 347.498 168.87 334.485 168.87 334.485C168.87 334.485 175.586 330.63 175.906 335.449Z" fill="#202124"/>
<path d="M174.787 336.413V338.662C174.787 342.679 174.467 346.695 173.348 350.711C173.667 350.711 173.827 350.711 174.147 350.39C175.413 345.902 175.899 341.228 175.586 336.574L174.787 336.413Z" fill="#3C4043"/>
<path d="M169.35 341.875L171.748 342.197C172.228 342.197 172.708 342.197 173.028 341.875C174.307 340.751 175.267 339.305 175.586 337.698L176.386 336.252C176.706 335.289 176.706 334.325 176.386 333.361C176.171 332.734 175.834 332.157 175.394 331.663C174.955 331.169 174.422 330.769 173.826 330.484C173.23 330.2 172.584 330.038 171.925 330.008C171.267 329.978 170.608 330.08 169.989 330.308C166.311 331.593 166.151 341.233 169.35 341.875Z" fill="#FBBC04"/>
<path d="M177.186 334.003C177.186 334.003 176.066 336.092 169.989 335.77C169.989 335.77 169.03 347.016 172.068 354.407C172.068 354.407 168.87 355.692 167.271 354.728C165.672 353.764 164.712 347.498 165.192 341.072C165.212 340.873 165.178 340.673 165.095 340.492C165.012 340.31 164.883 340.154 164.72 340.04C164.557 339.925 164.367 339.856 164.169 339.84C163.971 339.824 163.772 339.861 163.593 339.948C164.872 338.984 165.832 337.698 166.311 336.092C166.951 333.843 167.271 329.344 171.908 329.184C176.386 328.862 177.186 334.003 177.186 334.003Z" fill="#3C4043"/>
<path d="M201.173 346.052C201.61 345.804 202.094 345.649 202.593 345.596C203.093 345.543 203.598 345.593 204.077 345.744C204.557 345.894 205 346.142 205.381 346.471C205.762 346.801 206.071 347.205 206.29 347.659L211.407 358.102C211.887 359.226 213.006 360.029 214.126 360.351L217.804 361.154C218.443 361.315 218.923 362.439 219.083 362.921H219.723C219.723 362.921 219.403 360.833 218.284 360.672L214.765 359.869C213.486 359.547 212.527 358.744 212.047 357.62L206.93 347.177C206.711 346.723 206.401 346.319 206.021 345.989C205.64 345.66 205.196 345.412 204.717 345.262C204.237 345.111 203.732 345.061 203.233 345.114C202.733 345.167 202.25 345.322 201.812 345.57C201.597 345.728 201.384 345.889 201.173 346.052Z" fill="#A48B82"/>
<path d="M187.9 344.446L198.134 347.016C201.652 347.82 205.171 348.302 208.849 348.623C212.047 348.462 213.006 349.748 213.006 349.748H213.486C214.446 349.748 215.085 348.944 215.085 348.141C215.11 347.861 215.073 347.578 214.977 347.314C214.881 347.049 214.729 346.809 214.531 346.61C214.332 346.411 214.093 346.258 213.83 346.161C213.567 346.065 213.286 346.028 213.006 346.052H209.808C208.209 345.731 206.61 343.803 202.612 343.803C198.614 343.964 192.217 339.626 189.499 339.948C186.94 340.43 185.821 342.197 187.9 344.446Z" fill="#8D6E63"/>
<path d="M213.006 346.052H209.808C208.209 345.731 206.61 343.803 202.612 343.803C198.614 343.964 192.217 339.626 189.659 339.948C188.699 339.948 188.06 340.43 187.26 341.072L189.019 340.43C191.578 340.108 197.974 344.446 201.972 344.446C205.97 344.285 207.569 346.213 209.328 346.534H212.527C213.078 346.534 213.607 346.754 213.997 347.146C214.387 347.538 214.606 348.069 214.606 348.623C214.606 348.944 214.606 349.266 214.286 349.587C214.925 349.266 215.245 348.623 215.245 347.98C215.225 347.706 215.151 347.438 215.027 347.192C214.904 346.947 214.733 346.728 214.525 346.549C214.317 346.369 214.076 346.233 213.815 346.148C213.554 346.063 213.28 346.031 213.006 346.052Z" fill="#A48B82"/>
<path d="M195.256 341.715C193.017 340.751 190.778 339.787 189.499 340.108C186.94 340.43 185.341 342.679 187.26 344.928L193.817 346.534L195.416 341.715H195.256Z" fill="#34A853"/>
<path opacity="0.5" d="M188.699 340.269C188.158 340.406 187.662 340.683 187.26 341.072C189.819 339.466 192.857 341.393 195.256 342.357V341.715C193.017 340.751 190.778 339.626 188.539 340.108L188.699 340.269Z" fill="#CEEAD6"/>
<path d="M171.908 329.184C170.924 329.193 169.966 329.506 169.165 330.081C168.364 330.656 167.759 331.464 167.431 332.397C168.71 331.272 170.469 330.629 172.228 330.469C174.947 330.629 175.746 333.682 175.906 334.967C176.386 334.807 176.866 334.485 177.186 334.003C177.186 334.003 176.386 328.862 171.908 329.184ZM169.989 335.77C168.402 342.042 168.736 348.65 170.949 354.728L172.068 354.246C169.19 347.177 169.989 336.574 169.989 335.77Z" fill="#5F6368"/>
<path d="M158.795 342.518C159.029 343.059 159.406 343.525 159.885 343.865C160.365 344.205 160.928 344.406 161.514 344.446C162.313 344.446 163.113 343.964 163.753 343.321L163.433 342.197C162.473 340.59 160.235 340.911 158.795 342.518Z" fill="#FFD047"/>
<path d="M176.226 366.938L168.87 362.439C167.271 361.475 165.192 361.154 163.273 361.797L158.156 362.6C157.836 362.761 158.156 363.243 159.115 363.082L162.473 362.6C163.489 362.326 164.549 362.256 165.591 362.393C166.634 362.531 167.64 362.874 168.55 363.403L174.627 366.616C175.107 366.938 175.746 366.938 176.226 366.938Z" fill="#1A73E8"/>
<path d="M1284.91 430.075C1286.03 434.252 1279.8 441.803 1279.16 441C1279.96 441.321 1288.11 444.695 1284.91 446.302C1278.52 449.193 1245.74 433.931 1244.94 432.164C1244.94 428.79 1255.17 432.807 1256.29 433.289C1250.37 422.846 1239.66 418.99 1230.86 411.439C1227.35 408.226 1224.47 404.371 1220.79 401.157C1218.55 399.23 1213.91 399.551 1212.15 397.944C1228.94 392.643 1236.94 410.957 1251.81 417.223C1246.22 410.154 1241.9 402.443 1234.06 398.266C1240.62 394.571 1242.06 398.908 1246.06 401.479C1253.57 406.62 1257.57 414.652 1264.93 419.954C1268.6 422.685 1284.91 426.702 1284.91 430.075ZM1268.44 441.321L1274.04 426.541L1269.24 424.131C1271.32 427.344 1274.04 429.593 1277.4 431.2C1278.04 428.629 1277.24 427.987 1274.2 426.541L1268.44 441.321Z" fill="#E8EAED"/>
<path d="M1233.74 395.213H1233.26C1232.96 395.204 1232.67 395.264 1232.4 395.389C1232.13 395.515 1231.89 395.702 1231.7 395.936C1231.52 396.17 1231.39 396.444 1231.32 396.737C1231.26 397.03 1231.27 397.333 1231.34 397.623L1231.66 398.748L1231.98 398.908C1233.42 399.551 1234.54 400.515 1235.18 401.961C1235.66 402.764 1236.62 403.246 1237.42 403.246H1239.82C1240.46 403.246 1240.94 402.764 1240.94 402.121V399.872C1240.94 399.069 1240.46 398.266 1239.66 397.944L1233.74 395.213ZM1216.15 395.213L1214.07 396.82H1213.27C1211.67 396.82 1210.55 398.105 1210.55 399.711C1210.55 399.711 1211.67 401.639 1216.47 402.121L1220.31 403.246L1223.35 402.443V398.908C1223.35 398.426 1223.03 397.944 1222.55 397.623L1216.15 395.213Z" fill="#3C4043"/>
<path d="M1244.14 340.269C1244.14 340.269 1243.18 341.233 1241.74 339.787C1240.14 338.18 1241.58 338.18 1241.58 338.18L1245.42 330.79L1247.01 323.721C1247.01 323.721 1243.82 319.544 1243.34 317.134C1243.02 314.725 1246.22 305.246 1246.22 305.246L1253.25 322.436C1254.05 324.525 1253.89 326.934 1252.61 328.862C1250.07 332.826 1247.29 336.635 1244.3 340.269H1244.14Z" fill="#DADCE0"/>
<path d="M1248.29 323.882C1247.97 323.4 1247.65 323.079 1247.01 322.918L1247.17 323.079C1246.86 325.489 1246.38 327.898 1245.74 330.148L1241.58 337.538C1241.58 337.538 1239.98 337.538 1241.58 338.984C1250.85 330.469 1248.93 325.007 1248.29 323.882Z" fill="#F8F9FA"/>
<path d="M1240.46 398.426L1238.54 398.105C1237.9 397.944 1237.26 397.462 1236.62 396.98L1234.7 394.892V391.679C1234.7 391.518 1234.7 391.197 1235.02 391.036C1235.5 390.554 1235.66 389.911 1235.34 389.269C1235.02 387.662 1233.9 386.056 1235.34 373.685C1235.34 373.685 1233.74 366.938 1232.62 351.997C1230.07 356.384 1227.82 360.947 1225.91 365.652C1225.91 365.652 1225.91 367.42 1225.43 368.062C1224.03 377.635 1223.66 387.328 1224.31 396.98C1224.15 397.462 1223.83 397.784 1221.75 397.944C1219.51 398.266 1217.43 396.98 1216.95 394.731C1216.95 394.731 1216.95 386.859 1217.43 384.288C1217.59 378.826 1217.59 373.203 1217.27 367.741C1218.34 357.977 1220.38 348.344 1223.35 338.984C1225.91 333.2 1243.66 336.895 1243.66 336.895C1244.62 340.751 1244.14 344.928 1242.38 348.462C1242.7 353.764 1242.86 359.066 1242.54 364.528C1242.54 364.528 1244.78 375.131 1243.66 382.2C1242.38 389.108 1241.26 390.233 1241.74 391.036C1242.38 391.839 1243.82 392.321 1242.06 394.892C1241.58 395.695 1241.42 396.498 1241.58 397.623C1241.58 397.784 1241.58 398.105 1241.26 398.266H1240.46V398.426Z" fill="#174EA6"/>
<path d="M1228.15 296.41V296.731C1226.87 297.534 1225.91 298.82 1225.43 300.105C1224.95 302.354 1221.75 303.639 1221.75 303.639L1218.55 302.033C1219.67 300.426 1220.63 298.338 1221.27 296.249C1221.43 295.767 1221.91 295.446 1222.23 295.446H1224.31L1225.59 294.161H1226.07L1226.39 294.803L1225.43 297.213L1226.87 296.089C1227.19 295.928 1227.67 296.089 1227.99 296.41H1228.15Z" fill="#795548"/>
<path d="M1229.9 282.754C1228.78 284.039 1227.99 285.325 1227.51 286.931C1227.51 287.252 1227.51 287.734 1227.83 288.056C1228.14 288.698 1227.19 289.18 1227.03 289.662L1226.55 294C1226.55 294.803 1227.03 295.607 1227.83 295.767L1228.78 296.089C1229.42 296.249 1230.06 296.892 1230.22 297.695L1230.54 298.82L1239.34 297.856C1239.34 297.856 1237.58 297.534 1237.74 294.321C1237.74 291.108 1240.46 287.895 1237.42 284.843C1234.54 282.112 1229.9 282.915 1229.9 282.915V282.754Z" fill="#795548"/>
<path d="M1228.15 288.698V289.18L1228.94 288.698L1229.74 288.538L1229.1 287.574L1228.15 288.698Z" fill="#8D6E63"/>
<path d="M1231.34 282.754H1229.74C1228.66 283.937 1227.89 285.373 1227.51 286.931C1227.51 287.413 1227.51 287.895 1227.83 288.216C1228.14 288.859 1227.19 289.502 1227.03 289.823L1226.55 294.161C1226.55 294.803 1226.55 295.285 1227.03 295.607C1227.35 294 1227.51 292.715 1227.51 291.108C1227.83 289.662 1228.62 289.341 1229.42 287.574L1231.34 282.754Z" fill="#8D6E63"/>
<path d="M1228.3 285.646L1229.26 283.879C1229.42 283.557 1229.26 283.397 1229.26 283.236L1229.1 282.754V282.272C1231.66 280.666 1235.02 280.666 1237.26 282.754C1242.06 286.77 1236.78 295.607 1236.78 295.607H1235.02C1233.26 295.607 1231.82 294.161 1231.5 292.393V291.751C1231.32 290.695 1230.88 289.701 1230.22 288.859L1229.74 288.538C1229.42 288.538 1229.26 288.538 1229.1 288.859L1228.78 289.823L1228.15 288.538L1228.46 287.252C1228.32 287.008 1228.25 286.731 1228.25 286.449C1228.25 286.167 1228.32 285.89 1228.46 285.646H1228.3Z" fill="black"/>
<path d="M1243.34 336.413C1243.34 336.413 1235.66 340.43 1223.03 338.502C1222.55 337.056 1222.39 335.61 1222.23 334.164C1222.23 332.557 1223.51 326.292 1223.19 323.882L1220.15 304.282L1228.14 299.141C1230.34 297.701 1232.95 297.045 1235.56 297.278C1238.17 297.511 1240.63 298.62 1242.54 300.426L1246.7 304.443C1246.7 304.443 1249.41 310.869 1243.98 320.026C1243.98 320.026 1241.9 321.633 1243.34 336.413Z" fill="#DADCE0"/>
<path d="M1226.55 294.482L1226.23 294H1225.59L1224.31 295.285H1222.23C1221.75 295.285 1221.27 295.446 1221.11 295.928L1218.55 300.426L1219.51 300.266C1219.51 300.266 1221.43 296.41 1222.23 296.249C1223.03 296.089 1224.63 296.249 1225.11 295.767L1226.55 294.482Z" fill="#93756B"/>
<path d="M1221.75 302.836C1221.75 302.836 1221.75 301.23 1218.55 300.426L1215.03 306.37C1213.43 308.941 1208.96 313.439 1211.19 316.01C1212.95 318.259 1219.03 311.833 1219.03 311.833L1221.75 302.836Z" fill="#F8F9FA"/>
<path d="M1228.15 298.82H1227.67C1226.42 298.82 1225.2 299.11 1224.09 299.668C1222.98 300.225 1222.01 301.035 1221.27 302.033C1219.42 304.923 1217.27 307.615 1214.87 310.066L1211.99 312.154C1211.35 312.61 1210.9 313.288 1210.72 314.058C1210.54 314.829 1210.65 315.638 1211.03 316.331C1211.35 317.134 1212.15 317.777 1212.95 317.938C1213.38 318.065 1213.83 318.103 1214.27 318.048C1214.71 317.992 1215.13 317.845 1215.51 317.616L1223.51 312.154C1224.92 311.228 1226.08 309.966 1226.89 308.481C1227.7 306.996 1228.13 305.333 1228.15 303.639V298.82Z" fill="#DADCE0"/>
<path d="M1234.38 297.213C1232.13 297.227 1229.93 297.836 1227.99 298.98H1227.67C1226.42 298.98 1225.2 299.271 1224.09 299.828C1222.98 300.386 1222.01 301.196 1221.27 302.193C1219.34 304.823 1217.14 307.246 1214.71 309.423L1211.83 311.351C1210.71 312.154 1210.23 313.6 1210.71 314.885C1210.71 313.921 1211.35 313.118 1212.31 312.636L1215.03 310.548C1217.43 308.459 1219.51 305.889 1221.43 303.318C1222.17 302.32 1223.14 301.511 1224.25 300.953C1225.36 300.395 1226.58 300.105 1227.83 300.105C1230.63 299.553 1233.41 298.856 1236.14 298.016L1234.38 297.213ZM1253.25 322.275L1246.86 304.925L1244.14 302.033C1247.14 309.61 1250.34 317.11 1253.73 324.525C1253.73 323.721 1253.57 322.918 1253.25 322.275ZM1223.35 315.207C1223.03 314.403 1222.39 313.6 1221.75 313.279L1223.03 324.203C1223.35 326.774 1222.39 333.2 1222.39 334.807L1222.55 337.377C1223.51 334.164 1224.15 330.951 1224.79 327.738C1225.27 324.525 1224.63 317.777 1223.19 315.207H1223.35Z" fill="#F8F9FA"/>
<path d="M1229.1 287.574C1229.1 287.574 1228.3 286.771 1228.62 286.449L1230.38 283.718C1230.38 283.397 1229.58 282.915 1231.34 282.111L1234.54 281.148C1232.75 281.087 1230.98 281.533 1229.42 282.433C1229.3 282.433 1229.18 282.484 1229.09 282.574C1229 282.664 1228.94 282.787 1228.94 282.915C1228.94 283.043 1229 283.165 1229.09 283.256C1229.18 283.346 1229.3 283.397 1229.42 283.397C1229.58 283.397 1229.58 283.879 1229.42 284.039L1228.3 285.967C1227.99 286.61 1228.15 287.252 1228.46 287.734L1228.15 289.18L1229.1 287.574Z" fill="#3C4043"/>
<path d="M1298.51 379.951C1298.51 379.951 1298.19 389.108 1324.73 389.911C1335.13 390.233 1344.72 398.908 1354.32 400.193C1377.35 403.567 1415.56 394.249 1386.46 374.97L1298.51 379.79V379.951Z" fill="#E8EAED"/>
<path d="M1358.16 376.416L1358 377.862C1358 378.344 1357.52 378.666 1357.04 378.666H1349.68V378.344C1349.68 377.22 1350.32 376.256 1351.44 375.934L1357.2 374.328L1358.32 376.416H1358.16Z" fill="#3C4043"/>
<path d="M1358.16 378.023L1354.32 374.81L1359.28 363.082C1359.56 362.425 1360.01 361.853 1360.58 361.421C1361.15 360.989 1361.82 360.711 1362.52 360.615C1363.23 360.518 1363.95 360.605 1364.61 360.869C1365.28 361.132 1365.86 361.562 1366.31 362.118C1368.07 364.367 1369.51 366.938 1370.47 369.669H1385.82V376.416C1385.82 376.416 1387.1 380.593 1378.78 380.433C1370.31 380.433 1365.99 380.433 1364.39 376.256C1363.55 374.508 1362.75 372.74 1361.99 370.954L1358.8 377.862C1358.73 377.966 1358.63 378.041 1358.51 378.07C1358.39 378.1 1358.26 378.083 1358.16 378.023Z" fill="#174EA6"/>
<path d="M1370.47 369.83C1369.51 366.938 1368.07 364.367 1366.31 362.118C1365.67 361.315 1364.71 360.833 1363.91 360.511C1364.55 361.636 1365.51 362.6 1366.15 363.403C1367.27 364.528 1367.75 370.954 1369.83 372.4C1370.79 373.043 1371.43 371.757 1372.07 369.83H1370.47Z" fill="#185ABC"/>
<path d="M1357.2 363.725C1357.31 364.007 1357.49 364.26 1357.71 364.466C1357.94 364.672 1358.2 364.827 1358.49 364.919C1358.78 365.011 1359.09 365.038 1359.39 364.998C1359.69 364.958 1359.98 364.852 1360.23 364.689L1370.31 358.423L1371.75 355.531L1371.11 354.085C1370.9 353.647 1370.59 353.268 1370.2 352.983C1369.82 352.697 1369.36 352.514 1368.88 352.45C1368.41 352.386 1367.92 352.443 1367.47 352.617C1367.02 352.79 1366.62 353.074 1366.31 353.443C1363.76 356.298 1360.92 358.882 1357.84 361.154C1357.04 361.797 1356.88 362.761 1357.2 363.725Z" fill="#1A73E8"/>
<path d="M1368.39 352.479L1378.78 350.39C1380.38 350.069 1381.98 350.712 1382.62 351.997C1384.38 354.889 1386.78 361.315 1386.46 374.971C1386.46 374.971 1387.26 377.541 1379.1 377.541C1370.95 377.541 1370.63 374.328 1370.31 371.115C1369.83 368.223 1372.23 360.993 1368.39 352.479Z" fill="#1A73E8"/>
<path opacity="0.5" d="M1372.71 363.403C1372.56 361.498 1371.71 359.718 1370.31 358.423C1371.27 364.367 1369.99 369.026 1370.31 371.275L1370.47 372.561C1372.07 372.239 1372.87 366.134 1372.71 363.403ZM1382.78 352.157C1382.39 351.472 1381.79 350.931 1381.07 350.613C1380.35 350.295 1379.55 350.217 1378.78 350.39L1377.35 350.711C1377.35 351.193 1378.15 352.479 1382.78 352.318V352.157ZM1368.39 352.479C1367.55 352.491 1366.74 352.837 1366.15 353.443C1363.91 356.013 1361.51 358.262 1358.96 360.351L1360.55 360.511C1360.55 360.511 1366.95 354.567 1368.39 354.085C1369.67 353.603 1370.31 354.085 1370.63 351.997L1368.39 352.479Z" fill="#D2E3FC"/>
<path d="M1367.75 348.944V344.446C1367.75 343.482 1368.39 342.518 1369.35 342.197L1372.55 341.554L1374.63 351.033L1370.79 351.354C1370.43 351.399 1370.07 351.372 1369.72 351.275C1369.38 351.177 1369.05 351.012 1368.77 350.788C1368.49 350.563 1368.25 350.285 1368.08 349.968C1367.9 349.652 1367.79 349.304 1367.75 348.944Z" fill="#FFE0B2"/>
<path d="M1370.15 345.41L1367.27 346.213L1367.59 348.141C1367.59 348.141 1367.75 348.302 1367.91 348.141H1368.07L1367.91 346.856L1369.03 346.534L1370.15 345.57V345.41Z" fill="#3C4043"/>
<path d="M1367.75 343.803L1370.63 352.479C1371.59 351.997 1372.55 351.997 1373.51 352.318C1374.79 352.8 1376.23 353.603 1376.07 357.459C1376.23 358.102 1376.87 358.262 1377.35 358.102C1377.36 358.306 1377.41 358.506 1377.52 358.683C1377.62 358.86 1377.76 359.01 1377.94 359.12C1378.11 359.23 1378.3 359.297 1378.51 359.315C1378.71 359.334 1378.92 359.303 1379.1 359.226C1380.61 358.467 1381.76 357.139 1382.3 355.531C1382.12 354.062 1381.45 352.7 1380.38 351.675C1378.78 350.069 1377.67 348.141 1377.51 345.892C1377.35 343 1375.91 340.59 1373.51 340.59C1371.59 340.429 1369.51 341.072 1368.07 342.518C1367.75 342.839 1367.59 343.321 1367.75 343.803Z" fill="#FABB05"/>
<path d="M1352.4 346.374H1352.88C1353.36 346.374 1353.68 346.856 1353.68 347.177V349.105C1353.68 349.587 1353.2 349.908 1352.72 349.908H1352.24V346.374H1352.4Z" fill="#D9943A"/>
<path d="M1348.72 341.393C1348.09 341.414 1347.47 341.559 1346.9 341.821C1346.32 342.083 1345.81 342.455 1345.37 342.918C1344.94 343.38 1344.61 343.924 1344.39 344.517C1344.16 345.11 1344.06 345.741 1344.08 346.374L1345.68 353.443H1352.08L1353.36 346.374C1353.38 345.727 1353.27 345.083 1353.04 344.48C1352.81 343.877 1352.46 343.326 1352.01 342.861C1351.56 342.397 1351.03 342.027 1350.43 341.775C1349.84 341.523 1349.2 341.393 1348.56 341.393H1348.72ZM1369.51 382.039V383.164H1364.07C1363.11 383.164 1362.31 382.521 1361.99 381.557C1361.35 379.308 1361.03 377.059 1360.87 374.649C1360.87 370.633 1364.07 375.292 1364.07 375.292L1364.39 381.236L1369.51 382.039Z" fill="#D9943A"/>
<path d="M1299.79 377.862H1306.18L1306.66 374.328L1304.42 373.364C1303.82 373.094 1303.32 372.645 1302.99 372.079L1301.71 370.151V368.705C1301.71 368.062 1301.07 367.58 1300.43 367.58H1299.95L1299.79 371.436C1299.79 372.4 1299.79 373.364 1300.11 374.167L1300.75 375.774H1299.47L1299.79 377.862Z" fill="#3C4043"/>
<path d="M1298.51 379.951H1304.9L1305.86 375.774L1303.62 374.649L1302.35 373.364L1301.39 370.954V369.348C1301.39 369.033 1301.28 368.728 1301.07 368.491C1300.86 368.254 1300.58 368.102 1300.27 368.062H1299.95L1299.31 372.561V375.613L1299.79 377.22H1298.51V379.951Z" fill="#202124"/>
<path d="M1302.83 379.951L1303.62 377.541C1303.94 376.577 1304.9 375.934 1305.86 375.934L1337.37 373.685L1336.09 381.718L1320.58 380.111C1319.3 379.79 1317.86 379.79 1316.42 379.79H1302.83V379.951Z" fill="#174EA6"/>
<path d="M1332.89 371.115C1332.89 371.115 1329.37 371.436 1326.49 371.115C1324.5 370.984 1322.53 370.716 1320.58 370.311H1318.5L1305.7 373.525C1305.38 373.525 1305.06 374.007 1305.22 374.489L1306.02 378.023L1315.62 377.541C1317.69 377.419 1319.76 377.747 1321.7 378.505C1326.65 380.593 1331.93 381.718 1337.37 381.557C1346.32 380.915 1332.89 371.275 1332.89 371.275V371.115Z" fill="#185ABC"/>
<path d="M1363.59 375.613C1364.55 375.292 1365.03 374.328 1364.71 373.525L1362.63 364.528C1361.83 361.636 1360.71 358.744 1359.28 356.174C1358.8 355.21 1358 354.567 1356.88 354.246L1354.16 353.443V353.282C1354.05 352.943 1353.84 352.65 1353.55 352.446C1353.26 352.243 1352.91 352.141 1352.56 352.157L1343.44 352.961V354.246L1341.36 355.531C1343.28 358.262 1343.12 361.957 1341.04 364.528C1338.73 367.529 1335.45 369.63 1331.77 370.472L1336.09 381.718C1336.09 381.718 1347.92 380.915 1350.16 378.505C1351.92 376.898 1355.92 368.866 1357.52 365.331L1359.75 374.97C1359.81 375.227 1359.91 375.468 1360.07 375.678C1360.22 375.887 1360.42 376.06 1360.65 376.183C1360.88 376.306 1361.13 376.376 1361.39 376.388C1361.65 376.401 1361.91 376.356 1362.15 376.256L1363.75 375.613H1363.59Z" fill="#5F6368"/>
<path d="M1360.55 358.905L1359.12 356.174C1358.64 355.21 1357.84 354.567 1356.88 354.246L1354.32 353.443C1354.8 354.407 1355.76 355.049 1356.72 355.531C1358.16 355.852 1360.55 358.744 1360.55 358.905Z" fill="#80868B"/>
<path d="M1334.17 384.931L1338.01 385.734C1338.97 385.734 1339.77 385.734 1340.41 385.252L1342 384.128C1342.97 381.338 1343.77 378.495 1344.4 375.613C1344.4 374.649 1340.72 377.22 1340.72 377.22L1339.29 383.164L1334.17 383.807V384.931Z" fill="#D9943A"/>
<path d="M1341.36 355.531C1340.56 356.334 1340.09 357.298 1340.09 358.423L1339.45 375.292C1339.45 375.616 1339.54 375.934 1339.69 376.22C1339.84 376.506 1340.06 376.752 1340.32 376.939C1340.59 377.126 1340.89 377.249 1341.21 377.298C1341.53 377.346 1341.86 377.32 1342.16 377.22L1343.76 376.738C1344.56 376.416 1345.2 375.774 1345.2 374.81C1345.2 369.508 1345.2 364.207 1344.4 358.744L1341.36 355.531Z" fill="#5F6368"/>
<path d="M1344.24 346.374H1345.04V349.908H1344.56C1344.36 349.877 1344.18 349.782 1344.03 349.637C1343.89 349.493 1343.79 349.307 1343.76 349.105V347.016C1343.76 346.87 1343.8 346.727 1343.89 346.61C1343.98 346.494 1344.1 346.41 1344.24 346.374Z" fill="#D9943A"/>
<path d="M1353.36 345.731C1353.04 343.161 1353.04 340.911 1348.56 340.911C1343.76 341.072 1344.08 343.321 1343.76 346.052L1344.08 346.374C1344.08 349.105 1346.48 351.193 1349.2 351.193C1350.8 351.193 1352.4 350.229 1353.04 348.462L1353.36 347.016V345.731Z" fill="#4E342E"/>
<path d="M1344.08 344.767C1345.04 343.161 1346.8 342.197 1348.72 342.036C1350.32 341.715 1351.92 342.357 1353.04 343.643C1352.72 342.036 1351.76 340.911 1348.72 340.911C1344.72 341.072 1344.24 342.679 1343.92 344.767H1344.08Z" fill="#83675D"/>
<path d="M1348.08 354.407C1346.48 354.407 1344.88 354.407 1343.44 354.085C1341.84 355.37 1340.25 356.174 1340.09 358.423V361.636L1339.61 373.203C1339.61 374.649 1339.13 376.416 1340.72 377.22C1342.16 374.489 1342 370.793 1342.16 367.902C1342.32 365.01 1341.2 361.154 1342.64 358.262C1344.46 357.536 1346.23 356.677 1347.92 355.692C1348.4 355.37 1349.2 354.728 1348.08 354.407Z" fill="#80868B"/>
<path d="M1373.67 340.59C1371.59 340.429 1369.51 341.072 1368.07 342.518C1367.75 342.839 1367.59 343.321 1367.75 343.803L1368.39 343.321C1369.99 342.197 1371.59 341.715 1373.35 341.715C1375.27 341.393 1376.55 343.321 1377.35 344.928C1377.03 342.357 1375.75 340.59 1373.51 340.59H1373.67ZM1378.62 349.587L1379.74 352.479L1382.3 355.692C1382.16 354.166 1381.48 352.741 1380.38 351.675C1379.77 351.045 1379.23 350.344 1378.78 349.587H1378.62Z" fill="#FDE49D"/>
<path d="M1440.35 357.138C1440.35 357.138 1489.61 380.754 1496.8 377.38C1504 373.846 1495.36 348.944 1446.59 339.948L1442.43 338.984L1440.35 357.138Z" fill="#E8EAED"/>
<path d="M1438.75 349.266H1438.43C1437.47 348.944 1437.31 348.302 1438.11 343.643C1439.35 336.363 1441.06 329.172 1443.23 322.115C1444.51 317.616 1444.99 316.974 1446.11 317.295C1447.07 317.616 1447.23 318.259 1446.43 322.918C1445.19 330.197 1443.48 337.388 1441.31 344.446C1440.03 348.302 1439.55 349.266 1438.75 349.266Z" fill="#202124"/>
<path d="M1446.59 320.829H1446.43C1446.34 320.811 1446.26 320.775 1446.19 320.724C1446.12 320.673 1446.06 320.607 1446.02 320.532C1445.97 320.457 1445.94 320.373 1445.93 320.286C1445.92 320.199 1445.92 320.111 1445.95 320.026L1448.51 310.387C1448.57 310.216 1448.7 310.078 1448.86 310.003C1449.03 309.928 1449.22 309.921 1449.39 309.985C1449.56 310.049 1449.69 310.178 1449.77 310.344C1449.84 310.51 1449.85 310.698 1449.79 310.869L1447.23 320.347C1447.23 320.669 1446.91 320.829 1446.59 320.829Z" fill="#BDC1C6"/>
<path d="M1445.79 308.459C1446.91 309.102 1448.19 309.102 1449.31 308.459C1450.91 307.656 1451.71 309.102 1451.55 310.226C1451.55 311.511 1448.51 312.154 1446.11 311.351C1443.71 310.387 1445.79 308.62 1445.79 308.62V308.459Z" fill="#202124"/>
<path d="M1447.23 309.423H1449.79C1449.79 309.423 1451.07 321.954 1450.91 325.328C1450.75 326.292 1450.91 327.416 1451.39 328.541V335.61C1451.55 338.502 1452.51 343.643 1452.19 343.964C1451.55 344.285 1451.07 345.089 1451.07 345.731C1451.39 347.338 1451.39 348.944 1451.23 350.551L1450.91 351.354L1450.59 353.603V353.764H1454.74L1455.22 352.479L1454.9 348.784L1454.58 347.498L1455.22 347.016V345.731C1455.22 345.089 1455.22 344.285 1454.58 344.125C1455.22 340.911 1455.7 337.859 1455.86 334.807C1456.34 328.38 1454.74 324.846 1455.22 322.115C1456.16 317.603 1456.85 313.045 1457.3 308.459C1457.3 306.37 1457.3 303.157 1449.31 302.033C1441.31 301.069 1439.71 303.639 1440.03 307.334C1440.51 311.029 1441.63 314.243 1440.99 316.17L1437.95 323.4C1437.47 325.007 1436.19 333.843 1436.19 333.843L1435.55 334.646V337.377L1433.96 339.466L1433.48 341.072V341.715L1437.95 342.357L1439.07 337.216L1439.39 336.734C1439.71 336.092 1439.71 335.449 1439.55 334.807L1439.23 333.843L1442.75 324.685C1443.39 322.757 1443.07 321.472 1444.03 320.187C1444.99 318.902 1445.95 318.259 1447.23 309.423Z" fill="#3C4043"/>
<path d="M1443.39 318.098C1444.54 314.632 1445.45 311.089 1446.11 307.495L1440.03 307.013V307.334C1440.35 310.869 1441.63 314.243 1440.99 316.17L1437.95 323.4C1437.31 325.007 1436.19 333.843 1436.19 333.843L1435.55 334.646V337.377L1433.96 339.466L1433.48 341.072L1436.19 340.911C1436.19 340.911 1436.51 340.911 1437.95 333.521C1439.07 328.22 1440.99 322.918 1443.39 318.098Z" fill="#5F6368"/>
<path d="M1463.22 295.125L1458.26 280.666L1450.59 277.131L1446.27 276.489L1440.99 278.256C1440.99 278.256 1440.03 278.898 1439.71 281.469C1439.39 283.879 1437.79 292.554 1437.47 293.036C1437.31 293.357 1435.87 294.321 1438.11 299.623L1440.67 298.98C1440.1 302.001 1439.78 305.064 1439.71 308.138H1448.35C1450.59 308.298 1455.86 312.797 1456.82 312.636C1457.78 312.636 1459.06 310.708 1457.94 306.21L1456.34 299.462L1457.3 291.108L1460.34 296.892L1461.14 300.266L1462.1 299.784H1463.7L1463.22 294.964V295.125Z" fill="#4285F4"/>
<path opacity="0.5" d="M1458.1 280.505L1455.54 279.38L1457.14 281.63L1458.74 282.593L1458.1 280.505ZM1449.79 277.131L1449.31 276.971L1446.11 276.489L1440.99 278.256C1440.99 278.256 1440.03 278.898 1439.71 281.469C1439.39 283.879 1437.79 292.554 1437.47 293.036C1437.31 293.357 1435.87 294.321 1438.11 299.623L1440.67 298.338C1440.67 297.052 1440.51 295.767 1439.87 294.643L1438.75 293.679C1438.75 293.679 1440.99 280.666 1441.63 280.023C1442.43 280.826 1449.79 277.131 1449.79 277.131Z" fill="#D2E3FC"/>
<path d="M1438.43 301.711L1437.47 302.997C1437.29 303.34 1437.23 303.739 1437.31 304.121L1437.63 306.531C1437.63 306.611 1437.64 306.69 1437.68 306.762C1437.71 306.834 1437.76 306.897 1437.82 306.945C1437.89 306.992 1437.96 307.024 1438.04 307.035C1438.12 307.047 1438.2 307.04 1438.27 307.013C1438.71 306.853 1439.11 306.597 1439.45 306.264C1439.78 305.931 1440.03 305.528 1440.19 305.085V303.157L1441.15 304.282C1441.22 304.386 1441.32 304.46 1441.44 304.49C1441.56 304.52 1441.68 304.503 1441.79 304.443L1442.27 303.961L1440.99 301.872L1440.67 300.908V298.498C1440.59 298.327 1440.47 298.175 1440.33 298.054C1440.18 297.934 1440.01 297.848 1439.83 297.801C1439.64 297.755 1439.45 297.751 1439.26 297.788C1439.08 297.825 1438.9 297.903 1438.75 298.016C1437.63 298.98 1438.11 299.623 1438.11 299.623C1438.11 299.623 1438.75 301.23 1438.43 301.711ZM1446.27 276.489L1444.51 277.131C1444.51 280.344 1445.31 286.128 1449.31 286.449C1453.14 286.771 1453.62 281.951 1453.62 278.416L1450.43 277.131L1446.27 276.489Z" fill="#FFB74D"/>
<path d="M1451.07 280.826V276.97L1447.07 277.131L1445.63 278.256L1444.51 274.239C1444.51 274.239 1445.63 269.42 1447.39 269.259C1448.99 268.938 1450.27 268.938 1451.71 268.938L1453.62 273.757C1453.62 273.757 1453.31 279.38 1451.07 280.826Z" fill="#202124"/>
<path d="M1445.95 270.866V275.364C1445.95 276.167 1446.27 276.971 1446.75 277.452L1447.87 278.898C1448.19 279.22 1448.67 279.38 1449.15 279.38C1449.63 279.38 1450.11 279.22 1450.43 278.738L1451.39 277.452C1451.87 276.81 1452.19 276.167 1452.19 275.364V269.58C1451.94 269.092 1451.58 268.673 1451.13 268.364C1450.69 268.055 1450.17 267.865 1449.63 267.813C1449.17 267.743 1448.7 267.774 1448.26 267.904C1447.81 268.034 1447.4 268.26 1447.05 268.565C1446.7 268.871 1446.42 269.249 1446.23 269.674C1446.04 270.099 1445.94 270.56 1445.95 271.026V270.866Z" fill="#FFCC80"/>
<path d="M1445.95 280.505L1443.55 280.987C1443.4 281.01 1443.25 281.002 1443.11 280.966C1442.96 280.93 1442.83 280.865 1442.71 280.775C1442.59 280.685 1442.49 280.572 1442.41 280.443C1442.34 280.314 1442.29 280.171 1442.27 280.023C1441.95 278.416 1441.79 274.4 1445.47 269.58C1446.75 267.813 1447.55 266.528 1449.63 266.689C1453.15 266.849 1453.14 270.544 1453.78 271.508C1454.58 272.633 1456.98 277.292 1453.78 291.751C1453.78 291.751 1450.11 293.036 1449.79 287.895C1449.47 282.754 1451.71 277.774 1452.19 275.203C1452.67 272.633 1452.19 269.741 1449.47 270.062C1449.47 270.062 1447.87 269.58 1447.55 270.223C1447.23 270.866 1448.19 272.472 1447.39 273.436L1445.79 274.561C1445.63 276.167 1445.79 277.934 1446.59 279.541C1446.61 279.647 1446.61 279.756 1446.59 279.862C1446.57 279.969 1446.53 280.07 1446.47 280.16C1446.41 280.25 1446.34 280.327 1446.25 280.386C1446.16 280.445 1446.05 280.486 1445.95 280.505Z" fill="#3C4043"/>
<path d="M1447.71 323.561H1447.55C1447.46 323.542 1447.38 323.506 1447.31 323.455C1447.24 323.404 1447.18 323.339 1447.14 323.263C1447.09 323.188 1447.06 323.104 1447.05 323.017C1447.04 322.93 1447.04 322.842 1447.07 322.757L1450.27 309.262C1450.3 309.167 1450.35 309.08 1450.41 309.004C1450.48 308.928 1450.56 308.866 1450.65 308.822C1450.74 308.777 1450.83 308.75 1450.93 308.743C1451.03 308.736 1451.13 308.749 1451.23 308.78C1451.32 308.812 1451.41 308.862 1451.48 308.928C1451.56 308.993 1451.62 309.073 1451.66 309.162C1451.71 309.252 1451.74 309.349 1451.74 309.449C1451.75 309.549 1451.74 309.649 1451.71 309.744L1448.51 323.079C1448.35 323.4 1448.03 323.561 1447.71 323.561Z" fill="#DADCE0"/>
<path d="M1453.78 310.548H1452.35L1449.47 309.905C1448.35 309.584 1447.23 309.102 1446.27 308.298L1443.87 306.049C1442.99 305.361 1441.94 304.918 1440.83 304.764L1439.23 304.443C1439.15 304.432 1439.07 304.405 1438.99 304.363C1438.92 304.321 1438.86 304.265 1438.8 304.198C1438.7 304.062 1438.65 303.89 1438.67 303.72C1438.69 303.549 1438.78 303.394 1438.92 303.289C1439.05 303.183 1439.22 303.136 1439.39 303.157L1440.99 303.318C1442.43 303.479 1443.71 304.121 1444.83 304.925L1447.23 307.174C1448.03 307.816 1448.83 308.298 1449.79 308.459L1452.67 309.102C1453.78 309.262 1454.74 309.102 1455.86 308.78L1457.14 308.298C1458.26 307.977 1459.22 307.816 1460.34 307.977L1463.86 308.298C1464.05 308.298 1464.23 308.375 1464.37 308.51C1464.5 308.646 1464.58 308.83 1464.58 309.021C1464.58 309.213 1464.5 309.397 1464.37 309.533C1464.23 309.668 1464.05 309.744 1463.86 309.744L1460.18 309.262C1459.38 309.262 1458.58 309.262 1457.62 309.584L1456.18 310.226L1453.78 310.548Z" fill="#DADCE0"/>
<path d="M1462.26 307.013L1462.74 307.977V308.62L1461.3 310.226C1461.3 310.226 1460.82 312.154 1462.42 312.636L1463.54 311.993C1464.02 311.672 1464.5 311.19 1464.66 310.548L1465.14 309.744V309.102C1464.56 307.897 1464.23 306.584 1464.18 305.246L1463.7 299.784C1463.17 299.694 1462.63 299.694 1462.1 299.784C1461.73 299.829 1461.4 299.999 1461.14 300.266L1462.1 304.764V307.013H1462.26Z" fill="#FFB74D"/>
<path d="M1439.71 344.125L1433.32 342.839C1433.15 342.797 1433 342.688 1432.91 342.537C1432.82 342.387 1432.79 342.206 1432.84 342.036C1432.88 341.866 1432.99 341.719 1433.14 341.629C1433.29 341.538 1433.47 341.511 1433.64 341.554L1439.87 342.839C1440.04 342.839 1440.2 342.907 1440.32 343.028C1440.44 343.148 1440.51 343.311 1440.51 343.482C1440.51 343.652 1440.44 343.816 1440.32 343.936C1440.2 344.057 1440.04 344.125 1439.87 344.125H1439.71ZM1448.03 335.77L1450.59 336.413C1450.78 336.446 1450.96 336.522 1451.11 336.635C1451.27 336.747 1451.4 336.894 1451.49 337.064C1451.58 337.234 1451.64 337.423 1451.65 337.616C1451.65 337.809 1451.62 338.002 1451.55 338.18L1451.39 338.662C1451.07 339.305 1450.43 339.626 1449.79 339.466L1447.23 338.823C1447.04 338.79 1446.86 338.714 1446.7 338.601C1446.55 338.489 1446.42 338.342 1446.32 338.172C1446.23 338.002 1446.18 337.814 1446.17 337.62C1446.16 337.427 1446.19 337.234 1446.27 337.056L1446.43 336.574C1446.75 335.931 1447.39 335.61 1448.03 335.77Z" fill="#BDC1C6"/>
<path d="M1440.83 357.138H1440.35C1439.23 356.977 1439.07 356.174 1439.87 350.872C1441.31 342.89 1443.23 335.003 1445.63 327.256C1447.23 322.275 1447.71 321.633 1448.83 321.954C1449.95 322.115 1450.11 322.918 1449.15 328.059C1447.71 336.041 1445.78 343.928 1443.39 351.675C1442.11 356.174 1441.47 357.138 1440.67 357.138H1440.83Z" fill="#202124"/>
<path opacity="0.5" d="M1459.06 294.321L1460.34 296.892L1461.14 300.105L1462.1 299.784H1462.58L1462.26 296.571C1462.26 295.928 1460.18 294.964 1459.06 294.321Z" fill="#D2E3FC"/>
<path d="M1462.58 299.784H1462.1C1461.73 299.828 1461.4 299.999 1461.14 300.266C1461.62 301.711 1461.94 303.157 1462.1 304.764V307.013L1462.74 307.977V308.62L1461.14 310.226C1461.14 310.869 1461.14 311.511 1461.46 312.154C1462.26 311.672 1463.06 311.03 1463.06 310.708V307.013L1462.58 299.623V299.784Z" fill="#FFCC80"/>
<path d="M1449.63 266.689C1447.55 266.689 1446.75 267.813 1445.47 269.58C1441.95 274.239 1441.95 278.095 1442.27 279.862C1442.27 280.184 1442.59 280.184 1442.75 280.184C1444.35 279.541 1443.07 275.846 1443.39 274.239C1444.67 271.604 1446.53 269.296 1448.83 267.492C1449.15 267.492 1449.47 267.01 1449.63 266.689Z" fill="#80868B"/>
<defs>
<linearGradient id="paint0_linear" x1="386.194" y1="283.602" x2="386.194" y2="193.545" gradientUnits="userSpaceOnUse">
<stop stop-color="#F1F3F4"/>
<stop offset="0.15" stop-color="#E3E6E8"/>
<stop offset="0.44" stop-color="#CED1D5"/>
<stop offset="0.73" stop-color="#C1C5CA"/>
<stop offset="1" stop-color="#BDC1C6"/>
</linearGradient>
<linearGradient id="paint1_linear" x1="781.183" y1="291.073" x2="781.183" y2="38.5911" gradientUnits="userSpaceOnUse">
<stop stop-color="#F1F3F4"/>
<stop offset="0.12" stop-color="#E3E6E8"/>
<stop offset="0.36" stop-color="#CED1D5"/>
<stop offset="0.59" stop-color="#C1C5CA"/>
<stop offset="0.81" stop-color="#BDC1C6"/>
<stop offset="1" stop-color="#DADCE0"/>
</linearGradient>
<linearGradient id="paint2_linear" x1="153434" y1="29535.1" x2="153434" y2="9264.41" gradientUnits="userSpaceOnUse">
<stop stop-color="#F1F3F4"/>
<stop offset="0.12" stop-color="#E3E6E8"/>
<stop offset="0.36" stop-color="#CED1D5"/>
<stop offset="0.59" stop-color="#C1C5CA"/>
<stop offset="0.81" stop-color="#BDC1C6"/>
<stop offset="1" stop-color="#DADCE0"/>
</linearGradient>
<linearGradient id="paint3_linear" x1="1147.41" y1="287.074" x2="1147.41" y2="217.981" gradientUnits="userSpaceOnUse">
<stop stop-color="#BDC1C6"/>
<stop offset="1" stop-color="#8C9499"/>
</linearGradient>
<linearGradient id="paint4_linear" x1="138234" y1="19783.6" x2="138234" y2="13003.8" gradientUnits="userSpaceOnUse">
<stop stop-color="#BDC1C6"/>
<stop offset="1" stop-color="#8C9499"/>
</linearGradient>
<linearGradient id="paint5_linear" x1="43174.2" y1="14426" x2="43174.2" y2="10141.2" gradientUnits="userSpaceOnUse">
<stop stop-color="#BDC1C6"/>
<stop offset="1" stop-color="#8C9499"/>
</linearGradient>
<linearGradient id="paint6_linear" x1="187.369" y1="244.494" x2="213.662" y2="182.205" gradientUnits="userSpaceOnUse">
<stop stop-color="#BDC1C6"/>
<stop offset="0.05" stop-color="#C1C5C9"/>
<stop offset="0.41" stop-color="#DBDEE1"/>
<stop offset="0.74" stop-color="#EBEEEF"/>
<stop offset="1" stop-color="#F1F3F4"/>
</linearGradient>
<linearGradient id="paint7_linear" x1="216.684" y1="255.443" x2="216.684" y2="253.836" gradientUnits="userSpaceOnUse">
<stop stop-color="#F8F9FA" stop-opacity="0"/>
<stop offset="0.15" stop-color="#F8F9FA" stop-opacity="0.2"/>
<stop offset="0.32" stop-color="#F8F9FA" stop-opacity="0.5"/>
<stop offset="0.48" stop-color="#F8F9FA" stop-opacity="0.7"/>
<stop offset="0.64" stop-color="#F8F9FA" stop-opacity="0.8"/>
<stop offset="0.78" stop-color="#F8F9FA" stop-opacity="0.9"/>
<stop offset="0.9" stop-color="#F8F9FA"/>
<stop offset="1" stop-color="#F8F9FA"/>
</linearGradient>
<linearGradient id="paint8_linear" x1="2501.45" y1="1682.19" x2="3036.2" y2="1682.19" gradientUnits="userSpaceOnUse">
<stop stop-color="#F8F9FA" stop-opacity="0"/>
<stop offset="0.15" stop-color="#F8F9FA" stop-opacity="0.2"/>
<stop offset="0.32" stop-color="#F8F9FA" stop-opacity="0.5"/>
<stop offset="0.48" stop-color="#F8F9FA" stop-opacity="0.7"/>
<stop offset="0.64" stop-color="#F8F9FA" stop-opacity="0.8"/>
<stop offset="0.78" stop-color="#F8F9FA" stop-opacity="0.9"/>
<stop offset="0.9" stop-color="#F8F9FA"/>
<stop offset="1" stop-color="#F8F9FA"/>
</linearGradient>
<linearGradient id="paint9_linear" x1="2303.29" y1="725.042" x2="2303.29" y2="719.933" gradientUnits="userSpaceOnUse">
<stop stop-color="#F8F9FA" stop-opacity="0"/>
<stop offset="0.15" stop-color="#F8F9FA" stop-opacity="0.2"/>
<stop offset="0.32" stop-color="#F8F9FA" stop-opacity="0.5"/>
<stop offset="0.48" stop-color="#F8F9FA" stop-opacity="0.7"/>
<stop offset="0.64" stop-color="#F8F9FA" stop-opacity="0.8"/>
<stop offset="0.78" stop-color="#F8F9FA" stop-opacity="0.9"/>
<stop offset="0.9" stop-color="#F8F9FA"/>
<stop offset="1" stop-color="#F8F9FA"/>
</linearGradient>
<linearGradient id="paint10_linear" x1="2590.03" y1="725.042" x2="2590.03" y2="719.933" gradientUnits="userSpaceOnUse">
<stop stop-color="#F8F9FA" stop-opacity="0"/>
<stop offset="0.15" stop-color="#F8F9FA" stop-opacity="0.2"/>
<stop offset="0.32" stop-color="#F8F9FA" stop-opacity="0.5"/>
<stop offset="0.48" stop-color="#F8F9FA" stop-opacity="0.7"/>
<stop offset="0.64" stop-color="#F8F9FA" stop-opacity="0.8"/>
<stop offset="0.78" stop-color="#F8F9FA" stop-opacity="0.9"/>
<stop offset="0.9" stop-color="#F8F9FA"/>
<stop offset="1" stop-color="#F8F9FA"/>
</linearGradient>
<linearGradient id="paint11_linear" x1="206.367" y1="328.769" x2="186.885" y2="244.478" gradientUnits="userSpaceOnUse">
<stop stop-color="white" stop-opacity="0"/>
<stop offset="0.09" stop-color="white" stop-opacity="0.1"/>
<stop offset="0.26" stop-color="white" stop-opacity="0.2"/>
<stop offset="0.5" stop-color="white" stop-opacity="0.4"/>
<stop offset="0.78" stop-color="white" stop-opacity="0.7"/>
<stop offset="1" stop-color="white"/>
</linearGradient>
<linearGradient id="paint12_linear" x1="385.394" y1="162.571" x2="433.369" y2="162.571" gradientUnits="userSpaceOnUse">
<stop stop-color="#F1F3F4" stop-opacity="0"/>
<stop offset="0.22" stop-color="#F1F3F4" stop-opacity="0.3"/>
<stop offset="0.5" stop-color="#F1F3F4" stop-opacity="0.6"/>
<stop offset="0.73" stop-color="#F1F3F4" stop-opacity="0.8"/>
<stop offset="0.91" stop-color="#F1F3F4" stop-opacity="0.9"/>
<stop offset="1" stop-color="#F1F3F4"/>
</linearGradient>
<radialGradient id="paint13_radial" cx="0" cy="0" r="1" gradientUnits="userSpaceOnUse" gradientTransform="translate(95.7905 282.768) scale(413.474 415.502)">
<stop stop-color="#BDC1C6"/>
<stop offset="1" stop-color="#9DA5AB"/>
</radialGradient>
<linearGradient id="paint14_linear" x1="20723.8" y1="1960.57" x2="20082.7" y2="1862" gradientUnits="userSpaceOnUse">
<stop stop-color="#BDC1C6"/>
<stop offset="0.05" stop-color="#C1C5C9"/>
<stop offset="0.41" stop-color="#DBDEE1"/>
<stop offset="0.74" stop-color="#EBEEEF"/>
<stop offset="1" stop-color="#F1F3F4"/>
</linearGradient>
<linearGradient id="paint15_linear" x1="15621.3" y1="2111.77" x2="15185.7" y2="1961.88" gradientUnits="userSpaceOnUse">
<stop stop-color="#BDC1C6"/>
<stop offset="0.05" stop-color="#C1C5C9"/>
<stop offset="0.41" stop-color="#DBDEE1"/>
<stop offset="0.74" stop-color="#EBEEEF"/>
<stop offset="1" stop-color="#F1F3F4"/>
</linearGradient>
</defs>
</svg>
