<svg width="203" height="64" viewBox="0 0 203 64" fill="none" xmlns="http://www.w3.org/2000/svg">
<path d="M96.7996 42.7896C93.9624 42.7896 91.5702 41.8538 89.6788 39.927C87.7873 38.0003 86.8416 35.6332 86.8416 32.8808C86.8416 30.0733 87.7873 27.7062 89.6788 25.8346C91.5702 23.9079 93.9067 22.972 96.6327 22.972C99.5255 22.972 101.806 23.9629 103.531 25.9447C105.256 27.9264 106.146 30.5137 106.146 33.7065H90.3463C90.5132 35.5231 91.2364 36.9544 92.516 38.0554C93.7399 39.1564 95.2419 39.7069 96.9108 39.7069C99.1361 39.7069 101.028 38.9362 102.585 37.3948L104.755 39.7069C102.641 41.7437 100.026 42.7896 96.7996 42.7896ZM96.3545 25.9447C95.0194 25.9447 93.7955 26.33 92.6829 27.1557C91.5702 27.9815 90.7914 29.1925 90.4576 30.7339H102.307C102.085 29.1925 101.417 27.9815 100.304 27.1557C99.1917 26.33 97.9122 25.9447 96.3545 25.9447Z" fill="white"/>
<path d="M107.036 42.4593L114.602 32.6606L107.425 23.1922H111.264L116.66 30.2935L122.001 23.1922H125.839L118.607 32.6606L126.173 42.4593H122.279L116.549 34.9726L110.819 42.4593H107.036Z" fill="white"/>
<path d="M137.188 42.7896C134.351 42.7896 131.959 41.8537 130.067 39.927C128.176 38.0003 127.23 35.6332 127.23 32.8808C127.23 30.0733 128.176 27.7062 130.067 25.8346C131.959 23.9078 134.351 22.972 137.188 22.972C140.137 22.972 142.64 23.9629 144.643 25.9997L142.473 28.3117C140.971 26.8254 139.191 26.0547 137.188 26.0547C135.297 26.0547 133.739 26.7153 132.515 28.0365C131.291 29.3577 130.679 30.9541 130.679 32.8808C130.679 34.8075 131.291 36.4039 132.515 37.7251C133.739 39.0463 135.297 39.7068 137.188 39.7068C139.191 39.7068 140.971 38.9362 142.473 37.4498L144.643 39.7619C142.64 41.7436 140.137 42.7896 137.188 42.7896Z" fill="white"/>
<path d="M164.281 39.927C162.389 41.8537 159.941 42.7896 157.049 42.7896C154.156 42.7896 151.708 41.8537 149.816 39.927C147.869 38.0003 146.924 35.6332 146.924 32.8808C146.924 30.0733 147.869 27.7062 149.816 25.8346C151.764 23.9078 154.156 22.972 157.049 22.972C159.941 22.972 162.389 23.9078 164.281 25.8346C166.172 27.7613 167.118 30.1284 167.118 32.8808C167.173 35.6332 166.228 38.0003 164.281 39.927ZM152.264 37.7251C153.488 39.0463 155.101 39.7068 157.049 39.7068C158.996 39.7068 160.609 39.0463 161.833 37.7801C163.057 36.514 163.669 34.8626 163.669 32.8808C163.669 30.9541 163.057 29.3026 161.833 27.9815C160.609 26.6603 158.996 26.0547 157.049 26.0547C155.101 26.0547 153.488 26.7153 152.264 28.0365C151.04 29.3577 150.373 30.9541 150.373 32.8808C150.373 34.8075 151.04 36.4039 152.264 37.7251Z" fill="white"/>
<path d="M171.735 42.4593V23.1922H175.073V25.5043C176.408 23.8528 178.188 23.0271 180.469 23.0271C180.97 23.0271 181.415 23.0821 181.86 23.1372V26.5502C181.304 26.385 180.692 26.33 179.969 26.33C178.856 26.33 177.91 26.6052 177.02 27.1007C176.13 27.6512 175.518 28.3668 175.073 29.3577V42.4593H171.735Z" fill="white"/>
<path d="M203 42.4593H199.662V40.5326C198.049 42.0189 195.991 42.7896 193.487 42.7896C190.65 42.7896 188.258 41.8537 186.366 39.927C184.475 38.0003 183.529 35.6332 183.529 32.8808C183.529 30.0733 184.475 27.7062 186.366 25.8346C188.258 23.9078 190.594 22.972 193.487 22.972C195.991 22.972 198.049 23.7427 199.662 25.229V15.1001H203V42.4593ZM193.543 25.9997C191.651 25.9997 190.094 26.6603 188.87 27.9815C187.646 29.3026 187.034 30.899 187.034 32.8257C187.034 34.7525 187.646 36.3489 188.87 37.67C190.094 38.9912 191.651 39.6518 193.543 39.6518C194.878 39.6518 196.102 39.3765 197.159 38.771C198.216 38.1655 199.05 37.4498 199.607 36.514V29.1375C199.05 28.2017 198.216 27.486 197.159 26.8805C196.102 26.33 194.878 25.9997 193.543 25.9997Z" fill="white"/>
<path fill-rule="evenodd" clip-rule="evenodd" d="M32 64C49.6731 64 64 49.6731 64 32C64 14.3269 49.6731 0 32 0C14.3269 0 0 14.3269 0 32C0 49.6731 14.3269 64 32 64ZM34.7473 14.0782C34.7332 14.9942 34.3213 15.7423 33.5134 16.2838C33.4571 16.3216 33.398 16.3552 33.3389 16.3887C33.2857 16.4189 33.2324 16.4491 33.1813 16.4823C32.7338 16.7737 32.4872 17.1812 32.4523 17.705C32.4463 17.7935 32.4467 17.8819 32.4471 17.9703L32.4473 18.0367L32.4471 19.0003C32.4469 19.6427 32.4468 20.2851 32.4473 20.9275L32.4473 20.9567C32.4472 21.0737 32.4472 21.1905 32.4556 21.306C32.4855 21.7006 32.6499 22.0364 32.9463 22.3075C32.9936 22.3507 33.0442 22.3904 33.0948 22.4301C33.1454 22.4698 33.1963 22.5097 33.2436 22.5529C34.2616 23.4802 33.8921 25.0829 32.6109 25.5268C31.5547 25.8932 30.3931 25.2363 30.2071 24.1613C30.0958 23.5197 30.2934 22.9774 30.7792 22.5327C30.8244 22.4913 30.8734 22.4536 30.9223 22.4162L30.9668 22.3818C31.3446 22.0856 31.5232 21.6926 31.5605 21.231C31.5649 21.1759 31.5648 21.1209 31.5647 21.0653L31.5647 21.0413L31.5649 20.2593C31.5652 19.4773 31.5655 18.6952 31.563 17.9132C31.5622 17.772 31.5464 17.6291 31.5198 17.4903C31.4385 17.065 31.201 16.7358 30.8373 16.492C30.7827 16.4554 30.7255 16.4228 30.6684 16.3902C30.6135 16.3589 30.5585 16.3275 30.506 16.2927C29.6508 15.7189 29.2207 14.9296 29.2589 13.9168C29.2987 12.8402 30.0668 11.7935 31.294 11.4706C32.7778 11.08 34.2815 11.9605 34.6651 13.3817C34.7241 13.5988 34.7348 13.8191 34.7473 14.0782ZM31.9915 27.7494C34.4085 27.7284 36.3689 29.6589 36.3855 31.9831C36.4013 34.1629 34.6252 36.2394 32.0363 36.262C29.5694 36.2838 27.614 34.3655 27.619 32.0025C27.6239 29.5273 29.7014 27.7349 31.9915 27.7494ZM48.6602 43.5689C50.0543 43.2485 50.7734 42.0283 50.7493 40.971C50.7431 40.9155 50.7387 40.8595 50.7343 40.8035C50.725 40.6862 50.7156 40.5687 50.6903 40.4545C50.3076 38.7162 48.5905 38.0633 47.3898 38.3756C47.1374 38.4418 46.8941 38.5249 46.6641 38.6452C46.6393 38.6582 46.6146 38.6715 46.5898 38.6848C46.515 38.725 46.44 38.7654 46.3627 38.7993C45.906 39.0011 45.4493 38.9962 44.996 38.7888C44.9221 38.7557 44.8515 38.717 44.7809 38.6774L41.9952 37.1134L41.9747 37.1019C41.9111 37.0663 41.8474 37.0308 41.7868 36.9907C41.4347 36.7591 41.2047 36.4452 41.1126 36.04C41.0998 35.9845 41.0909 35.9282 41.0821 35.872C41.0737 35.8189 41.0653 35.7658 41.0536 35.7132C40.8228 34.6786 39.7757 34.1112 38.7893 34.3687C37.8012 34.6261 37.2192 35.6284 37.5164 36.5945C37.7838 37.4653 38.7594 38.0964 39.8463 37.759C39.8915 37.7453 39.9357 37.7285 39.9799 37.7118C40.0266 37.694 40.0734 37.6763 40.1211 37.6622C40.357 37.5936 40.5953 37.5661 40.8427 37.6C41.0893 37.6339 41.3118 37.7227 41.5244 37.8422C42.106 38.1694 42.688 38.496 43.2698 38.8226L44.3525 39.4304L44.3671 39.4386C44.4328 39.4753 44.4982 39.5119 44.5592 39.5555C44.9935 39.8646 45.2235 40.281 45.2484 40.8032C45.2511 40.8551 45.2511 40.9073 45.2511 40.9595C45.2511 41.0021 45.2511 41.0448 45.2526 41.0872C45.3132 42.6739 46.8293 43.9902 48.6602 43.5689ZM50.7418 23.0032C50.7725 24.1775 49.9381 25.3929 48.4875 25.6567C47.9146 25.7609 47.3533 25.6906 46.8227 25.4421C46.7513 25.4086 46.6821 25.3713 46.6128 25.3339C46.5686 25.31 46.5239 25.2858 46.479 25.2629C45.95 24.9918 45.4219 24.9926 44.8947 25.2694C44.7951 25.3218 44.6954 25.3767 44.5974 25.4316L42.0641 26.852L42.0502 26.8602C42.041 26.8658 42.0317 26.8713 42.0218 26.8762C41.4655 27.1627 41.1483 27.5993 41.0594 28.2151C40.9664 28.8599 40.582 29.3231 39.9651 29.5644C38.6764 30.0688 37.4525 29.127 37.4384 27.9584C37.4301 27.2668 37.8743 26.4452 38.8068 26.2088C39.1115 26.1313 39.4179 26.1313 39.7218 26.212C39.8255 26.2396 39.9275 26.2766 40.0288 26.3134L40.0896 26.3355C40.5098 26.4872 40.9191 26.4565 41.3185 26.2677C41.4356 26.2128 41.5485 26.1499 41.6614 26.0869C42.52 25.6059 43.3785 25.1241 44.2371 24.6423L44.2844 24.6158C44.3532 24.5774 44.4218 24.539 44.4887 24.497C44.9744 24.1896 45.221 23.7481 45.2467 23.1904L45.2512 23.0879C45.2602 22.87 45.2692 22.6538 45.3173 22.4375C45.5805 21.2689 46.6541 20.4183 47.8515 20.3618C49.0579 20.3045 50.2436 21.0236 50.6289 22.2559C50.7061 22.5012 50.7368 22.7498 50.7418 23.0032ZM29.3842 50.7637C29.7919 52.0162 30.9801 52.6465 31.9915 52.6223C32.3352 52.6231 32.5071 52.6013 32.8085 52.5125C34.1611 52.1058 35.1259 50.6919 34.6103 49.1101C34.4177 48.5177 34.0324 48.0553 33.4977 47.7139C33.4493 47.6828 33.399 47.6542 33.3488 47.6257C33.2869 47.5906 33.225 47.5554 33.1664 47.5154C32.7263 47.2151 32.4813 46.8068 32.4548 46.2814C32.4496 46.1819 32.45 46.0828 32.4504 45.9835L32.4506 45.9021V43.4374L32.4503 43.2696C32.4498 43.1202 32.4493 42.9707 32.4523 42.8216C32.4614 42.3358 32.6541 41.9339 33.0418 41.6232L33.074 41.5976C33.1641 41.5263 33.2547 41.4545 33.3341 41.373C33.8813 40.8145 33.9917 39.98 33.6089 39.3094C33.2527 38.6847 32.5245 38.2352 31.6278 38.42C30.9394 38.5613 30.4595 38.9793 30.2594 39.6387C30.0551 40.3117 30.2137 40.9202 30.731 41.4246C30.7863 41.4784 30.8475 41.5269 30.9086 41.5753C30.9484 41.6069 30.9883 41.6385 31.0266 41.6716C31.2915 41.8992 31.4526 42.1841 31.5248 42.5198C31.5622 42.6917 31.5697 42.8636 31.5697 43.0379C31.5688 44.033 31.5688 45.0281 31.5688 46.0231L31.5691 46.0774C31.5695 46.138 31.57 46.1994 31.5655 46.2596C31.524 46.8165 31.2716 47.2539 30.7825 47.5549C30.7359 47.5838 30.6884 47.6113 30.641 47.6388C30.5627 47.6842 30.4845 47.7296 30.4105 47.7809C29.4673 48.4346 29.0081 49.6056 29.3842 50.7637ZM13.2552 40.9824C13.2461 39.842 14.0432 38.6807 15.3933 38.3756C16.0401 38.2296 16.6512 38.3191 17.2416 38.5943C17.302 38.6227 17.3603 38.6551 17.4185 38.6875C17.473 38.7179 17.5275 38.7482 17.5837 38.7751C18.0677 39.0084 18.5543 39.0043 19.0384 38.7743C19.1222 38.7346 19.2027 38.6889 19.2834 38.643L19.3365 38.6129L21.9545 37.1457L22.0047 37.1178C22.0585 37.088 22.1128 37.058 22.1646 37.0255C22.5814 36.7616 22.8438 36.4 22.916 35.9142C22.9343 35.7899 22.96 35.6648 22.9982 35.5446C23.2531 34.7359 24.0303 34.3074 24.717 34.3025C25.4045 34.2969 26.219 34.6859 26.4789 35.5526C26.8468 36.7793 25.916 37.8349 24.7917 37.8503C24.5634 37.8535 24.3375 37.8349 24.1216 37.7494C24.0312 37.7139 23.9406 37.6783 23.8468 37.6517C23.4391 37.5363 23.0431 37.5702 22.6611 37.747C22.597 37.7763 22.5356 37.8113 22.4742 37.8462L22.4385 37.8664L22.4054 37.885L19.745 39.3764C19.7038 39.3993 19.6631 39.4227 19.6222 39.4462L19.5764 39.4724C19.0442 39.7815 18.7835 40.2463 18.7478 40.8395C18.7442 40.8984 18.7438 40.9577 18.7434 41.0168C18.7431 41.0524 18.7429 41.0882 18.742 41.1236C18.7212 42.0581 18.0736 43.2542 16.6562 43.5697C14.7398 43.9967 13.2494 42.569 13.2552 40.9824ZM15.9255 20.3577C14.4301 20.4045 13.2485 21.6022 13.2585 23.2631C13.3158 24.1096 13.7941 24.9401 14.8071 25.4267C15.5975 25.8068 16.4063 25.7899 17.2059 25.4283C17.2744 25.3974 17.3406 25.3616 17.407 25.3258C17.4685 25.2926 17.5301 25.2593 17.5936 25.2298C17.91 25.0837 18.2396 25.0321 18.5892 25.0894C18.8358 25.1297 19.0517 25.233 19.2634 25.3517C20.1599 25.8557 21.0572 26.3589 21.9545 26.8621L21.957 26.8635L21.9653 26.8681C22.05 26.9157 22.1347 26.9633 22.2152 27.0166C22.5972 27.2684 22.8338 27.6138 22.911 28.0585C22.9165 28.0895 22.9214 28.1205 22.9262 28.1516C22.936 28.2143 22.9459 28.277 22.9609 28.3385C23.1585 29.1569 23.9398 29.7573 24.8772 29.6952C25.9558 29.6233 26.8924 28.5701 26.4532 27.3249C26.1435 26.446 25.1463 25.9481 24.2038 26.2346C24.1313 26.2566 24.0603 26.2823 23.9893 26.3079C23.9537 26.3207 23.9182 26.3336 23.8825 26.3459C23.4781 26.4872 23.0837 26.4533 22.6993 26.2765C22.592 26.2273 22.4895 26.1701 22.3868 26.1127L22.3564 26.0958C21.4978 25.6148 20.6393 25.133 19.7807 24.6512L19.7373 24.6269C19.6535 24.5802 19.5691 24.5332 19.4884 24.4809C19.1032 24.2323 18.8649 23.8861 18.7835 23.4438C18.7674 23.357 18.7627 23.2683 18.7579 23.1795C18.7551 23.1263 18.7522 23.0731 18.747 23.0201C18.7407 22.9591 18.7365 22.8976 18.7322 22.836C18.7222 22.6917 18.7121 22.5473 18.6772 22.4092C18.3293 21.0316 17.0705 20.3222 15.9255 20.3577ZM21.3824 31.9856C21.4131 33.4407 20.21 34.761 18.5593 34.7731C16.9443 34.7852 15.7046 33.5157 15.6889 32.0243C15.6748 30.6685 16.7533 29.2554 18.5186 29.2384C20.2424 29.2223 21.4015 30.6007 21.3824 31.9856ZM45.4402 34.773C47.0884 34.7875 48.3156 33.4769 48.3057 32.0259C48.3405 30.6216 47.1947 29.2472 45.4842 29.2384C43.6891 29.2287 42.618 30.6636 42.6113 31.9831C42.6038 33.4228 43.7779 34.7585 45.4402 34.773ZM28.1114 20.6943C28.1288 22.1784 26.8468 23.4536 25.2501 23.4406C23.6932 23.4285 22.4087 22.1962 22.4228 20.6539C22.4377 19.0608 23.7887 17.8915 25.2916 17.9052C26.9157 17.9205 28.152 19.2368 28.1114 20.6943ZM38.6739 23.4406C40.2748 23.4688 41.5601 22.2236 41.5751 20.7306C41.6116 19.127 40.2798 17.9301 38.7902 17.9067C37.1727 17.8801 35.9122 19.1455 35.884 20.6184C35.8541 22.1558 37.1229 23.4131 38.6739 23.4406ZM38.727 46.0966C37.1154 46.1047 35.8757 44.8037 35.8832 43.3293C35.8915 41.7612 37.2208 40.5595 38.7362 40.5644C40.2739 40.5692 41.5817 41.7814 41.5767 43.3382C41.5726 44.9337 40.2225 46.1208 38.727 46.0966ZM25.2559 46.1006C26.8924 46.1038 28.1379 44.7892 28.1105 43.347C28.1421 41.8185 26.8376 40.5692 25.2833 40.5651C23.7189 40.5619 22.4253 41.7846 22.422 43.3204C22.4186 44.9377 23.7771 46.0974 25.2559 46.1006Z" fill="white"/>
</svg>
